<?xml version="1.0" encoding="UTF-8" standalone="no"?>
<svg width="66.956" height="92.8" xmlns="http://www.w3.org/2000/svg" version="1.1"><path fill="#6fc4a9" d="m40.806 81.95q.6-6.4 5.7-9.9 12 6.8 11.9 14.35-.05 2.9-1.4 4.85l-3.95.1q-2.7-8.3-12.25-9.4"/><path fill="#6fc4a9" d="m12.656 89.45q7.4-5.35 5.45-14.8 6.2-1.4 11.2 2.25-2.7 13.5-9.9 15.75l-5.15.15q-2.2-1.2-1.6-3.35"/><path fill="#6fc4a9" d="m49.756 52.85h.3q12.65 1.45 15.6 13.65.25 1.05-.3 1.85-.5.9-1.55 1.2-1 .25-1.85-.3-.9-.55-1.15-1.55-2-7.95-8.7-5.95l-2.35-8.9m-33.8 0-2.35 8.9q-6.7-2-8.7 5.95-.25 1-1.1 1.55-.9.55-1.9.3-1-.3-1.55-1.2-.55-.8-.25-1.9 2.9499-12.15 15.6-13.6h.25"/><path fill="#6fc4a9" d="m49.556 14.4q6.3 6.3 6.3 15.2v40.4q0 5.45-6.3 9.3-6.3 3.8-15.2 3.8t-15.2-3.8q-6.3-3.85-6.3-9.3v-40.4q0-8.9 6.3-15.2t15.2-6.3 15.2 6.3"/><path fill="#8bcfba" fill-opacity=".50196" d="m46.706 65.25q.85-.85 2.05-.85t2.05.85.85 2.05-.85 2.05-2.05.85-2.05-.85-.85-2.05.85-2.05m-9.65 13.8q-1.65 0-2.8-1.15t-1.15-2.8 1.15-2.8 2.8-1.15 2.8 1.15 1.15 2.8-1.15 2.8-2.8 1.15m6.8-5.05q0-.85.6-1.45t1.45-.6 1.45.6.6 1.45-.6 1.45-1.45.6-1.45-.6-.6-1.45"/></svg>
