<?xml version="1.0" encoding="UTF-8" standalone="no"?>
<svg version="1.1" height="92.073" xmlns="http://www.w3.org/2000/svg" width="66.25"><path fill="#e0d1af" d="m14.8 63.8q-4.8-5.1-10.5.85-.75.75-1.75.75-1.05.05-1.8-.7t-.75-1.8q0-.95.7-1.75 8.65-9.05 20.3-4l.3.15-6.5 6.5m28.25-6.5.25-.2q11.65-5.05 20.3 4 .7.8.75 1.8-.05 1-.8 1.75t-1.8.7q-1 0-1.75-.75-5.65-5.9-10.45-.8l-6.5-6.5"/><path fill="#e0d1af" d="m19.2 17.4q6.3-6.3 15.2-6.3t15.2 6.3 6.3 15.2v38.8h-.3q-1.15 3.95-6 6.9-6.3 3.8-15.2 3.8t-15.2-3.8q-4.85-2.95-5.95-6.9h-.35v-38.8q0-8.9 6.3-15.2"/><path fill="#af9f7a" d="m45.85 26.45h.15l.75.05q1.5.2 2.7 1.4 1.5 1.5 1.5 3.5t-1.5 3.4q-1.4 1.45-3.3 1.5h-18.05q-1.95-.05-3.4-1.5-1.4-1.4-1.4-3.4t1.4-3.5q1.35-1.3 3.15-1.4l.25-.05h.15v.05h17.6v-.05m-15.75 16.2q.4-1.45 1.9-2.55 2.1-1.65 5.1-1.65 2.95 0 5.05 1.65 1.35 1.1 1.95 2.45v.8l-.6.5q-.4.2-.8 0l-.5-.55q-.4-.9-1.3-1.65-1.6-1.2-3.8-1.2-2.3 0-3.85 1.2-.9.7-1.2 1.6l-.45.55-.85.1-.55-.5q-.2-.35-.1-.75"/><path fill="#e0d1af" d="m52.65 91.15q-.9-9.05-10.15-12.1 1.9-6.1 7.6-8.55 10.35 9.1 8.7 16.45-.65 2.85-2.4 4.55-2.2 1.3-3.75-.35m-18.75.35q-2.2 1.3-3.75-.35-.9-9.05-10.15-12.1 1.9-6.1 7.6-8.55 10.35 9.1 8.7 16.45-.65 2.85-2.4 4.55"/><path fill="#fff" fill-opacity=".2" d="m54.5 22.2q0-3.9-2.75-6.65-2.75-2.8-6.65-2.8t-6.65 2.8q-2.8 2.75-2.8 6.65t2.8 6.65q2.75 2.75 6.65 2.75t6.65-2.75 2.75-6.65m-20.85-17.2q11.4 0 19.55 8.1 8.05 8.05 8.05 19.45 0 11.45-8.05 19.55-8.15 8.05-19.55 8.05t-19.45-8.05q-8.15-8.1-8.15-19.55 0-11.4 8.15-19.45 8.05-8.1 19.45-8.1"/><path fill="#fff" fill-opacity=".30196" d="m54.5 22.2q0 3.9-2.75 6.65t-6.65 2.75-6.65-2.75q-2.8-2.75-2.8-6.65t2.8-6.65q2.75-2.8 6.65-2.8t6.65 2.8q2.75 2.75 2.75 6.65"/><path fill="#fff" d="m10.65 9.55q9.5-9.55 23-9.55t23.1 9.55q9.5 9.5 9.5 23 0 13.55-9.5 23.1-9.6 9.5-23.1 9.5t-23-9.5q-9.6-9.55-9.6-23.1 0-13.5 9.6-23m23-4.55q-11.4 0-19.45 8.1-8.15 8.05-8.15 19.45 0 11.45 8.15 19.55 8.05 8.05 19.45 8.05t19.55-8.05q8.05-8.1 8.05-19.55 0-11.4-8.05-19.45-8.15-8.1-19.55-8.1"/></svg>
