<?xml version="1.0" encoding="UTF-8" standalone="no"?>
<svg height="92.073" width="66.25" version="1.1" xmlns="http://www.w3.org/2000/svg"><path fill="#8db5e7" d="m14.15 29.6q0-8.9 6.3-15.2 5.2-5.15 12.15-6.05v-.2l1.05-.05.95.05v.15q7.05.9 12.25 6.1 6.3 6.3 6.3 15.2v40.4q0 5.45-6.3 9.3-5.2 3.15-12.25 3.7v.1h-2v-.1q-6.95-.6-12.15-3.7-6.3-3.85-6.3-9.3v-40.4"/><path fill="#8db5e7" d="m64.35 70.4q-.05 1-.8 1.75t-1.8.7q-1 0-1.75-.75-5.65-5.9-10.45-.8l-6.5-6.5.25-.2q11.65-5.05 20.3 4 .7.8.75 1.8m-43.05-5.6-6.5 6.5q-4.8-5.1-10.5.85-.75.75-1.75.75-1.05.05-1.8-.7t-.75-1.8q0-.95.7-1.75 8.65-9.05 20.3-4l.3.15"/><path fill="#8db5e7" d="m30.15 91.15q-.9-9.05-10.15-12.1 1.9-6.1 7.6-8.55 10.35 9.1 8.7 16.45-.65 2.85-2.4 4.55-2.2 1.3-3.75-.35m28.65-4.2q-.65 2.85-2.4 4.55-2.2 1.3-3.75-.35-.9-9.05-10.15-12.1 1.9-6.1 7.6-8.55 10.35 9.1 8.7 16.45"/><path fill="#4f719d" d="m38.9 33.2q1 0 1.7.8.75.7.75 1.75t-.75 1.75q-.7.75-1.7.75-1.1 0-1.85-.75-.7-.7-.7-1.75t.7-1.75q.75-.8 1.85-.8m-5.05 6.8q0 1.1-.8 1.75-.65.8-1.75.8-1 0-1.8-.8-.7-.65-.7-1.75 0-1 .7-1.75.8-.75 1.8-.75 1.1 0 1.75.75.8.75.8 1.75m-2.1 10.55q-.2-.35-.1-.75.4-1.45 1.9-2.55 2.1-1.65 5.1-1.65 2.95 0 5.05 1.65 1.35 1.1 1.95 2.45v.8l-.6.5q-.4.2-.8 0l-.5-.55q-.4-.9-1.3-1.65-1.6-1.2-3.8-1.2-2.3 0-3.85 1.2-.9.7-1.2 1.6l-.45.55-.85.1-.55-.5m12.8-12.3q.75-.75 1.85-.75.95 0 1.7.75.8.75.8 1.75 0 1.1-.8 1.75-.75.8-1.7.8-1.1 0-1.85-.8-.75-.65-.75-1.75 0-1 .75-1.75"/><path fill-opacity=".2" fill="#fff" d="m14.2 13.1q8.05-8.1 19.45-8.1t19.55 8.1q8.05 8.05 8.05 19.45 0 11.45-8.05 19.55-8.15 8.05-19.55 8.05t-19.45-8.05q-8.15-8.1-8.15-19.55 0-11.4 8.15-19.45m21.45 9.1q0 3.9 2.8 6.65 2.75 2.75 6.65 2.75t6.65-2.75 2.75-6.65-2.75-6.65q-2.75-2.8-6.65-2.8t-6.65 2.8q-2.8 2.75-2.8 6.65"/><path fill-opacity=".30196" fill="#fff" d="m35.65 22.2q0-3.9 2.8-6.65 2.75-2.8 6.65-2.8t6.65 2.8q2.75 2.75 2.75 6.65t-2.75 6.65-6.65 2.75-6.65-2.75q-2.8-2.75-2.8-6.65"/><path fill="#fff" d="m1.05 32.55q0-13.5 9.6-23 9.5-9.55 23-9.55t23.1 9.55q9.5 9.5 9.5 23 0 13.55-9.5 23.1-9.6 9.5-23.1 9.5t-23-9.5q-9.6-9.55-9.6-23.1m13.15-19.45q-8.15 8.05-8.15 19.45 0 11.45 8.15 19.55 8.05 8.05 19.45 8.05t19.55-8.05q8.05-8.1 8.05-19.55 0-11.4-8.05-19.45-8.15-8.1-19.55-8.1t-19.45 8.1"/><path fill-opacity=".50196" fill="#a3c3eb" d="m28.4 78.05q-1.15-1.15-1.15-2.8t1.15-2.8 2.8-1.15 2.8 1.15 1.15 2.8-1.15 2.8-2.8 1.15-2.8-1.15m-4.6-2.45q-.6.6-1.45.6t-1.45-.6-.6-1.45.6-1.45 1.45-.6 1.45.6.6 1.45-.6 1.45m-1.4-8.15q0 1.2-.85 2.05t-2.05.85-2.05-.85-.85-2.05.85-2.05 2.05-.85 2.05.85.85 2.05"/></svg>
