<?xml version="1.0" encoding="UTF-8" standalone="no"?>
<svg xmlns:rdf="http://www.w3.org/1999/02/22-rdf-syntax-ns#" xmlns="http://www.w3.org/2000/svg" height="95.634" width="66.556" version="1.1" xmlns:cc="http://creativecommons.org/ns#" xmlns:dc="http://purl.org/dc/elements/1.1/">
	<path d="m35.306 83.1h-0.5l0.35 1.9 0.15-1.9m-14.55-68.7q1.5-1.5 3.15-2.65 3.8-2.6 8.3-3.35h4.25v0.15q4.1 0.8 7.55 3.2 1.65 1.15 3.15 2.65 4.2 4.2 5.6 9.6 0.7 2.65 0.7 5.6v31.7q7.45 1.35 11.65 9.1 0.55 0.9 0.2 1.85-0.25 1-1.2 1.55l-1.85 0.2q-1-0.25-1.5-1.2-3.1-5.5-7.3-4.6v2.05q-0.05 1.65-0.7 3.2-1.4 3.3-5.6 5.85l-2.3 1.25q-0.55 9.15-5.5 12.3-1.45 0.95-2.9 1.3v0.2h-0.05l-0.35-0.1-1.6 0.1v-3.5l-0.6 1.2q-1.5 2.45-3.6 3.45-2.7 0.65-3.45-1.85 1.75-8.5-5.85-14.25l-0.2-0.1q-6.2-3.8-6.3-9.1v-1q-5.8-3.45-9.8 3.6-0.5 0.9-1.45 1.2l-1.9-0.2q-0.9-0.55-1.2-1.55-0.3-0.95 0.25-1.9 4.8499-8.95 14.1-9.35v-31.4q0-8.9 6.3-15.2" fill="#8db5e7"/>
	<path fill-opacity=".50196" d="m20.756 74.5q0-0.85 0.6-1.45t1.45-0.6 1.45 0.6 0.6 1.45-0.6 1.45-1.45 0.6-1.45-0.6-0.6-1.45m1.25-8.75q0.85 0.85 0.85 2.05t-0.85 2.05-2.05 0.85-2.05-0.85-0.85-2.05 0.85-2.05 2.05-0.85 2.05 0.85m12.45 12.65q-1.15 1.15-2.8 1.15t-2.8-1.15-1.15-2.8 1.15-2.8 2.8-1.15 2.8 1.15 1.15 2.8-1.15 2.8" fill="#a3c3eb"/>
	<path d="m28.956 42.1q0.8-0.75 1.8-0.75 1.1 0 1.75 0.75 0.8 0.75 0.8 1.75 0 1.1-0.8 1.75-0.65 0.8-1.75 0.8-1 0-1.8-0.8-0.7-0.65-0.7-1.75 0-1 0.7-1.75m15.05 0q0.75-0.75 1.85-0.75 0.95 0 1.7 0.75 0.8 0.75 0.8 1.75 0 1.1-0.8 1.75-0.75 0.8-1.7 0.8-1.1 0-1.85-0.8-0.75-0.65-0.75-1.75 0-1 0.75-1.75m-5.65-5.05q1 0 1.7 0.8 0.75 0.7 0.75 1.75t-0.75 1.75q-0.7 0.75-1.7 0.75-1.1 0-1.85-0.75-0.7-0.7-0.7-1.75t0.7-1.75q0.75-0.8 1.85-0.8m-4.05 15.8q0.35-0.3 0.8-0.3h6.25l0.75 0.3 0.35 0.75-0.35 0.75q-0.3 0.35-0.75 0.35h-6.25q-0.45 0-0.8-0.35-0.25-0.3-0.25-0.75 0-0.4 0.25-0.75" fill="#4f719d"/>
	<path d="m1.3559 32.55q0-13.5 9.6-23 9.5-9.55 23-9.55t23.1 9.55q9.5 9.5 9.5 23 0 13.55-9.5 23.1-9.6 9.5-23.1 9.5t-23-9.5q-9.6001-9.55-9.6001-23.1m13.15-19.45q-8.15 8.05-8.15 19.45 0 11.45 8.15 19.55 8.05 8.05 19.45 8.05t19.55-8.05q8.05-8.1 8.05-19.55 0-11.4-8.05-19.45-8.15-8.1-19.55-8.1t-19.45 8.1" fill="#fff"/>
	<path fill-opacity=".2" d="m14.506 13.1q8.05-8.1 19.45-8.1t19.55 8.1q8.05 8.05 8.05 19.45 0 11.45-8.05 19.55-8.15 8.05-19.55 8.05t-19.45-8.05q-8.1501-8.1-8.1501-19.55 0-11.4 8.15-19.45m40.3 9.1q0-3.9-2.75-6.65-2.75-2.8-6.65-2.8t-6.65 2.8q-2.8 2.75-2.8 6.65t2.8 6.65q2.75 2.75 6.65 2.75t6.65-2.75 2.75-6.65" fill="#fff"/>
	<path fill-opacity=".30196" d="m54.806 22.2q0 3.9-2.75 6.65t-6.65 2.75-6.65-2.75q-2.8-2.75-2.8-6.65t2.8-6.65q2.75-2.8 6.65-2.8t6.65 2.8q2.75 2.75 2.75 6.65" fill="#fff"/>
</svg>
