<?xml version="1.0" encoding="UTF-8" standalone="no"?>
<svg xmlns="http://www.w3.org/2000/svg" height="91.8" width="65.2" version="1.1"><path fill="#8db5e7" d="m26.65 68.8q1 2 .05 4.7l-7.05 18.3h-8.35l3.5-18.3q.45-2.7 2.75-4.7 2.3-2.15 5.15-2.1 2.65-.05 3.95 2.1m11.3 0q1.85-2.15 4.55-2.1 2.8-.05 4.55 2.1 1.8 2 1.5 4.7l-1.35 18.3h-8.35l-2.2-18.3q-.2-2.7 1.3-4.7"/><path fill="#8db5e7" d="m52.1 29.6v40.4q0 5.45-6.3 9.3-5.25 3.15-12.25 3.7v.1h-2l-1-.05v-.15q-6.35-.7-11.15-3.6-6.3-3.85-6.3-9.3v-40.4q0-8.9 6.3-15.2 4.8-4.8 11.15-5.95v-.25l1-.05 1.05-.05.95.05v.15q7 .85 12.25 6.1 6.3 6.3 6.3 15.2"/><path fill="#8db5e7" d="m7.45 81.7q-.7.75-1.75.75t-1.8-.7q-.7-.7-.75-1.75-.3-12.55 11.55-17.2l.3-.1v9.2q-7-.2-6.85 8 0 1.05-.7 1.8m39.75-19 .3.1q11.85 4.65 11.55 17.2-.05 1.05-.75 1.75-.75.7-1.8.7t-1.75-.75-.7-1.8q.15-8.2-6.85-8v-9.2"/><path fill="#a3c3eb" d="m18.45 64.55q1.2 0 2.05.85t.85 2.05-.85 2.05-2.05.85-2.05-.85-.85-2.05.85-2.05 2.05-.85m4.9 9.6q0 .85-.6 1.45t-1.45.6-1.45-.6-.6-1.45.6-1.45 1.45-.6 1.45.6.6 1.45m6.8-2.85q1.65 0 2.8 1.15t1.15 2.8-1.15 2.8-2.8 1.15-2.8-1.15-1.15-2.8 1.15-2.8 2.8-1.15" fill-opacity=".50196"/></svg>
