<?xml version="1.0" encoding="UTF-8" standalone="no"?>
<svg version="1.1" xmlns="http://www.w3.org/2000/svg" width="20.885" height="9.4058"><path fill="#f3afc5" fill-opacity=".50196" d="m7.6789 5.6558 1.6-.2q0.8.2 1.2.95.45.75.25 1.55-.25.85-1 1.25l-1.55.2q-.8-.2-1.25-.95-.4-.75-.2-1.55.25-.8.95-1.25m-6.25-5.1q1.05-.6 2.25-.3 1.1.3 1.7 1.35t.35 2.2q-.35 1.15-1.4 1.75l-2.15.3q-1.2-.3-1.8-1.35t-.25-2.2q.25-1.15 1.3-1.75m12.05 5.35q-.8-1.4-.4-2.95.45-1.6 1.9-2.4 1.4-.85 2.95-.4 1.6.4 2.4 1.8.85 1.45.4 3.05-.4 1.55-1.8 2.4-1.45.8-3.05.4-1.55-.45-2.4-1.9"/></svg>
