<?xml version="1.0" encoding="UTF-8" standalone="no"?>
<svg xmlns:rdf="http://www.w3.org/1999/02/22-rdf-syntax-ns#" xmlns="http://www.w3.org/2000/svg" height="93.315" width="67.133" version="1.1" xmlns:cc="http://creativecommons.org/ns#" xmlns:dc="http://purl.org/dc/elements/1.1/">
	<path d="m58.7 84.45q-0.65 2.85-2.4 4.55-2.2 1.3-3.75-0.35-0.9-9.05-10.15-12.1 1.9-6.1 7.6-8.55 10.35 9.1 8.7 16.45m-45.35 8.85q-2.65-0.8-2.1-3.35 5.85-6.55 2.05-15.35 5.8-2.65 11.45 0 0.1 13.8-6.55 17.45-2.5 1.4-4.85 1.25" fill="#6fc4a9"/>
	<path d="m47.8 14.4q6.3 6.3 6.3 15.2v40.4q0 5.45-6.3 9.3-6.3 3.8-15.2 3.8t-15.2-3.8q-6.3-3.85-6.3-9.3v-40.4q0-8.9 6.3-15.2t15.2-6.3 15.2 6.3" fill="#6fc4a9"/>
	<path d="m51.45 41.05q0 2-1.5 3.4-1.45 1.5-3.45 1.5-2.1 0-3.6-1.5-1.4-1.4-1.4-3.4t1.4-3.5q1.5-1.45 3.6-1.45 2 0 3.45 1.45 1.5 1.5 1.5 3.5m-22.65-4.95q2 0 3.45 1.45 1.5 1.5 1.5 3.5t-1.5 3.4q-1.45 1.5-3.45 1.5-2.1 0-3.6-1.5-1.4-1.4-1.4-3.4t1.4-3.5q1.5-1.45 3.6-1.45" fill="#347e67"/>
	<path d="m40.1 51.6q0 1.05-0.75 1.75-0.7 0.75-1.75 0.75t-1.8-0.75q-0.7-0.7-0.7-1.75t0.7-1.8q0.75-0.7 1.8-0.7t1.75 0.7q0.75 0.75 0.75 1.8" fill="#347e67"/>
	<path d="m65.85 51.35q0.9 0.55 1.2 1.5 0.25 0.95-0.25 1.9-6 11-18.6 9.1l-0.3-0.05 4.6-8q5.95 3.7 9.95-3.45 0.55-0.95 1.5-1.25 1-0.25 1.9 0.25m-52.85 1.35v9.2q-7-0.2-6.85 8 0 1.05-0.7 1.8t-1.75 0.75-1.8-0.7q-0.7-0.7-0.75-1.75-0.3-12.55 11.55-17.2l0.3-0.1" fill="#6fc4a9"/>
	<path d="m60.2 32.55q0-11.4-8.05-19.45-8.15-8.1-19.55-8.1t-19.45 8.1q-8.15 8.05-8.15 19.45 0 11.45 8.15 19.55 8.05 8.05 19.45 8.05t19.55-8.05q8.05-8.1 8.05-19.55m-4.5-23q9.5 9.5 9.5 23 0 13.55-9.5 23.1-9.6 9.5-23.1 9.5t-23-9.5q-9.6-9.55-9.6-23.1 0-13.5 9.6-23 9.5-9.55 23-9.55t23.1 9.55" fill="#fff"/>
	<path fill-opacity=".2" d="m60.2 32.55q0 11.45-8.05 19.55-8.15 8.05-19.55 8.05t-19.45-8.05q-8.15-8.1-8.15-19.55 0-11.4 8.15-19.45 8.05-8.1 19.45-8.1t19.55 8.1q8.05 8.05 8.05 19.45m-6.75-10.35q0-3.9-2.75-6.65-2.75-2.8-6.65-2.8t-6.65 2.8q-2.8 2.75-2.8 6.65t2.8 6.65q2.75 2.75 6.65 2.75t6.65-2.75 2.75-6.65" fill="#fff"/>
	<path fill-opacity=".30196" d="m53.45 22.2q0 3.9-2.75 6.65t-6.65 2.75-6.65-2.75q-2.8-2.75-2.8-6.65t2.8-6.65q2.75-2.8 6.65-2.8t6.65 2.8q2.75 2.75 2.75 6.65" fill="#fff"/>
	<path fill-opacity=".50196" d="m31.35 75.1q0-1.65 1.15-2.8t2.8-1.15 2.8 1.15 1.15 2.8-1.15 2.8-2.8 1.15-2.8-1.15-1.15-2.8m10.75-1.1q0-0.85 0.6-1.45t1.45-0.6 1.45 0.6 0.6 1.45-0.6 1.45-1.45 0.6-1.45-0.6-0.6-1.45m6.95-8.75q0.85 0.85 0.85 2.05t-0.85 2.05-2.05 0.85-2.05-0.85-0.85-2.05 0.85-2.05 2.05-0.85 2.05 0.85" fill="#8bcfba"/>
</svg>
