<?xml version="1.0" encoding="UTF-8" standalone="no"?>
<svg height="92.073" version="1.1" width="66.25" xmlns="http://www.w3.org/2000/svg"><path d="m38.9 33.2q1 0 1.7.8.75.7.75 1.75t-.75 1.75q-.7.75-1.7.75-1.1 0-1.85-.75-.7-.7-.7-1.75t.7-1.75q.75-.8 1.85-.8m-5.05 6.8q0 1.1-.8 1.75-.65.8-1.75.8-1 0-1.8-.8-.7-.65-.7-1.75 0-1 .7-1.75.8-.75 1.8-.75 1.1 0 1.75.75.8.75.8 1.75m-2.1 10.55q-.2-.35-.1-.75.4-1.45 1.9-2.55 2.1-1.65 5.1-1.65 2.95 0 5.05 1.65 1.35 1.1 1.95 2.45v.8l-.6.5q-.4.2-.8 0l-.5-.55q-.4-.9-1.3-1.65-1.6-1.2-3.8-1.2-2.3 0-3.85 1.2-.9.7-1.2 1.6l-.45.55-.85.1-.55-.5m12.8-12.3q.75-.75 1.85-.75.95 0 1.7.75.8.75.8 1.75 0 1.1-.8 1.75-.75.8-1.7.8-1.1 0-1.85-.8-.75-.65-.75-1.75 0-1 .75-1.75" fill="#4f719d"/></svg>
