<?xml version="1.0" encoding="UTF-8" standalone="no"?>
<svg xmlns="http://www.w3.org/2000/svg" width="67.133" version="1.1" height="83.315"><path fill="#fc0" d="m13.3 64.6q5.8-2.65 11.45 0 .1 13.8-6.55 17.45-2.5 1.4-4.85 1.25-2.65-.8-2.1-3.35 5.85-6.55 2.05-15.35m36.7-6.6q10.35 9.1 8.7 16.45-.65 2.85-2.4 4.55-2.2 1.3-3.75-.35-.9-9.05-10.15-12.1 1.9-6.1 7.6-8.55"/><path fill="#fc0" d="m17.4 17.4q6.3-6.3 15.2-6.3t15.2 6.3 6.3 15.2v27.4q0 5.45-6.3 9.3-6.3 3.8-15.2 3.8t-15.2-3.8q-6.3-3.85-6.3-9.3v-27.4q0-8.9 6.3-15.2"/><path fill="#fc0" d="m66.8 44.75q-6 11-18.6 9.1l-.3-.05 4.6-8q5.95 3.7 9.95-3.45.55-.95 1.5-1.25 1-.25 1.9.25.9.55 1.2 1.5.25.95-.25 1.9m-61.35 16.95q-.7.75-1.75.75t-1.8-.7q-.7-.7-.75-1.75-.3-12.55 11.55-17.2l.3-.1v9.2q-7-.2-6.85 8 0 1.05-.7 1.8"/><path fill="#ad8a00" d="m44.5 45.95q-2.1 0-3.6-1.5-1.4-1.4-1.4-3.4l.05-.4h9.9v.4q0 2-1.5 3.4-1.45 1.5-3.45 1.5m-12.75-4.9q0 2-1.5 3.4-1.45 1.5-3.45 1.5-2.1 0-3.6-1.5-1.4-1.4-1.4-3.4l.05-.4h9.9v.4m-3.05 7.6q.15-.4.55-.5l.85.1.45.55q.3.9 1.2 1.6 1.55 1.2 3.85 1.2 2.2 0 3.8-1.2.9-.75 1.3-1.65.1-.4.5-.55.4-.2.8 0l.6.5v.8q-.6 1.35-1.95 2.45-2.1 1.65-5.05 1.65-3 0-5.1-1.65-1.5-1.1-1.9-2.55-.1-.4.1-.75"/><path fill="#fff" d="m32.6 5q11.4 0 19.55 8.1 8.05 8.05 8.05 19.45 0 11.45-8.05 19.55-8.15 8.05-19.55 8.05t-19.45-8.05q-8.15-8.1-8.15-19.55 0-11.4 8.15-19.45 8.05-8.1 19.45-8.1m4.8 10.55q-2.8 2.75-2.8 6.65t2.8 6.65q2.75 2.75 6.65 2.75t6.65-2.75 2.75-6.65-2.75-6.65q-2.75-2.8-6.65-2.8t-6.65 2.8" fill-opacity=".2"/><path fill="#fff" d="m37.4 15.55q2.75-2.8 6.65-2.8t6.65 2.8q2.75 2.75 2.75 6.65t-2.75 6.65-6.65 2.75-6.65-2.75q-2.8-2.75-2.8-6.65t2.8-6.65" fill-opacity=".30196"/><path fill="#fff" d="m9.6 9.55q9.5-9.55 23-9.55t23.1 9.55q9.5 9.5 9.5 23 0 13.55-9.5 23.1-9.6 9.5-23.1 9.5t-23-9.5q-9.6-9.55-9.6-23.1 0-13.5 9.6-23m23-4.55q-11.4 0-19.45 8.1-8.15 8.05-8.15 19.45 0 11.45 8.15 19.55 8.05 8.05 19.45 8.05t19.55-8.05q8.05-8.1 8.05-19.55 0-11.4-8.05-19.45-8.15-8.1-19.55-8.1"/></svg>
