<?xml version="1.0" encoding="UTF-8" standalone="no"?>
<svg xmlns:rdf="http://www.w3.org/1999/02/22-rdf-syntax-ns#" xmlns="http://www.w3.org/2000/svg" height="92.073" width="66.25" version="1.1" xmlns:cc="http://creativecommons.org/ns#" xmlns:dc="http://purl.org/dc/elements/1.1/">
	<path d="m14.15 29.6q0-8.9 6.3-15.2 5.2-5.15 12.15-6.05v-0.2l1.05-0.05 0.95 0.05v0.15q7.05 0.9 12.25 6.1 6.3 6.3 6.3 15.2v40.4q0 5.45-6.3 9.3-5.2 3.15-12.25 3.7v0.1h-2v-0.1q-6.95-0.6-12.15-3.7-6.3-3.85-6.3-9.3v-40.4" fill="#8db5e7"/>
	<path d="m64.35 70.4q-0.05 1-0.8 1.75t-1.8 0.7q-1 0-1.75-0.75-5.65-5.9-10.45-0.8l-6.5-6.5 0.25-0.2q11.65-5.05 20.3 4 0.7 0.8 0.75 1.8m-43.05-5.6-6.5 6.5q-4.8-5.1-10.5 0.85-0.75 0.75-1.75 0.75-1.05 0.05-1.8-0.7t-0.75-1.8q0-0.95 0.7-1.75 8.65-9.05 20.3-4l0.3 0.15" fill="#8db5e7"/>
	<path d="m30.15 91.15q-0.9-9.05-10.15-12.1 1.9-6.1 7.6-8.55 10.35 9.1 8.7 16.45-0.65 2.85-2.4 4.55-2.2 1.3-3.75-0.35m28.65-4.2q-0.65 2.85-2.4 4.55-2.2 1.3-3.75-0.35-0.9-9.05-10.15-12.1 1.9-6.1 7.6-8.55 10.35 9.1 8.7 16.45" fill="#8db5e7"/>
	<path d="m38.9 33.2q1 0 1.7 0.8 0.75 0.7 0.75 1.75t-0.75 1.75q-0.7 0.75-1.7 0.75-1.1 0-1.85-0.75-0.7-0.7-0.7-1.75t0.7-1.75q0.75-0.8 1.85-0.8m-5.05 6.8q0 1.1-0.8 1.75-0.65 0.8-1.75 0.8-1 0-1.8-0.8-0.7-0.65-0.7-1.75 0-1 0.7-1.75 0.8-0.75 1.8-0.75 1.1 0 1.75 0.75 0.8 0.75 0.8 1.75m-2.1 10.55q-0.2-0.35-0.1-0.75 0.4-1.45 1.9-2.55 2.1-1.65 5.1-1.65 2.95 0 5.05 1.65 1.35 1.1 1.95 2.45v0.8l-0.6 0.5q-0.4 0.2-0.8 0l-0.5-0.55q-0.4-0.9-1.3-1.65-1.6-1.2-3.8-1.2-2.3 0-3.85 1.2-0.9 0.7-1.2 1.6l-0.45 0.55-0.85 0.1-0.55-0.5m12.8-12.3q0.75-0.75 1.85-0.75 0.95 0 1.7 0.75 0.8 0.75 0.8 1.75 0 1.1-0.8 1.75-0.75 0.8-1.7 0.8-1.1 0-1.85-0.8-0.75-0.65-0.75-1.75 0-1 0.75-1.75" fill="#4f719d"/>
	<path fill="#fff" d="m14.2 13.1q8.05-8.1 19.45-8.1t19.55 8.1q8.05 8.05 8.05 19.45 0 11.45-8.05 19.55-8.15 8.05-19.55 8.05t-19.45-8.05q-8.15-8.1-8.15-19.55 0-11.4 8.15-19.45m21.45 9.1q0 3.9 2.8 6.65 2.75 2.75 6.65 2.75t6.65-2.75 2.75-6.65-2.75-6.65q-2.75-2.8-6.65-2.8t-6.65 2.8q-2.8 2.75-2.8 6.65" fill-opacity=".2"/>
	<path fill="#fff" d="m35.65 22.2q0-3.9 2.8-6.65 2.75-2.8 6.65-2.8t6.65 2.8q2.75 2.75 2.75 6.65t-2.75 6.65-6.65 2.75-6.65-2.75q-2.8-2.75-2.8-6.65" fill-opacity=".30196"/>
	<path d="m1.05 32.55q0-13.5 9.6-23 9.5-9.55 23-9.55t23.1 9.55q9.5 9.5 9.5 23 0 13.55-9.5 23.1-9.6 9.5-23.1 9.5t-23-9.5q-9.6-9.55-9.6-23.1m13.15-19.45q-8.15 8.05-8.15 19.45 0 11.45 8.15 19.55 8.05 8.05 19.45 8.05t19.55-8.05q8.05-8.1 8.05-19.55 0-11.4-8.05-19.45-8.15-8.1-19.55-8.1t-19.45 8.1" fill="#fff"/>
	<path fill="#a3c3eb" d="m28.4 78.05q-1.15-1.15-1.15-2.8t1.15-2.8 2.8-1.15 2.8 1.15 1.15 2.8-1.15 2.8-2.8 1.15-2.8-1.15m-4.6-2.45q-0.6 0.6-1.45 0.6t-1.45-0.6-0.6-1.45 0.6-1.45 1.45-0.6 1.45 0.6 0.6 1.45-0.6 1.45m-1.4-8.15q0 1.2-0.85 2.05t-2.05 0.85-2.05-0.85-0.85-2.05 0.85-2.05 2.05-0.85 2.05 0.85 0.85 2.05" fill-opacity=".50196"/>
</svg>
