<?xml version="1.0" encoding="UTF-8" standalone="no"?>
<svg width="20.1" xmlns="http://www.w3.org/2000/svg" version="1.1" height="18.4"><path fill="#4f719d" d="m12.55 2.55q0 1.05-.75 1.75-.70.75-1.7.75-1.1 0-1.85-.75-0.7-.70-0.7-1.75t0.7-1.75q0.75-.80 1.85-.80 1 0 1.7.8.75.7.75 1.75m-8.3 2.5q.8.75.8 1.75 0 1.1-.8 1.75-.65.8-1.75.8-1 0-1.8-.8-0.7-.65-0.7-1.75 0-1 0.7-1.75 0.8-.75 1.8-.75 1.1 0 1.75.75m5.6 8.35q1.05 0 1.75.7.75.75.75 1.8t-.75 1.75q-.7.75-1.75.75t-1.8-.75q-0.7-.70-0.7-1.75t0.7-1.8q.75-.7 1.8-.7m9.45-8.35q.8.75.8 1.75 0 1.1-.8 1.75-.75.8-1.7.8-1.1 0-1.85-.8-.75-.65-.75-1.75 0-1 .75-1.75t1.85-.75q.95 0 1.7.75"/></svg>
