<?xml version="1.0" encoding="UTF-8" standalone="no"?>
<svg xmlns="http://www.w3.org/2000/svg" height="17.65" version="1.1" width="20.1"><path d="m19.3 5.05q.8.75.8 1.75 0 1.1-.8 1.75-.75.8-1.7.8-1.1 0-1.85-.8-.75-.65-.75-1.75 0-1 .75-1.75t1.85-.75q.95 0 1.7.75m-11.05-4.25q.75-.8 1.85-.8 1 0 1.7.8.75.7.75 1.75t-.75 1.75q-.70.75-1.7.75-1.1 0-1.85-.75-.70-.70-.70-1.75t.70-1.75m-2.2 15q.35-.3.8-.3h6.25l.75.3.35.75-.35.75q-.3.35-.75.35h-6.25q-.45 0-.80-.35-.25-.30-.25-.75 0-.4.25-.75m-1-9q0 1.1-.8 1.75-.65.8-1.75.8-1 0-1.8-.8-.70-.65-.70-1.75 0-1 .70-1.75.80-.75 1.8-.75 1.1 0 1.75.75.8.75.8 1.75" fill="#4f719d"/></svg>
