<?xml version="1.0" encoding="UTF-8" standalone="no"?>
<svg xmlns:rdf="http://www.w3.org/1999/02/22-rdf-syntax-ns#" xmlns="http://www.w3.org/2000/svg" height="81.073" width="68.35" version="1.1" xmlns:cc="http://creativecommons.org/ns#" xmlns:dc="http://purl.org/dc/elements/1.1/">
	<path d="m20.45 18.4q6.3-6.3 15.2-6.3t15.2 6.3 6.3 15.2v25.4q0 5.45-6.3 9.3-6.3 3.8-15.2 3.8t-15.2-3.8q-6.3-3.85-6.3-9.3v-25.4q0-8.9 6.3-15.2" fill="#fc0"/>
	<path d="m65.75 51.85q-1 0-1.75-0.75-5.65-5.9-10.45-0.8l-6.5-6.5 0.25-0.2q11.65-5.05 20.3 4 0.7 0.8 0.75 1.8-0.05 1-0.8 1.75t-1.8 0.7m-44.45-8.05-6.5 6.5q-4.8-5.1-10.5 0.85-0.75 0.75-1.75 0.75-1.05 0.05-1.8-0.7t-0.75-1.8q0-0.95 0.7-1.75 8.65-9.05 20.3-4l0.3 0.15" fill="#fc0"/>
	<path d="m20 68.05q1.9-6.1 7.6-8.55 10.35 9.1 8.7 16.45-0.65 2.85-2.4 4.55-2.2 1.3-3.75-0.35-0.9-9.05-10.15-12.1m26.5 0q1.9-6.1 7.6-8.55 10.35 9.1 8.7 16.45-0.65 2.85-2.4 4.55-2.2 1.3-3.75-0.35-0.9-9.05-10.15-12.1" fill="#fc0"/>
	<path d="m46.65 51.2v0.8l-0.6 0.5q-0.4 0.2-0.8 0l-0.5-0.55q-0.4-0.9-1.3-1.65-1.6-1.2-3.8-1.2-2.3 0-3.85 1.2-0.9 0.7-1.2 1.6l-0.45 0.55-0.85 0.1-0.55-0.5q-0.2-0.35-0.1-0.75 0.4-1.45 1.9-2.55 2.1-1.65 5.1-1.65 2.95 0 5.05 1.65 1.35 1.1 1.95 2.45m6.85-11.55v0.4q0 2-1.5 3.4-1.45 1.5-3.45 1.5-2.1 0-3.6-1.5-1.4-1.4-1.4-3.4l0.05-0.4h9.9m-26.25 3.8q-1.4-1.4-1.4-3.4l0.05-0.4h9.9v0.4q0 2-1.5 3.4-1.45 1.5-3.45 1.5-2.1 0-3.6-1.5" fill="#ad8a00"/>
	<path fill="#fff" d="m35.65 5q11.4 0 19.55 8.1 8.05 8.05 8.05 19.45 0 11.45-8.05 19.55-8.15 8.05-19.55 8.05t-19.45-8.05q-8.15-8.1-8.15-19.55 0-11.4 8.15-19.45 8.05-8.1 19.45-8.1m4.8 10.55q-2.8 2.75-2.8 6.65t2.8 6.65q2.75 2.75 6.65 2.75t6.65-2.75 2.75-6.65-2.75-6.65q-2.75-2.8-6.65-2.8t-6.65 2.8" fill-opacity=".2"/>
	<path fill="#fff" d="m40.45 15.55q2.75-2.8 6.65-2.8t6.65 2.8q2.75 2.75 2.75 6.65t-2.75 6.65-6.65 2.75-6.65-2.75q-2.8-2.75-2.8-6.65t2.8-6.65" fill-opacity=".30196"/>
	<path d="m12.65 9.55q9.5-9.55 23-9.55t23.1 9.55q9.5 9.5 9.5 23 0 13.55-9.5 23.1-9.6 9.5-23.1 9.5t-23-9.5q-9.6-9.55-9.6-23.1 0-13.5 9.6-23m23-4.55q-11.4 0-19.45 8.1-8.15 8.05-8.15 19.45 0 11.45 8.15 19.55 8.05 8.05 19.45 8.05t19.55-8.05q8.05-8.1 8.05-19.55 0-11.4-8.05-19.45-8.15-8.1-19.55-8.1" fill="#fff"/>
</svg>
