<?xml version="1.0" encoding="UTF-8" standalone="no"?>
<svg width="67.133" xmlns="http://www.w3.org/2000/svg" version="1.1" height="93.315"><path d="m56.3 89q-2.2 1.3-3.75-.35-.9-9.05-10.15-12.1 1.9-6.1 7.6-8.55 10.35 9.1 8.7 16.45-.65 2.85-2.4 4.55m-43-14.4q5.8-2.65 11.45 0 .1 13.8-6.55 17.45-2.5 1.4-4.85 1.25-2.65-.8-2.1-3.35 5.85-6.55 2.05-15.35" fill="#f19cb7"/><path d="m47.8 24.4q6.3 6.3 6.3 15.2v30.4q0 5.45-6.3 9.3-6.3 3.8-15.2 3.8t-15.2-3.8q-6.3-3.85-6.3-9.3v-30.4q0-8.9 6.3-15.2t15.2-6.3 15.2 6.3" fill="#f19cb7"/><path d="m37.6 54.1q-1.05 0-1.8-.75-.7-.7-.7-1.75t.7-1.8q.75-.7 1.8-.7t1.75.7q.75.75.75 1.8t-.75 1.75q-.7.75-1.75.75" fill="#a55b72"/><path d="m45.45 37.55q-.45 2.25-2.25 3.95-2.25 2.3-5.25 2.3-3.3 0-5.6-2.3-1.7-1.7-2-3.95l-.15-1.3q0-3.1 2.15-5.45 2.3-2.25 5.6-2.25 3 0 5.25 2.25 2.35 2.35 2.35 5.45l-.1 1.3m-4.05 2.1q1.55-1.4 1.55-3.5 0-2.05-1.55-3.6-1.5-1.5-3.5-1.5-2.2 0-3.75 1.5-1.45 1.55-1.45 3.6 0 2.1 1.45 3.5 1.55 1.55 3.75 1.55 2 0 3.5-1.55" fill="#fff"/><path d="m41.4 39.65q-1.5 1.55-3.5 1.55-2.2 0-3.75-1.55-1.45-1.4-1.45-3.5 0-2.05 1.45-3.6 1.55-1.5 3.75-1.5 2 0 3.5 1.5 1.55 1.55 1.55 3.6 0 2.1-1.55 3.5" fill="#a55b72"/><path d="m6.15 69.9q0 1.05-.7 1.8t-1.75.75-1.8-.7q-.7-.7-.75-1.75-.3-12.55 11.55-17.2l.3-.1v9.2q-7-.2-6.85 8m60.65-15.15q-6 11-18.6 9.1l-.3-.05 4.6-8q5.95 3.7 9.95-3.45.55-.95 1.5-1.25 1-.25 1.9.25.9.55 1.2 1.5.25.95-.25 1.9" fill="#f19cb7"/><path d="m60.2 32.55q0-11.4-8.05-19.45-8.15-8.1-19.55-8.1t-19.45 8.1q-8.15 8.05-8.15 19.45 0 11.45 8.15 19.55 8.05 8.05 19.45 8.05t19.55-8.05q8.05-8.1 8.05-19.55m-4.5-23q9.5 9.5 9.5 23 0 13.55-9.5 23.1-9.6 9.5-23.1 9.5t-23-9.5q-9.6-9.55-9.6-23.1 0-13.5 9.6-23 9.5-9.55 23-9.55t23.1 9.55" fill="#fff"/><path d="m60.2 32.55q0 11.45-8.05 19.55-8.15 8.05-19.55 8.05t-19.45-8.05q-8.15-8.1-8.15-19.55 0-11.4 8.15-19.45 8.05-8.1 19.45-8.1t19.55 8.1q8.05 8.05 8.05 19.45m-6.75-10.35q0-3.9-2.75-6.65-2.75-2.8-6.65-2.8t-6.65 2.8q-2.8 2.75-2.8 6.65t2.8 6.65q2.75 2.75 6.65 2.75t6.65-2.75 2.75-6.65" fill="#fff" fill-opacity=".2"/><path d="m53.45 22.2q0 3.9-2.75 6.65t-6.65 2.75-6.65-2.75q-2.8-2.75-2.8-6.65t2.8-6.65q2.75-2.8 6.65-2.8t6.65 2.8q2.75 2.75 2.75 6.65" fill="#fff" fill-opacity=".30196"/><path d="m31.1 75.85 1.6-.2q.8.2 1.2.95.45.75.25 1.55-.25.85-1 1.25l-1.55.2q-.8-.2-1.25-.95-.4-.75-.2-1.55.25-.8.95-1.25m-6.25-5.1q1.05-.6 2.25-.3 1.1.3 1.7 1.35t.35 2.2q-.35 1.15-1.4 1.75l-2.15.3q-1.2-.3-1.8-1.35t-.25-2.2q.25-1.15 1.3-1.75m12.05 5.35q-.8-1.4-.4-2.95.45-1.6 1.9-2.4 1.4-.85 2.95-.4 1.6.4 2.4 1.8.85 1.45.4 3.05-.4 1.55-1.8 2.4-1.45.8-3.05.4-1.55-.45-2.4-1.9" fill="#f3afc5" fill-opacity=".50196"/></svg>
