<?xml version="1.0" encoding="UTF-8" standalone="no"?>
<svg width="68.35" xmlns="http://www.w3.org/2000/svg" height="92.073" version="1.1"><path d="m49.55 36.1q2 0 3.45 1.45 1.5 1.5 1.5 3.5t-1.5 3.4q-1.45 1.5-3.45 1.5-2.1 0-3.6-1.5-1.4-1.4-1.4-3.4t1.4-3.5q1.5-1.45 3.6-1.45m-1.9 14.4-.6.5q-.4.2-.8 0l-.5-.55q-.4-.9-1.3-1.65-1.6-1.2-3.8-1.2-2.3 0-3.85 1.2-.9.7-1.2 1.6l-.45.55-.85.1-.55-.5q-.2-.35-.1-.75.4-1.45 1.9-2.55 2.1-1.65 5.1-1.65 2.95 0 5.05 1.65 1.35 1.1 1.95 2.45v.8m-10.85-9.45q0 2-1.5 3.4-1.45 1.5-3.45 1.5-2.1 0-3.6-1.5-1.4-1.4-1.4-3.4t1.4-3.5q1.5-1.45 3.6-1.45 2 0 3.45 1.45 1.5 1.5 1.5 3.5" fill="#347e67"/><path fill-opacity=".30196" d="m56.5 22.2q0 3.9-2.75 6.65t-6.65 2.75-6.65-2.75q-2.8-2.75-2.8-6.65t2.8-6.65q2.75-2.8 6.65-2.8t6.65 2.8q2.75 2.75 2.75 6.65" fill="#fff"/></svg>
