<?xml version="1.0" encoding="UTF-8" standalone="no"?>
<svg xmlns="http://www.w3.org/2000/svg" width="66.556" height="95.634" version="1.1"><path fill="#8db5e7" d="m35.306 83.1h-.5l.35 1.9.15-1.9m-14.55-68.7q1.5-1.5 3.15-2.65 3.8-2.6 8.3-3.35h4.25v.15q4.1.8 7.55 3.2 1.65 1.15 3.15 2.65 4.2 4.2 5.6 9.6.7 2.65.7 5.6v31.7q7.45 1.35 11.65 9.1.55.9.2 1.85-.25 1-1.2 1.55l-1.85.2q-1-.25-1.5-1.2-3.1-5.5-7.3-4.6v2.05q-.05 1.65-.7 3.2-1.4 3.3-5.6 5.85l-2.3 1.25q-.55 9.15-5.5 12.3-1.45.95-2.9 1.3v.2h-.05l-.35-.1-1.6.1v-3.5l-.6 1.2q-1.5 2.45-3.6 3.45-2.7.65-3.45-1.85 1.75-8.5-5.85-14.25l-.2-.1q-6.2-3.8-6.3-9.1v-1q-5.8-3.45-9.8 3.6-.5.9-1.45 1.2l-1.9-.2q-.9-.55-1.2-1.55-.3-.95.25-1.9 4.8499-8.95 14.1-9.35v-31.4q0-8.9 6.3-15.2"/><path fill="#a3c3eb" fill-opacity=".50196" d="m20.756 74.5q0-.85.6-1.45t1.45-.6 1.45.6.6 1.45-.6 1.45-1.45.6-1.45-.6-.6-1.45m1.25-8.75q.85.85.85 2.05t-.85 2.05-2.05.85-2.05-.85-.85-2.05.85-2.05 2.05-.85 2.05.85m12.45 12.65q-1.15 1.15-2.8 1.15t-2.8-1.15-1.15-2.8 1.15-2.8 2.8-1.15 2.8 1.15 1.15 2.8-1.15 2.8"/><path fill="#fff" d="m1.3559 32.55q0-13.5 9.6-23 9.5-9.55 23-9.55t23.1 9.55q9.5 9.5 9.5 23 0 13.55-9.5 23.1-9.6 9.5-23.1 9.5t-23-9.5q-9.6001-9.55-9.6001-23.1m13.15-19.45q-8.15 8.05-8.15 19.45 0 11.45 8.15 19.55 8.05 8.05 19.45 8.05t19.55-8.05q8.05-8.1 8.05-19.55 0-11.4-8.05-19.45-8.15-8.1-19.55-8.1t-19.45 8.1"/><path fill="#fff" fill-opacity=".2" d="m14.506 13.1q8.05-8.1 19.45-8.1t19.55 8.1q8.05 8.05 8.05 19.45 0 11.45-8.05 19.55-8.15 8.05-19.55 8.05t-19.45-8.05q-8.1501-8.1-8.1501-19.55 0-11.4 8.15-19.45m40.3 9.1q0-3.9-2.75-6.65-2.75-2.8-6.65-2.8t-6.65 2.8q-2.8 2.75-2.8 6.65t2.8 6.65q2.75 2.75 6.65 2.75t6.65-2.75 2.75-6.65"/><path fill="#fff" fill-opacity=".30196" d="m54.806 22.2q0 3.9-2.75 6.65t-6.65 2.75-6.65-2.75q-2.8-2.75-2.8-6.65t2.8-6.65q2.75-2.8 6.65-2.8t6.65 2.8q2.75 2.75 2.75 6.65"/></svg>
