<?xml version="1.0" encoding="UTF-8" standalone="no"?>
<svg version="1.1" xmlns="http://www.w3.org/2000/svg" height="91.8" width="65.2"><path fill="#e0d1af" d="m60.3 71.75q-.75.7-1.8.7t-1.75-.75-.7-1.8q.15-8.2-6.85-8v-9.2l.3.1q11.85 4.65 11.55 17.2-.05 1.05-.75 1.75m-47.3-19.05v9.2q-7-.2-6.85 8 0 1.05-.7 1.8t-1.75.75-1.8-.7q-.7-.7-.75-1.75-.3-12.55 11.55-17.2l.3-.1"/><path fill="#e0d1af" d="m54.1 71.4h-.3q-1.15 3.95-6 6.9-6.3 3.8-15.2 3.8t-15.2-3.8q-4.85-2.95-5.95-6.9h-.35v-38.8q0-8.9 6.3-15.2t15.2-6.3 15.2 6.3 6.3 15.2v38.8"/><path fill="#e0d1af" d="m50.55 73.5-1.35 18.3h-8.35l-2.2-18.3q-.2-2.7 1.3-4.7 1.85-2.15 4.55-2.1 2.8-.05 4.55 2.1 1.8 2 1.5 4.7m-35-4.7q2.3-2.15 5.15-2.1 2.65-.05 3.95 2.1 1 2 .05 4.7l-7.05 18.3h-8.35l3.5-18.3q.45-2.7 2.75-4.7"/></svg>
