<?xml version="1.0" encoding="UTF-8" standalone="no"?>
<svg width="65.2" xmlns="http://www.w3.org/2000/svg" version="1.1" height="92.8"><path d="m47.05 42.6q.8.75.8 1.75 0 1.1-.8 1.75-.75.8-1.7.8-1.1 0-1.85-.8-.75-.65-.75-1.75 0-1 .75-1.75t1.85-.75q.95 0 1.7.75m-11.05-4.25q.75-.8 1.85-.8 1 0 1.7.8.75.7.75 1.75t-.75 1.75q-.7.75-1.7.75-1.1 0-1.85-.75-.7-.7-.7-1.75t.7-1.75m-2.2 15q.35-.3.8-.3h6.25l.75.3.35.75-.35.75q-.3.35-.75.35h-6.25q-.45 0-.8-.35-.25-.3-.25-.75 0-.4.25-.75m-1-9q0 1.1-.8 1.75-.65.8-1.75.8-1 0-1.8-.8-.7-.65-.7-1.75 0-1 .7-1.75.8-.75 1.8-.75 1.1 0 1.75.75.8.75.8 1.75" fill="#4f719d"/></svg>
