<?xml version="1.0" encoding="UTF-8" standalone="no"?>
<svg version="1.1" width="27.66" xmlns="http://www.w3.org/2000/svg" height="13.791"><path d="m.081924.03116 9.8804-.03116-.0326.41102q.0342 2.0221-1.502 3.4452-1.4211 1.5052-3.4514 1.49-2.0797-.0069-3.6014-1.5265-1.3407-1.3472-1.3749-3.3693l.08192-.41924m17.607.39942.08192-.41927 9.8886.01816-.03261.41102q.03421 2.0221-1.5102 3.3958-1.4211 1.5052-3.4514 1.4901-2.0714.04246-3.5931-1.4772-1.349-1.3965-1.3832-3.4186" fill="#ad8a00"/><path d="m16.093 9.6709q.64169.80513.56016 1.8327-.12259 1.0851-.93597 1.6775-.74757.68275-1.7751.60122-1.0851-.12259-1.7761-.91947-.63343-.75582-.51085-1.8409.08152-1.0275.88666-1.6692l1.8327-.56016q1.0275.08152 1.7185.87840" fill="#ad8a00"/></svg>
