<?xml version="1.0" encoding="UTF-8" standalone="no"?>
<svg xmlns="http://www.w3.org/2000/svg" width="69.442" height="95.634" version="1.1"><path fill="#e0d1af" d="m35.956 12.1q8.9 0 15.2 6.3t6.3 15.2v19.7q7.45 1.35 11.65 9.1.55.9.2 1.85-.25 1-1.2 1.55l-1.85.2q-1-.25-1.5-1.2-3.1-5.5-7.3-4.6v9.8q0 5.45-6.3 9.3l-2.3 1.25q-.55 9.15-5.5 12.3-2.45 1.6-4.95 1.5-2.45-.6-2.4-2.9 3.3-3.95 3.3-8.5l-3.35.15h-1.15q1.2 5.3-.95 8.95-1.5 2.45-3.6 3.45-2.7.65-3.45-1.85 1.75-8.5-5.85-14.25l-.2-.1q-6.3-3.85-6.3-9.3v-8.8q-5.8-3.45-9.8 3.6-.5.9-1.45 1.2l-1.9-.2q-.9-.55-1.2-1.55-.3-.95.25-1.9 4.8499-8.95 14.1-9.35v-19.4q0-8.9 6.3-15.2t15.2-6.3"/><path fill="#af9f7a" d="m44.706 41.45q.1-.4.5-.55.4-.2.8 0l.6.5v.8q-.6 1.35-1.95 2.45-2.1 1.65-5.05 1.65-3 0-5.1-1.65-1.5-1.1-1.9-2.55-.1-.4.1-.75.15-.4.55-.5l.85.1.45.55q.3.9 1.2 1.6 1.55 1.2 3.85 1.2 2.2 0 3.8-1.2l1.3-1.65m3.8-12.65.75.05q1.5.2 2.7 1.4 1.5 1.5 1.5 3.5t-1.5 3.4q-1.4 1.45-3.3 1.5h-18.05q-1.95-.05-3.4-1.5-1.4-1.4-1.4-3.4t1.4-3.5q1.35-1.3 3.15-1.4l.25-.05h.15v.05h17.6v-.05h.15"/><path fill="#fff" fill-opacity=".2" d="m55.506 13.1q8.05 8.05 8.05 19.45 0 11.45-8.05 19.55-8.15 8.05-19.55 8.05t-19.45-8.05q-8.1501-8.1-8.1501-19.55 0-11.4 8.15-19.45 8.05-8.1 19.45-8.1t19.55 8.1m1.3 9.1q0-3.9-2.75-6.65-2.75-2.8-6.65-2.8t-6.65 2.8q-2.8 2.75-2.8 6.65t2.8 6.65q2.75 2.75 6.65 2.75t6.65-2.75 2.75-6.65"/><path fill="#fff" fill-opacity=".30196" d="m56.806 22.2q0 3.9-2.75 6.65t-6.65 2.75-6.65-2.75q-2.8-2.75-2.8-6.65t2.8-6.65q2.75-2.8 6.65-2.8t6.65 2.8q2.75 2.75 2.75 6.65"/><path fill="#fff" d="m55.506 13.1q-8.15-8.1-19.55-8.1t-19.45 8.1q-8.15 8.05-8.15 19.45 0 11.45 8.15 19.55 8.05 8.05 19.45 8.05t19.55-8.05q8.05-8.1 8.05-19.55 0-11.4-8.05-19.45m-19.55-13.1q13.5 0 23.1 9.55 9.5 9.5 9.5 23 0 13.55-9.5 23.1-9.6 9.5-23.1 9.5t-23-9.5q-9.6-9.55-9.6-23.1 0-13.5 9.6-23 9.5-9.55 23-9.55"/></svg>
