<?xml version="1.0" encoding="UTF-8" standalone="no"?>
<svg width="69.442" xmlns="http://www.w3.org/2000/svg" height="95.634" version="1.1"><path fill="#f19cb7" d="m35.956 18.1q8.9 0 15.2 6.3t6.3 15.2v13.7q7.45 1.35 11.65 9.1.55.9.2 1.85-.25 1-1.2 1.55l-1.85.2q-1-.25-1.5-1.2-3.1-5.5-7.3-4.6v9.8q0 5.45-6.3 9.3l-2.3 1.25q-.55 9.15-5.5 12.3-2.45 1.6-4.95 1.5-2.45-.6-2.4-2.9 3.3-3.95 3.3-8.5l-3.35.15h-1.15q1.2 5.3-.95 8.95-1.5 2.45-3.6 3.45-2.7.65-3.45-1.85 1.75-8.5-5.85-14.25l-.2-.1q-6.3-3.85-6.3-9.3v-8.8q-5.8-3.45-9.8 3.6-.5.9-1.45 1.2l-1.9-.2q-.9-.55-1.2-1.55-.3-.95.25-1.9 4.8499-8.95 14.1-9.35v-13.4q0-8.9 6.3-15.2t15.2-6.3"/><path fill="#f3afc5" fill-opacity=".50196" d="m37.506 79.7q-.8-.2-1.25-.95-.4-.75-.2-1.55.25-.8.95-1.25l1.6-.2q.8.2 1.2.95.45.75.25 1.55-.25.85-1 1.25l-1.55.2m12.55-4.4q-.4 1.55-1.8 2.4-1.45.8-3.05.4-1.55-.45-2.4-1.9-.8-1.4-.4-2.95.45-1.6 1.9-2.4 1.4-.85 2.95-.4 1.6.4 2.4 1.8.85 1.45.4 3.05m-20.6-2.7q.25-1.15 1.3-1.75t2.25-.3q1.1.3 1.7 1.35t.35 2.2q-.35 1.15-1.4 1.75t-2.15.3q-1.2-.3-1.8-1.35t-.25-2.2"/></svg>
