<?xml version="1.0" encoding="UTF-8" standalone="no"?>
<svg version="1.1" width="67.057" xmlns="http://www.w3.org/2000/svg" height="71.5"><g transform="translate(-282.89 -273.87)"><path fill="#e0d1af" d="m287.85 329.37q-.25 1-1.15 1.55l-1.9.25q-1-.25-1.55-1.1-.5-.9-.3-1.9 2.95-12.15 15.65-13.6l.3-.05-2.4 8.9q-6.7-2-8.65 5.95m44.5-5.45.3.15q10.2 7.6 6.65 19.6-.3 1-1.15 1.5l-1.9.2q-1-.25-1.5-1.15-.45-.95-.2-1.95 2.25-7.85-4.6-9.45l2.4-8.9"/><path fill="#e0d1af" d="m295.05 321.97q2.3-2.15 5.15-2.1 2.65-.05 3.95 2.1 1 2 .05 4.7l-7.05 18.3h-8.35l3.5-18.3q.45-2.7 2.75-4.7m25.4 0q1.85-2.15 4.55-2.1 2.8-.05 4.55 2.1 1.8 2 1.5 4.7l-1.35 18.3h-8.35l-2.2-18.3q-.2-2.7 1.3-4.7"/><path fill="#e0d1af" d="m307.2 285.92q7.75-4.45 16.35-2.15t13 10.05q4.5 7.7 2.2 16.3l-6.6 24.5q-1.4 5.3-8.5 7.4-7.05 2-15.65-.3t-13.7-7.6-3.7-10.6l6.6-24.5q2.3-8.6 10-13.1"/><path fill="#af9f7a" d="m310.9 308.27q-1.9-.55-2.9-2.3-1-1.7-.5-3.65.5-1.9 2.25-3 1.65-.95 3.4-.55h.3l.15.05-.05.05 17 4.55.05-.05.15.05.65.25q1.4.55 2.25 2.05 1.05 1.85.55 3.75-.5 1.95-2.3 2.9-1.75 1.05-3.55.6l-.15-.05-.15-.05-17-4.55-.15-.05"/><path fill="#af9f7a" d="m317.55 319.27q-1.05-.3-1.6-1.2-.5-.85-.2-1.9.25-1 1.15-1.5.85-.55 1.9-.25 1 .25 1.55 1.15.5.9.25 1.9-.3 1.05-1.2 1.5-.85.55-1.85.3"/><path fill="#fff" d="m289.75 306.42q0-11.4 8.15-19.45 8.05-8.1 19.45-8.1t19.55 8.1q8.05 8.05 8.05 19.45 0 11.45-8.05 19.55-8.15 8.05-19.55 8.05t-19.45-8.05q-8.15-8.1-8.15-19.55m29.6-10.35q0 3.9 2.8 6.65 2.75 2.75 6.65 2.75t6.65-2.75 2.75-6.65-2.75-6.65q-2.75-2.8-6.65-2.8t-6.65 2.8q-2.8 2.75-2.8 6.65" fill-opacity=".2"/><path fill="#fff" d="m319.35 296.07q0-3.9 2.8-6.65 2.75-2.8 6.65-2.8t6.65 2.8q2.75 2.75 2.75 6.65t-2.75 6.65-6.65 2.75-6.65-2.75q-2.8-2.75-2.8-6.65" fill-opacity=".30196"/><path fill="#fff" d="m289.75 306.42q0 11.45 8.15 19.55 8.05 8.05 19.45 8.05t19.55-8.05q8.05-8.1 8.05-19.55 0-11.4-8.05-19.45-8.15-8.1-19.55-8.1t-19.45 8.1q-8.15 8.05-8.15 19.45m4.6 23.1q-9.6-9.55-9.6-23.1 0-13.5 9.6-23 9.5-9.55 23-9.55t23.1 9.55q9.5 9.5 9.5 23 0 13.55-9.5 23.1-9.6 9.5-23.1 9.5t-23-9.5"/></g></svg>
