<?xml version="1.0" encoding="UTF-8" standalone="no"?>
<svg width="27.65" xmlns="http://www.w3.org/2000/svg" height="12.95" version="1.1"><path fill="#ad8a00" d="m20.8 11.55v.8l-.6.5q-.4.2-.8 0l-.5-.55q-.4-.9-1.3-1.65-1.6-1.2-3.8-1.2-2.3 0-3.85 1.2-.9.7-1.2 1.6l-.45.55-.85.10-.55-.50q-.20-.35-.10-.75.40-1.45 1.9-2.55 2.1-1.65 5.1-1.65 2.95 0 5.05 1.65 1.35 1.1 1.95 2.45m6.85-11.55v.4q0 2-1.5 3.4-1.45 1.5-3.45 1.5-2.1 0-3.6-1.5-1.4-1.4-1.4-3.4l.05-.4h9.9m-26.25 3.8q-1.4-1.4-1.4-3.4l.05-.4h9.9v.4q0 2-1.5 3.4-1.45 1.5-3.45 1.5-2.1 0-3.6-1.5"/></svg>
