<?xml version="1.0" encoding="UTF-8" standalone="no"?>
<svg xmlns:rdf="http://www.w3.org/1999/02/22-rdf-syntax-ns#" xmlns="http://www.w3.org/2000/svg" height="92.8" width="65.2" version="1.1" xmlns:cc="http://creativecommons.org/ns#" xmlns:dc="http://purl.org/dc/elements/1.1/">
	<path d="m37.75 9.25q4.45 1.55 8.05 5.15 6.2 6.2 6.3 14.9v33q7.6 3.1 9.8 12.2 0.25 1.05-0.3 1.85-0.5 0.9-1.55 1.2-1 0.25-1.85-0.3-0.9-0.55-1.15-1.55-1.35-5.45-4.95-6.2v0.75q-0.1 3.5-2.8 6.35l2.8 2.95q2.6 3.3 2.55 6.85-0.05 2.9-1.4 4.85l-1.15 0.8q-1.4 0.6-2.8-0.7-2.45-7.6-10.65-9.15l-4.7 0.75v0.15h-2v-0.05l-3.85-0.5q-2.9 8.35-8.45 10.1l-5.15 0.15q-0.95-0.55-1.4-1.25-0.55-0.9-0.2-2.1l0.2-0.15q5.45-4.05 5.65-10.4-5.5-3.65-5.65-8.65v-0.7q-6.05-1.35-7.95 6.15-0.25 1-1.1 1.55-0.9 0.55-1.9 0.3-1-0.3-1.55-1.2-0.55-0.8-0.25-1.9 2.6-10.7 12.75-13.1v-31.75q0-8.9 6.3-15.2 3.4-3.4 7.55-4.95l0.55-0.2q1.95-0.65 4.05-0.95h2.4v0.05l3 0.65 0.8 0.25" fill="#8db5e7"/>
	<path fill="#a3c3eb" d="m26.35 79.9q-1.15-1.15-1.15-2.8t1.15-2.8 2.8-1.15 2.8 1.15 1.15 2.8-1.15 2.8-2.8 1.15-2.8-1.15m-4-3.9q0 0.85-0.6 1.45t-1.45 0.6-1.45-0.6-0.6-1.45 0.6-1.45 1.45-0.6 1.45 0.6 0.6 1.45m-6.95-8.75q0.85-0.85 2.05-0.85t2.05 0.85 0.85 2.05-0.85 2.05-2.05 0.85-2.05-0.85-0.85-2.05 0.85-2.05" fill-opacity=".50196"/>
	<path d="m47.05 42.6q0.8 0.75 0.8 1.75 0 1.1-0.8 1.75-0.75 0.8-1.7 0.8-1.1 0-1.85-0.8-0.75-0.65-0.75-1.75 0-1 0.75-1.75t1.85-0.75q0.95 0 1.7 0.75m-11.05-4.25q0.75-0.8 1.85-0.8 1 0 1.7 0.8 0.75 0.7 0.75 1.75t-0.75 1.75q-0.7 0.75-1.7 0.75-1.1 0-1.85-0.75-0.7-0.7-0.7-1.75t0.7-1.75m-2.2 15q0.35-0.3 0.8-0.3h6.25l0.75 0.3 0.35 0.75-0.35 0.75q-0.3 0.35-0.75 0.35h-6.25q-0.45 0-0.8-0.35-0.25-0.3-0.25-0.75 0-0.4 0.25-0.75m-1-9q0 1.1-0.8 1.75-0.65 0.8-1.75 0.8-1 0-1.8-0.8-0.7-0.65-0.7-1.75 0-1 0.7-1.75 0.8-0.75 1.8-0.75 1.1 0 1.75 0.75 0.8 0.75 0.8 1.75" fill="#4f719d"/>
	<path fill="#fff" d="m44.05 12.75q-3.9 0-6.65 2.8-2.8 2.75-2.8 6.65t2.8 6.65q2.75 2.75 6.65 2.75t6.65-2.75 2.75-6.65-2.75-6.65q-2.75-2.8-6.65-2.8m16.15 19.8q0 11.45-8.05 19.55-8.15 8.05-19.55 8.05t-19.45-8.05q-8.15-8.1-8.15-19.55 0-11.4 8.15-19.45 8.05-8.1 19.45-8.1t19.55 8.1q8.05 8.05 8.05 19.45" fill-opacity=".2"/>
	<path fill="#fff" d="m44.05 12.75q3.9 0 6.65 2.8 2.75 2.75 2.75 6.65t-2.75 6.65-6.65 2.75-6.65-2.75q-2.8-2.75-2.8-6.65t2.8-6.65q2.75-2.8 6.65-2.8" fill-opacity=".30196"/>
	<path d="m60.2 32.55q0-11.4-8.05-19.45-8.15-8.1-19.55-8.1t-19.45 8.1q-8.15 8.05-8.15 19.45 0 11.45 8.15 19.55 8.05 8.05 19.45 8.05t19.55-8.05q8.05-8.1 8.05-19.55m-4.5-23q9.5 9.5 9.5 23 0 13.55-9.5 23.1-9.6 9.5-23.1 9.5t-23-9.5q-9.6-9.55-9.6-23.1 0-13.5 9.6-23 9.5-9.55 23-9.55t23.1 9.55" fill="#fff"/>
</svg>
