<?xml version="1.0" encoding="UTF-8" standalone="no"?>
<svg xmlns="http://www.w3.org/2000/svg" width="69.057" version="1.1" height="71.1"><g transform="translate(-280.89 -65.25)"><path fill="#6fc4a9" d="m331.7 136.35h-8.35l-2.2-18.3q-.2-2.7 1.3-4.7 1.85-2.15 4.55-2.1 2.8-.05 4.55 2.1 1.8 2 1.5 4.7l-1.35 18.3m-33.5-25.1q2.65-.05 3.95 2.1 1 2 .05 4.7l-7.05 18.3h-8.35l3.5-18.3q.45-2.7 2.75-4.7 2.3-2.15 5.15-2.1"/><path fill="#6fc4a9" d="m338.75 101.5-6.6 24.5q-1.4 5.3-8.5 7.4-7.05 2-15.65-.3t-13.7-7.6-3.7-10.6l6.6-24.5q2.3-8.6 10-13.1 7.75-4.45 16.35-2.15t13 10.05q4.5 7.7 2.2 16.3"/><path fill="#347e67" d="m329.7 105.8q1.95.5 2.95 2.3 1.1 1.8.55 3.75-.5 1.9-2.3 2.9-1.8 1.05-3.75.55-2-.55-3.05-2.4-1-1.7-.5-3.6.55-1.95 2.25-3.05 1.85-1 3.85-.45m-20.95-4.1q1.85-1.05 3.85-.5 1.95.55 2.95 2.3 1.1 1.85.55 3.8-.5 1.9-2.3 2.85-1.8 1.1-3.75.55-2-.55-3.05-2.35-1-1.75-.5-3.65.55-1.95 2.25-3"/><path fill="#347e67" d="m318.6 120.85q-.7.75-1.75.75t-1.8-.75q-.7-.7-.7-1.75t.7-1.8q.75-.7 1.8-.7t1.75.7q.75.75.75 1.8t-.75 1.75"/><path fill="#6fc4a9" d="m331.95 122.2 2.4-8.9.3.15q10.2 7.6 6.65 19.6-.3 1-1.15 1.5l-1.9.2q-1-.25-1.5-1.15-.45-.95-.2-1.95 2.25-7.85-4.6-9.45m-35.05-18.3-2.4 8.9q-6.7-2-8.65 5.95-.25 1-1.15 1.55l-1.9.25q-1-.25-1.55-1.1-.5-.9-.3-1.9 2.95-12.15 15.65-13.6l.3-.05"/><path fill="#fff" d="m344.95 97.8q0-11.4-8.05-19.45-8.15-8.1-19.55-8.1t-19.45 8.1q-8.15 8.05-8.15 19.45 0 11.45 8.15 19.55 8.05 8.05 19.45 8.05t19.55-8.05q8.05-8.1 8.05-19.55m-4.5-23q9.5 9.5 9.5 23 0 13.55-9.5 23.1-9.6 9.5-23.1 9.5t-23-9.5q-9.6-9.55-9.6-23.1 0-13.5 9.6-23 9.5-9.55 23-9.55t23.1 9.55"/><path fill="#fff" d="m328.8 96.85q3.9 0 6.65-2.75t2.75-6.65-2.75-6.65q-2.75-2.8-6.65-2.8t-6.65 2.8q-2.8 2.75-2.8 6.65t2.8 6.65q2.75 2.75 6.65 2.75m16.15.95q0 11.45-8.05 19.55-8.15 8.05-19.55 8.05t-19.45-8.05q-8.15-8.1-8.15-19.55 0-11.4 8.15-19.45 8.05-8.1 19.45-8.1t19.55 8.1q8.05 8.05 8.05 19.45" fill-opacity=".2"/><path fill="#fff" d="m328.8 96.85q-3.9 0-6.65-2.75-2.8-2.75-2.8-6.65t2.8-6.65q2.75-2.8 6.65-2.8t6.65 2.8q2.75 2.75 2.75 6.65t-2.75 6.65-6.65 2.75" fill-opacity=".30196"/></g></svg>
