<?xml version="1.0" encoding="UTF-8" standalone="no"?>
<svg xmlns="http://www.w3.org/2000/svg" height="92.073" width="68.35" version="1.1"><path fill="#f19cb7" d="m20.45 24.4q6.3-6.3 15.2-6.3t15.2 6.3 6.3 15.2v30.4q0 5.45-6.3 9.3-6.3 3.8-15.2 3.8t-15.2-3.8q-6.3-3.85-6.3-9.3v-30.4q0-8.9 6.3-15.2"/><path fill="#f19cb7" d="m2.55 62.9q-1.05.05-1.8-.7t-.75-1.8q0-.95.7-1.75 8.65-9.05 20.3-4l.3.15-6.5 6.5q-4.8-5.1-10.5.85-.75.75-1.75.75m63.2-.05q-1 0-1.75-.75-5.65-5.9-10.45-.8l-6.5-6.5.25-.2q11.65-5.05 20.3 4 .7.8.75 1.8-.05 1-.8 1.75t-1.8.7"/><path fill="#f19cb7" d="m54.1 70.5q10.35 9.1 8.7 16.45-.65 2.85-2.4 4.55-2.2 1.3-3.75-.35-.9-9.05-10.15-12.1 1.9-6.1 7.6-8.55m-34.1 8.55q1.9-6.1 7.6-8.55 10.35 9.1 8.7 16.45-.65 2.85-2.4 4.55-2.2 1.3-3.75-.35-.9-9.05-10.15-12.1"/><path fill="#fff" d="m45.75 36q0-2.05-1.55-3.6-1.5-1.5-3.5-1.5-2.2 0-3.75 1.5-1.45 1.55-1.45 3.6 0 2.1 1.45 3.5 1.55 1.55 3.75 1.55 2 0 3.5-1.55 1.55-1.4 1.55-3.5m2.5 1.4q-.45 2.25-2.25 3.95-2.25 2.3-5.25 2.3-3.3 0-5.6-2.3-1.7-1.7-2-3.95l-.15-1.3q0-3.1 2.15-5.45 2.3-2.25 5.6-2.25 3 0 5.25 2.25 2.35 2.35 2.35 5.45l-.1 1.3"/><path fill="#a55b72" d="m45.75 36q0 2.1-1.55 3.5-1.5 1.55-3.5 1.55-2.2 0-3.75-1.55-1.45-1.4-1.45-3.5 0-2.05 1.45-3.6 1.55-1.5 3.75-1.5 2 0 3.5 1.5 1.55 1.55 1.55 3.6m-9.6 13.75-.75 1.25-.45.55-.9.05q-.4-.05-.55-.5-.25-.3-.1-.75.35-1.5 1.95-2.6 2.1-1.75 5.2-1.75 3.05 0 5.2 1.75 1.4 1.1 2 2.5.2.4 0 .85l-.6.5h-.05q-.4.2-.75 0l-.55-.55-.7-1.25-.6-.5q-1.65-1.25-3.95-1.25t-3.95 1.25l-.45.45"/><path fill="#fff" d="m63.25 32.55q0-11.4-8.05-19.45-8.15-8.1-19.55-8.1t-19.45 8.1q-8.15 8.05-8.15 19.45 0 11.45 8.15 19.55 8.05 8.05 19.45 8.05t19.55-8.05q8.05-8.1 8.05-19.55m-4.5-23q9.5 9.5 9.5 23 0 13.55-9.5 23.1-9.6 9.5-23.1 9.5t-23-9.5q-9.6-9.55-9.6-23.1 0-13.5 9.6-23 9.5-9.55 23-9.55t23.1 9.55"/><path fill="#fff" d="m63.25 32.55q0 11.45-8.05 19.55-8.15 8.05-19.55 8.05t-19.45-8.05q-8.15-8.1-8.15-19.55 0-11.4 8.15-19.45 8.05-8.1 19.45-8.1t19.55 8.1q8.05 8.05 8.05 19.45m-6.75-10.35q0-3.9-2.75-6.65-2.75-2.8-6.65-2.8t-6.65 2.8q-2.8 2.75-2.8 6.65t2.8 6.65q2.75 2.75 6.65 2.75t6.65-2.75 2.75-6.65" fill-opacity=".2"/><path fill="#fff" d="m56.5 22.2q0 3.9-2.75 6.65t-6.65 2.75-6.65-2.75q-2.8-2.75-2.8-6.65t2.8-6.65q2.75-2.8 6.65-2.8t6.65 2.8q2.75 2.75 2.75 6.65" fill-opacity=".30196"/><path fill="#f3afc5" d="m49.4 70.35q1.6.4 2.4 1.8.85 1.45.4 3.05-.4 1.55-1.8 2.4-1.45.8-3.05.4-1.55-.45-2.4-1.9-.8-1.4-.4-2.95.45-1.6 1.9-2.4 1.4-.85 2.95-.4m-10.25 5.5 1.6-.2q.8.2 1.2.95.45.75.25 1.55-.25.85-1 1.25l-1.55.2q-.8-.2-1.25-.95-.4-.75-.2-1.55.25-.8.95-1.25m-2.3-4.05q.6 1.05.35 2.2-.35 1.15-1.4 1.75t-2.15.3q-1.2-.3-1.8-1.35t-.25-2.2q.25-1.15 1.3-1.75t2.25-.3q1.1.3 1.7 1.35" fill-opacity=".50196"/></svg>
