<?xml version="1.0" encoding="UTF-8" standalone="no"?>
<svg width="65.2" height="92.8" xmlns="http://www.w3.org/2000/svg" version="1.1"><path fill="#8db5e7" d="m37.75 9.25q4.45 1.55 8.05 5.15 6.2 6.2 6.3 14.9v33q7.6 3.1 9.8 12.2.25 1.05-.3 1.85-.5.9-1.55 1.2-1 .25-1.85-.3-.9-.55-1.15-1.55-1.35-5.45-4.95-6.2v.75q-.1 3.5-2.8 6.35l2.8 2.95q2.6 3.3 2.55 6.85-.05 2.9-1.4 4.85l-1.15.8q-1.4.6-2.8-.7-2.45-7.6-10.65-9.15l-4.7.75v.15h-2v-.05l-3.85-.5q-2.9 8.35-8.45 10.1l-5.15.15q-.95-.55-1.4-1.25-.55-.9-.2-2.1l.2-.15q5.45-4.05 5.65-10.4-5.5-3.65-5.65-8.65v-.7q-6.05-1.35-7.95 6.15-.25 1-1.1 1.55-.9.55-1.9.3-1-.3-1.55-1.2-.55-.8-.25-1.9 2.6-10.7 12.75-13.1v-31.75q0-8.9 6.3-15.2 3.4-3.4 7.55-4.95l.55-.2q1.95-.65 4.05-.95h2.4v.05l3 .65.8.25"/><path fill="#a3c3eb" fill-opacity=".50196" d="m26.35 79.9q-1.15-1.15-1.15-2.8t1.15-2.8 2.8-1.15 2.8 1.15 1.15 2.8-1.15 2.8-2.8 1.15-2.8-1.15m-4-3.9q0 .85-.6 1.45t-1.45.6-1.45-.6-.6-1.45.6-1.45 1.45-.6 1.45.6.6 1.45m-6.95-8.75q.85-.85 2.05-.85t2.05.85.85 2.05-.85 2.05-2.05.85-2.05-.85-.85-2.05.85-2.05"/></svg>
