<?xml version="1.0" encoding="UTF-8" standalone="no"?>
<svg version="1.1" height="82.8" width="66.956" xmlns="http://www.w3.org/2000/svg"><path d="m19.156 18.4q6.3-6.3 15.2-6.3t15.2 6.3 6.3 15.2v10.7q7.6 3.1 9.8 12.2.25 1.05-.3 1.85-.5.9-1.55 1.2-1 .25-1.85-.3-.9-.55-1.15-1.55-1.35-5.45-4.95-6.2v8.5q0 3.65-2.8 6.6 5.4 4.7 5.35 9.8-.05 2.9-1.4 4.85l-3.95.1q-2.45-7.6-10.65-9.15l-8.05.9-6.5-.55q-2.9 8.35-8.45 10.1l-5.15.15q-2.2-1.2-1.6-3.35 5.65-4.1 5.85-10.55-5.65-3.75-5.65-8.9v-8.45q-6.0501-1.35-7.9501 6.15-.25 1-1.1 1.55-.9.55-1.9.3-1-.3-1.55-1.2-.55-.8-.25-1.9 2.6-10.7 12.75-13.1v-9.75q0-8.9 6.3-15.2" fill="#fc0"/></svg>
