<?xml version="1.0" encoding="UTF-8" standalone="no"?>
<svg xmlns="http://www.w3.org/2000/svg" width="65.2" version="1.1" height="91.8"><path d="m15.55 68.8q2.3-2.15 5.15-2.1 2.65-.05 3.95 2.1 1 2 .05 4.7l-7.05 18.3h-8.35l3.5-18.3q.45-2.7 2.75-4.7m24.4 0q1.85-2.15 4.55-2.1 2.8-.05 4.55 2.1 1.8 2 1.5 4.7l-1.35 18.3h-8.35l-2.2-18.3q-.2-2.7 1.3-4.7" fill="#f19cb7"/><path d="m17.4 24.4q6.3-6.3 15.2-6.3t15.2 6.3 6.3 15.2v30.4q0 5.45-6.3 9.3-6.3 3.8-15.2 3.8t-15.2-3.8q-6.3-3.85-6.3-9.3v-30.4q0-8.9 6.3-15.2" fill="#f19cb7"/><path d="m13 52.7v9.2q-7-.2-6.85 8 0 1.05-.7 1.8t-1.75.75-1.8-.7q-.7-.7-.75-1.75-.3-12.55 11.55-17.2l.3-.1m36.2 0 .3.1q11.85 4.65 11.55 17.2-.05 1.05-.75 1.75-.75.7-1.8.7t-1.75-.75-.7-1.8q.15-8.2-6.85-8v-9.2" fill="#f19cb7"/><path fill-opacity=".50196" d="m30.35 78.65q-.4-.75-.2-1.55.25-.8.95-1.25l1.6-.2q.8.2 1.2.95.45.75.25 1.55-.25.85-1 1.25l-1.55.2q-.8-.2-1.25-.95m-6.55-3.95q-.6-1.05-.25-2.2.25-1.15 1.3-1.75t2.25-.3q1.1.3 1.7 1.35t.35 2.2q-.35 1.15-1.4 1.75t-2.15.3q-1.2-.3-1.8-1.35m12.7-1.55q.45-1.6 1.9-2.4 1.4-.85 2.95-.4 1.6.4 2.4 1.8.85 1.45.4 3.05-.4 1.55-1.8 2.4-1.45.8-3.05.4-1.55-.45-2.4-1.9-.8-1.4-.4-2.95" fill="#f3afc5"/><path fill-opacity=".2" d="m32.6 5q11.4 0 19.55 8.1 8.05 8.05 8.05 19.45 0 11.45-8.05 19.55-8.15 8.05-19.55 8.05t-19.45-8.05q-8.15-8.1-8.15-19.55 0-11.4 8.15-19.45 8.05-8.1 19.45-8.1m4.8 10.55q-2.8 2.75-2.8 6.65t2.8 6.65q2.75 2.75 6.65 2.75t6.65-2.75 2.75-6.65-2.75-6.65q-2.75-2.8-6.65-2.8t-6.65 2.8" fill="#fff"/><path fill-opacity=".30196" d="m37.4 15.55q2.75-2.8 6.65-2.8t6.65 2.8q2.75 2.75 2.75 6.65t-2.75 6.65-6.65 2.75-6.65-2.75q-2.8-2.75-2.8-6.65t2.8-6.65" fill="#fff"/><path d="m9.6 9.55q9.5-9.55 23-9.55t23.1 9.55q9.5 9.5 9.5 23 0 13.55-9.5 23.1-9.6 9.5-23.1 9.5t-23-9.5q-9.6-9.55-9.6-23.1 0-13.5 9.6-23m23-4.55q-11.4 0-19.45 8.1-8.15 8.05-8.15 19.45 0 11.45 8.15 19.55 8.05 8.05 19.45 8.05t19.55-8.05q8.05-8.1 8.05-19.55 0-11.4-8.05-19.45-8.15-8.1-19.55-8.1" fill="#fff"/></svg>
