<?xml version="1.0" encoding="UTF-8" standalone="no"?>
<svg xmlns="http://www.w3.org/2000/svg" height="92.8" version="1.1" width="66.956"><path fill="#f19cb7" d="m12.856 39.6q0-8.9 6.3-15.2t15.2-6.3 15.2 6.3 6.3 15.2v14.7q7.6 3.1 9.8 12.2.25 1.05-.3 1.85-.5.9-1.55 1.2-1 .25-1.85-.3-.9-.55-1.15-1.55-1.35-5.45-4.95-6.2v8.5q0 3.65-2.8 6.6 5.4 4.7 5.35 9.8-.05 2.9-1.4 4.85l-3.95.1q-2.45-7.6-10.65-9.15l-8.05.9-6.5-.55q-2.9 8.35-8.45 10.1l-5.15.15q-2.2-1.2-1.6-3.35 5.65-4.1 5.85-10.55-5.65-3.75-5.65-8.9v-8.45q-6.0501-1.35-7.9501 6.15-.25 1-1.1 1.55-.9.55-1.9.3-1-.3-1.55-1.2-.55-.8-.25-1.9 2.6-10.7 12.75-13.1v-13.75"/><path fill="#f3afc5" d="m47.656 73q.85 1.45.4 3.05-.4 1.55-1.8 2.4-1.45.8-3.05.4-1.55-.45-2.4-1.9-.8-1.4-.4-2.95.45-1.6 1.9-2.4 1.4-.85 2.95-.4 1.6.4 2.4 1.8m-13.4 6.5q-.4-.75-.2-1.55.25-.8.95-1.25l1.6-.2q.8.2 1.2.95.45.75.25 1.55-.25.85-1 1.25l-1.55.2q-.8-.2-1.25-.95m-2.6-2.9q-1.05.6-2.15.3-1.2-.3-1.8-1.35t-.25-2.2q.25-1.15 1.3-1.75t2.25-.3q1.1.3 1.7 1.35t.35 2.2q-.35 1.15-1.4 1.75" fill-opacity=".50196"/></svg>
