<?xml version="1.0" encoding="UTF-8" standalone="no"?>
<svg xmlns:rdf="http://www.w3.org/1999/02/22-rdf-syntax-ns#" xmlns="http://www.w3.org/2000/svg" height="92.8" width="66.956" version="1.1" xmlns:cc="http://creativecommons.org/ns#" xmlns:dc="http://purl.org/dc/elements/1.1/">
	<path d="m12.856 39.6q0-8.9 6.3-15.2t15.2-6.3 15.2 6.3 6.3 15.2v14.7q7.6 3.1 9.8 12.2 0.25 1.05-0.3 1.85-0.5 0.9-1.55 1.2-1 0.25-1.85-0.3-0.9-0.55-1.15-1.55-1.35-5.45-4.95-6.2v8.5q0 3.65-2.8 6.6 5.4 4.7 5.35 9.8-0.05 2.9-1.4 4.85l-3.95 0.1q-2.45-7.6-10.65-9.15l-8.05 0.9-6.5-0.55q-2.9 8.35-8.45 10.1l-5.15 0.15q-2.2-1.2-1.6-3.35 5.65-4.1 5.85-10.55-5.65-3.75-5.65-8.9v-8.45q-6.0501-1.35-7.9501 6.15-0.25 1-1.1 1.55-0.9 0.55-1.9 0.3-1-0.3-1.55-1.2-0.55-0.8-0.25-1.9 2.6-10.7 12.75-13.1v-13.75" fill="#f19cb7"/>
	<path d="m31.456 37.95q0-3.1 2.15-5.45 2.3-2.25 5.6-2.25 3 0 5.25 2.25 2.35 2.35 2.35 5.45l-0.1 1.3q-0.45 2.25-2.25 3.95-2.25 2.3-5.25 2.3-3.3 0-5.6-2.3-1.7-1.7-2-3.95l-0.15-1.3m7.7-5.2q-2.2 0-3.75 1.5-1.45 1.55-1.45 3.6 0 2.1 1.45 3.5 1.55 1.55 3.75 1.55 2 0 3.5-1.55 1.55-1.4 1.55-3.5 0-2.05-1.55-3.6-1.5-1.5-3.5-1.5" fill="#fff"/>
	<path d="m39.156 32.75q2 0 3.5 1.5 1.55 1.55 1.55 3.6 0 2.1-1.55 3.5-1.5 1.55-3.5 1.55-2.2 0-3.75-1.55-1.45-1.4-1.45-3.5 0-2.05 1.45-3.6 1.55-1.5 3.75-1.5m-5.3 18.3 0.75 1.25 0.45 0.45q1.65 1.25 3.95 1.25t3.95-1.25l0.6-0.5 0.7-1.25q0.15-0.4 0.55-0.55 0.35-0.2 0.75 0h0.05q0.35 0.1 0.6 0.5 0.2 0.45 0 0.85-0.6 1.4-2 2.5-2.15 1.75-5.2 1.75-3.1 0-5.2-1.75-1.6-1.1-1.95-2.6-0.15-0.45 0.1-0.75 0.15-0.45 0.55-0.5l0.9 0.05 0.45 0.55" fill="#a55b72"/>
	<path d="m1.7559 32.55q0-13.5 9.6-23 9.5-9.55 23-9.55t23.1 9.55q9.5 9.5 9.5 23 0 13.55-9.5 23.1-9.6 9.5-23.1 9.5t-23-9.5q-9.6001-9.55-9.6001-23.1m13.15-19.45q-8.15 8.05-8.15 19.45 0 11.45 8.15 19.55 8.05 8.05 19.45 8.05t19.55-8.05q8.05-8.1 8.05-19.55 0-11.4-8.05-19.45-8.15-8.1-19.55-8.1t-19.45 8.1" fill="#fff"/>
	<path fill="#fff" d="m14.906 13.1q8.05-8.1 19.45-8.1t19.55 8.1q8.05 8.05 8.05 19.45 0 11.45-8.05 19.55-8.15 8.05-19.55 8.05t-19.45-8.05q-8.1501-8.1-8.1501-19.55 0-11.4 8.15-19.45m24.25 15.75q2.75 2.75 6.65 2.75t6.65-2.75 2.75-6.65-2.75-6.65q-2.75-2.8-6.65-2.8t-6.65 2.8q-2.8 2.75-2.8 6.65t2.8 6.65" fill-opacity=".2"/>
	<path fill="#fff" d="m39.156 28.85q-2.8-2.75-2.8-6.65t2.8-6.65q2.75-2.8 6.65-2.8t6.65 2.8q2.75 2.75 2.75 6.65t-2.75 6.65-6.65 2.75-6.65-2.75" fill-opacity=".30196"/>
	<path fill="#f3afc5" d="m47.656 73q0.85 1.45 0.4 3.05-0.4 1.55-1.8 2.4-1.45 0.8-3.05 0.4-1.55-0.45-2.4-1.9-0.8-1.4-0.4-2.95 0.45-1.6 1.9-2.4 1.4-0.85 2.95-0.4 1.6 0.4 2.4 1.8m-13.4 6.5q-0.4-0.75-0.2-1.55 0.25-0.8 0.95-1.25l1.6-0.2q0.8 0.2 1.2 0.95 0.45 0.75 0.25 1.55-0.25 0.85-1 1.25l-1.55 0.2q-0.8-0.2-1.25-0.95m-2.6-2.9q-1.05 0.6-2.15 0.3-1.2-0.3-1.8-1.35t-0.25-2.2q0.25-1.15 1.3-1.75t2.25-0.3q1.1 0.3 1.7 1.35t0.35 2.2q-0.35 1.15-1.4 1.75" fill-opacity=".50196"/>
</svg>
