<?xml version="1.0" encoding="UTF-8" standalone="no"?>
<svg version="1.1" width="66.25" xmlns="http://www.w3.org/2000/svg" height="92.073"><path d="m45.85 26.45h.15l.75.05q1.5.2 2.7 1.4 1.5 1.5 1.5 3.5t-1.5 3.4q-1.4 1.45-3.3 1.5h-18.05q-1.95-.05-3.4-1.5-1.4-1.4-1.4-3.4t1.4-3.5q1.35-1.3 3.15-1.4l.25-.05h.15v.05h17.6v-.05m-15.75 16.2q.4-1.45 1.9-2.55 2.1-1.65 5.1-1.65 2.95 0 5.05 1.65 1.35 1.1 1.95 2.45v.8l-.6.5q-.4.2-.8 0l-.5-.55q-.4-.9-1.3-1.65-1.6-1.2-3.8-1.2-2.3 0-3.85 1.2-.9.7-1.2 1.6l-.45.55-.85.1-.55-.5q-.2-.35-.1-.75" fill="#af9f7a"/></svg>
