<?xml version="1.0" encoding="UTF-8" standalone="no"?>
<svg height="95.634" version="1.1" width="66.556" xmlns="http://www.w3.org/2000/svg"><path fill="#8db5e7" d="m35.306 83.1h-.5l.35 1.9.15-1.9m-14.55-68.7q1.5-1.5 3.15-2.65 3.8-2.6 8.3-3.35h4.25v.15q4.1.8 7.55 3.2 1.65 1.15 3.15 2.65 4.2 4.2 5.6 9.6.7 2.65.7 5.6v31.7q7.45 1.35 11.65 9.1.55.9.2 1.85-.25 1-1.2 1.55l-1.85.2q-1-.25-1.5-1.2-3.1-5.5-7.3-4.6v2.05q-.05 1.65-.7 3.2-1.4 3.3-5.6 5.85l-2.3 1.25q-.55 9.15-5.5 12.3-1.45.95-2.9 1.3v.2h-.05l-.35-.1-1.6.1v-3.5l-.6 1.2q-1.5 2.45-3.6 3.45-2.7.65-3.45-1.85 1.75-8.5-5.85-14.25l-.2-.1q-6.2-3.8-6.3-9.1v-1q-5.8-3.45-9.8 3.6-.5.9-1.45 1.2l-1.9-.2q-.9-.55-1.2-1.55-.3-.95.25-1.9 4.8499-8.95 14.1-9.35v-31.4q0-8.9 6.3-15.2"/><path fill="#a3c3eb" fill-opacity=".50196" d="m20.756 74.5q0-.85.6-1.45t1.45-.6 1.45.6.6 1.45-.6 1.45-1.45.6-1.45-.6-.6-1.45m1.25-8.75q.85.85.85 2.05t-.85 2.05-2.05.85-2.05-.85-.85-2.05.85-2.05 2.05-.85 2.05.85m12.45 12.65q-1.15 1.15-2.8 1.15t-2.8-1.15-1.15-2.8 1.15-2.8 2.8-1.15 2.8 1.15 1.15 2.8-1.15 2.8"/></svg>
