<?xml version="1.0" encoding="UTF-8" standalone="no"?>
<svg xmlns:rdf="http://www.w3.org/1999/02/22-rdf-syntax-ns#" xmlns="http://www.w3.org/2000/svg" height="95.634" width="69.942" version="1.1" xmlns:cc="http://creativecommons.org/ns#" xmlns:dc="http://purl.org/dc/elements/1.1/">
	<path d="m21.356 79.35q3.75-5.2 9.9-5.75 7 11.9 3.1 18.45-1.5 2.45-3.6 3.45-2.7 0.65-3.45-1.85 1.75-8.55-5.95-14.3" fill="#6fc4a9"/>
	<path d="m38.906 94.35q-2.45-0.6-2.4-2.9 5.8-7 1.4-15.7 5.7-2.9 11.4-0.75 0.9 13.8-5.45 17.85-2.45 1.6-4.95 1.5" fill="#6fc4a9"/>
	<path d="m50.756 53.3 0.25-0.05q12.6-1.9 18.6 9.15 0.55 0.9 0.2 1.85-0.25 1-1.2 1.55l-1.85 0.2q-1-0.25-1.5-1.2-4.05-7.15-9.95-3.5l-4.55-8m-31.55 0-4.6 8q-5.9-3.65-9.95 3.5-0.5 0.9-1.45 1.2l-1.9-0.2q-0.9-0.55-1.2-1.55-0.3-0.95 0.25-1.9 6-11 18.6-9.1l0.25 0.05" fill="#6fc4a9"/>
	<path d="m51.656 14.4q6.3 6.3 6.3 15.2v40.4q0 5.45-6.3 9.3-6.3 3.8-15.2 3.8t-15.2-3.8q-6.3-3.85-6.3-9.3v-40.4q0-8.9 6.3-15.2t15.2-6.3 15.2 6.3" fill="#6fc4a9"/>
	<path d="m45.356 41.05q0-2 1.4-3.5 1.5-1.45 3.6-1.45 2 0 3.45 1.45 1.5 1.5 1.5 3.5t-1.5 3.4q-1.45 1.5-3.45 1.5-2.1 0-3.6-1.5-1.4-1.4-1.4-3.4m-7.75 0q0 2-1.5 3.4-1.45 1.5-3.45 1.5-2.1 0-3.6-1.5-1.4-1.4-1.4-3.4t1.4-3.5q1.5-1.45 3.6-1.45 2 0 3.45 1.45 1.5 1.5 1.5 3.5m-3.05 7.6q0.15-0.4 0.55-0.5l0.85 0.1 0.45 0.55q0.3 0.9 1.2 1.6 1.55 1.2 3.85 1.2 2.2 0 3.8-1.2 0.9-0.75 1.3-1.65 0.1-0.4 0.5-0.55 0.4-0.2 0.8 0 0.35 0.1 0.6 0.5v0.8q-0.6 1.35-1.95 2.45-2.1 1.65-5.05 1.65-3 0-5.1-1.65-1.5-1.1-1.9-2.55-0.1-0.4 0.1-0.75" fill="#347e67"/>
	<path fill="#8bcfba" d="m47.956 67.3q0-1.2 0.85-2.05t2.05-0.85 2.05 0.85 0.85 2.05-0.85 2.05-2.05 0.85-2.05-0.85-0.85-2.05m-11.6 5q1.15-1.15 2.8-1.15t2.8 1.15 1.15 2.8-1.15 2.8-2.8 1.15-2.8-1.15-1.15-2.8 1.15-2.8m13.1 0.25q0.6 0.6 0.6 1.45t-0.6 1.45-1.45 0.6-1.45-0.6-0.6-1.45 0.6-1.45 1.45-0.6 1.45 0.6" fill-opacity=".50196"/>
	<path d="m59.556 9.55q9.5 9.5 9.5 23 0 13.55-9.5 23.1-9.6 9.5-23.1 9.5t-23-9.5q-9.6-9.55-9.6-23.1 0-13.5 9.6-23 9.5-9.55 23-9.55t23.1 9.55m4.5 23q0-11.4-8.05-19.45-8.15-8.1-19.55-8.1t-19.45 8.1q-8.15 8.05-8.15 19.45 0 11.45 8.15 19.55 8.05 8.05 19.45 8.05t19.55-8.05q8.05-8.1 8.05-19.55" fill="#fff"/>
	<path fill="#fff" d="m64.056 32.55q0 11.45-8.05 19.55-8.15 8.05-19.55 8.05t-19.45-8.05q-8.1501-8.1-8.1501-19.55 0-11.4 8.15-19.45 8.05-8.1 19.45-8.1t19.55 8.1q8.05 8.05 8.05 19.45m-9.5-3.7q2.75-2.75 2.75-6.65t-2.75-6.65q-2.75-2.8-6.65-2.8t-6.65 2.8q-2.8 2.75-2.8 6.65t2.8 6.65q2.75 2.75 6.65 2.75t6.65-2.75" fill-opacity=".2"/>
	<path fill="#fff" d="m54.556 28.85q-2.75 2.75-6.65 2.75t-6.65-2.75q-2.8-2.75-2.8-6.65t2.8-6.65q2.75-2.8 6.65-2.8t6.65 2.8q2.75 2.75 2.75 6.65t-2.75 6.65" fill-opacity=".30196"/>
</svg>
