<?xml version="1.0" encoding="UTF-8" standalone="no"?>
<svg xmlns:rdf="http://www.w3.org/1999/02/22-rdf-syntax-ns#" xmlns="http://www.w3.org/2000/svg" height="92.073" width="68.35" version="1.1" xmlns:cc="http://creativecommons.org/ns#" xmlns:dc="http://purl.org/dc/elements/1.1/">
	<path d="m50.85 14.4q6.3 6.3 6.3 15.2v40.4q0 5.45-6.3 9.3-6.3 3.8-15.2 3.8t-15.2-3.8q-6.3-3.85-6.3-9.3v-40.4q0-8.9 6.3-15.2t15.2-6.3 15.2 6.3" fill="#6fc4a9"/>
	<path d="m49.55 36.1q2 0 3.45 1.45 1.5 1.5 1.5 3.5t-1.5 3.4q-1.45 1.5-3.45 1.5-2.1 0-3.6-1.5-1.4-1.4-1.4-3.4t1.4-3.5q1.5-1.45 3.6-1.45m-1.9 14.4-0.6 0.5q-0.4 0.2-0.8 0l-0.5-0.55q-0.4-0.9-1.3-1.65-1.6-1.2-3.8-1.2-2.3 0-3.85 1.2-0.9 0.7-1.2 1.6l-0.45 0.55-0.85 0.1-0.55-0.5q-0.2-0.35-0.1-0.75 0.4-1.45 1.9-2.55 2.1-1.65 5.1-1.65 2.95 0 5.05 1.65 1.35 1.1 1.95 2.45v0.8m-10.85-9.45q0 2-1.5 3.4-1.45 1.5-3.45 1.5-2.1 0-3.6-1.5-1.4-1.4-1.4-3.4t1.4-3.5q1.5-1.45 3.6-1.45 2 0 3.45 1.45 1.5 1.5 1.5 3.5" fill="#347e67"/>
	<path d="m2.55 62.9q-1.05 0.05-1.8-0.7t-0.75-1.8q0-0.95 0.7-1.75 8.65-9.05 20.3-4l0.3 0.15-6.5 6.5q-4.8-5.1-10.5 0.85-0.75 0.75-1.75 0.75m61.45-0.8q-5.65-5.9-10.45-0.8l-6.5-6.5 0.25-0.2q11.65-5.05 20.3 4 0.7 0.8 0.75 1.8-0.05 1-0.8 1.75t-1.8 0.7q-1 0-1.75-0.75" fill="#6fc4a9"/>
	<path d="m63.25 32.55q0-11.4-8.05-19.45-8.15-8.1-19.55-8.1t-19.45 8.1q-8.15 8.05-8.15 19.45 0 11.45 8.15 19.55 8.05 8.05 19.45 8.05t19.55-8.05q8.05-8.1 8.05-19.55m-4.5-23q9.5 9.5 9.5 23 0 13.55-9.5 23.1-9.6 9.5-23.1 9.5t-23-9.5q-9.6-9.55-9.6-23.1 0-13.5 9.6-23 9.5-9.55 23-9.55t23.1 9.55" fill="#fff"/>
	<path fill-opacity=".2" d="m63.25 32.55q0 11.45-8.05 19.55-8.15 8.05-19.55 8.05t-19.45-8.05q-8.15-8.1-8.15-19.55 0-11.4 8.15-19.45 8.05-8.1 19.45-8.1t19.55 8.1q8.05 8.05 8.05 19.45m-6.75-10.35q0-3.9-2.75-6.65-2.75-2.8-6.65-2.8t-6.65 2.8q-2.8 2.75-2.8 6.65t2.8 6.65q2.75 2.75 6.65 2.75t6.65-2.75 2.75-6.65" fill="#fff"/>
	<path fill-opacity=".30196" d="m56.5 22.2q0 3.9-2.75 6.65t-6.65 2.75-6.65-2.75q-2.8-2.75-2.8-6.65t2.8-6.65q2.75-2.8 6.65-2.8t6.65 2.8q2.75 2.75 2.75 6.65" fill="#fff"/>
	<path d="m54.1 70.5q10.35 9.1 8.7 16.45-0.65 2.85-2.4 4.55-2.2 1.3-3.75-0.35-0.9-9.05-10.15-12.1 1.9-6.1 7.6-8.55m-34.1 8.55q1.9-6.1 7.6-8.55 10.35 9.1 8.7 16.45-0.65 2.85-2.4 4.55-2.2 1.3-3.75-0.35-0.9-9.05-10.15-12.1" fill="#6fc4a9"/>
	<path fill-opacity=".50196" d="m34.55 77.9q-1.15-1.15-1.15-2.8t1.15-2.8 2.8-1.15 2.8 1.15 1.15 2.8-1.15 2.8-2.8 1.15-2.8-1.15m16.55-12.65q0.85 0.85 0.85 2.05t-0.85 2.05-2.05 0.85-2.05-0.85-0.85-2.05 0.85-2.05 2.05-0.85 2.05 0.85m-4.9 6.7q0.85 0 1.45 0.6t0.6 1.45-0.6 1.45-1.45 0.6-1.45-0.6-0.6-1.45 0.6-1.45 1.45-0.6" fill="#8bcfba"/>
</svg>
