<?xml version="1.0" encoding="UTF-8" standalone="no"?>
<svg xmlns="http://www.w3.org/2000/svg" height="25.8" version="1.1" width="15.35"><path d="m0 7.7q0-3.1 2.15-5.45 2.3-2.25 5.6-2.25 3 0 5.25 2.25 2.35 2.35 2.35 5.45l-.10 1.3q-.45 2.25-2.25 3.95-2.25 2.3-5.25 2.3-3.3 0-5.6-2.3-1.7-1.7-2-3.95l-.15-1.3m7.7-5.2q-2.2 0-3.75 1.5-1.45 1.55-1.45 3.6 0 2.1 1.45 3.5 1.55 1.55 3.75 1.55 2 0 3.5-1.55 1.55-1.4 1.55-3.5 0-2.05-1.55-3.6-1.5-1.5-3.5-1.5" fill="#fff"/><path d="m7.7 2.5q2 0 3.5 1.5 1.55 1.55 1.55 3.6 0 2.1-1.55 3.5-1.5 1.55-3.5 1.55-2.2 0-3.75-1.55-1.45-1.4-1.45-3.5 0-2.05 1.45-3.6 1.55-1.5 3.75-1.5m-5.3 18.3.75 1.25.45.45q1.65 1.25 3.95 1.25t3.95-1.25l.6-.5.7-1.25q.15-.4.55-.55.35-.2.75 0h.05q.35.1.6.5.2.45 0 .85-.6 1.4-2 2.5-2.15 1.75-5.2 1.75-3.1 0-5.2-1.75-1.6-1.1-1.95-2.6-.15-.45.10-.75.15-.45.55-.50l.9.05.45.55" fill="#a55b72"/></svg>
