<?xml version="1.0" encoding="UTF-8" standalone="no"?>
<svg width="15.35" xmlns="http://www.w3.org/2000/svg" height="23.3" version="1.1"><path fill="#fff" d="m12.75 7.6q0-2.05-1.55-3.6-1.5-1.5-3.5-1.5-2.2 0-3.75 1.5-1.45 1.55-1.45 3.6 0 2.1 1.45 3.5 1.55 1.55 3.75 1.55 2 0 3.5-1.55 1.55-1.4 1.55-3.5m2.5 1.4q-.45 2.25-2.25 3.95-2.25 2.3-5.25 2.3-3.3 0-5.6-2.3-1.7-1.7-2-3.95l-.15-1.3q0-3.1 2.15-5.45 2.3-2.25 5.6-2.25 3 0 5.25 2.25 2.35 2.35 2.35 5.45l-.10 1.3"/><path fill="#a55b72" d="m12.75 7.6q0 2.1-1.55 3.5-1.5 1.55-3.5 1.55-2.2 0-3.75-1.55-1.45-1.4-1.45-3.5 0-2.05 1.45-3.6 1.55-1.5 3.75-1.5 2 0 3.5 1.5 1.55 1.55 1.55 3.6m-9.6 13.75-.75 1.25-.45.55-.90.05q-.40-.05-.55-.50-.25-.30-.10-.75.35-1.5 1.95-2.6 2.1-1.75 5.2-1.75 3.05 0 5.2 1.75 1.4 1.1 2 2.5.2.4 0 .85l-.6.5h-.05q-.4.2-.75 0l-.55-.55-.70-1.25-.60-.50q-1.65-1.25-3.95-1.25t-3.95 1.25l-.45.45"/></svg>
