<?xml version="1.0" encoding="UTF-8" standalone="no"?>
<svg version="1.1" height="15" width="27.65" xmlns="http://www.w3.org/2000/svg"><path d="m22.7 0q2 0 3.45 1.45 1.5 1.5 1.5 3.5t-1.5 3.4q-1.45 1.5-3.45 1.5-2.1 0-3.6-1.5-1.4-1.4-1.4-3.4t1.4-3.5q1.5-1.45 3.6-1.45m-1.9 14.4-.6.5q-.4.2-.8 0l-.5-.55q-.4-.9-1.3-1.65-1.6-1.2-3.8-1.2-2.3 0-3.85 1.2-.9.7-1.2 1.6l-.45.55-.85.10-.55-.50q-.20-.35-.10-.75.40-1.45 1.9-2.55 2.1-1.65 5.1-1.65 2.95 0 5.05 1.65 1.35 1.1 1.95 2.45v.8m-10.85-9.45q0 2-1.5 3.4-1.45 1.5-3.45 1.5-2.1 0-3.6-1.5-1.4-1.4-1.4-3.4t1.4-3.5q1.5-1.45 3.6-1.45 2 0 3.45 1.45 1.5 1.5 1.5 3.5" fill="#347e67"/></svg>
