<?xml version="1.0" encoding="UTF-8" standalone="no"?>
<svg xmlns="http://www.w3.org/2000/svg" width="27.641" version="1.1" height="18.74"><path d="m4.8242 9.8363q-1.9776-.0395-3.3965-1.4711-1.4059-1.3832-1.4276-3.3962-.0088452-1.9647 1.3968-3.4801 1.3479-1.3447 3.1418-1.4112l.2898-.0777.15783.0095-.03535.06124 17.598-.005.03535-.06124.15783.0095.69256.07325q1.4946.16891 2.7039 1.3978 1.493 1.5152 1.5018 3.4799.02173 2.013-1.4711 3.3965-1.4186 1.4672-3.2737 1.4984l-.15783-.0095-.15783-.0095-17.598.005-.15783-.0095" fill="#af9f7a"/><path d="m14.095 18.74q-1.0919-.01802-1.8561-0.745-.70296-.69163-.68494-1.7835-.01734-1.0306.72259-1.7465.67869-.75126 1.7706-.73324 1.0306-.01734 1.7948.70964.7159.73992.73324 1.7706-.01802 1.0919-.77088 1.7595-.67869.75126-1.7093.76859" fill="#af9f7a"/></svg>
