<?xml version="1.0" encoding="UTF-8" standalone="no"?>
<svg xmlns:rdf="http://www.w3.org/1999/02/22-rdf-syntax-ns#" xmlns="http://www.w3.org/2000/svg" height="71.1" width="69.057" version="1.1" xmlns:cc="http://creativecommons.org/ns#" xmlns:dc="http://purl.org/dc/elements/1.1/">
	<g transform="translate(-280.89 -64.371)">
		<path d="m333.05 117.17-1.35 18.3h-8.35l-2.2-18.3q-0.2-2.7 1.3-4.7 1.85-2.15 4.55-2.1 2.8-0.05 4.55 2.1 1.8 2 1.5 4.7m-30.9-4.7q1 2 0.05 4.7l-7.05 18.3h-8.35l3.5-18.3q0.45-2.7 2.75-4.7 2.3-2.15 5.15-2.1 2.65-0.05 3.95 2.1" fill="#f19cb7"/>
		<path d="m336.75 108.02-4.6 17.1q-1.4 5.3-8.5 7.4-7.05 2-15.65-0.3t-13.7-7.6-3.7-10.6l4.6-17.1q2.3-8.6 10-13.1 7.75-4.45 16.35-2.15t13 10.05q4.5 7.7 2.2 16.3" fill="#f19cb7"/>
		<path d="m334.35 112.42 0.3 0.15q10.2 7.6 6.65 19.6-0.3 1-1.15 1.5l-1.9 0.2q-1-0.25-1.5-1.15-0.45-0.95-0.2-1.95 2.25-7.85-4.6-9.45l2.4-8.9m-37.45-9.4-2.4 8.9q-6.7-2-8.65 5.95-0.25 1-1.15 1.55l-1.9 0.25q-1-0.25-1.55-1.1-0.5-0.9-0.3-1.9 2.95-12.15 15.65-13.6l0.3-0.05" fill="#f19cb7"/>
		<path d="m314.7 119.07q-0.5-0.85-0.2-1.9 0.25-1 1.15-1.5 0.85-0.55 1.9-0.25 1 0.25 1.55 1.15 0.5 0.9 0.25 1.9-0.3 1.05-1.2 1.5-0.85 0.55-1.85 0.3-1.05-0.3-1.6-1.2" fill="#a55b72"/>
		<path d="m328 105.07-0.45 1.2q-0.95 2.05-3.15 3.25-2.8 1.65-5.7 0.9-3.15-0.85-4.8-3.7-1.2-2.1-0.9-4.35l0.2-1.25q0.8-3 3.45-4.7 2.85-1.6 6-0.75 2.9 0.75 4.5 3.55 1.65 2.85 0.85 5.85m-2.5-0.75q0.55-2-0.55-3.9-1.05-1.85-2.95-2.4-2.15-0.55-4.05 0.5-1.8 1.15-2.35 3.15-0.5 2 0.5 3.7 1.1 1.9 3.25 2.45 1.9 0.55 3.75-0.55 1.9-0.95 2.4-2.95" fill="#fff"/>
		<path d="m325.5 104.32q-0.5 2-2.4 2.95-1.85 1.1-3.75 0.55-2.15-0.55-3.25-2.45-1-1.7-0.5-3.7 0.55-2 2.35-3.15 1.9-1.05 4.05-0.5 1.9 0.55 2.95 2.4 1.1 1.9 0.55 3.9" fill="#a55b72"/>
		<path fill-opacity=".2" d="m335.45 79.921q-2.75-2.8-6.65-2.8t-6.65 2.8q-2.8 2.75-2.8 6.65t2.8 6.65q2.75 2.75 6.65 2.75t6.65-2.75 2.75-6.65-2.75-6.65m1.45 36.55q-8.15 8.05-19.55 8.05t-19.45-8.05q-8.15-8.1-8.15-19.55 0-11.4 8.15-19.45 8.05-8.1 19.45-8.1t19.55 8.1q8.05 8.05 8.05 19.45 0 11.45-8.05 19.55" fill="#fff"/>
		<path fill-opacity=".30196" d="m335.45 79.921q2.75 2.75 2.75 6.65t-2.75 6.65-6.65 2.75-6.65-2.75q-2.8-2.75-2.8-6.65t2.8-6.65q2.75-2.8 6.65-2.8t6.65 2.8" fill="#fff"/>
		<path d="m336.9 116.47q8.05-8.1 8.05-19.55 0-11.4-8.05-19.45-8.15-8.1-19.55-8.1t-19.45 8.1q-8.15 8.05-8.15 19.45 0 11.45 8.15 19.55 8.05 8.05 19.45 8.05t19.55-8.05m13.05-19.55q0 13.55-9.5 23.1-9.6 9.5-23.1 9.5t-23-9.5q-9.6-9.55-9.6-23.1 0-13.5 9.6-23 9.5-9.55 23-9.55t23.1 9.55q9.5 9.5 9.5 23" fill="#fff"/>
	</g>
</svg>
