<?xml version="1.0" encoding="UTF-8" standalone="no"?>
<svg version="1.1" height="83.315" width="67.133" xmlns="http://www.w3.org/2000/svg"><path fill="#fc0" d="m13.3 64.6q5.8-2.65 11.45 0 .1 13.8-6.55 17.45-2.5 1.4-4.85 1.25-2.65-.8-2.1-3.35 5.85-6.55 2.05-15.35m36.7-6.6q10.35 9.1 8.7 16.45-.65 2.85-2.4 4.55-2.2 1.3-3.75-.35-.9-9.05-10.15-12.1 1.9-6.1 7.6-8.55"/><path fill="#fc0" d="m17.4 17.4q6.3-6.3 15.2-6.3t15.2 6.3 6.3 15.2v27.4q0 5.45-6.3 9.3-6.3 3.8-15.2 3.8t-15.2-3.8q-6.3-3.85-6.3-9.3v-27.4q0-8.9 6.3-15.2"/><path fill="#fc0" d="m66.8 44.75q-6 11-18.6 9.1l-.3-.05 4.6-8q5.95 3.7 9.95-3.45.55-.95 1.5-1.25 1-.25 1.9.25.9.55 1.2 1.5.25.95-.25 1.9m-61.35 16.95q-.7.75-1.75.75t-1.8-.7q-.7-.7-.75-1.75-.3-12.55 11.55-17.2l.3-.1v9.2q-7-.2-6.85 8 0 1.05-.7 1.8"/></svg>
