<?xml version="1.0" encoding="UTF-8" standalone="no"?>
<svg width="65.2" xmlns="http://www.w3.org/2000/svg" version="1.1" height="91.8"><path d="m60.3 71.75q-.75.7-1.8.7t-1.75-.75-.7-1.8q.15-8.2-6.85-8v-9.2l.3.1q11.85 4.65 11.55 17.2-.05 1.05-.75 1.75m-47.3-19.05v9.2q-7-.2-6.85 8 0 1.05-.7 1.8t-1.75.75-1.8-.7q-.7-.7-.75-1.75-.3-12.55 11.55-17.2l.3-.1" fill="#e0d1af"/><path d="m54.1 71.4h-.3q-1.15 3.95-6 6.9-6.3 3.8-15.2 3.8t-15.2-3.8q-4.85-2.95-5.95-6.9h-.35v-38.8q0-8.9 6.3-15.2t15.2-6.3 15.2 6.3 6.3 15.2v38.8" fill="#e0d1af"/><path d="m50.7 15.55q-2.75-2.8-6.65-2.8t-6.65 2.8q-2.8 2.75-2.8 6.65t2.8 6.65q2.75 2.75 6.65 2.75t6.65-2.75 2.75-6.65-2.75-6.65m1.45 36.55q-8.15 8.05-19.55 8.05t-19.45-8.05q-8.15-8.1-8.15-19.55 0-11.4 8.15-19.45 8.05-8.1 19.45-8.1t19.55 8.1q8.05 8.05 8.05 19.45 0 11.45-8.05 19.55" fill="#fff" fill-opacity=".2"/><path d="m50.7 15.55q2.75 2.75 2.75 6.65t-2.75 6.65-6.65 2.75-6.65-2.75q-2.8-2.75-2.8-6.65t2.8-6.65q2.75-2.8 6.65-2.8t6.65 2.8" fill="#fff" fill-opacity=".30196"/><path d="m65.2 32.55q0 13.55-9.5 23.1-9.6 9.5-23.1 9.5t-23-9.5q-9.6-9.55-9.6-23.1 0-13.5 9.6-23 9.5-9.55 23-9.55t23.1 9.55q9.5 9.5 9.5 23m-13.05 19.55q8.05-8.1 8.05-19.55 0-11.4-8.05-19.45-8.15-8.1-19.55-8.1t-19.45 8.1q-8.15 8.05-8.15 19.45 0 11.45 8.15 19.55 8.05 8.05 19.45 8.05t19.55-8.05" fill="#fff"/><path d="m50.55 73.5-1.35 18.3h-8.35l-2.2-18.3q-.2-2.7 1.3-4.7 1.85-2.15 4.55-2.1 2.8-.05 4.55 2.1 1.8 2 1.5 4.7m-35-4.7q2.3-2.15 5.15-2.1 2.65-.05 3.95 2.1 1 2 .05 4.7l-7.05 18.3h-8.35l3.5-18.3q.45-2.7 2.75-4.7" fill="#e0d1af"/></svg>
