<?xml version="1.0" encoding="UTF-8" standalone="no"?>
<svg version="1.1" height="93.315" xmlns="http://www.w3.org/2000/svg" width="65.2"><path d="m20.2 92.05q-2.5 1.4-4.85 1.25-2.65-.8-2.1-3.35 5.85-6.55 2.05-15.35 5.8-2.65 11.45 0 .1 13.8-6.55 17.45m27.8-24.05q10.35 9.1 8.7 16.45-.65 2.85-2.4 4.55-2.2 1.3-3.75-.35-.9-9.05-10.15-12.1 1.9-6.1 7.6-8.55" fill="#8db5e7"/><path d="m19.4 14.4q5.6-5.6 13.15-6.2v-.1h.05l1 .05.95-.05v.35q6.4 1.1 11.25 5.95 6.3 6.3 6.3 15.2v40.4q0 5.45-6.3 9.3-4.85 2.95-11.25 3.65v.15h-2v-.05q-7.55-.4-13.15-3.75-6.3-3.85-6.3-9.3v-40.4q0-8.9 6.3-15.2" fill="#8db5e7"/><path d="m60.45 62.35q.55-.95 1.5-1.25 1-.25 1.9.25.9.55 1.2 1.5.25.95-.25 1.9-6 11-18.6 9.1l-.3-.05 4.6-8q5.95 3.7 9.95-3.45m-54.75 20.1q-1.05 0-1.8-.7-.7-.7-.75-1.75-.3-12.55 11.55-17.2l.3-.1v9.2q-7-.2-6.85 8 0 1.05-.7 1.8t-1.75.75" fill="#8db5e7"/><path d="m18.45 64.55q1.2 0 2.05.85t.85 2.05-.85 2.05-2.05.85-2.05-.85-.85-2.05.85-2.05 2.05-.85m4.9 9.6q0 .85-.6 1.45t-1.45.6-1.45-.6-.6-1.45.6-1.45 1.45-.6 1.45.6.6 1.45m6.8-2.85q1.65 0 2.8 1.15t1.15 2.8-1.15 2.8-2.8 1.15-2.8-1.15-1.15-2.8 1.15-2.8 2.8-1.15" fill="#a3c3eb" fill-opacity=".50196"/></svg>
