<?xml version="1.0" encoding="UTF-8" standalone="no"?>
<svg height="71.5" version="1.1" xmlns="http://www.w3.org/2000/svg" width="67.057"><path fill="#8db5e7" d="m48.16 52.8-1.35 18.3h-8.35l-2.2-18.3q-.2-2.7 1.3-4.7 1.85-2.15 4.55-2.1 2.8-.05 4.55 2.1 1.8 2 1.5 4.7m-26.9-4.7q1 2 .05 4.7l-7.05 18.3h-8.35l3.5-18.3q.45-2.7 2.75-4.7 2.3-2.15 5.15-2.1 2.65-.05 3.95 2.1"/><path fill="#8db5e7" d="m55.86 36.25-6.6 24.5q-1.4 5.3-8.5 7.4-7.05 2-15.65-.3t-13.7-7.6-3.7-10.6l6.6-24.5q2.3-8.6 10-13.1 7.75-4.45 16.35-2.15t13 10.05q4.5 7.7 2.2 16.3"/><path fill="#8db5e7" d="m49.46 50.05.3.15q10.2 7.6 6.65 19.6-.3 1-1.15 1.5l-1.9.2q-1-.25-1.5-1.15-.45-.95-.2-1.95 2.25-7.85-4.6-9.45l2.4-8.9m-44.5 5.45q-.25 1-1.15 1.55l-1.9.25q-1-.25-1.55-1.1-.5-.9-.3-1.9 2.95-12.15 15.65-13.6l.3-.05-2.4 8.9q-6.7-2-8.65 5.95"/></svg>
