<?xml version="1.0" encoding="UTF-8" standalone="no"?>
<svg xmlns="http://www.w3.org/2000/svg" width="65.2" height="91.8" version="1.1"><path d="m50.55 73.5-1.35 18.3h-8.35l-2.2-18.3q-.2-2.7 1.3-4.7 1.85-2.15 4.55-2.1 2.8-.05 4.55 2.1 1.8 2 1.5 4.7m-25.9-4.7q1 2 .05 4.7l-7.05 18.3h-8.35l3.5-18.3q.45-2.7 2.75-4.7 2.3-2.15 5.15-2.1 2.65-.05 3.95 2.1" fill="#6fc4a9"/><path d="m47.8 14.4q6.3 6.3 6.3 15.2v40.4q0 5.45-6.3 9.3-6.3 3.8-15.2 3.8t-15.2-3.8q-6.3-3.85-6.3-9.3v-40.4q0-8.9 6.3-15.2t15.2-6.3 15.2 6.3" fill="#6fc4a9"/><path d="m49.95 37.55q1.5 1.5 1.5 3.5t-1.5 3.4q-1.45 1.5-3.45 1.5-2.1 0-3.6-1.5-1.4-1.4-1.4-3.4t1.4-3.5q1.5-1.45 3.6-1.45 2 0 3.45 1.45m-5.35 11.95q-.6 1.35-1.95 2.45-2.1 1.65-5.05 1.65-3 0-5.1-1.65-1.5-1.1-1.9-2.55-.1-.4.1-.75.15-.4.55-.5l.85.1.45.55q.3.9 1.2 1.6 1.55 1.2 3.85 1.2 2.2 0 3.8-1.2.9-.75 1.3-1.65.1-.4.5-.55.4-.2.8 0l.6.5v.8m-10.85-8.45q0 2-1.5 3.4-1.45 1.5-3.45 1.5-2.1 0-3.6-1.5-1.4-1.4-1.4-3.4t1.4-3.5q1.5-1.45 3.6-1.45 2 0 3.45 1.45 1.5 1.5 1.5 3.5" fill="#347e67"/><path d="m49.2 52.7.3.1q11.85 4.65 11.55 17.2-.05 1.05-.75 1.75-.75.7-1.8.7t-1.75-.75-.7-1.8q.15-8.2-6.85-8v-9.2m-36.2 0v9.2q-7-.2-6.85 8 0 1.05-.7 1.8t-1.75.75-1.8-.7q-.7-.7-.75-1.75-.3-12.55 11.55-17.2l.3-.1" fill="#6fc4a9"/><path d="m60.2 32.55q0-11.4-8.05-19.45-8.15-8.1-19.55-8.1t-19.45 8.1q-8.15 8.05-8.15 19.45 0 11.45 8.15 19.55 8.05 8.05 19.45 8.05t19.55-8.05q8.05-8.1 8.05-19.55m-4.5-23q9.5 9.5 9.5 23 0 13.55-9.5 23.1-9.6 9.5-23.1 9.5t-23-9.5q-9.6-9.55-9.6-23.1 0-13.5 9.6-23 9.5-9.55 23-9.55t23.1 9.55" fill="#fff"/><path d="m60.2 32.55q0 11.45-8.05 19.55-8.15 8.05-19.55 8.05t-19.45-8.05q-8.15-8.1-8.15-19.55 0-11.4 8.15-19.45 8.05-8.1 19.45-8.1t19.55 8.1q8.05 8.05 8.05 19.45m-6.75-10.35q0-3.9-2.75-6.65-2.75-2.8-6.65-2.8t-6.65 2.8q-2.8 2.75-2.8 6.65t2.8 6.65q2.75 2.75 6.65 2.75t6.65-2.75 2.75-6.65" fill-opacity=".2" fill="#fff"/><path d="m53.45 22.2q0 3.9-2.75 6.65t-6.65 2.75-6.65-2.75q-2.8-2.75-2.8-6.65t2.8-6.65q2.75-2.8 6.65-2.8t6.65 2.8q2.75 2.75 2.75 6.65" fill-opacity=".30196" fill="#fff"/><path d="m49.05 65.25q.85.85.85 2.05t-.85 2.05-2.05.85-2.05-.85-.85-2.05.85-2.05 2.05-.85 2.05.85m-4.9 6.7q.85 0 1.45.6t.6 1.45-.6 1.45-1.45.6-1.45-.6-.6-1.45.6-1.45 1.45-.6m-11.65 5.95q-1.15-1.15-1.15-2.8t1.15-2.8 2.8-1.15 2.8 1.15 1.15 2.8-1.15 2.8-2.8 1.15-2.8-1.15" fill-opacity=".50196" fill="#8bcfba"/></svg>
