<?xml version="1.0" encoding="UTF-8" standalone="no"?>
<svg xmlns="http://www.w3.org/2000/svg" width="27.655" height="13.879" version="1.1"><path fill="#ad8a00" d="m.07826.24236 9.8797-.11738-.0290.41129q.0518 2.0217-1.4719 3.4581-1.4079 1.5175-3.4383 1.5201-2.0796.0113-3.6145-1.495-1.3524-1.3355-1.4043-3.3572l.07826-.41994m17.61.24575.079-.41997 9.888-.06814-.029.41129q.05185 2.0217-1.4805 3.4089-1.4079 1.5175-3.4383 1.5201-2.071.06054-3.6058-1.4458-1.3611-1.3847-1.413-3.4064"/><path fill="#ad8a00" d="m16.172 9.742q.64869.79950.57613 1.8277-.11311 1.0861-.92130 1.6856-.74158.68924-1.7698.61669-1.0861-.11311-1.7841-.90393-0.64-.75026-.52689-1.8364.07255-1.0282.87206-1.6769l1.8277-.57613q1.0282.07255 1.7261.86337"/></svg>
