<?xml version="1.0" encoding="UTF-8" standalone="no"?>
<svg height="25.55" width="15.35" version="1.1" xmlns="http://www.w3.org/2000/svg"><path fill="#a55b72" d="m7.4 25.55q-1.05 0-1.8-.75-.7-.7-.7-1.75t.7-1.8q.75-.7 1.8-.7t1.75.7q.75.75.75 1.8t-.75 1.75q-.7.75-1.75.75"/><path fill="#fff" d="m15.25 9q-.45 2.25-2.25 3.95-2.25 2.3-5.25 2.3-3.3 0-5.6-2.3-1.7-1.7-2-3.95l-.15-1.3q0-3.1 2.15-5.45 2.3-2.25 5.6-2.25 3 0 5.25 2.25 2.35 2.35 2.35 5.45l-.10 1.3m-4.05 2.1q1.55-1.4 1.55-3.5 0-2.05-1.55-3.6-1.5-1.5-3.5-1.5-2.2 0-3.75 1.5-1.45 1.55-1.45 3.6 0 2.1 1.45 3.5 1.55 1.55 3.75 1.55 2 0 3.5-1.55"/><path fill="#a55b72" d="m11.2 11.1q-1.5 1.55-3.5 1.55-2.2 0-3.75-1.55-1.45-1.4-1.45-3.5 0-2.05 1.45-3.6 1.55-1.5 3.75-1.5 2 0 3.5 1.5 1.55 1.55 1.55 3.6 0 2.1-1.55 3.5"/></svg>
