<?xml version="1.0" encoding="UTF-8" standalone="no"?>
<svg height="17.5" version="1.1" width="27.65" xmlns="http://www.w3.org/2000/svg"><path fill="#af9f7a" d="m19.4 12.1q.4-.2.8 0l.6.5v.8q-.6 1.35-1.95 2.45-2.1 1.65-5.05 1.65-3 0-5.1-1.65-1.5-1.1-1.9-2.55-.1-.4.1-.75.15-.4.55-.5l.85.1.45.55q.3.9 1.2 1.6 1.55 1.2 3.85 1.2 2.2 0 3.8-1.2l1.3-1.65q.10-.40.50-.55m6.75-10.65q1.5 1.5 1.5 3.5t-1.5 3.4q-1.4 1.45-3.3 1.5h-18.05q-1.95-.05-3.4-1.5-1.4-1.4-1.4-3.4t1.4-3.5q1.35-1.3 3.15-1.4l.25-.05h.15v.05h17.6v-.05h.15l.75.05q1.5.2 2.7 1.4"/></svg>
