<?xml version="1.0" encoding="UTF-8" standalone="no"?>
<svg height="93.315" xmlns="http://www.w3.org/2000/svg" version="1.1" width="67.133"><path d="m58.7 84.45q-.65 2.85-2.4 4.55-2.2 1.3-3.75-.35-.9-9.05-10.15-12.1 1.9-6.1 7.6-8.55 10.35 9.1 8.7 16.45m-45.35 8.85q-2.65-.8-2.1-3.35 5.85-6.55 2.05-15.35 5.8-2.65 11.45 0 .1 13.8-6.55 17.45-2.5 1.4-4.85 1.25" fill="#6fc4a9"/><path d="m47.8 14.4q6.3 6.3 6.3 15.2v40.4q0 5.45-6.3 9.3-6.3 3.8-15.2 3.8t-15.2-3.8q-6.3-3.85-6.3-9.3v-40.4q0-8.9 6.3-15.2t15.2-6.3 15.2 6.3" fill="#6fc4a9"/><path d="m65.85 51.35q.9.55 1.2 1.5.25.95-.25 1.9-6 11-18.6 9.1l-.3-.05 4.6-8q5.95 3.7 9.95-3.45.55-.95 1.5-1.25 1-.25 1.9.25m-52.85 1.35v9.2q-7-.2-6.85 8 0 1.05-.7 1.8t-1.75.75-1.8-.7q-.7-.7-.75-1.75-.3-12.55 11.55-17.2l.3-.1" fill="#6fc4a9"/><path d="m31.35 75.1q0-1.65 1.15-2.8t2.8-1.15 2.8 1.15 1.15 2.8-1.15 2.8-2.8 1.15-2.8-1.15-1.15-2.8m10.75-1.1q0-.85.6-1.45t1.45-.6 1.45.6.6 1.45-.6 1.45-1.45.6-1.45-.6-.6-1.45m6.95-8.75q.85.85.85 2.05t-.85 2.05-2.05.85-2.05-.85-.85-2.05.85-2.05 2.05-.85 2.05.85" fill="#8bcfba" fill-opacity=".50196"/></svg>
