<?xml version="1.0" encoding="UTF-8" standalone="no"?>
<svg width="65.2" version="1.1" xmlns="http://www.w3.org/2000/svg" height="81.8"><path d="m50.55 63.5-1.35 18.3h-8.35l-2.2-18.3q-.2-2.7 1.3-4.7 1.85-2.15 4.55-2.1 2.8-.05 4.55 2.1 1.8 2 1.5 4.7m-35-4.7q2.3-2.15 5.15-2.1 2.65-.05 3.95 2.1 1 2 .05 4.7l-7.05 18.3h-8.35l3.5-18.3q.45-2.7 2.75-4.7" fill="#fc0"/><path d="m17.4 17.4q6.3-6.3 15.2-6.3t15.2 6.3 6.3 15.2v27.4q0 5.45-6.3 9.3-6.3 3.8-15.2 3.8t-15.2-3.8q-6.3-3.85-6.3-9.3v-27.4q0-8.9 6.3-15.2" fill="#fc0"/><path d="m49.2 42.7.3.1q11.85 4.65 11.55 17.2-.05 1.05-.75 1.75-.75.7-1.8.7t-1.75-.75-.7-1.8q.15-8.2-6.85-8v-9.2m-36.2 9.2q-7-.2-6.85 8 0 1.05-.7 1.8t-1.75.75-1.8-.7q-.7-.7-.75-1.75-.3-12.55 11.55-17.2l.3-.1v9.2" fill="#fc0"/></svg>
