<?xml version="1.0" encoding="UTF-8" standalone="no"?>
<svg xmlns:rdf="http://www.w3.org/1999/02/22-rdf-syntax-ns#" xmlns="http://www.w3.org/2000/svg" height="92.8" width="66.956" version="1.1" xmlns:cc="http://creativecommons.org/ns#" xmlns:dc="http://purl.org/dc/elements/1.1/">
	<path d="m40.706 13q4.95 1.5 8.85 5.4 6.3 6.3 6.3 15.2v20.7q7.6 3.1 9.8 12.2 0.25 1.05-0.3 1.85-0.5 0.9-1.55 1.2-1 0.25-1.85-0.3-0.9-0.55-1.15-1.55-1.35-5.45-4.95-6.2v8.5q0 3.65-2.8 6.6 5.4 4.7 5.35 9.8-0.05 2.9-1.4 4.85l-3.95 0.1q-2.45-7.6-10.65-9.15l-8.05 0.9-6.5-0.55q-2.9 8.35-8.45 10.1l-5.15 0.15q-2.2-1.2-1.6-3.35 5.65-4.1 5.85-10.55-5.65-3.75-5.65-8.9v-8.45q-6.0501-1.35-7.9501 6.15-0.25 1-1.1 1.55-0.9 0.55-1.9 0.3-1-0.3-1.55-1.2-0.55-0.8-0.25-1.9 2.6-10.7 12.75-13.1v-19.75q0-8.9 6.3-15.2t15.2-6.3q3.35 0 6.35 0.9" fill="#e0d1af"/>
	<path d="m43.456 40.4q0.4-0.2 0.8 0l0.6 0.5v0.8q-0.6 1.35-1.95 2.45-2.1 1.65-5.05 1.65-3 0-5.1-1.65-1.5-1.1-1.9-2.55-0.1-0.4 0.1-0.75 0.15-0.4 0.55-0.5l0.85 0.1 0.45 0.55q0.3 0.9 1.2 1.6 1.55 1.2 3.85 1.2 2.2 0 3.8-1.2l1.3-1.65q0.1-0.4 0.5-0.55m6.75-10.65q1.5 1.5 1.5 3.5t-1.5 3.4q-1.4 1.45-3.3 1.5h-18.05q-1.95-0.05-3.4-1.5-1.4-1.4-1.4-3.4t1.4-3.5q1.35-1.3 3.15-1.4l0.25-0.05h0.15v0.05h17.6v-0.05h0.15l0.75 0.05q1.5 0.2 2.7 1.4" fill="#af9f7a"/>
	<path fill="#fff" d="m39.156 15.55q-2.8 2.75-2.8 6.65t2.8 6.65q2.75 2.75 6.65 2.75t6.65-2.75 2.75-6.65-2.75-6.65q-2.75-2.8-6.65-2.8t-6.65 2.8m14.75 36.55q-8.15 8.05-19.55 8.05t-19.45-8.05q-8.1501-8.1-8.1501-19.55 0-11.4 8.15-19.45 8.05-8.1 19.45-8.1t19.55 8.1q8.05 8.05 8.05 19.45 0 11.45-8.05 19.55" fill-opacity=".2"/>
	<path fill="#fff" d="m39.156 15.55q2.75-2.8 6.65-2.8t6.65 2.8q2.75 2.75 2.75 6.65t-2.75 6.65-6.65 2.75-6.65-2.75q-2.8-2.75-2.8-6.65t2.8-6.65" fill-opacity=".30196"/>
	<path d="m66.956 32.55q0 13.55-9.5 23.1-9.6 9.5-23.1 9.5t-23-9.5q-9.6-9.55-9.6-23.1 0-13.5 9.6-23 9.5-9.55 23-9.55t23.1 9.55q9.5 9.5 9.5 23m-13.05 19.55q8.05-8.1 8.05-19.55 0-11.4-8.05-19.45-8.15-8.1-19.55-8.1t-19.45 8.1q-8.15 8.05-8.15 19.45 0 11.45 8.15 19.55 8.05 8.05 19.45 8.05t19.55-8.05" fill="#fff"/>
</svg>
