<?xml version="1.0" encoding="UTF-8" standalone="no"?>
<svg version="1.1" xmlns="http://www.w3.org/2000/svg" height="18" width="27.65"><path d="m27.65 4.95q0 2-1.5 3.4-1.45 1.5-3.45 1.5-2.1 0-3.6-1.5-1.4-1.4-1.4-3.4t1.4-3.5q1.5-1.45 3.6-1.45 2 0 3.45 1.45 1.5 1.5 1.5 3.5m-22.65-4.95q2 0 3.45 1.45 1.5 1.5 1.5 3.5t-1.5 3.4q-1.45 1.5-3.45 1.5-2.1 0-3.6-1.5-1.4-1.4-1.4-3.4t1.4-3.5q1.5-1.45 3.6-1.45" fill="#347e67"/><path d="m16.3 15.5q0 1.05-.75 1.75-.70.75-1.75.75t-1.8-.75q-.7-.7-.7-1.75t.7-1.8q.75-.7 1.8-.7t1.75.7q.75.75.75 1.8" fill="#347e67"/></svg>
