<?xml version="1.0" encoding="UTF-8" standalone="no"?>
<svg id="svg2" xmlns:rdf="http://www.w3.org/1999/02/22-rdf-syntax-ns#" xmlns="http://www.w3.org/2000/svg" height="91.8" width="65.2" version="1.1" xmlns:cc="http://creativecommons.org/ns#" xmlns:dc="http://purl.org/dc/elements/1.1/">
 <path id="path72" fill="#8db5e7" d="m26.65 68.8q1 2 0.05 4.7l-7.05 18.3h-8.35l3.5-18.3q0.45-2.7 2.75-4.7 2.3-2.15 5.15-2.1 2.65-0.05 3.95 2.1m11.3 0q1.85-2.15 4.55-2.1 2.8-0.05 4.55 2.1 1.8 2 1.5 4.7l-1.35 18.3h-8.35l-2.2-18.3q-0.2-2.7 1.3-4.7"/>
 <path id="path74" fill="#8db5e7" d="m52.1 29.6v40.4q0 5.45-6.3 9.3-5.25 3.15-12.25 3.7v0.1h-2l-1-0.05v-0.15q-6.35-0.7-11.15-3.6-6.3-3.85-6.3-9.3v-40.4q0-8.9 6.3-15.2 4.8-4.8 11.15-5.95v-0.25l1-0.05 1.05-0.05 0.95 0.05v0.15q7 0.85 12.25 6.1 6.3 6.3 6.3 15.2"/>
 <path id="path76" fill="#8db5e7" d="m7.45 81.7q-0.7 0.75-1.75 0.75t-1.8-0.7q-0.7-0.7-0.75-1.75-0.3-12.55 11.55-17.2l0.3-0.1v9.2q-7-0.2-6.85 8 0 1.05-0.7 1.8m39.75-19 0.3 0.1q11.85 4.65 11.55 17.2-0.05 1.05-0.75 1.75-0.75 0.7-1.8 0.7t-1.75-0.75-0.7-1.8q0.15-8.2-6.85-8v-9.2"/>
 <path id="path78" fill="#4f719d" d="m43.5 44.25q-0.75-0.65-0.75-1.75 0-1 0.75-1.75t1.85-0.75q0.95 0 1.7 0.75 0.8 0.75 0.8 1.75 0 1.1-0.8 1.75-0.75 0.8-1.7 0.8-1.1 0-1.85-0.8m-8.2-6q0-1.05 0.7-1.75 0.75-0.8 1.85-0.8 1 0 1.7 0.8 0.75 0.7 0.75 1.75t-0.75 1.75q-0.7 0.75-1.7 0.75-1.1 0-1.85-0.75-0.7-0.7-0.7-1.75m-5.05 1.75q1.1 0 1.75 0.75 0.8 0.75 0.8 1.75 0 1.1-0.8 1.75-0.65 0.8-1.75 0.8-1 0-1.8-0.8-0.7-0.65-0.7-1.75 0-1 0.7-1.75 0.8-0.75 1.8-0.75m3.55 11.5q0.35-0.3 0.8-0.3h6.25q0.45 0 0.75 0.3l0.35 0.75-0.35 0.75q-0.3 0.35-0.75 0.35h-6.25q-0.45 0-0.8-0.35-0.25-0.3-0.25-0.75 0-0.4 0.25-0.75"/>
 <path id="path80" fill="#fff" d="m60.2 32.55q0-11.4-8.05-19.45-8.15-8.1-19.55-8.1t-19.45 8.1q-8.15 8.05-8.15 19.45 0 11.45 8.15 19.55 8.05 8.05 19.45 8.05t19.55-8.05q8.05-8.1 8.05-19.55m-4.5-23q9.5 9.5 9.5 23 0 13.55-9.5 23.1-9.6 9.5-23.1 9.5t-23-9.5q-9.6-9.55-9.6-23.1 0-13.5 9.6-23 9.5-9.55 23-9.55t23.1 9.55"/>
 <path id="path82" fill-opacity=".2" fill="#fff" d="m60.2 32.55q0 11.45-8.05 19.55-8.15 8.05-19.55 8.05t-19.45-8.05q-8.15-8.1-8.15-19.55 0-11.4 8.15-19.45 8.05-8.1 19.45-8.1t19.55 8.1q8.05 8.05 8.05 19.45m-6.75-10.35q0-3.9-2.75-6.65-2.75-2.8-6.65-2.8t-6.65 2.8q-2.8 2.75-2.8 6.65t2.8 6.65q2.75 2.75 6.65 2.75t6.65-2.75 2.75-6.65"/>
 <path id="path84" fill-opacity=".30196" fill="#fff" d="m53.45 22.2q0 3.9-2.75 6.65t-6.65 2.75-6.65-2.75q-2.8-2.75-2.8-6.65t2.8-6.65q2.75-2.8 6.65-2.8t6.65 2.8q2.75 2.75 2.75 6.65"/>
 <path id="path86" fill-opacity=".50196" fill="#a3c3eb" d="m18.45 64.55q1.2 0 2.05 0.85t0.85 2.05-0.85 2.05-2.05 0.85-2.05-0.85-0.85-2.05 0.85-2.05 2.05-0.85m4.9 9.6q0 0.85-0.6 1.45t-1.45 0.6-1.45-0.6-0.6-1.45 0.6-1.45 1.45-0.6 1.45 0.6 0.6 1.45m6.8-2.85q1.65 0 2.8 1.15t1.15 2.8-1.15 2.8-2.8 1.15-2.8-1.15-1.15-2.8 1.15-2.8 2.8-1.15"/>
</svg>
