<?xml version="1.0" encoding="UTF-8" standalone="no"?>
<svg height="12.95" xmlns="http://www.w3.org/2000/svg" version="1.1" width="27.65"><path fill="#ad8a00" d="m27.65.4q0 2-1.5 3.4-1.45 1.5-3.45 1.5-2.1 0-3.6-1.5-1.4-1.4-1.4-3.4l.05-.4h9.9v.4m-17.7 0q0 2-1.5 3.4-1.45 1.5-3.45 1.5-2.1 0-3.6-1.5-1.4-1.4-1.4-3.4l.05-.4h9.9v.4m7.65 9.35q.9-.75 1.3-1.65l.5-.55q.4-.2.8 0l.6.5v.8q-.6 1.35-1.95 2.45-2.1 1.65-5.05 1.65-3 0-5.1-1.65-1.5-1.1-1.9-2.55-.10-.40.10-.75.15-.40.55-.50l.85.10.45.55q.3.9 1.2 1.6 1.55 1.2 3.85 1.2 2.2 0 3.8-1.2"/></svg>
