<?xml version="1.0" encoding="UTF-8" standalone="no"?>
<svg height="95.634" width="69.942" xmlns="http://www.w3.org/2000/svg" version="1.1"><path d="m21.356 79.35q3.75-5.2 9.9-5.75 7 11.9 3.1 18.45-1.5 2.45-3.6 3.45-2.7.65-3.45-1.85 1.75-8.55-5.95-14.3" fill="#6fc4a9"/><path d="m38.906 94.35q-2.45-.6-2.4-2.9 5.8-7 1.4-15.7 5.7-2.9 11.4-.75.9 13.8-5.45 17.85-2.45 1.6-4.95 1.5" fill="#6fc4a9"/><path d="m50.756 53.3.25-.05q12.6-1.9 18.6 9.15.55.9.2 1.85-.25 1-1.2 1.55l-1.85.2q-1-.25-1.5-1.2-4.05-7.15-9.95-3.5l-4.55-8m-31.55 0-4.6 8q-5.9-3.65-9.95 3.5-.5.9-1.45 1.2l-1.9-.2q-.9-.55-1.2-1.55-.3-.95.25-1.9 6-11 18.6-9.1l.25.05" fill="#6fc4a9"/><path d="m51.656 14.4q6.3 6.3 6.3 15.2v40.4q0 5.45-6.3 9.3-6.3 3.8-15.2 3.8t-15.2-3.8q-6.3-3.85-6.3-9.3v-40.4q0-8.9 6.3-15.2t15.2-6.3 15.2 6.3" fill="#6fc4a9"/><path d="m47.956 67.3q0-1.2.85-2.05t2.05-.85 2.05.85.85 2.05-.85 2.05-2.05.85-2.05-.85-.85-2.05m-11.6 5q1.15-1.15 2.8-1.15t2.8 1.15 1.15 2.8-1.15 2.8-2.8 1.15-2.8-1.15-1.15-2.8 1.15-2.8m13.1.25q.6.6.6 1.45t-.6 1.45-1.45.6-1.45-.6-.6-1.45.6-1.45 1.45-.6 1.45.6" fill-opacity=".50196" fill="#8bcfba"/></svg>
