<?xml version="1.0" encoding="UTF-8" standalone="no"?>
<svg xmlns="http://www.w3.org/2000/svg" height="93.315" version="1.1" width="67.133"><path d="m56.3 89q-2.2 1.3-3.75-.35-.9-9.05-10.15-12.1 1.9-6.1 7.6-8.55 10.35 9.1 8.7 16.45-.65 2.85-2.4 4.55m-43-14.4q5.8-2.65 11.45 0 .1 13.8-6.55 17.45-2.5 1.4-4.85 1.25-2.65-.8-2.1-3.35 5.85-6.55 2.05-15.35" fill="#f19cb7"/><path d="m47.8 24.4q6.3 6.3 6.3 15.2v30.4q0 5.45-6.3 9.3-6.3 3.8-15.2 3.8t-15.2-3.8q-6.3-3.85-6.3-9.3v-30.4q0-8.9 6.3-15.2t15.2-6.3 15.2 6.3" fill="#f19cb7"/><path d="m6.15 69.9q0 1.05-.7 1.8t-1.75.75-1.8-.7q-.7-.7-.75-1.75-.3-12.55 11.55-17.2l.3-.1v9.2q-7-.2-6.85 8m60.65-15.15q-6 11-18.6 9.1l-.3-.05 4.6-8q5.95 3.7 9.95-3.45.55-.95 1.5-1.25 1-.25 1.9.25.9.55 1.2 1.5.25.95-.25 1.9" fill="#f19cb7"/><path fill-opacity=".50196" d="m31.1 75.85 1.6-.2q.8.2 1.2.95.45.75.25 1.55-.25.85-1 1.25l-1.55.2q-.8-.2-1.25-.95-.4-.75-.2-1.55.25-.8.95-1.25m-6.25-5.1q1.05-.6 2.25-.3 1.1.3 1.7 1.35t.35 2.2q-.35 1.15-1.4 1.75l-2.15.3q-1.2-.3-1.8-1.35t-.25-2.2q.25-1.15 1.3-1.75m12.05 5.35q-.8-1.4-.4-2.95.45-1.6 1.9-2.4 1.4-.85 2.95-.4 1.6.4 2.4 1.8.85 1.45.4 3.05-.4 1.55-1.8 2.4-1.45.8-3.05.4-1.55-.45-2.4-1.9" fill="#f3afc5"/></svg>
