<?xml version="1.0" encoding="UTF-8" standalone="no"?>
<svg version="1.1" height="92.073" width="68.35" xmlns="http://www.w3.org/2000/svg"><path fill="#fff" d="m45.75 36q0-2.05-1.55-3.6-1.5-1.5-3.5-1.5-2.2 0-3.75 1.5-1.45 1.55-1.45 3.6 0 2.1 1.45 3.5 1.55 1.55 3.75 1.55 2 0 3.5-1.55 1.55-1.4 1.55-3.5m2.5 1.4q-.45 2.25-2.25 3.95-2.25 2.3-5.25 2.3-3.3 0-5.6-2.3-1.7-1.7-2-3.95l-.15-1.3q0-3.1 2.15-5.45 2.3-2.25 5.6-2.25 3 0 5.25 2.25 2.35 2.35 2.35 5.45l-.1 1.3"/><path fill="#a55b72" d="m45.75 36q0 2.1-1.55 3.5-1.5 1.55-3.5 1.55-2.2 0-3.75-1.55-1.45-1.4-1.45-3.5 0-2.05 1.45-3.6 1.55-1.5 3.75-1.5 2 0 3.5 1.5 1.55 1.55 1.55 3.6m-9.6 13.75-.75 1.25-.45.55-.9.05q-.4-.05-.55-.5-.25-.3-.1-.75.35-1.5 1.95-2.6 2.1-1.75 5.2-1.75 3.05 0 5.2 1.75 1.4 1.1 2 2.5.2.4 0 .85l-.6.5h-.05q-.4.2-.75 0l-.55-.55-.7-1.25-.6-.5q-1.65-1.25-3.95-1.25t-3.95 1.25l-.45.45"/><path fill="#fff" d="m63.25 32.55q0-11.4-8.05-19.45-8.15-8.1-19.55-8.1t-19.45 8.1q-8.15 8.05-8.15 19.45 0 11.45 8.15 19.55 8.05 8.05 19.45 8.05t19.55-8.05q8.05-8.1 8.05-19.55m-4.5-23q9.5 9.5 9.5 23 0 13.55-9.5 23.1-9.6 9.5-23.1 9.5t-23-9.5q-9.6-9.55-9.6-23.1 0-13.5 9.6-23 9.5-9.55 23-9.55t23.1 9.55"/><path fill-opacity=".30196" fill="#fff" d="m56.5 22.2q0 3.9-2.75 6.65t-6.65 2.75-6.65-2.75q-2.8-2.75-2.8-6.65t2.8-6.65q2.75-2.8 6.65-2.8t6.65 2.8q2.75 2.75 2.75 6.65"/></svg>
