<?xml version="1.0" encoding="UTF-8" standalone="no"?>
<svg height="81.073" xmlns="http://www.w3.org/2000/svg" version="1.1" width="68.35"><path fill="#ad8a00" d="m46.65 51.2v.8l-.6.5q-.4.2-.8 0l-.5-.55q-.4-.9-1.3-1.65-1.6-1.2-3.8-1.2-2.3 0-3.85 1.2-.9.7-1.2 1.6l-.45.55-.85.1-.55-.5q-.2-.35-.1-.75.4-1.45 1.9-2.55 2.1-1.65 5.1-1.65 2.95 0 5.05 1.65 1.35 1.1 1.95 2.45m6.85-11.55v.4q0 2-1.5 3.4-1.45 1.5-3.45 1.5-2.1 0-3.6-1.5-1.4-1.4-1.4-3.4l.05-.4h9.9m-26.25 3.8q-1.4-1.4-1.4-3.4l.05-.4h9.9v.4q0 2-1.5 3.4-1.45 1.5-3.45 1.5-2.1 0-3.6-1.5"/><path fill="#fff" fill-opacity=".30196" d="m40.45 15.55q2.75-2.8 6.65-2.8t6.65 2.8q2.75 2.75 2.75 6.65t-2.75 6.65-6.65 2.75-6.65-2.75q-2.8-2.75-2.8-6.65t2.8-6.65"/></svg>
