<svg xmlns="http://www.w3.org/2000/svg" xmlns:xlink="http://www.w3.org/1999/xlink" version="1.1" x="0px" y="0px" viewBox="0 0 100 100" enable-background="new 0 0 100 100" xml:space="preserve"><g><g><path d="M49.54,0C22.198-0.019,0.027,22.375,0,49.973C0.027,77.618,22.198,100.01,49.54,100    c27.352,0.01,49.521-22.382,49.542-50.027C99.062,22.375,76.892-0.019,49.54,0z M49.54,88.477    c-21.037,0-38.095-17.225-38.077-38.504C11.442,28.741,28.503,11.51,49.54,11.521c21.047-0.01,38.107,17.221,38.131,38.452    C87.647,71.252,70.587,88.477,49.54,88.477z"/></g><polygon points="71.57,37.466 62.073,27.97 49.54,40.504 37.006,27.97 27.509,37.466 40.047,50.007 27.509,62.534 37.006,72.03    49.54,59.496 62.073,72.03 71.57,62.534 59.036,50.007  "/></g></svg>
