<?xml version="1.0" encoding="UTF-8" standalone="no"?>
<svg xmlns:rdf="http://www.w3.org/1999/02/22-rdf-syntax-ns#" xmlns="http://www.w3.org/2000/svg" enable-background="new 0 0 100 100" xml:space="preserve" version="1.1" y="0px" x="0px" xmlns:cc="http://creativecommons.org/ns#" xmlns:dc="http://purl.org/dc/elements/1.1/" viewBox="0 0 100 100"><path d="m40.459 69.98c-0.003 0.004-0.0069 0.006-0.0093 0.0095l-10.021 10.02c-1.0391 1.0374-2.4284 1.6085-3.9139 1.6085-1.4864 0-2.8765-0.57113-3.9156-1.6094l-2.609-2.61c-1.0383-1.0383-1.6103-2.4284-1.6103-3.9139s0.572-2.8765 1.6103-3.9147l13.048-13.048c0.003-0.002 0.006-0.005 0.0093-0.0079l8.231-8.233c-1.372-0.484-2.825-0.75-4.326-0.75-3.4571 0-6.7002 1.339-9.1321 3.7717l-13.048 13.05c-2.433 2.432-3.773 5.674-3.773 9.132s1.3399 6.7011 3.7726 9.1338l2.6095 2.6095c2.433 2.433 5.676 3.772 9.134 3.772 3.4571 0 6.7002-1.339 9.1321-3.7717l13.048-13.048c2.4327-2.4327 3.7726-5.6749 3.7726-9.1321 0-1.5002-0.26694-2.9545-0.75054-4.3255l-11.259 11.258zm44.768-52.599-2.609-2.609c-2.432-2.432-5.676-3.772-9.132-3.772-3.4571 0-6.7002 1.339-9.1329 3.7717l-13.049 13.047c-2.4327 2.4319-3.7717 5.6758-3.7717 9.1329 0 1.5002 0.26693 2.9553 0.7514 4.3264l8.2385-8.2385h0.000865l13.049-13.048c1.0383-1.0383 2.4293-1.6103 3.9147-1.6103 1.4855 0 2.8756 0.572 3.9147 1.6103l2.6095 2.6095c1.0374 1.0383 1.6094 2.4284 1.6094 3.9139s-0.57026 2.8756-1.6094 3.9139l-10.026 10.027-0.000873 0.000872-11.261 11.258c1.3702 0.48447 2.8245 0.75053 4.3238 0.75053 3.4571 0 6.7002-1.339 9.1329-3.7717l13.048-13.049c2.433-2.431 3.773-5.674 3.773-9.132s-1.34-6.701-3.773-9.133z"/><path d="m35.24 68.451c-0.9438 0-1.8885-0.35966-2.6095-1.0807-1.4413-1.4404-1.4413-3.7761 0-5.2182l29.521-29.523c1.4395-1.4404 3.7769-1.4404 5.2182 0 1.4413 1.4413 1.4413 3.7778 0 5.2191l-29.521 29.523c-0.72021 0.72107-1.6649 1.0807-2.6087 1.0807z"/></svg>
