<?xml version="1.0" encoding="UTF-8" standalone="no"?>
<svg xmlns:rdf="http://www.w3.org/1999/02/22-rdf-syntax-ns#" xmlns="http://www.w3.org/2000/svg" height="84" width="96.764" version="1.1" xmlns:cc="http://creativecommons.org/ns#" xmlns:dc="http://purl.org/dc/elements/1.1/">
	<path d="m60.414 16.2 0.55-3 0.3-0.8q0.2-0.4 0.55-0.6l17.35-11.4q0.5-0.4 1.1-0.4h14.55q0.65 0 1.15 0.4l0.75 1 0.05 1.2-20.05 70-0.75 1q-0.55 0.4-1.2 0.4h-3.3l0.45-2h2.85l20.05-70h-14.55l-17.35 11.5-0.3 1.9-1.85 1-0.35-0.2m-35.05 57.8h-3.3q-0.65 0-1.2-0.4t-0.75-1l-20.05-70q-0.15-0.6 0.05-1.2 0.25-0.6 0.75-1 0.5003-0.4 1.1503-0.4h14.55q0.6 0 1.1 0.4l17.35 11.4 0.55 0.6 0.3 0.8 0.55 3-0.3 0.2-1.9-1-0.3-1.9-17.35-11.5h-14.55l20.05 70h2.85l0.45 2m18.1-59.6 4.45-1.2q0.5-0.1 1 0l4.45 1.2v2l-4.95-1.2-4.95 1.2v-2" fill="#c4c4c4"/>
	<path d="m62.614 15.4 0.3-1.9 17.35-11.5h14.55l-20.05 70h-2.7l2.9-13.1 8.85-39.5-7.25-10.5-14 6.8 0.05-0.3m-28.4 0 0.05 0.3-14-6.8-7.25 10.5 8.85 39.5 2.9 13.1h-2.7l-20.05-70h14.55l17.35 11.5 0.3 1.9m9.25 1 4.95-1.2 4.95 1.2v43.9h-9.9v-43.9" fill="#eee"/>
	<path d="m43.464 16.4-13.45 3.6v21.4l8.45 9.2v11.2l-5.5 8.8v6.6l5 4.8h20.9l5-4.8v-6.6l-5.5-8.8v-11.2l8.5-9.2v-21.4l-13.5-3.6v-2l7.05 1.8 0.35 0.2 1.85-1-0.05 0.3-0.15 1.1 4.95 1.2 0.5 0.2 0.6 0.6q0.4 0.4 0.4 1.2v21.4q0 0.7-0.5 1.3l-0.35 0.4-7.65 8.3v7.9l0.35 2.4 2.55 4.1 2.3 3.7 0.3 1.1v1.4h6.05l-0.45 2h-5.6v3.2q0 0.8-0.6 1.4l-5 4.9q-0.6 0.5-1.4 0.5h-20.9q-0.8 0-1.4-0.5l-5-4.9q-0.6-0.6-0.6-1.4v-3.2h-5.6l-0.45-2h6.05v-1.4q0-0.6 0.3-1.1l2.35-3.7 2.55-4.1 0.3-2.3v-8l-7.65-8.4-0.25-0.3q-0.55-0.6-0.55-1.3v-21.4q0-0.8 0.45-1.2l0.55-0.6 0.5-0.2 4.95-1.2-0.2-1.1-0.05-0.3 1.9 1 0.3-0.2 7.05-1.8v2" fill="#a1a1a1"/>
	<path d="m72.064 72h-6.2v-1.4l-0.3-1.1-2.3-3.7 2.7-1.2 2.05-21.5 0.35-0.4q0.5-0.6 0.5-1.3v-21.4q0-0.8-0.4-1.2l-0.6-0.6-0.5-0.2-4.95-1.2 0.15-1.1 14-6.8 7.25 10.5-8.85 39.5-2.9 13.1m-37.8-56.3 0.2 1.1-4.95 1.2-0.5 0.2-0.55 0.6q-0.45 0.4-0.45 1.2v21.4q0 0.7 0.55 1.3l0.25 0.3 2.05 21.6 2.75 1.2-2.35 3.7q-0.3 0.5-0.3 1.1v1.4h-6.2l-2.9-13.1-8.85-39.5 7.25-10.5 14 6.8" fill="#63596d"/>
	<path d="m53.364 16.4 13.5 3.6v21.4l-8.5 9.2v11.2l5.5 8.8v6.6l-5 4.8h-20.9l-5-4.8v-6.6l5.5-8.8v-11.2l-8.45-9.2v-21.4l13.45-3.6v45.4q0 1.4-0.75 2.6l-3.8 6-0.95 1.6 10.45 5q5.25-2.4 10.45-5l-0.95-1.6-3.75-6q-0.8-1.2-0.8-2.6v-45.4" fill="#dbdbdb"/>
	<path d="m28.814 43 7.65 8.4v8l-0.3 2.3-2.55 4.1-2.75-1.2-2.05-21.6m34.45 22.8-2.55-4.1-0.35-2.4v-7.9l7.65-8.3-2.05 21.5-2.7 1.2" fill="#5a5164"/>
	<path d="m57.914 70.4 0.95 1.6q-5.2 2.6-10.45 5l-10.45-5 0.95-1.6 9.5 4.6 9.5-4.6" fill="#544763"/>
	<path d="m57.914 70.4-9.5 4.6-9.5-4.6 3.8-6q0.75-1.2 0.75-2.6v-1.5h9.9v1.5q0 1.4 0.8 2.6l3.75 6" fill="#4a3c55"/>
</svg>
