<?xml version="1.0" encoding="UTF-8" standalone="no"?>
<svg xmlns:rdf="http://www.w3.org/1999/02/22-rdf-syntax-ns#" xmlns="http://www.w3.org/2000/svg" height="82.8" width="92.8" version="1.1" xmlns:cc="http://creativecommons.org/ns#" xmlns:dc="http://purl.org/dc/elements/1.1/">
	<path d="m75.9 3.4-0.15-0.2-0.85-1.2-16.1 7.2-1.8 8.8h-0.6v2h-20v-2h-0.6l-1.8-8.8-16.1-7.2-0.85 1.2-0.15 0.2-1.6-1.2 0.95-1.4q0.4-0.6 1.1-0.8l1.35 0.2 16.1 7.2q0.45 0.2 0.75 0.6l0.4 0.8 1.85 9.2h17.2l1.85-9.2 0.4-0.8q0.3-0.4 0.75-0.6l16.1-7.2 1.35-0.2q0.7 0.2 1.1 0.8l0.95 1.4-1.6 1.2m-13.35 45.4 3.95 2.4-7.15 26 2.6 0.9-0.55 1.9-2.7-0.9q-0.75-0.3-1.1-0.9-0.4-0.8-0.15-1.5l6.75-24.5-2.55-1.6 0.9-1.8m-31.35 1.8-2.6 1.6 6.75 24.5q0.25 0.7-0.15 1.5-0.35 0.6-1.1 0.9l-2.7 0.9-0.55-1.9 2.6-0.9-7.15-26 4-2.4 0.9 1.8" fill="#c4c4c4"/>
	<path d="m75.75 3.2 0.15 0.2 14.9 22.2-0.75 2-18.55-6.4-4.5 18 14.35 11.6-11.3 30.2-8.1-2.9 8.1-29.2-5.4-4.3 1.45-3 0.2-1v-14.3l-0.2-0.9-0.55-0.6-2.55-2.1 2.9-12.2 9.85-7.3m-58.85 0.2 0.15-0.2 9.85 7.3 2.95 12.2-2.6 2.1-0.55 0.6-0.2 0.9v14.3l0.2 1 1.5 3-5.45 4.3 8.1 29.2-8.1 2.9-11.3-30.2 14.35-11.6-4.5-18-18.55 6.4-0.75-2 14.9-22.2" fill="#63596d"/>
	<path d="m16.9 3.4-14.9 22.2l0.75 2 8.7 23.2 11.3 30.2 8.1-2.9 0.55 1.9-8 2.8h-1.5q-0.75-0.4-1.05-1.2l-20.75-55.4-0.1-0.8q0.1-0.6 0.35-1l14.95-22.2 1.6 1.2m59 0 1.6-1.2 14.95 22.2 0.35 1-0.1 0.8-20.75 55.4q-0.3 0.8-1.05 1.2h-1.5l-8-2.8 0.55-1.9 8.1 2.9 11.3-30.2 8.7-23.2 0.75-2-14.9-22.2" fill="#4f4758"/>
	<path d="m17.05 3.2 0.85-1.2 16.1 7.2 1.8 8.8q-0.35 0.2-0.65 0.4l-5.3 4.3-2.95-12.2-9.85-7.3m19.35 16.8h20v24.8q-0.05-1.4-1.05-2.4-1.05-1.2-2.6-1.2h-12.65q-1.55 0-2.6 1.2-1.05 1-1.1 2.4v-24.8m20.6-2 1.8-8.8 16.1-7.2 0.85 1.2-9.85 7.3-2.9 12.2-5.35-4.3q-0.3-0.2-0.65-0.4m7.65 26.6 5.4 4.3-8.1 29.2-2.6-0.9 7.15-26-3.95-2.4 2.1-4.2m-34.35 4.2-4 2.4 7.15 26-2.6 0.9-8.1-29.2 5.45-4.3 2.1 4.2" fill="#eee"/>
	<path d="m81.35 50.8-14.35-11.6l4.5-18 18.55 6.4-8.7 23.2m-69.9 0-8.7-23.2 18.55-6.4 4.5 18-14.35 11.6" fill="#5a5164"/>
	<path d="m35.8 18h0.6v2l-7.9 6.3v14.3l7.35 14.8h21.15l7.3-14.8v-14.3l-7.9-6.3v-2h0.6q0.35 0.2 0.65 0.4l5.35 4.3 2.55 2.1 0.55 0.6 0.2 0.9v14.3l-0.2 1-1.45 3-2.1 4.2-0.9 1.8-2.85 5.7-0.75 0.8-1.05 0.3h-21.15q-0.55 0-1.05-0.3l-0.75-0.8-2.85-5.7-0.9-1.8-2.1-4.2-1.5-3-0.2-1v-14.3l0.2-0.9 0.55-0.6 2.6-2.1 5.3-4.3q0.3-0.2 0.65-0.4" fill="#a1a1a1"/>
	<path d="m56.4 44.8v-24.8l7.9 6.3v14.3l-7.3 14.8h-21.15l-7.35-14.8v-14.3l7.9-6.3v25q0.05 1.2 0.65 2l0.45 0.6q1.05 1 2.6 1h12.65q1.55 0 2.6-1l0.45-0.6q0.55-0.8 0.6-2v-0.2" fill="#dbdbdb"/>
	<path d="m56.4 44.8v0.2q-0.05 1.2-0.6 2l-0.45 0.6q-1.05 1-2.6 1h-12.65q-1.55 0-2.6-1l-0.45-0.6q-0.6-0.8-0.65-2v-0.2q0.05-1.4 1.1-2.4 1.05-1.2 2.6-1.2h12.65q1.55 0 2.6 1.2 1 1 1.05 2.4" fill="#4a3c55"/>
</svg>
