<?xml version="1.0" encoding="UTF-8" standalone="no"?>
<svg xmlns:rdf="http://www.w3.org/1999/02/22-rdf-syntax-ns#" xmlns="http://www.w3.org/2000/svg" height="83" width="103.8" version="1.1" xmlns:cc="http://creativecommons.org/ns#" xmlns:dc="http://purl.org/dc/elements/1.1/">
	<path d="m70.15 11.9 0.25 2.8 1.4 14.6 0.65 6.9-0.15 1-6.85 16-3.5 8.3-1.85 4.3-0.75 0.8-1.1 0.4h-12.7l-1.1-0.4-0.75-0.8-1.8-4.3-3.55-8.3-6.8-16-0.15-1 0.65-7 1.35-14.4 0.3-3 0.15-1.8q0.05-0.6 0.35-1 0.2-0.4 0.55-0.6h0.2l4-2.1v2.3l-3.1 1.5-2.45 26.3 12.15 28.6h12.7l12.2-28.6-2.5-26.3-3.05-1.5v-2.2l3.95 2 0.75 0.6 0.35 0.9 0.2 2" fill="#a1a1a1"/>
	<path d="m70.15 11.9 16.45 13.6h15.2q0.85 0 1.45 0.6 0.55 0.5 0.55 1.4v5.1l-0.25 1-27.4 48.4-0.75 0.7-1 0.3h-7.15l0.35-2h6.8l27.4-48.4v-5.1h-15.95l-15.45-12.8-0.25-2.8m-36.45-0.1-0.3 3-15.45 12.7h-15.95v5.1l27.4 48.4h6.8l0.35 2h-7.15l-1-0.3-0.75-0.7-27.4-48.4-0.25-1v-5.1q0-0.9 0.55-1.4 0.6-0.6 1.45-0.6h15.2l16.5-13.7" fill="#485d36"/>
	<path d="m64.9 8.6 3.05 1.5 2.5 26.3-12.2 28.6h-12.7l-12.15-28.6 2.45-26.3 3.1-1.5v18.6h25.95v-18.6m-19.05 44.3 0.85 2h10.4l8.25-19.3-0.45-5h-25.95l-0.45 5 7.35 17.3" fill="#dbdbdb"/>
	<path d="m64.9 6.4v2.2l-13-6.6-12.95 6.6v-2.3l12.05-6.1 0.9-0.2 0.9 0.2 12.1 6.2m-26.55 46.8 3.55 8.3 3.45 19.1q0.15 0.6-0.1 1.2l-0.75 0.8-1.1 0.4h-6.85l-0.35-2h7.2l-5.05-27.8m23.6 8.3 3.5-8.3-5.05 27.8h7.2l-0.35 2h-6.85l-1.1-0.4q-0.5-0.3-0.75-0.8-0.25-0.6-0.1-1.2l3.5-19.1" fill="#c4c4c4"/>
	<path d="m32.05 29.2-0.65 7 0.15 1 6.8 16 5.05 27.8h-7.1l-8.55-44.9 4.3-6.9m33.4 24 6.85-16 0.15-1-0.65-6.9 4.25 6.8l-8.55 44.9h-7.1l5.05-27.8m-26.5-44.6 12.95-6.6l13 6.6v18.6h-25.95v-18.6" fill="#eee"/>
	<path d="m51.9 30.6h13l0.45 5-8.25 19.3h-10.4l-0.85-2h6.05v-22.3" fill="#544763"/>
	<path d="m51.9 30.6v22.3h-6.05l-7.35-17.3 0.45-5h12.95" fill="#4a3c55"/>
	<path d="m85.85 27.5h15.95v5.1l-27.4 48.4h-3.5l14.95-53.5m-52.95 53.5h-3.5l-27.4-48.4v-5.1h15.95l14.95 53.5" fill="#65804f"/>
	<path d="m32.9 81-14.95-53.5 15.45-12.7-1.35 14.4-4.3 6.9 8.55 44.9h-3.4m38.9-51.7-1.4-14.6 15.45 12.8-14.95 53.5h-3.4l8.55-44.9-4.25-6.8" fill="#7c9865"/>
</svg>
