<?xml version="1.0" encoding="UTF-8" standalone="no"?>
<svg xmlns:rdf="http://www.w3.org/1999/02/22-rdf-syntax-ns#" xmlns="http://www.w3.org/2000/svg" height="83.55" width="102.5" version="1.1" xmlns:cc="http://creativecommons.org/ns#" xmlns:dc="http://purl.org/dc/elements/1.1/">
	<path d="m43.4 0.1 0.55-0.1h14.65l0.55 0.1v2.25l-0.55-0.35h-14.65l-0.55 0.35v-2.25m25.25 6h7.3l0.9 0.2 0.7 0.55 24.55 31.15 0.4 0.9-0.05 0.95-12.6 42.4q-0.25 0.7-0.9 1.1l-1.45 0.2-4.25-0.8 0.55-2 4.1 0.9 12.6-42.4-24.55-31.15h-4.2l-3.1-2m-49.4 76.65-4.25 0.8-1.45-0.2-0.9-1.1-12.6-42.4-0.05-0.95 0.4-0.9 24.55-31.15l0.7-0.55 0.9-0.2h7.4l-3.1 2h-4.3l-24.55 31.15 12.6 42.4 4.1-0.9 0.55 2" fill="#c4c4c4"/>
	<path d="m43.4 2.35 0.55-0.35h14.65l0.55 0.35 4.05 28.9-11.95-5-11.9 5 4.05-28.9m-12.55 5.75-3.3 2.1q-0.55 0.3-0.8 0.9t-0.1 1.25l1.6 6.5-20.9 24.2 11.55 37.7h-0.2l-4.1 0.9-12.6-42.4 24.55-31.15h4.3m43.45 10.75 1.55-6.5q0.15-0.65-0.1-1.25l-0.75-0.9-3.25-2.1h4.2l24.55 31.15-12.6 42.4-4.1-0.9h-0.2l11.55-37.7-20.85-24.2" fill="#eee"/>
	<path d="m74.3 18.85-1.8 7.25-6.3 25.75-2.1 8.7v0.2l-0.95 3.6-2.1 8.6q-0.15 0.7-0.7 1.2-0.55 0.4-1.25 0.4h-15.65q-0.7 0-1.2-0.4-0.6-0.5-0.75-1.2l-2.1-8.6-0.95-3.8-2.1-8.7-6.35-25.75-1.75-7.25-1.6-6.5q-0.15-0.65 0.1-1.25t0.8-0.9l3.3-2.1 3.1-2 8.95-5.75q0.25-0.2 0.5-0.25v2.25l-14.8 9.5 14.85 60.7h15.65l14.8-60.7-14.75-9.5v-2.25l0.55 0.25 8.95 5.75 3.1 2 3.25 2.1 0.75 0.9q0.25 0.6 0.1 1.25l-1.55 6.5" fill="#a1a1a1"/>
	<path d="m30 26.1 6.35 25.75h-14.15l-4-12.75 11.25-13h0.55m42.5 0h0.55l11.25 13-4 12.75h-14.1l6.3-25.75" fill="#337287"/>
	<path d="m72.5 26.1 1.8-7.25 20.85 24.2-11.55 37.7-2.95-0.6 2.75-11-19.15-6.4-0.15-2v-0.2l2.1-8.7h14.1l4-12.75-11.25-13h-0.55m-44.25-7.25 1.75 7.25h-0.55l-11.25 13 4 12.75h14.15l2.1 8.7-0.2 2.2-19.15 6.4 2.75 11-2.95 0.6-11.55-37.7 20.9-24.2" fill="#3e88a1"/>
	<path d="m43.4 2.35-4.05 28.9 11.9-5 11.95 5-4.05-28.9 14.75 9.5-14.8 60.7h-15.65l-14.85-60.7 14.8-9.5m7.85 27.4-11.9 5 4.45 18.1 0.5 2.1 6.95 3.7 7-3.6v-0.1l4.95-20.2-11.95-5" fill="#dbdbdb"/>
	<path d="m51.25 29.75v26.9l-6.95-3.7v-0.1h-0.5l-4.45-18.1 11.9-5" fill="#4a3c55"/>
	<path d="m51.25 29.75 11.95 5-4.95 20.2v0.1l-7 3.6-6.95-3.7-0.5-2.1h0.5v0.1l6.95 3.7v-26.9" fill="#544763"/>
	<path d="m83.25 82.75-3-0.6-0.95-0.5-0.55-0.9q-0.2-0.6-0.05-1l2.3-9.4-17.35-5.8-0.5-0.2 0.95-3.6 0.15 2 19.15 6.4-2.75 11 2.95 0.6h0.2l-0.55 2m-43.85-18.4-0.55 0.2-17.35 5.8 2.3 9.4-0.05 1-0.55 0.9-0.95 0.5-3 0.6-0.55-2h0.2l2.95-0.6-2.75-11 19.15-6.4 0.2-2.2 0.95 3.8" fill="#2b5866"/>
</svg>
