<?xml version="1.0" encoding="UTF-8" standalone="no"?>
<svg width="103.8" version="1.1" height="83" xmlns="http://www.w3.org/2000/svg"><path fill="#2b5866" d="m36.55 83h-7.15l-1-.3-.75-.7-27.4-48.35-.25-1v-5.15q0-.85.55-1.4.6-.6 1.45-.6h15.2l16.5-13.65-.3 2.9-15.45 12.75h-15.95v5.15l27.4 48.35h6.8l.35 2m33.6-71.1 16.45 13.6h15.2q.85 0 1.45.6.55.55.55 1.4v5.15l-.25 1-27.4 48.35-.75.7-1 .3h-7.15l.35-2h6.8l27.4-48.35v-5.15h-15.95l-15.45-12.8-.25-2.8"/><path fill="#337287" d="m32.9 81h-3.5l-27.4-48.35v-5.15h15.95l14.95 53.5m38 0 14.95-53.5h15.95v5.15l-27.4 48.35h-3.5"/><path fill="#a1a1a1" d="m33.4 14.75.3-2.9.15-1.9q.05-.55.35-.95.2-.35.55-.55l.2-.1 4-2.05v2.25l-3.1 1.55-2.45 26.25 12.15 28.65h12.7l12.2-28.65-2.5-26.25-3.05-1.55v-2.2l3.95 2 .75.65.35.9.2 2 .25 2.8 1.4 14.6.65 6.85-.15 1-6.85 16.05-3.5 8.3-1.85 4.3-.75.8-1.1.4h-12.7l-1.1-.4-.75-.8-1.8-4.3-3.55-8.3-6.8-16.05-.15-.95.65-6.95 1.35-14.5"/><path fill="#dbdbdb" d="m64.9 8.55 3.05 1.55 2.5 26.25l-12.2 28.65h-12.7l-12.15-28.65 2.45-26.25 3.1-1.55v18.65h25.95v-18.65m-13 22.1h-12.95l-.45 4.9 7.35 17.35.85 2h10.4l8.25-19.35-.45-4.9h-13"/><path fill="#c4c4c4" d="m36.55 83-.35-2h7.2l-5.05-27.8 3.55 8.3 3.45 19.1q.15.6-.1 1.2l-.75.8-1.1.4h-6.85m2.4-76.7 12.05-6.05.9-.25l.9.25 12.1 6.1v2.2l-13-6.55-12.95 6.55v-2.25m28.3 76.7h-6.85l-1.1-.4q-.5-.3-.75-.8-.25-.6-.1-1.2l3.5-19.1 3.5-8.3-5.05 27.8h7.2l-.35 2"/><path fill="#eee" d="m38.95 8.55 12.95-6.55l13 6.55v18.65h-25.95v-18.65m-6.9 20.7-.65 6.95.15.95 6.8 16.05 5.05 27.8h-7.1l-8.55-44.9 4.3-6.85m39.75.05 4.25 6.8-8.55 44.9h-7.1l5.05-27.8 6.85-16.05.15-1-.65-6.85"/><path fill="#4a3c55" d="m45.85 52.9-7.35-17.35.45-4.9h12.95v22.25h-6.05"/><path fill="#544763" d="m45.85 52.9h6.05v-22.25h13l.45 4.9-8.25 19.35h-10.4l-.85-2"/><path fill="#3e88a1" d="m36.2 81h-3.3l-14.95-53.5 15.45-12.75-1.35 14.5-4.3 6.85 8.55 44.9h-.1m31.3 0 8.55-44.9-4.25-6.8-1.4-14.6 15.45 12.8-14.95 53.5h-3.4"/></svg>
