<?xml version="1.0" encoding="UTF-8" standalone="no"?>
<svg xmlns="http://www.w3.org/2000/svg" width="102.5" version="1.1" height="83.55"><path fill="#c4c4c4" d="m43.4.1.55-.1h14.65l.55.1v2.25l-.55-.35h-14.65l-.55.35v-2.25m25.25 6h7.3l.9.2.7.55 24.55 31.15.4.9-.05.95-12.6 42.4q-.25.7-.9 1.1l-1.45.2-4.25-.8.55-2 4.1.9 12.6-42.4-24.55-31.15h-4.2l-3.1-2m-49.4 76.65-4.25.8-1.45-.2-.9-1.1-12.6-42.4-.05-.95.4-.9 24.55-31.15l.7-.55.9-.2h7.4l-3.1 2h-4.3l-24.55 31.15 12.6 42.4 4.1-.9.55 2"/><path fill="#eee" d="m43.4 2.35.55-.35h14.65l.55.35 4.05 28.9-11.95-5-11.9 5 4.05-28.9m-12.55 5.75-3.3 2.1q-.55.3-.8.9t-.1 1.25l1.6 6.5-20.9 24.2 11.55 37.7h-.2l-4.1.9-12.6-42.4 24.55-31.15h4.3m43.45 10.75 1.55-6.5q.15-.65-.1-1.25l-.75-.9-3.25-2.1h4.2l24.55 31.15-12.6 42.4-4.1-.9h-.2l11.55-37.7-20.85-24.2"/><path fill="#a1a1a1" d="m74.3 18.85-1.8 7.25-6.3 25.75-2.1 8.7v.2l-.95 3.6-2.1 8.6q-.15.7-.7 1.2-.55.4-1.25.4h-15.65q-.7 0-1.2-.4-.6-.5-.75-1.2l-2.1-8.6-.95-3.8-2.1-8.7-6.35-25.75-1.75-7.25-1.6-6.5q-.15-.65.1-1.25t.8-.9l3.3-2.1 3.1-2 8.95-5.75q.25-.2.5-.25v2.25l-14.8 9.5 14.85 60.7h15.65l14.8-60.7-14.75-9.5v-2.25l.55.25 8.95 5.75 3.1 2 3.25 2.1.75.9q.25.6.1 1.25l-1.55 6.5"/><path fill="#337287" d="m30 26.1 6.35 25.75h-14.15l-4-12.75 11.25-13h.55m42.5 0h.55l11.25 13-4 12.75h-14.1l6.3-25.75"/><path fill="#3e88a1" d="m72.5 26.1 1.8-7.25 20.85 24.2-11.55 37.7-2.95-.6 2.75-11-19.15-6.4-.15-2v-.2l2.1-8.7h14.1l4-12.75-11.25-13h-.55m-44.25-7.25 1.75 7.25h-.55l-11.25 13 4 12.75h14.15l2.1 8.7-.2 2.2-19.15 6.4 2.75 11-2.95.6-11.55-37.7 20.9-24.2"/><path fill="#dbdbdb" d="m43.4 2.35-4.05 28.9 11.9-5 11.95 5-4.05-28.9 14.75 9.5-14.8 60.7h-15.65l-14.85-60.7 14.8-9.5m7.85 27.4-11.9 5 4.45 18.1.5 2.1 6.95 3.7 7-3.6v-.1l4.95-20.2-11.95-5"/><path fill="#4a3c55" d="m51.25 29.75v26.9l-6.95-3.7v-.1h-.5l-4.45-18.1 11.9-5"/><path fill="#544763" d="m51.25 29.75 11.95 5-4.95 20.2v.1l-7 3.6-6.95-3.7-.5-2.1h.5v.1l6.95 3.7v-26.9"/><path fill="#2b5866" d="m83.25 82.75-3-.6-.95-.5-.55-.9q-.2-.6-.05-1l2.3-9.4-17.35-5.8-.5-.2.95-3.6.15 2 19.15 6.4-2.75 11 2.95.6h.2l-.55 2m-43.85-18.4-.55.2-17.35 5.8 2.3 9.4-.05 1-.55.9-.95.5-3 .6-.55-2h.2l2.95-.6-2.75-11 19.15-6.4.2-2.2.95 3.8"/></svg>
