<?xml version="1.0" encoding="UTF-8" standalone="no"?>
<svg height="83" version="1.1" xmlns="http://www.w3.org/2000/svg" width="103.8"><path fill="#a1a1a1" d="m64.9 6.4 3.95 2 .75.6.35.9.2 2 .25 2.8 1.4 14.6.65 6.9-.15 1-6.85 16-3.5 8.3-1.85 4.3-.75.8-1.1.4h-12.7l-1.1-.4-.75-.8-1.8-4.3-3.55-8.3-6.8-16-.15-1 .65-7 1.35-14.4.3-3 .15-1.8q.05-.6.35-1 .2-.4.55-.6h.2l4-2.1v2.3l-3.1 1.5-2.45 26.3 12.15 28.6h12.7l12.2-28.6-2.5-26.3-3.05-1.5v-2.2"/><path fill="#4f4758" d="m70.15 11.9 16.45 13.6h15.2q.85 0 1.45.6.55.5.55 1.4v5.1l-.25 1-27.4 48.4-.75.7-1 .3h-7.15l.35-2h6.8l27.4-48.4v-5.1h-15.95l-15.45-12.8-.25-2.8m-33.6 71.1h-7.15l-1-.3-.75-.7-27.4-48.4-.25-1v-5.1q0-.9.55-1.4.6-.6 1.45-.6h15.2l16.5-13.7-.3 3-15.45 12.7h-15.95v5.1l27.4 48.4h6.8l.35 2"/><path fill="#eee" d="m65.45 53.2 6.85-16 .15-1-.65-6.9 4.25 6.8l-8.55 44.9h-7.1l5.05-27.8m-26.5-44.6 12.95-6.6l13 6.6v18.6h-25.95v-18.6m-6.9 20.6-.65 7 .15 1 6.8 16 5.05 27.8h-7.1l-8.55-44.9 4.3-6.9"/><path fill="#63596d" d="m32.05 29.2-4.3 6.9 8.55 44.9h-3.4l-14.95-53.5 15.45-12.7-1.35 14.4m35.45 51.8 8.55-44.9-4.25-6.8-1.4-14.6 15.45 12.8-14.95 53.5h-3.4"/><path fill="#5a5164" d="m85.85 27.5h15.95v5.1l-27.4 48.4h-3.5l14.95-53.5m-67.9 0l14.95 53.5h-3.5l-27.4-48.4v-5.1h15.95"/><path fill="#c4c4c4" d="m67.25 83h-6.85l-1.1-.4q-.5-.3-.75-.8-.25-.6-.1-1.2l3.5-19.1 3.5-8.3-5.05 27.8h7.2l-.35 2m-25.35-21.5 3.45 19.1q.15.6-.1 1.2l-.75.8-1.1.4h-6.85l-.35-2h7.2l-5.05-27.8 3.55 8.3m-2.95-55.2 12.05-6.1.9-.2l.9.2 12.1 6.2v2.2l-13-6.6-12.95 6.6v-2.3"/><path fill="#dbdbdb" d="m64.9 8.6 3.05 1.5 2.5 26.3-12.2 28.6h-12.7l-12.15-28.6 2.45-26.3 3.1-1.5v18.6h25.95v-18.6m-13 22h-12.95l-.45 5 7.35 17.3.85 2h10.4l8.25-19.3-.45-5h-13"/><path fill="#4a3c55" d="m51.9 30.6v22.3h-6.05l-7.35-17.3.45-5h12.95"/><path fill="#544763" d="m51.9 30.6h13l.45 5-8.25 19.3h-10.4l-.85-2h6.05v-22.3"/></svg>
