<?xml version="1.0" encoding="UTF-8" standalone="no"?>
<svg xmlns:rdf="http://www.w3.org/1999/02/22-rdf-syntax-ns#" xmlns="http://www.w3.org/2000/svg" height="82.75" width="92.8" version="1.1" xmlns:cc="http://creativecommons.org/ns#" xmlns:dc="http://purl.org/dc/elements/1.1/">
	<path d="m15.3 2.2 0.95-1.4q0.4-0.65 1.1-0.8l1.35 0.1 16.1 7.3q0.45 0.15 0.75 0.55l0.4 0.85 1.85 9.1h17.2l1.85-9.1 0.4-0.85q0.3-0.4 0.75-0.55l16.1-7.3 1.35-0.1q0.7 0.15 1.1 0.8l0.95 1.4-1.6 1.15-0.15-0.25-0.85-1.2-16.1 7.3-1.8 8.8-0.6-0.1v2h-20v-2l-0.6 0.1-1.8-8.8-16.1-7.3-0.85 1.2-0.15 0.25-1.6-1.15m46.1 77.75-2.7-0.9q-0.75-0.3-1.1-0.9-0.4-0.8-0.15-1.5l6.75-24.5-2.55-1.6 0.9-1.8 3.95 2.4-7.15 26 2.6 0.9-0.55 1.9m-30.2-29.4-2.6 1.6 6.75 24.5q0.25 0.7-0.15 1.5-0.35 0.6-1.1 0.9l-2.7 0.9-0.55-1.9 2.6-0.9-7.15-26 4-2.4 0.9 1.8" fill="#c4c4c4"/>
	<path d="m77.5 2.2 14.95 22.2 0.35 0.9-0.1 0.9-20.75 55.35q-0.3 0.8-1.05 1.2h-1.5l-8-2.8 0.55-1.9 8.1 2.9 11.3-30.15 8.7-23.2 0.75-2.1-14.9-22.15 1.6-1.15m-46.1 77.75-8 2.8h-1.5q-0.75-0.4-1.05-1.2l-20.75-55.35-0.1-0.9q0.1-0.5 0.35-0.9l14.95-22.2 1.6 1.15-14.9 22.15 0.75 2.1 8.7 23.2 11.3 30.15 8.1-2.9 0.55 1.9" fill="#2b5866"/>
	<path d="m17.05 3.1 0.85-1.2 16.1 7.3 1.8 8.8q-0.35 0.1-0.65 0.35l-5.3 4.3-2.95-12.2-9.85-7.35m19.35 16.8h20v24.8q-0.05-1.4-1.05-2.4-1.05-1.1-2.6-1.1h-12.65q-1.55 0-2.6 1.1-1.05 1.05-1.1 2.5v-24.9m20.6-1.9 1.8-8.8 16.1-7.3 0.85 1.2-9.85 7.35-2.9 12.2-5.35-4.3q-0.3-0.25-0.65-0.35m-26.15 60.05-8.1-29.2 5.45-4.35 2.1 4.25-4 2.4 7.15 26-2.6 0.9m33.8-33.55 5.4 4.35-8.1 29.2-2.6-0.9 7.15-26-3.95-2.4 2.1-4.25" fill="#eee"/>
	<path d="m64.65 44.5 1.45-3 0.2-0.9v-14.35l-0.2-0.85-0.55-0.7-2.55-2.05 2.9-12.2 9.85-7.35 0.15 0.25 14.9 22.15-0.75 2.1-18.55-6.45-4.5 18 14.35 11.65-11.3 30.15-8.1-2.9 8.1-29.2-5.4-4.35m-47.75-41.15 0.15-0.25l9.85 7.35 2.95 12.2-2.6 2.05-0.55 0.7-0.2 0.85v14.35l0.2 0.9 1.5 3-5.45 4.35 8.1 29.2-8.1 2.9-11.3-30.15 14.35-11.65-4.5-18-18.55 6.45-0.75-2.1 14.9-22.15" fill="#3e88a1"/>
	<path d="m56.4 19.9 7.9 6.35v14.35l-7.3 14.75h-21.15l-7.35-14.75v-14.35l7.9-6.35v25.1q0.05 1.1 0.65 1.95l0.45 0.55q1.05 1.1 2.6 1.1h12.65q1.55 0 2.6-1.1l0.45-0.5q0.55-0.9 0.6-2v-25.1" fill="#dbdbdb"/>
	<path d="m56.4 19.9v-2l0.6 0.1q0.35 0.1 0.65 0.35l5.35 4.3 2.55 2.05 0.55 0.7 0.2 0.85v14.35l-0.2 0.9-1.45 3-2.1 4.25-0.9 1.8-2.85 5.7-0.75 0.8-1.05 0.3h-21.15q-0.55 0-1.05-0.3l-0.75-0.8-2.85-5.7-0.9-1.8-2.1-4.25-1.5-3-0.2-0.9v-14.35l0.2-0.85 0.55-0.7 2.6-2.05 5.3-4.3q0.3-0.25 0.65-0.35l0.6-0.1v2l-7.9 6.35v14.35l7.35 14.75h21.15l7.3-14.75v-14.35l-7.9-6.35" fill="#a1a1a1"/>
	<path d="m2.75 27.6 18.55-6.45 4.5 18l-14.35 11.65-8.7-23.2m78.6 23.2-14.35-11.65l4.5-18 18.55 6.45-8.7 23.2" fill="#337287"/>
	<path d="m56.4 44.7v0.3q-0.05 1.1-0.6 2l-0.45 0.5q-1.05 1.1-2.6 1.1h-12.65q-1.55 0-2.6-1.1l-0.45-0.55q-0.6-0.85-0.65-1.95v-0.2q0.05-1.45 1.1-2.5 1.05-1.1 2.6-1.1h12.65q1.55 0 2.6 1.1 1 1 1.05 2.4" fill="#4a3c55"/>
</svg>
