<?xml version="1.0" encoding="UTF-8" standalone="no"?>
<svg width="103.8" version="1.1" xmlns="http://www.w3.org/2000/svg" height="82.95"><path d="m64.9 6.35 3.95 2 .75.65.35.9.2 2 .25 2.8 1.4 14.6.65 6.85-.15 1-6.85 16.05-3.5 8.3-1.85 4.25-.75.9-1.1.3h-12.7l-1.1-.3-.75-.9-1.8-4.25-3.55-8.35-6.8-16-.15-.95.65-6.95 1.35-14.5.3-2.9.15-1.9q.05-.55.35-.95.2-.35.55-.55l.2-.1 4-2.05v2.25l-3.1 1.55-2.45 26.25 12.15 28.6h12.7l12.2-28.6-2.5-26.25-3.05-1.55v-2.2" fill="#a1a1a1"/><path d="m70.15 11.9 16.45 13.6h15.2q.85 0 1.45.6.55.55.55 1.4v5.15l-.25 1-27.4 48.3-.75.75-1 .25h-7.15l.35-2h6.8l27.4-48.3v-5.15h-15.95l-15.45-12.8-.25-2.8m-33.6 71.05h-7.15l-1-.25-.75-.75-27.4-48.3-.25-1v-5.15q0-.85.55-1.4.6-.6 1.45-.6h15.2l16.5-13.65-.3 2.9-15.45 12.75h-15.95v5.15l27.4 48.3h6.8l.35 2" fill="#704423"/><path d="m85.85 27.5h15.95v5.15l-27.4 48.3h-3.5l14.95-53.45m-52.95 53.45h-3.5l-27.4-48.3v-5.15h15.95l14.95 53.45" fill="#a36331"/><path d="m71.8 29.3 4.25 6.8-8.55 44.85h-7.1l5.05-27.75 6.85-16.05.15-1-.65-6.85m-32.85-20.75 12.95-6.55l13 6.55v18.65h-25.95v-18.65m-6.9 20.7-.65 6.95.15.95 6.8 16 5.05 27.8h-7.1l-8.55-44.85 4.3-6.85" fill="#eee"/><path d="m32.05 29.25-4.3 6.85 8.55 44.85h-3.4l-14.95-53.45 15.45-12.75-1.35 14.5m38.85 51.7h-3.4l8.55-44.85-4.25-6.8-1.4-14.6 15.45 12.8-14.95 53.45" fill="#bb6c2e"/><path d="m67.25 82.95h-6.85l-1.1-.3q-.5-.35-.75-.9t-.1-1.15l3.5-19.1 3.5-8.3-5.05 27.75h7.2l-.35 2m-25.35-21.45 3.45 19.1q.15.6-.1 1.15l-.75.9-1.1.3h-6.85l-.35-2h7.2l-5.05-27.8 3.55 8.35m-2.95-55.2 12.05-6.05.9-.25l.9.25 12.1 6.1v2.2l-13-6.55-12.95 6.55v-2.25" fill="#c4c4c4"/><path d="m64.9 8.55 3.05 1.55 2.5 26.25-12.2 28.6h-12.7l-12.15-28.6 2.45-26.25 3.1-1.55v18.65h25.95v-18.65m-19.05 44.35.85 2h10.4l8.25-19.35-.45-4.9h-25.95l-.45 4.9 7.35 17.35" fill="#dbdbdb"/><path d="m45.85 52.9h6.05v-22.25h13l.45 4.9-8.25 19.35h-10.4l-.85-2" fill="#544763"/><path d="m45.85 52.9-7.35-17.35.45-4.9h12.95v22.25h-6.05" fill="#4a3c55"/></svg>
