<?xml version="1.0" encoding="UTF-8" standalone="no"?>
<svg width="96.764" height="84" xmlns="http://www.w3.org/2000/svg" version="1.1"><path fill="#c4c4c4" d="m25.364 74h-3.3q-.65 0-1.2-.4t-.75-1l-20.05-70q-.15-.6.05-1.2.25-.6.75-1 .5003-.4 1.1503-.4h14.55q.6 0 1.1.4l17.35 11.4.55.6.3.8.55 3-.3.2-1.9-1-.3-1.9-17.35-11.5h-14.55l20.05 70h2.85l.45 2m18.1-59.6 4.45-1.2q.5-.1 1 0l4.45 1.2v2l-4.95-1.2-4.95 1.2v-2m16.95 1.8.55-3 .3-.8q.2-.4.55-.6l17.35-11.4q.5-.4 1.1-.4h14.55q.65 0 1.15.4l.75 1 .05 1.2-20.05 70-.75 1q-.55.4-1.2.4h-3.3l.45-2h2.85l20.05-70h-14.55l-17.35 11.5-.3 1.9-1.85 1-.35-.2"/><path fill="#7c9865" d="m24.914 72h-.15l-2.9-13.1-8.85-39.5 7.25-10.5 14 6.8.2 1.1-4.95 1.2-.5.2-.55.6q-.45.4-.45 1.2v21.4q0 .7.55 1.3l.25.3 2.05 21.6 2.75 1.2-2.35 3.7q-.3.5-.3 1.1v1.4h-6.05m43.1-28.9.35-.4q.5-.6.5-1.3v-21.4q0-.8-.4-1.2l-.6-.6-.5-.2-4.95-1.2.15-1.1 14-6.8 7.25 10.5-8.85 39.5-2.9 13.1h-6.2v-1.4l-.3-1.1-2.3-3.7 2.7-1.2 2.05-21.5"/><path fill="#a1a1a1" d="m68.014 43.1-7.65 8.3v7.9l.35 2.4 2.55 4.1 2.3 3.7.3 1.1v1.4h6.05l-.45 2h-5.6v3.2q0 .8-.6 1.4l-5 4.9q-.6.5-1.4.5h-20.9q-.8 0-1.4-.5l-5-4.9q-.6-.6-.6-1.4v-3.2h-5.6l-.45-2h6.05v-1.4q0-.6.3-1.1l2.35-3.7 2.55-4.1.3-2.3v-8l-7.65-8.4-.25-.3q-.55-.6-.55-1.3v-21.4q0-.8.45-1.2l.55-.6.5-.2 4.95-1.2-.2-1.1-.05-.3 1.9 1 .3-.2 7.05-1.8v2l-13.45 3.6v21.4l8.45 9.2v11.2l-5.5 8.8v6.6l5 4.8h20.9l5-4.8v-6.6l-5.5-8.8v-11.2l8.5-9.2v-21.4l-13.5-3.6v-2l7.05 1.8.35.2 1.85-1-.05.3-.15 1.1 4.95 1.2.5.2.6.6q.4.4.4 1.2v21.4q0 .7-.5 1.3l-.35.4"/><path fill="#eee" d="m24.764 72h-2.7l-20.05-70h14.55l17.35 11.5.3 1.9.05.3-14-6.8-7.25 10.5 8.85 39.5 2.9 13.1m18.7-55.6 4.95-1.2 4.95 1.2v43.9h-9.9v-43.9m19.1-.7.05-.3.3-1.9 17.35-11.5h14.55l-20.05 70h-2.7l2.9-13.1 8.85-39.5-7.25-10.5-14 6.8"/><path fill="#dbdbdb" d="m53.364 16.4 13.5 3.6v21.4l-8.5 9.2v11.2l5.5 8.8v6.6l-5 4.8h-20.9l-5-4.8v-6.6l5.5-8.8v-11.2l-8.45-9.2v-21.4l13.45-3.6v45.4q0 1.4-.75 2.6l-3.8 6-.95 1.6 10.45 5q5.25-2.4 10.45-5l-.95-1.6-3.75-6q-.8-1.2-.8-2.6v-45.4"/><path fill="#4a3c55" d="m53.364 60.3v1.5q0 1.4.8 2.6l3.75 6-9.5 4.6-9.5-4.6 3.8-6q.75-1.2.75-2.6v-1.5h9.9"/><path fill="#65804f" d="m28.814 43 7.65 8.4v8l-.3 2.3-2.55 4.1-2.75-1.2-2.05-21.6m34.45 22.8-2.55-4.1-.35-2.4v-7.9l7.65-8.3-2.05 21.5-2.7 1.2"/><path fill="#544763" d="m57.914 70.4.95 1.6q-5.2 2.6-10.45 5l-10.45-5 .95-1.6 9.5 4.6 9.5-4.6"/></svg>
