<?xml version="1.0" encoding="UTF-8" standalone="no"?>
<svg xmlns:rdf="http://www.w3.org/1999/02/22-rdf-syntax-ns#" xmlns="http://www.w3.org/2000/svg" height="83.6" width="102.5" version="1.1" xmlns:cc="http://creativecommons.org/ns#" xmlns:dc="http://purl.org/dc/elements/1.1/">
	<path d="m33.95 6.2-3.1 2h-4.3l-24.55 31.1 12.6 42.4 4.1-0.9 0.55 2-4.25 0.8-1.45-0.2-0.9-1.1-12.6-42.4-0.05-0.9 0.4-1 24.55-31.1q0.3-0.3 0.7-0.5l0.9-0.2h7.4m37.8 2-3.1-2h7.3l0.9 0.2 0.7 0.5 24.55 31.1 0.4 1-0.05 0.9-12.6 42.4q-0.25 0.7-0.9 1.1l-1.45 0.2-4.25-0.8 0.55-2 4.1 0.9 12.6-42.4-24.55-31.1h-4.2m-12.6-8v2.2l-0.55-0.4h-14.65l-0.55 0.4v-2.2l0.55-0.2h14.65l0.55 0.2" fill="#c4c4c4"/>
	<path d="m18.7 80.8-4.1 0.9-12.6-42.4 24.55-31.1h4.3l-3.3 2q-0.55 0.4-0.8 1t-0.1 1.2l1.6 6.5-20.9 24.2 11.55 37.7h-0.2m55.6-61.9 1.55-6.5q0.15-0.6-0.1-1.2l-0.75-1-3.25-2h4.2l24.55 31.1-12.6 42.4-4.1-0.9h-0.2l11.55-37.7-20.85-24.2m-30.9-16.5 0.55-0.4h14.65l0.55 0.4 4.05 28.9-11.95-5-11.9 5 4.05-28.9" fill="#eee"/>
	<path d="m43.4 2.4-14.8 9.5 14.85 60.7h15.65l14.8-60.7-14.75-9.5v-2.2l0.55 0.2 8.95 5.8 3.1 2 3.25 2 0.75 1q0.25 0.6 0.1 1.2l-1.55 6.5-1.8 7.3-6.3 25.7-2.1 8.7v0.2l-0.95 3.6-2.1 8.6q-0.15 0.7-0.7 1.2-0.55 0.4-1.25 0.4h-15.65q-0.7 0-1.2-0.4-0.6-0.5-0.75-1.2l-2.1-8.6-0.95-3.8-2.1-8.7-6.35-25.7-1.75-7.3-1.6-6.5q-0.15-0.6 0.1-1.2t0.8-1l3.3-2 3.1-2 8.95-5.8q0.25-0.2 0.5-0.2v2.2" fill="#a1a1a1"/>
	<path d="m43.4 2.4-4.05 28.9 11.9-5 11.95 5l-4.05-28.9 14.75 9.5-14.8 60.7h-15.65l-14.85-60.7 14.8-9.5m0.4 50.5 0.5 2.1 6.95 3.7 7-3.6v-0.1l4.95-20.2-11.95-5-11.9 5 4.45 18.1" fill="#dbdbdb"/>
	<path d="m28.25 18.9 1.75 7.3h-0.55l-11.25 13 4 12.7h14.15l2.1 8.7-0.2 2.2-19.15 6.4 2.75 11-2.95 0.6-11.55-37.7 20.9-24.2m35.85 41.9v-0.2l2.1-8.7h14.1l4-12.7-11.25-13h-0.55l1.8-7.3 20.85 24.2-11.55 37.7-2.95-0.6 2.75-11-19.15-6.4-0.15-2" fill="#7c9865"/>
	<path d="m30 26.2 6.35 25.7h-14.15l-4-12.7 11.25-13h0.55m36.2 25.7 6.3-25.7h0.55l11.25 13-4 12.7h-14.1" fill="#65804f"/>
	<path d="m19.25 82.8-0.55-2h0.2l2.95-0.6-2.75-11 19.15-6.4 0.2-2.2 0.95 3.8-0.55 0.2-17.35 5.8 2.3 9.4-0.05 1-0.55 0.9-0.95 0.5-3 0.6m43.9-18.4 0.95-3.6 0.15 2 19.15 6.4-2.75 11 2.95 0.6h0.2l-0.55 2-3-0.6-0.95-0.5-0.55-0.9q-0.2-0.6-0.05-1l2.3-9.4-17.35-5.8-0.5-0.2" fill="#485d36"/>
	<path d="m51.25 29.8 11.95 5-4.95 20.2v0.1l-7 3.6-6.95-3.7-0.5-2.1h0.5v0.1l6.95 3.7v-26.9" fill="#544763"/>
	<path d="m51.25 29.8v26.9l-6.95-3.7v-0.1h-0.5l-4.45-18.1 11.9-5" fill="#4a3c55"/>
</svg>
