<?xml version="1.0" encoding="UTF-8" standalone="no"?>
<svg id="svg2" xmlns:rdf="http://www.w3.org/1999/02/22-rdf-syntax-ns#" xmlns="http://www.w3.org/2000/svg" height="82.95" width="103.8" version="1.1" xmlns:cc="http://creativecommons.org/ns#" xmlns:dc="http://purl.org/dc/elements/1.1/">
 <path id="path1858" d="m64.9 6.35 3.95 2 0.75 0.65 0.35 0.9 0.2 2 0.25 2.8 1.4 14.6 0.65 6.85-0.15 1-6.85 16.05-3.5 8.3-1.85 4.25-0.75 0.9-1.1 0.3h-12.7l-1.1-0.3-0.75-0.9-1.8-4.25-3.55-8.35-6.8-16-0.15-0.95 0.65-6.95 1.35-14.5 0.3-2.9 0.15-1.9q0.05-0.55 0.35-0.95 0.2-0.35 0.55-0.55l0.2-0.1 4-2.05v2.25l-3.1 1.55-2.45 26.25 12.15 28.6h12.7l12.2-28.6-2.5-26.25-3.05-1.55v-2.2" fill="#a1a1a1"/>
 <path id="path1860" d="m70.15 11.9 16.45 13.6h15.2q0.85 0 1.45 0.6 0.55 0.55 0.55 1.4v5.15l-0.25 1-27.4 48.3-0.75 0.75-1 0.25h-7.15l0.35-2h3.3 3.5l27.4-48.3v-5.15h-15.95l-15.45-12.8-0.25-2.8m-33.6 71.05h-7.15l-1-0.25-0.75-0.75-27.4-48.3-0.25-1v-5.15q0-0.85 0.55-1.4 0.6-0.6 1.45-0.6h15.2l16.5-13.65-0.3 2.9-15.45 12.75h-15.95v5.15l27.4 48.3h3.5 3.3l0.35 2" fill="#704423"/>
 <path id="path1862" d="m85.85 27.5h15.95v5.15l-27.4 48.3h-3.5l14.95-53.45m-52.95 53.45h-3.5l-27.4-48.3v-5.15h15.95l14.95 53.45" fill="#a36331"/>
 <path id="path1864" d="m71.8 29.3 4.25 6.8-8.55 44.85h-7.1l5.05-27.75 6.85-16.05 0.15-1-0.65-6.85m-32.85-20.75 12.95-6.55l13 6.55v18.65h-25.95v-18.65m-6.9 20.7-0.65 6.95 0.15 0.95 6.8 16 5.05 27.8h-7.1l-8.55-44.85 4.3-6.85" fill="#eee"/>
 <path id="path1866" d="m32.05 29.25-4.3 6.85 8.55 44.85h-0.1-3.3l-14.95-53.45 15.45-12.75-1.35 14.5m38.85 51.7h-3.3-0.1l8.55-44.85-4.25-6.8-1.4-14.6 15.45 12.8-14.95 53.45" fill="#bb6c2e"/>
 <path id="path1868" d="m67.25 82.95h-6.85l-1.1-0.3q-0.5-0.35-0.75-0.9t-0.1-1.15l3.5-19.1 3.5-8.3-5.05 27.75h7.1 0.1l-0.35 2m-25.35-21.45 3.45 19.1q0.15 0.6-0.1 1.15l-0.75 0.9-1.1 0.3h-6.85l-0.35-2h0.1 7.1l-5.05-27.8 3.55 8.35m-2.95-55.2 12.05-6.05 0.9-0.25l0.9 0.25 12.1 6.1v2.2l-13-6.55-12.95 6.55v-2.25" fill="#c4c4c4"/>
 <path id="path1870" d="m64.9 8.55 3.05 1.55 2.5 26.25-12.2 28.6h-12.7l-12.15-28.6 2.45-26.25 3.1-1.55v18.65h25.95v-18.65m-19.05 44.35 0.85 2h10.4l8.25-19.35-0.45-4.9h-13-12.95l-0.45 4.9 7.35 17.35" fill="#dbdbdb"/>
 <path id="path1872" d="m45.85 52.9h6.05v-22.25h13l0.45 4.9-8.25 19.35h-10.4l-0.85-2" fill="#544763"/>
 <path id="path1874" d="m45.85 52.9-7.35-17.35 0.45-4.9h12.95v22.25h-6.05" fill="#4a3c55"/>
</svg>
