<?xml version="1.0" encoding="UTF-8" standalone="no"?>
<svg version="1.1" width="102.5" xmlns="http://www.w3.org/2000/svg" height="83.6"><path fill="#c4c4c4" d="m33.95 6.2-3.1 2h-4.3l-24.55 31.1 12.6 42.4 4.1-.9.55 2-4.25.8-1.45-.2-.9-1.1-12.6-42.4-.05-.9.4-1 24.55-31.1q.3-.3.7-.5l.9-.2h7.4m37.8 2-3.1-2h7.3l.9.2.7.5 24.55 31.1.4 1-.05.9-12.6 42.4q-.25.7-.9 1.1l-1.45.2-4.25-.8.55-2 4.1.9 12.6-42.4-24.55-31.1h-4.2m-12.6-8v2.2l-.55-.4h-14.65l-.55.4v-2.2l.55-.2h14.65l.55.2"/><path fill="#eee" d="m18.7 80.8-4.1.9-12.6-42.4 24.55-31.1h4.3l-3.3 2q-.55.4-.8 1t-.1 1.2l1.6 6.5-20.9 24.2 11.55 37.7h-.2m55.6-61.9 1.55-6.5q.15-.6-.1-1.2l-.75-1-3.25-2h4.2l24.55 31.1-12.6 42.4-4.1-.9h-.2l11.55-37.7-20.85-24.2m-30.9-16.5.55-.4h14.65l.55.4 4.05 28.9-11.95-5-11.9 5 4.05-28.9"/><path fill="#a1a1a1" d="m43.4 2.4-14.8 9.5 14.85 60.7h15.65l14.8-60.7-14.75-9.5v-2.2l.55.2 8.95 5.8 3.1 2 3.25 2 .75 1q.25.6.1 1.2l-1.55 6.5-1.8 7.3-6.3 25.7-2.1 8.7v.2l-.95 3.6-2.1 8.6q-.15.7-.7 1.2-.55.4-1.25.4h-15.65q-.7 0-1.2-.4-.6-.5-.75-1.2l-2.1-8.6-.95-3.8-2.1-8.7-6.35-25.7-1.75-7.3-1.6-6.5q-.15-.6.1-1.2t.8-1l3.3-2 3.1-2 8.95-5.8q.25-.2.5-.2v2.2"/><path fill="#dbdbdb" d="m43.4 2.4-4.05 28.9 11.9-5 11.95 5l-4.05-28.9 14.75 9.5-14.8 60.7h-15.65l-14.85-60.7 14.8-9.5m.4 50.5.5 2.1 6.95 3.7 7-3.6v-.1l4.95-20.2-11.95-5-11.9 5 4.45 18.1"/><path fill="#7c9865" d="m28.25 18.9 1.75 7.3h-.55l-11.25 13 4 12.7h14.15l2.1 8.7-.2 2.2-19.15 6.4 2.75 11-2.95.6-11.55-37.7 20.9-24.2m35.85 41.9v-.2l2.1-8.7h14.1l4-12.7-11.25-13h-.55l1.8-7.3 20.85 24.2-11.55 37.7-2.95-.6 2.75-11-19.15-6.4-.15-2"/><path fill="#65804f" d="m30 26.2 6.35 25.7h-14.15l-4-12.7 11.25-13h.55m36.2 25.7 6.3-25.7h.55l11.25 13-4 12.7h-14.1"/><path fill="#485d36" d="m19.25 82.8-.55-2h.2l2.95-.6-2.75-11 19.15-6.4.2-2.2.95 3.8-.55.2-17.35 5.8 2.3 9.4-.05 1-.55.9-.95.5-3 .6m43.9-18.4.95-3.6.15 2 19.15 6.4-2.75 11 2.95.6h.2l-.55 2-3-.6-.95-.5-.55-.9q-.2-.6-.05-1l2.3-9.4-17.35-5.8-.5-.2"/><path fill="#544763" d="m51.25 29.8 11.95 5-4.95 20.2v.1l-7 3.6-6.95-3.7-.5-2.1h.5v.1l6.95 3.7v-26.9"/><path fill="#4a3c55" d="m51.25 29.8v26.9l-6.95-3.7v-.1h-.5l-4.45-18.1 11.9-5"/></svg>
