<?xml version="1.0" encoding="UTF-8" standalone="no"?>
<svg xmlns="http://www.w3.org/2000/svg" version="1.1" width="81" height="83.95"><path d="m56.45 2-2.5-2h4.2q.55 0 1 .3l20.85 11.95.75.7.25 1v46.8l-.25 1-.75.7-25.95 15.1 1.3-3 23.65-13.8v-46.8l-20.85-11.95h-1.7m-19.85 7.6h7.8v2h-7.8v-2m-12.05-7.6h-1.7l-20.85 11.95v46.8l23.7 13.8 1.3 3-26-15.1-.75-.7-.25-1v-46.8q0-.55.25-1l.75-.7 20.85-11.95q.45-.3 1-.3h4.2l-2.5 2" fill="#c4c4c4"/><path d="m24.55 2h.2l-5.45 4.2-1.75 1.4-11.7 9.25v41.4l18.35 12.7 1.5 3.6-23.7-13.8v-46.8l20.85-11.95h1.7m31.7 0h1.9l20.85 11.95v46.8l-23.65 13.8 1.45-3.6 18.35-12.7v-41.4l-11.7-9.25-1.75-1.4-5.45-4.2m-19.65 9.6h7.8v36.25l4.75 8.1h-17.3l4.75-8.1v-36.25" fill="#eee"/><path d="m53.95 0 2.5 2h-7.65v7.6h-2v-7.6q0-.85.6-1.4.55-.6 1.4-.6h5.15m-26.9 0h5.15q.85 0 1.4.6.6.55.6 1.4v7.6h-2v-7.6h-7.65l2.5-2" fill="#2b5866"/><path d="m48.8 9.6v-7.6h7.45l5.45 4.2 1.75 1.4 11.7 9.25v41.4l-18.35 12.7 5.55-13.3.15-.8v-14.1l-.15-.8-.5-.7-9.2-8.15v-12.75h6.35l1.1-.35.75-.9 2.75-6.75q.25-.65.1-1.25-.2-.65-.75-1.05-.55-.45-1.15-.45h-13m20.1 9.7h-6.65q-1.3 0-1.3 1.3v6.65q0 1.25 1.3 1.25h6.65q1.25 0 1.25-1.25v-6.65q0-1.3-1.25-1.3m-7.95 19.55q0 1.3 1.3 1.3h6.65q1.25 0 1.25-1.3v-6.65q0-1.3-1.25-1.3h-6.65q-1.3 0-1.3 1.3v6.65m-36.75 32.1-18.35-12.7v-41.4l11.7-9.25 1.75-1.4 5.45-4.2h7.45v7.6h-12.95q-.65 0-1.2.45-.55.4-.7 1.05-.2.6.05 1.25l2.75 6.75q.25.55.75.9t1.1.35h6.35v12.75l-9.15 8.15q-.35.3-.5.7l-.2.8v14.1l.15.8 5.55 13.3m-12.1-51.65q-1.25 0-1.25 1.3v6.65q0 1.25 1.25 1.25h6.65q1.3 0 1.3-1.25v-6.65q0-1.3-1.3-1.3h-6.65m-1.25 12.9v6.65q0 1.3 1.25 1.3h6.65q1.3 0 1.3-1.3v-6.65q0-1.3-1.3-1.3h-6.65q-1.25 0-1.25 1.3" fill="#3e88a1"/><path d="m46.8 9.6h15q.6 0 1.15.45.55.4.75 1.05.15.6-.1 1.25l-2.75 6.75-.75.9-1.1.35h-6.35v12.75l9.2 8.15.5.7.15.8v14.1l-.15.8-5.55 13.3-1.45 3.6-1.3 3-2.2 5.2-.75.9-1.1.3h-19q-.6 0-1.1-.3l-.75-.9-2.15-5.2-1.3-3-1.5-3.6-5.55-13.3-.15-.8v-14.1l.2-.8q.15-.4.5-.7l9.15-8.15v-12.75h-6.35q-.6 0-1.1-.35t-.75-.9l-2.75-6.75q-.25-.65-.05-1.25.15-.65.7-1.05.55-.45 1.2-.45h17.35v2h-17.35l2.75 6.75h8.35v15.65l-9.85 8.75v14.1l10.5 25.1h19l10.5-25.1v-14.1l-9.85-8.75v-15.65h8.35l2.75-6.75h-17.35v-2h2.4" fill="#a1a1a1"/><path d="m44.4 11.6h17.35l-2.75 6.75h-8.35v15.65l9.85 8.75v14.1l-10.5 25.1h-19l-10.5-25.1v-14.1l9.85-8.75v-15.65h-8.35l-2.75-6.75h17.35v36.25l-4.75 8.1h-2.4v3.6l11.05 4.2 11.05-4.2v-3.6h-2.4l-4.75-8.1v-36.25" fill="#dbdbdb"/><path d="m60.95 38.85v-6.65q0-1.3 1.3-1.3h6.65q1.25 0 1.25 1.3v6.65q0 1.3-1.25 1.3h-6.65q-1.3 0-1.3-1.3m7.95-19.55q1.25 0 1.25 1.3v6.65q0 1.25-1.25 1.25h-6.65q-1.3 0-1.3-1.25v-6.65q0-1.3 1.3-1.3h6.65m-58.05 12.9q0-1.3 1.25-1.3h6.65q1.3 0 1.3 1.3v6.65q0 1.3-1.3 1.3h-6.65q-1.25 0-1.25-1.3v-6.65m1.25-12.9h6.65q1.3 0 1.3 1.3v6.65q0 1.25-1.3 1.25h-6.65q-1.25 0-1.25-1.25v-6.65q0-1.3 1.25-1.3" fill="#337287"/><path d="m31.85 55.95h19.7v1.8l-11.05 4.2-11.05-4.2v-1.8h2.4" fill="#4a3c55"/><path d="m51.55 57.75v1.8l-11.05 4.2-11.05-4.2v-1.8l11.05 4.2 11.05-4.2" fill="#544763"/></svg>
