<?xml version="1.0" encoding="UTF-8" standalone="no"?>
<svg height="82.8" version="1.1" xmlns="http://www.w3.org/2000/svg" width="92.8"><path fill="#eee" d="m35.8 18q-.35.2-.65.4l-5.3 4.3-2.95-12.2-9.85-7.3.85-1.2 16.1 7.2 1.8 8.8m-7.6 26.6 2.1 4.2-4 2.4 7.15 26-2.6.9-8.1-29.2 5.45-4.3m34.35 4.2 2.1-4.2 5.4 4.3-8.1 29.2-2.6-.9 7.15-26-3.95-2.4m.45-26.1-5.35-4.3q-.3-.2-.65-.4l1.8-8.8 16.1-7.2.85 1.2-9.85 7.3-2.9 12.2m-26.6-2.7h20v24.8q-.05-1.4-1.05-2.4-1.05-1.2-2.6-1.2h-12.65q-1.55 0-2.6 1.2-1.05 1-1.1 2.4v-24.8"/><path fill="#a1a1a1" d="m36.4 20-7.9 6.3v14.3l7.35 14.8h21.15l7.3-14.8v-14.3l-7.9-6.3v-2h.6q.35.2.65.4l5.35 4.3 2.55 2.1.55.6.2.9v14.3l-.2 1-1.45 3-2.1 4.2-.9 1.8-2.85 5.7-.75.8-1.05.3h-21.15q-.55 0-1.05-.3l-.75-.8-2.85-5.7-.9-1.8-2.1-4.2-1.5-3-.2-1v-14.3l.2-.9.55-.6 2.6-2.1 5.3-4.3q.3-.2.65-.4h.6v2"/><path fill="#c4c4c4" d="m36.4 20v-2h-.6l-1.8-8.8-16.1-7.2-.85 1.2-.15.2-1.6-1.2.95-1.4q.4-.6 1.1-.8l1.35.2 16.1 7.2q.45.2.75.6l.4.8 1.85 9.2h17.2l1.85-9.2.4-.8q.3-.4.75-.6l16.1-7.2 1.35-.2q.7.2 1.1.8l.95 1.4-1.6 1.2-.15-.2-.85-1.2-16.1 7.2-1.8 8.8h-.6v2h-20m-6.1 28.8.9 1.8-2.6 1.6 6.75 24.5q.25.7-.15 1.5-.35.6-1.1.9l-2.7.9-.55-1.9 2.6-.9-7.15-26 4-2.4m31.35 1.8.9-1.8 3.95 2.4-7.15 26 2.6.9l-.55 1.9-2.7-.9q-.75-.3-1.1-.9-.4-.8-.15-1.5l6.75-24.5-2.55-1.6"/><path fill="#485d36" d="m15.3 2.2 1.6 1.2-14.9 22.2l.75 2 8.7 23.2 11.3 30.2 8.1-2.9.55 1.9-8 2.8h-1.5q-.75-.4-1.05-1.2l-20.75-55.4-.1-.8q.1-.6.35-1l14.95-22.2m60.6 1.2 1.6-1.2 14.95 22.2.35 1-.1.8-20.75 55.4q-.3.8-1.05 1.2h-1.5l-8-2.8.55-1.9 8.1 2.9 11.3-30.2 8.7-23.2.75-2-14.9-22.2"/><path fill="#7c9865" d="m75.9 3.4 14.9 22.2-.75 2-18.55-6.4-4.5 18 14.35 11.6-11.3 30.2-8.1-2.9 8.1-29.2-5.4-4.3 1.45-3 .2-1v-14.3l-.2-.9-.55-.6-2.55-2.1 2.9-12.2 9.85-7.3.15.2m-58.85-.2 9.85 7.3 2.95 12.2-2.6 2.1-.55.6-.2.9v14.3l.2 1 1.5 3-5.45 4.3 8.1 29.2-8.1 2.9-11.3-30.2 14.35-11.6-4.5-18-18.55 6.4-.75-2 14.9-22.2.15-.2"/><path fill="#dbdbdb" d="m56.4 20 7.9 6.3v14.3l-7.3 14.8h-21.15l-7.35-14.8v-14.3l7.9-6.3v25q.05 1.2.65 2l.45.6q1.05 1 2.6 1h12.65q1.55 0 2.6-1l.45-.6q.55-.8.6-2v-25"/><path fill="#65804f" d="m2.75 27.6 18.55-6.4 4.5 18-14.35 11.6-8.7-23.2m87.3 0-8.7 23.2l-14.35-11.6 4.5-18 18.55 6.4"/><path fill="#4a3c55" d="m56.4 44.8v.2q-.05 1.2-.6 2l-.45.6q-1.05 1-2.6 1h-12.65q-1.55 0-2.6-1l-.45-.6q-.6-.8-.65-2v-.2q.05-1.4 1.1-2.4 1.05-1.2 2.6-1.2h12.65q1.55 0 2.6 1.2 1 1 1.05 2.4"/></svg>
