<?xml version="1.0" encoding="UTF-8" standalone="no"?>
<svg height="84" width="81" xmlns="http://www.w3.org/2000/svg" version="1.1"><path fill="#c4c4c4" d="m53.95 0h4.2q.55 0 1 .4l20.85 11.9.75.7.25 1v46.8l-.25 1-.75.7-25.95 15.1 1.3-3 23.65-13.8v-46.8l-20.85-12h-1.7l-2.5-2m-26.95 77.6-26-15.1-.75-.7-.25-1v-46.8q0-.6.25-1l.75-.7 20.85-11.9q.45-.4 1-.4h4.2l-2.5 2h-1.7l-20.85 12v46.8l23.7 13.8 1.3 3m9.6-68h7.8v2h-7.8v-2"/><path fill="#63596d" d="m56.8 71 5.55-13.3.15-.8v-14.1l-.15-.8-.5-.7-9.2-8.1v-12.8h6.35l1.1-.4.75-.8 2.75-6.8q.25-.6.1-1.2-.2-.7-.75-1.1-.55-.5-1.15-.5h-13v-7.6h7.45l5.45 4.2 1.75 1.4 11.7 9.3v41.4l-18.35 12.7m4.15-50.4v6.7q0 1.3 1.3 1.3h6.65q1.25 0 1.25-1.3v-6.7q0-1.2-1.25-1.2h-6.65q-1.3 0-1.3 1.2m7.95 10.4h-6.65q-1.3 0-1.3 1.2v6.7q0 1.3 1.3 1.3h6.65q1.25 0 1.25-1.3v-6.7q0-1.2-1.25-1.2m-44.15-29h7.45v7.6h-12.95q-.65 0-1.2.5-.55.4-.7 1.1-.2.6.05 1.2l2.75 6.8q.25.5.75.8.5.4 1.1.4h6.35v12.8l-9.15 8.1q-.35.3-.5.7l-.2.8v14.1l.15.8 5.55 13.3-18.35-12.7v-41.4l11.7-9.3 1.75-1.4 5.45-4.2m-12.65 29q-1.25 0-1.25 1.2v6.7q0 1.3 1.25 1.3h6.65q1.3 0 1.3-1.3v-6.7q0-1.2-1.3-1.2h-6.65m7.95-10.4q0-1.2-1.3-1.2h-6.65q-1.25 0-1.25 1.2v6.7q0 1.3 1.25 1.3h6.65q1.3 0 1.3-1.3v-6.7"/><path fill="#a1a1a1" d="m54.05 77.6-2.2 5.2-.75.9-1.1.3h-19q-.6 0-1.1-.3l-.75-.9-2.15-5.2-1.3-3-1.5-3.6-5.55-13.3-.15-.8v-14.1l.2-.8q.15-.4.5-.7l9.15-8.1v-12.8h-6.35q-.6 0-1.1-.4-.5-.3-.75-.8l-2.75-6.8q-.25-.6-.05-1.2.15-.7.7-1.1.55-.5 1.2-.5h17.35v2h-17.35l2.75 6.8h8.35v15.6l-9.85 8.8v14.1l10.5 25.1h19l10.5-25.1v-14.1l-9.85-8.8v-15.6h8.35l2.75-6.8h-17.35v-2h17.4q.6 0 1.15.5.55.4.75 1.1.15.6-.1 1.2l-2.75 6.8-.75.8-1.1.4h-6.35v12.8l9.2 8.1.5.7.15.8v14.1l-.15.8-5.55 13.3-1.45 3.6-1.3 3"/><path fill="#4f4758" d="m27.05 0h5.15q.85 0 1.4.6.6.6.6 1.4v7.6h-2v-7.6h-7.65l2.5-2m19.75 9.6v-7.6q0-.8.6-1.4.55-.6 1.4-.6h5.15l2.5 2h-7.65v7.6h-2"/><path fill="#eee" d="m56.45 2h1.7l20.85 12v46.8l-23.65 13.8 1.45-3.6 18.35-12.7v-41.4l-11.7-9.3-1.75-1.4-5.45-4.2h.2m-12.05 9.6v36.3l4.75 8.1h-17.3l4.75-8.1v-36.3h7.8m-19.65-9.6-5.45 4.2-1.75 1.4-11.7 9.3v41.4l18.35 12.7 1.5 3.6-23.7-13.8v-46.8l20.85-12h1.9"/><path fill="#5a5164" d="m60.95 20.6q0-1.2 1.3-1.2h6.65q1.25 0 1.25 1.2v6.7q0 1.3-1.25 1.3h-6.65q-1.3 0-1.3-1.3v-6.7m7.95 10.4q1.25 0 1.25 1.2v6.7q0 1.3-1.25 1.3h-6.65q-1.3 0-1.3-1.3v-6.7q0-1.2 1.3-1.2h6.65m-48.85-10.4v6.7q0 1.3-1.3 1.3h-6.65q-1.25 0-1.25-1.3v-6.7q0-1.2 1.25-1.2h6.65q1.3 0 1.3 1.2m-7.95 10.4h6.65q1.3 0 1.3 1.2v6.7q0 1.3-1.3 1.3h-6.65q-1.25 0-1.25-1.3v-6.7q0-1.2 1.25-1.2"/><path fill="#dbdbdb" d="m44.4 11.6h17.35l-2.75 6.8h-8.35v15.6l9.85 8.8v14.1l-10.5 25.1h-19l-10.5-25.1v-14.1l9.85-8.8v-15.6h-8.35l-2.75-6.8h17.35v36.3l-4.75 8.1h-2.4v3.6l11.05 4.2 11.05-4.2v-3.6h-2.4l-4.75-8.1v-36.3"/><path fill="#4a3c55" d="m49.15 56h2.4v1.8l-11.05 4.2-11.05-4.2v-1.8h19.7"/><path fill="#544763" d="m51.55 57.8v1.8l-11.05 4.2-11.05-4.2v-1.8l11.05 4.2 11.05-4.2"/></svg>
