<?xml version="1.0" encoding="UTF-8" standalone="no"?>
<svg xmlns="http://www.w3.org/2000/svg" width="96.764" height="83.95" version="1.1"><path d="m25.364 73.95h-3.3q-.65 0-1.2-.4t-.75-1l-20.05-70q-.15-.6.05-1.2.25-.6.75-.95.5003-.4 1.1503-.4h14.55q.6 0 1.1.35l17.35 11.45.55.55.3.75.55 3.1-.3.1-1.9-.9-.3-1.95-17.35-11.45h-14.55l20.05 69.95h2.85l.45 2m18.1-59.6 4.45-1.15q.5-.15 1 0l4.45 1.15v2.05l-4.95-1.3-4.95 1.3v-2.05m16.95 1.85.55-3.1.3-.75q.2-.35.55-.55l17.35-11.45q.5-.35 1.1-.35h14.55q.65 0 1.15.4l.75.95.05 1.2-20.05 70-.75 1q-.55.4-1.2.4h-3.3l.45-2h2.85l20.05-69.95h-14.55l-17.35 11.45-.3 1.95-1.85.9-.35-.1" fill="#c4c4c4"/><path d="m60.414 16.2.35.1 1.85-.9-.05.25-.15 1.05 4.95 1.3.5.2.6.5q.4.5.4 1.2v21.4q0 .75-.5 1.35l-.35.4-7.65 8.35v7.85l.35 2.4 2.55 4.1 2.3 3.7.3 1.1v1.4h6.05l-.45 2h-5.6v3.2q0 .8-.6 1.4l-5 4.9q-.6.5-1.4.5h-20.9q-.8 0-1.4-.5l-5-4.9q-.6-.6-.6-1.4v-3.2h-5.6l-.45-2h6.05v-1.4q0-.6.3-1.1l2.35-3.7 2.55-4.1.3-2.3v-7.95l-7.65-8.45-.25-.3q-.55-.6-.55-1.35v-21.4q0-.7.45-1.2l.55-.5.5-.2 4.95-1.3-.2-1.05-.05-.25 1.9.9.3-.1 7.05-1.85v2.05l-13.45 3.5v21.4l8.45 9.3v11.15l-5.5 8.8v6.6l5 4.8h20.9l5-4.8v-6.6l-5.5-8.8v-11.15l8.5-9.3v-21.4l-13.5-3.5v-2.05l7.05 1.85" fill="#a1a1a1"/><path d="m53.364 16.4 13.5 3.5v21.4l-8.5 9.3v11.15l5.5 8.8v6.6l-5 4.8h-20.9l-5-4.8v-6.6l5.5-8.8v-11.15l-8.45-9.3v-21.4l13.45-3.5v45.35q0 1.4-.75 2.6l-3.8 6-.95 1.6 10.45 5q5.25-2.4 10.45-5l-.95-1.6-3.75-6q-.8-1.2-.8-2.6v-45.35" fill="#dbdbdb"/><path d="m24.914 71.95h-.15l-2.9-13.1-8.85-39.45 7.25-10.55 14 6.8.2 1.05-4.95 1.3-.5.2-.55.5q-.45.5-.45 1.2v21.4q0 .75.55 1.35l.25.3 2.05 21.6 2.75 1.2-2.35 3.7q-.3.5-.3 1.1v1.4h-6.05m43.1-28.9.35-.4q.5-.6.5-1.35v-21.4q0-.7-.4-1.2l-.6-.5-.5-.2-4.95-1.3.15-1.05 14-6.8 7.25 10.55-8.85 39.45-2.9 13.1h-6.2v-1.4l-.3-1.1-2.3-3.7 2.7-1.2 2.05-21.5" fill="#3e88a1"/><path d="m24.764 71.95h-2.7l-20.05-69.95h14.55l17.35 11.45.3 1.95.05.25-14-6.8-7.25 10.55 8.85 39.45 2.9 13.1m37.8-56.3.05-.25.3-1.95 17.35-11.45h14.55l-20.05 69.95h-2.7l2.9-13.1 8.85-39.45-7.25-10.55-14 6.8m-19.1.75 4.95-1.3 4.95 1.3v43.85h-9.9v-43.85" fill="#eee"/><path d="m68.014 43.05-2.05 21.5-2.7 1.2-2.55-4.1-.35-2.4v-7.85l7.65-8.35m-39.2-.1 7.65 8.45v7.95l-.3 2.3-2.55 4.1-2.75-1.2-2.05-21.6" fill="#337287"/><path d="m43.464 60.25h9.9v1.5q0 1.4.8 2.6l3.75 6-9.5 4.6-9.5-4.6 3.8-6q.75-1.2.75-2.6v-1.5" fill="#4a3c55"/><path d="m57.914 70.35.95 1.6q-5.2 2.6-10.45 5l-10.45-5 .95-1.6 9.5 4.6 9.5-4.6" fill="#544763"/></svg>
