<?xml version="1.0" encoding="UTF-8" standalone="no"?>
<svg xmlns="http://www.w3.org/2000/svg" height="84" width="81" version="1.1"><path d="m53.95 0h4.2q.55 0 1 .3l20.85 11.95.75.7.25 1v46.75l-.25 1-.75.75-25.95 15.15 1.3-3.05 23.65-13.85v-46.75l-20.85-11.95h-1.7l-2.5-2m-26.95 77.6-26-15.15-.75-.75-.25-1v-46.75q0-.55.25-1l.75-.7 20.85-11.95q.45-.3 1-.3h4.2l-2.5 2h-1.7l-20.85 11.95v46.75l23.7 13.85 1.3 3.05m9.6-68h7.8v2h-7.8v-2" fill="#c4c4c4"/><path d="m27.05 0h5.15q.85 0 1.4.6.6.55.6 1.4v7.6h-2v-7.6h-7.65l2.5-2m19.75 9.6v-7.6q0-.85.6-1.4.55-.6 1.4-.6h5.15l2.5 2h-7.65v7.6h-2" fill="#704423"/><path d="m46.8 9.6h15q.6 0 1.15.45.55.4.75 1.05.15.6-.1 1.25l-2.75 6.75-.75.9-1.1.35h-6.35v12.75l9.2 8.15.5.7.15.8v14.1l-.15.8-5.55 13.35-1.45 3.55-1.3 3.05-2.2 5.2-.75.85-1.1.35h-19q-.6 0-1.1-.35l-.75-.85-2.15-5.2-1.3-3.05-1.5-3.55-5.55-13.35-.15-.8v-14.1l.2-.8q.15-.4.5-.7l9.15-8.15v-12.75h-6.35q-.6 0-1.1-.35t-.75-.9l-2.75-6.75q-.25-.65-.05-1.25.15-.65.7-1.05.55-.45 1.2-.45h17.35v2h-17.35l2.75 6.75h8.35v15.65l-9.85 8.75v14.1l10.5 25.15h19l10.5-25.15v-14.1l-9.85-8.75v-15.65h8.35l2.75-6.75h-17.35v-2h2.4" fill="#a1a1a1"/><path d="m48.8 9.6v-7.6h7.45l5.45 4.2 1.75 1.4 11.7 9.25v41.4l-18.35 12.75 5.55-13.35.15-.8v-14.1l-.15-.8-.5-.7-9.2-8.15v-12.75h6.35l1.1-.35.75-.9 2.75-6.75q.25-.65.1-1.25-.2-.65-.75-1.05-.55-.45-1.15-.45h-13m20.1 9.7h-6.65q-1.3 0-1.3 1.3v6.65q0 1.25 1.3 1.25h6.65q1.25 0 1.25-1.25v-6.65q0-1.3-1.25-1.3m-7.95 12.9v6.65q0 1.3 1.3 1.3h6.65q1.25 0 1.25-1.3v-6.65q0-1.3-1.25-1.3h-6.65q-1.3 0-1.3 1.3m-28.75-22.6h-12.95q-.65 0-1.2.45-.55.4-.7 1.05-.2.6.05 1.25l2.75 6.75q.25.55.75.9t1.1.35h6.35v12.75l-9.15 8.15q-.35.3-.5.7l-.2.8v14.1l.15.8 5.55 13.35-18.35-12.75v-41.4l11.7-9.25 1.75-1.4 5.45-4.2h7.45v7.6m-12.15 22.6q0-1.3-1.3-1.3h-6.65q-1.25 0-1.25 1.3v6.65q0 1.3 1.25 1.3h6.65q1.3 0 1.3-1.3v-6.65m0-11.6q0-1.3-1.3-1.3h-6.65q-1.25 0-1.25 1.3v6.65q0 1.25 1.25 1.25h6.65q1.3 0 1.3-1.25v-6.65" fill="#bb6c2e"/><path d="m56.45 2h1.7l20.85 11.95v46.75l-23.65 13.85 1.45-3.55 18.35-12.75v-41.4l-11.7-9.25-1.75-1.4-5.45-4.2h.2m-19.85 9.6h7.8v36.25l4.75 8.15h-17.3l4.75-8.15v-36.25m-11.85-9.6-5.45 4.2-1.75 1.4-11.7 9.25v41.4l18.35 12.75 1.5 3.55-23.7-13.85v-46.75l20.85-11.95h1.9" fill="#eee"/><path d="m44.4 11.6h17.35l-2.75 6.75h-8.35v15.65l9.85 8.75v14.1l-10.5 25.15h-19l-10.5-25.15v-14.1l9.85-8.75v-15.65h-8.35l-2.75-6.75h17.35v36.25l-4.75 8.15h-2.4v3.5l11.05 4.25 11.05-4.25v-3.5h-2.4l-4.75-8.15v-36.25" fill="#dbdbdb"/><path d="m60.95 32.2q0-1.3 1.3-1.3h6.65q1.25 0 1.25 1.3v6.65q0 1.3-1.25 1.3h-6.65q-1.3 0-1.3-1.3v-6.65m7.95-12.9q1.25 0 1.25 1.3v6.65q0 1.25-1.25 1.25h-6.65q-1.3 0-1.3-1.25v-6.65q0-1.3 1.3-1.3h6.65m-48.85 1.3v6.65q0 1.25-1.3 1.25h-6.65q-1.25 0-1.25-1.25v-6.65q0-1.3 1.25-1.3h6.65q1.3 0 1.3 1.3m0 11.6v6.65q0 1.3-1.3 1.3h-6.65q-1.25 0-1.25-1.3v-6.65q0-1.3 1.25-1.3h6.65q1.3 0 1.3 1.3" fill="#a36331"/><path d="m31.85 56h19.7v1.75l-11.05 4.25-11.05-4.25v-1.75h2.4" fill="#4a3c55"/><path d="m51.55 57.75v1.75l-11.05 4.25-11.05-4.25v-1.75l11.05 4.25 11.05-4.25" fill="#544763"/></svg>
