<?xml version="1.0" encoding="UTF-8" standalone="no"?>
<svg height="42" x="0px" preserveAspectRatio="none" width="42" y="0px" xmlns:xlink="http://www.w3.org/1999/xlink" viewBox="0 0 42 42" xmlns="http://www.w3.org/2000/svg" version="1.1"><defs><g id="a"><path d="m869.05 45q-3.45-1.7-7.45-1.95-.6-.05-1.2-.05h-.95q-8.4.2-14.35 6.15-6.1 6.15-6.1 14.85 0 .05 0 .1 0 .35.05.7 0 .1 0 .2.05 1.85.4 3.55.4 1.8 1.1 3.5.15.45.4.95.55 1.15 1.25 2.3.5.75 1.15 1.55.75.95 1.65 1.9.05.05.1.1.6.6 1.2 1.15.2.1.35.25.85.75 1.85 1.4.75.5 1.55.95.9.45 1.85.85 3.7 1.55 8.1 1.55 8.7 0 14.8-6.15 5.75-5.7 6.2-13.6 0-.1 0-.2v-.05q0-.45 0-.9 0-.05 0-.1 0-2.5-.5-4.8-.2-.9-.45-1.8-.1-.15-.15-.35-.35-1-.8-1.9-1.15-2.45-3.05-4.6-.45-.55-.9-1-.15-.2-.35-.4-.25-.25-.5-.45-.7-.7-1.4-1.25-.9-.75-1.85-1.35-1-.65-2-1.1m-.9 1.9q.9.4 1.8 1 .85.55 1.65 1.2.65.5 1.25 1.15.25.15.45.4.2.15.35.35.4.4.8.9 1.7 1.95 2.75 4.15.4.8.7 1.7.05.15.15.3.2.8.4 1.65.45 2.05.45 4.3 0 .05 0 .1 0 .4 0 .8v.1h-3.15q0 .1 0 .15-.4 5.8-4.65 10-4.55 4.6-11.1 4.6-1.95 0-3.75-.4-1.1-.25-2.1-.65-1.45-.6-2.75-1.45-.15-.1-.3-.2-.6-.4-1.1-.85-.2-.15-.35-.3-.4-.35-.8-.75-.9-.9-1.6-1.85-.6-.8-1.05-1.65-.45-.75-.75-1.55-.25-.5-.4-1-.3-.85-.45-1.7-.25-1.15-.3-2.4h-3.15q0-.05 0-.1 0-.1 0-.2-.05-.3-.05-.6 0-.05 0-.1 0-7.85 5.5-13.35 5.35-5.35 12.9-5.55h.85q.55 0 1.1.05 3.6.2 6.7 1.75m.75 14.35q-.15-.2-.4-.25l-4.75-1.8-3.15-3.9q-.15-.2-.4-.25-.25-.1-.45 0-.25.05-.35.25l-3.2 3.9-4.7 1.8q-.25.05-.35.25-.15.15-.15.4t.1.45l2.8 4.2.2 4.95q0 .25.15.45t.4.25q.2.1.4.05l4.9-1.35 4.9 1.35q.25.05.45-.05.2-.05.35-.25t.15-.45l.3-5 2.8-4.15q.1-.2.1-.45t-.1-.4m-6.7-.8q.35.45.85.65l3.3 1.25-1.8 2.65h-9.1l-1.8-2.65 3.3-1.25q.45-.2.8-.6l2.25-2.75 2.2 2.7z" fill="#fc0"/><path d="m861.2 48.3q-.6-.05-1.2-.05-6.55 0-11.15 4.6-4.6 4.65-4.6 11.15 0 .05 0 .1 0 .35.05.65 0 .15 0 .25.05 1.25.3 2.4.15.85.45 1.7.15.5.4 1 .3.8.75 1.55.45.85 1.05 1.65.7.95 1.6 1.85.4.4.8.75.15.15.35.3.5.45 1.1.85.15.1.3.2 1.3.85 2.75 1.45 1 .4 2.1.65 1.8.4 3.75.4 6.55 0 11.1-4.6 4.25-4.2 4.65-10 0-.05 0-.15t0-.25q0-.3 0-.65 0-.05 0-.1 0-.95-.1-1.85-.05-.5-.15-1-.1-.45-.15-.85-.15-.65-.35-1.25-1.05-3.15-3.4-5.65-.25-.3-.5-.55-.2-.2-.4-.4-.15-.15-.25-.25-.75-.65-1.5-1.15-.35-.25-.65-.45-.75-.5-1.5-.85-2.6-1.25-5.6-1.45m7.3 12.7q.25.05.4.25.1.15.1.4t-.1.45l-2.8 4.15-.3 5q0 .25-.15.45t-.35.25q-.2.1-.45.05l-4.9-1.35-4.9 1.35q-.2.05-.4-.05-.25-.05-.4-.25t-.15-.45l-.2-4.95-2.8-4.2q-.1-.2-.1-.45t.15-.4q.1-.2.35-.25l4.7-1.8 3.2-3.9q.1-.2.35-.25.2-.1.45 0 .25.05.4.25l3.15 3.9 4.75 1.8z" fill="#e5b700"/><path d="m863.05 61.1q-.5-.2-.85-.65l-2.2-2.7-2.25 2.75q-.35.4-.8.6l-3.3 1.25 1.8 2.65h9.1l1.8-2.65-3.3-1.25m-3.05-12.85q.6 0 1.2.05 3 .2 5.6 1.45.75.35 1.5.85.3.2.65.45.75.5 1.5 1.15.1.1.25.25.2.2.4.4.25.25.5.55 2.35 2.5 3.4 5.65.2.6.35 1.25.05.4.15.85.1.5.15 1 .1.9.1 1.85 0 .05 0 .1 0 .35 0 .65 0 .15 0 .25h3.15v-.1q0-.4 0-.8 0-.05 0-.1 0-2.25-.45-4.3-.2-.85-.4-1.65-.1-.15-.15-.3-.3-.9-.7-1.7-1.05-2.2-2.75-4.15-.4-.5-.8-.9-.15-.2-.35-.35-.2-.25-.45-.4-.6-.65-1.25-1.15-.8-.65-1.65-1.2-.9-.6-1.8-1-3.1-1.55-6.7-1.75-.55-.05-1.1-.05h-.85q-7.55.2-12.9 5.55-5.5 5.5-5.5 13.35 0 .05 0 .1 0 .3.05.6 0 .1 0 .2 0 .05 0 .1h3.15q0-.1 0-.25-.05-.3-.05-.65 0-.05 0-.1 0-6.5 4.6-11.15 4.6-4.6 11.15-4.6z" fill="#ffda4a"/></g></defs><g transform="translate(-839,-43)"><use width="100%" height="100%" x="0" xlink:href="#a" y="0"/></g></svg>
