<?xml version="1.0" encoding="UTF-8" standalone="no"?>
<svg xmlns:rdf="http://www.w3.org/1999/02/22-rdf-syntax-ns#" xmlns="http://www.w3.org/2000/svg" height="42" viewBox="0 0 42 42" width="42" version="1.1" y="0px" x="0px" xmlns:cc="http://creativecommons.org/ns#" xmlns:xlink="http://www.w3.org/1999/xlink" preserveAspectRatio="none" xmlns:dc="http://purl.org/dc/elements/1.1/">
	<defs>
		<g id="a">
			<path d="m869.05 45q-3.45-1.7-7.45-1.95-0.6-0.05-1.2-0.05h-0.95q-8.4 0.2-14.35 6.15-6.1 6.15-6.1 14.85 0 0.05 0 0.1 0 0.35 0.05 0.7 0 0.1 0 0.2 0.05 1.85 0.4 3.55 0.4 1.8 1.1 3.5 0.15 0.45 0.4 0.95 0.55 1.15 1.25 2.3 0.5 0.75 1.15 1.55 0.75 0.95 1.65 1.9 0.05 0.05 0.1 0.1 0.6 0.6 1.2 1.15 0.2 0.1 0.35 0.25 0.85 0.75 1.85 1.4 0.75 0.5 1.55 0.95 0.9 0.45 1.85 0.85 3.7 1.55 8.1 1.55 8.7 0 14.8-6.15 5.75-5.7 6.2-13.6 0-0.1 0-0.2v-0.05q0-0.45 0-0.9 0-0.05 0-0.1 0-2.5-0.5-4.8-0.2-0.9-0.45-1.8-0.1-0.15-0.15-0.35-0.35-1-0.8-1.9-1.15-2.45-3.05-4.6-0.45-0.55-0.9-1-0.15-0.2-0.35-0.4-0.25-0.25-0.5-0.45-0.7-0.7-1.4-1.25-0.9-0.75-1.85-1.35-1-0.65-2-1.1m-0.9 1.9q0.9 0.4 1.8 1 0.85 0.55 1.65 1.2 0.65 0.5 1.25 1.15 0.25 0.15 0.45 0.4 0.2 0.15 0.35 0.35 0.4 0.4 0.8 0.9 1.7 1.95 2.75 4.15 0.4 0.8 0.7 1.7 0.05 0.15 0.15 0.3 0.2 0.8 0.4 1.65 0.45 2.05 0.45 4.3 0 0.05 0 0.1 0 0.4 0 0.8v0.1h-3.15q0 0.1 0 0.15-0.4 5.8-4.65 10-4.55 4.6-11.1 4.6-1.95 0-3.75-0.4-1.1-0.25-2.1-0.65-1.45-0.6-2.75-1.45-0.15-0.1-0.3-0.2-0.6-0.4-1.1-0.85-0.2-0.15-0.35-0.3-0.4-0.35-0.8-0.75-0.9-0.9-1.6-1.85-0.6-0.8-1.05-1.65-0.45-0.75-0.75-1.55-0.25-0.5-0.4-1-0.3-0.85-0.45-1.7-0.25-1.15-0.3-2.4h-3.15q0-0.05 0-0.1 0-0.1 0-0.2-0.05-0.3-0.05-0.6 0-0.05 0-0.1 0-7.85 5.5-13.35 5.35-5.35 12.9-5.55h0.85q0.55 0 1.1 0.05 3.6 0.2 6.7 1.75m0.75 14.35q-0.15-0.2-0.4-0.25l-4.75-1.8-3.15-3.9q-0.15-0.2-0.4-0.25-0.25-0.1-0.45 0-0.25 0.05-0.35 0.25l-3.2 3.9-4.7 1.8q-0.25 0.05-0.35 0.25-0.15 0.15-0.15 0.4t0.1 0.45l2.8 4.2 0.2 4.95q0 0.25 0.15 0.45t0.4 0.25q0.2 0.1 0.4 0.05l4.9-1.35 4.9 1.35q0.25 0.05 0.45-0.05 0.2-0.05 0.35-0.25t0.15-0.45l0.3-5 2.8-4.15q0.1-0.2 0.1-0.45t-0.1-0.4m-6.7-0.8q0.35 0.45 0.85 0.65l3.3 1.25-1.8 2.65h-9.1l-1.8-2.65 3.3-1.25q0.45-0.2 0.8-0.6l2.25-2.75 2.2 2.7z" fill="#fc0"/>
			<path d="m861.2 48.3q-0.6-0.05-1.2-0.05-6.55 0-11.15 4.6-4.6 4.65-4.6 11.15 0 0.05 0 0.1 0 0.35 0.05 0.65 0 0.15 0 0.25 0.05 1.25 0.3 2.4 0.15 0.85 0.45 1.7 0.15 0.5 0.4 1 0.3 0.8 0.75 1.55 0.45 0.85 1.05 1.65 0.7 0.95 1.6 1.85 0.4 0.4 0.8 0.75 0.15 0.15 0.35 0.3 0.5 0.45 1.1 0.85 0.15 0.1 0.3 0.2 1.3 0.85 2.75 1.45 1 0.4 2.1 0.65 1.8 0.4 3.75 0.4 6.55 0 11.1-4.6 4.25-4.2 4.65-10 0-0.05 0-0.15t0-0.25q0-0.3 0-0.65 0-0.05 0-0.1 0-0.95-0.1-1.85-0.05-0.5-0.15-1-0.1-0.45-0.15-0.85-0.15-0.65-0.35-1.25-1.05-3.15-3.4-5.65-0.25-0.3-0.5-0.55-0.2-0.2-0.4-0.4-0.15-0.15-0.25-0.25-0.75-0.65-1.5-1.15-0.35-0.25-0.65-0.45-0.75-0.5-1.5-0.85-2.6-1.25-5.6-1.45m7.3 12.7q0.25 0.05 0.4 0.25 0.1 0.15 0.1 0.4t-0.1 0.45l-2.8 4.15-0.3 5q0 0.25-0.15 0.45t-0.35 0.25q-0.2 0.1-0.45 0.05l-4.9-1.35-4.9 1.35q-0.2 0.05-0.4-0.05-0.25-0.05-0.4-0.25t-0.15-0.45l-0.2-4.95-2.8-4.2q-0.1-0.2-0.1-0.45t0.15-0.4q0.1-0.2 0.35-0.25l4.7-1.8 3.2-3.9q0.1-0.2 0.35-0.25 0.2-0.1 0.45 0 0.25 0.05 0.4 0.25l3.15 3.9 4.75 1.8z" fill="#e5b700"/>
			<path d="m863.05 61.1q-0.5-0.2-0.85-0.65l-2.2-2.7-2.25 2.75q-0.35 0.4-0.8 0.6l-3.3 1.25 1.8 2.65h9.1l1.8-2.65-3.3-1.25m-3.05-12.85q0.6 0 1.2 0.05 3 0.2 5.6 1.45 0.75 0.35 1.5 0.85 0.3 0.2 0.65 0.45 0.75 0.5 1.5 1.15 0.1 0.1 0.25 0.25 0.2 0.2 0.4 0.4 0.25 0.25 0.5 0.55 2.35 2.5 3.4 5.65 0.2 0.6 0.35 1.25 0.05 0.4 0.15 0.85 0.1 0.5 0.15 1 0.1 0.9 0.1 1.85 0 0.05 0 0.1 0 0.35 0 0.65 0 0.15 0 0.25h3.15v-0.1q0-0.4 0-0.8 0-0.05 0-0.1 0-2.25-0.45-4.3-0.2-0.85-0.4-1.65-0.1-0.15-0.15-0.3-0.3-0.9-0.7-1.7-1.05-2.2-2.75-4.15-0.4-0.5-0.8-0.9-0.15-0.2-0.35-0.35-0.2-0.25-0.45-0.4-0.6-0.65-1.25-1.15-0.8-0.65-1.65-1.2-0.9-0.6-1.8-1-3.1-1.55-6.7-1.75-0.55-0.05-1.1-0.05h-0.85q-7.55 0.2-12.9 5.55-5.5 5.5-5.5 13.35 0 0.05 0 0.1 0 0.3 0.05 0.6 0 0.1 0 0.2 0 0.05 0 0.1h3.15q0-0.1 0-0.25-0.05-0.3-0.05-0.65 0-0.05 0-0.1 0-6.5 4.6-11.15 4.6-4.6 11.15-4.6z" fill="#ffda4a"/>
		</g>
	</defs>
	<g transform="translate(-839,-43)">
		<use y="0" width="100%" height="100%" xlink:href="#a" x="0"/>
	</g>
</svg>
