<?xml version="1.0" encoding="UTF-8" standalone="no"?>
<svg xmlns:rdf="http://www.w3.org/1999/02/22-rdf-syntax-ns#" xmlns="http://www.w3.org/2000/svg" preserveAspectRatio="none" height="45" width="52" version="1.1" y="0px" x="0px" xmlns:cc="http://creativecommons.org/ns#" xmlns:xlink="http://www.w3.org/1999/xlink" viewBox="0 0 52 45" xmlns:dc="http://purl.org/dc/elements/1.1/">
	<defs>
		<g id="a">
			<path fill="#fff" d="m120.25 93.6q-2.95-2.9-7.1-2.9t-7.05 2.9q-2.85 2.85-2.95 6.85v23.25l16.45-15q0.4-0.4 0.75-0.75 1.2-1.8 1.75-2.8 1.05-2.05 1.05-4.5 0-4.1-2.9-7.05z" fill-opacity=".2"/>
			<path d="m103.15 92.4q0.4-0.5 0.85-0.9 3.75-3.8 9.15-3.8t9.2 3.75l0.05 0.05q3.75 3.85 3.75 9.15 0 3.2-1.35 5.9-0.05 0-0.05 0.05-0.6 1.1-1.9 3.05-0.15 0.2-0.35 0.45-0.35 0.35-0.75 0.75-0.1 0-0.1 0.1l-16.45 15q-0.9 0.75-2.05 0.75v3q2.3 0 4.05-1.55l16.45-15q0.05-0.05 0.1-0.1l0.1-0.1q0.4-0.4 0.75-0.75 0.4-0.4 0.7-0.85 0-0.05 0.05-0.05 1.35-2.05 2-3.2 0-0.05 0.05-0.05 0-0.1 0.05-0.15 1.7-3.3 1.7-7.25 0-6.55-4.6-11.25l-0.1-0.1q-4.7-4.6-11.3-4.6-5.75 0-10 3.5v4.2z" fill="#b8b8b8"/>
			<path d="m104 91.5q-0.45 0.4-0.85 0.9v8.05q0.1-4 2.95-6.85 2.9-2.9 7.05-2.9t7.1 2.9q2.9 2.95 2.9 7.05 0 2.45-1.05 4.5-0.55 1-1.75 2.8-0.35 0.35-0.75 0.75l-16.45 15v3q1.15 0 2.05-0.75l16.45-15q0-0.1 0.1-0.1 0.4-0.4 0.75-0.75 0.2-0.25 0.35-0.45 1.3-1.95 1.9-3.05 0-0.05 0.05-0.05 1.35-2.7 1.35-5.9 0-5.3-3.75-9.15l-0.05-0.05q-3.8-3.75-9.2-3.75t-9.15 3.8z" fill="#fff"/>
			<path d="m93.15 84.7q-6.6 0-11.3 4.6l-0.1 0.1q-4.6 4.7-4.6 11.25 0 3.95 1.7 7.25 0.1 0.15 0.2 0.3 0.6 1.2 1.95 3.15l0.05 0.05q0.25 0.4 0.6 0.75 0.05 0 0.05 0.05 0.35 0.35 0.75 0.75l0.1 0.1q0.05 0.05 0.1 0.1l16.45 15h0.05q1.7 1.55 4 1.55v-3q-1.15 0-2-0.75l-16.45-15q-0.05-0.1-0.1-0.1-0.4-0.4-0.75-0.75-0.2-0.25-0.35-0.45-1.45-2-1.95-3.15v0.05q-1.4-2.7-1.4-5.9 0-5.3 3.75-9.15l0.05-0.05q3.8-3.75 9.2-3.75t9.2 3.8q0.4 0.4 0.8 0.9v-4.2q-4.25-3.5-10-3.5z" fill="#b64a21"/>
			<path d="m100.2 93.6q-2.9-2.9-7.05-2.9t-7.1 2.9q-2.9 2.95-2.9 7.05 0 2.45 1.05 4.5 0.5 1 1.75 2.8 0.35 0.35 0.75 0.75l16.45 15v-23.25q-0.1-4-2.95-6.85z" fill="#e85017"/>
			<path d="m93.15 90.7q4.15 0 7.05 2.9 2.85 2.85 2.95 6.85v-8.05q-0.4-0.5-0.8-0.9-3.8-3.8-9.2-3.8t-9.2 3.75l-0.05 0.05q-3.75 3.85-3.75 9.15 0 3.2 1.4 5.9v-0.05q0.5 1.15 1.95 3.15 0.15 0.2 0.35 0.45 0.35 0.35 0.75 0.75 0.05 0 0.1 0.1l16.45 15q0.85 0.75 2 0.75v-3l-16.45-15q-0.4-0.4-0.75-0.75-1.25-1.8-1.75-2.8-1.05-2.05-1.05-4.5 0-4.1 2.9-7.05 2.95-2.9 7.1-2.9z" fill="#fa6a34"/>
		</g>
	</defs>
	<g transform="translate(-77.15,-84.7)">
		<use y="0" width="100%" xlink:href="#a" x="0" height="100%"/>
	</g>
</svg>
