<?xml version="1.0" encoding="UTF-8" standalone="no"?>
<svg height="45" xmlns:xlink="http://www.w3.org/1999/xlink" viewBox="0 0 52 45" y="0px" preserveAspectRatio="none" x="0px" xmlns="http://www.w3.org/2000/svg" width="52" version="1.1"><defs><g id="a"><path d="m12.85 89.3-.1.1q-4.6 4.7-4.6 11.25 0 3.95 1.7 7.25.1.15.2.3.6 1.2 1.95 3.15l.05.05q.25.4.6.75.05 0 .05.05.35.35.75.75l.1.1q.05.05.1.1l16.45 15h.05q1.7 1.55 4 1.55t4.05-1.55l16.45-15q.05-.05.1-.1l.1-.1q.4-.4.75-.75.4-.4.7-.85 0-.05.05-.05 1.35-2.05 2-3.2 0-.05.05-.05 0-.1.05-.15 1.7-3.3 1.7-7.25 0-6.55-4.6-11.25l-.1-.1q-3.8-3.7-8.8-4.4-.75-.15-1.5-.15-.5-.05-1-.05-5.75 0-10 3.5-4.25-3.5-10-3.5-6.6 0-11.3 4.6m2.05 2.2.05-.05q3.8-3.75 9.2-3.75t9.2 3.8q.4.4.8.9.4-.5.85-.9 3.75-3.8 9.15-3.8.5 0 1 .05.75.05 1.5.15 3.8.7 6.7 3.55l.05.05q3.75 3.85 3.75 9.15 0 3.2-1.35 5.9-.05 0-.05.05-.6 1.1-1.9 3.05-.15.2-.35.45-.35.35-.75.75-.1 0-.1.1l-16.45 15q-.9.75-2.05.75t-2-.75l-16.45-15q-.05-.1-.1-.1-.4-.4-.75-.75-.2-.25-.35-.45-1.45-2-1.95-3.15v.05q-1.4-2.7-1.4-5.9 0-5.3 3.75-9.15z" fill="#b64a21"/><path d="m14.95 91.45-.05.05q-3.75 3.85-3.75 9.15 0 3.2 1.4 5.9v-.05q.5 1.15 1.95 3.15.15.2.35.45.35.35.75.75.05 0 .1.1l16.45 15q.85.75 2 .75t2.05-.75l16.45-15q0-.1.1-.1.4-.4.75-.75.2-.25.35-.45 1.3-1.95 1.9-3.05 0-.05.05-.05 1.35-2.7 1.35-5.9 0-5.3-3.75-9.15l-.05-.05q-2.9-2.85-6.7-3.55-.75-.1-1.5-.15-.5-.05-1-.05-5.4 0-9.15 3.8-.45.4-.85.9-.4-.5-.8-.9-3.8-3.8-9.2-3.8t-9.2 3.75m9.2-.75q4.15 0 7.05 2.9t2.95 6.95q.05-4.05 2.95-6.95t7.05-2.9q.5 0 1 .05.75.05 1.5.25 2.6.6 4.6 2.6 2.9 2.95 2.9 7.05 0 2.45-1.05 4.5-.55 1-1.75 2.8-.35.35-.75.75l-16.45 15-16.45-15q-.4-.4-.75-.75-1.25-1.8-1.75-2.8-1.05-2.05-1.05-4.5 0-4.1 2.9-7.05 2.95-2.9 7.1-2.9z" fill="#fa6a34"/><path d="m31.2 93.6q-2.9-2.9-7.05-2.9t-7.1 2.9q-2.9 2.95-2.9 7.05 0 2.45 1.05 4.5.5 1 1.75 2.8.35.35.75.75l16.45 15 16.45-15q.4-.4.75-.75 1.2-1.8 1.75-2.8 1.05-2.05 1.05-4.5 0-4.1-2.9-7.05-2-2-4.6-2.6-.75-.2-1.5-.25-.5-.05-1-.05-4.15 0-7.05 2.9t-2.95 6.95q-.05-4.05-2.95-6.95z" fill="#e85017"/></g></defs><g transform="translate(-8.15,-84.7)"><use height="100%" x="0" xlink:href="#a" y="0" width="100%"/></g></svg>
