<?xml version="1.0" encoding="UTF-8" standalone="no"?>
<svg xmlns:rdf="http://www.w3.org/1999/02/22-rdf-syntax-ns#" xmlns="http://www.w3.org/2000/svg" height="45" viewBox="0 0 52 45" width="52" version="1.1" y="0px" x="0px" xmlns:cc="http://creativecommons.org/ns#" xmlns:xlink="http://www.w3.org/1999/xlink" preserveAspectRatio="none" xmlns:dc="http://purl.org/dc/elements/1.1/">
	<defs>
		<g id="a">
			<path fill="#b64a21" d="m12.85 89.3-0.1 0.1q-4.6 4.7-4.6 11.25 0 3.95 1.7 7.25 0.1 0.15 0.2 0.3 0.6 1.2 1.95 3.15l0.05 0.05q0.25 0.4 0.6 0.75 0.05 0 0.05 0.05 0.35 0.35 0.75 0.75l0.1 0.1q0.05 0.05 0.1 0.1l16.45 15h0.05q1.7 1.55 4 1.55t4.05-1.55l16.45-15q0.05-0.05 0.1-0.1l0.1-0.1q0.4-0.4 0.75-0.75 0.4-0.4 0.7-0.85 0-0.05 0.05-0.05 1.35-2.05 2-3.2 0-0.05 0.05-0.05 0-0.1 0.05-0.15 1.7-3.3 1.7-7.25 0-6.55-4.6-11.25l-0.1-0.1q-3.8-3.7-8.8-4.4-0.75-0.15-1.5-0.15-0.5-0.05-1-0.05-5.75 0-10 3.5-4.25-3.5-10-3.5-6.6 0-11.3 4.6m2.05 2.2 0.05-0.05q3.8-3.75 9.2-3.75t9.2 3.8q0.4 0.4 0.8 0.9 0.4-0.5 0.85-0.9 3.75-3.8 9.15-3.8 0.5 0 1 0.05 0.75 0.05 1.5 0.15 3.8 0.7 6.7 3.55l0.05 0.05q3.75 3.85 3.75 9.15 0 3.2-1.35 5.9-0.05 0-0.05 0.05-0.6 1.1-1.9 3.05-0.15 0.2-0.35 0.45-0.35 0.35-0.75 0.75-0.1 0-0.1 0.1l-16.45 15q-0.9 0.75-2.05 0.75t-2-0.75l-16.45-15q-0.05-0.1-0.1-0.1-0.4-0.4-0.75-0.75-0.2-0.25-0.35-0.45-1.45-2-1.95-3.15v0.05q-1.4-2.7-1.4-5.9 0-5.3 3.75-9.15z"/>
			<path fill="#fa6a34" d="m14.95 91.45-0.05 0.05q-3.75 3.85-3.75 9.15 0 3.2 1.4 5.9v-0.05q0.5 1.15 1.95 3.15 0.15 0.2 0.35 0.45 0.35 0.35 0.75 0.75 0.05 0 0.1 0.1l16.45 15q0.85 0.75 2 0.75t2.05-0.75l16.45-15q0-0.1 0.1-0.1 0.4-0.4 0.75-0.75 0.2-0.25 0.35-0.45 1.3-1.95 1.9-3.05 0-0.05 0.05-0.05 1.35-2.7 1.35-5.9 0-5.3-3.75-9.15l-0.05-0.05q-2.9-2.85-6.7-3.55-0.75-0.1-1.5-0.15-0.5-0.05-1-0.05-5.4 0-9.15 3.8-0.45 0.4-0.85 0.9-0.4-0.5-0.8-0.9-3.8-3.8-9.2-3.8t-9.2 3.75m9.2-0.75q4.15 0 7.05 2.9t2.95 6.95q0.05-4.05 2.95-6.95t7.05-2.9q0.5 0 1 0.05 0.75 0.05 1.5 0.25 2.6 0.6 4.6 2.6 2.9 2.95 2.9 7.05 0 2.45-1.05 4.5-0.55 1-1.75 2.8-0.35 0.35-0.75 0.75l-16.45 15-16.45-15q-0.4-0.4-0.75-0.75-1.25-1.8-1.75-2.8-1.05-2.05-1.05-4.5 0-4.1 2.9-7.05 2.95-2.9 7.1-2.9z"/>
			<path fill="#e85017" d="m31.2 93.6q-2.9-2.9-7.05-2.9t-7.1 2.9q-2.9 2.95-2.9 7.05 0 2.45 1.05 4.5 0.5 1 1.75 2.8 0.35 0.35 0.75 0.75l16.45 15 16.45-15q0.4-0.4 0.75-0.75 1.2-1.8 1.75-2.8 1.05-2.05 1.05-4.5 0-4.1-2.9-7.05-2-2-4.6-2.6-0.75-0.2-1.5-0.25-0.5-0.05-1-0.05-4.15 0-7.05 2.9t-2.95 6.95q-0.05-4.05-2.95-6.95z"/>
		</g>
	</defs>
	<g transform="translate(-8.15,-84.7)">
		<use xlink:href="#a" height="100%" width="100%" y="0" x="0"/>
	</g>
</svg>
