<?xml version="1.0" encoding="UTF-8" standalone="no"?>
<svg version="1.1" xmlns="http://www.w3.org/2000/svg" height="54" width="61"><path d="m19.1 0c-5.067 0-9.4159 1.6996-13.049 5.0996l-.4514.4512c-3.7333 3.7-5.5996 8.1652-5.5996 13.398l.099609 1.401-.048828-.151c.26667 4.534 2.0166 8.485 5.25 11.852l.0996.099 0.5.450 19.299 19.201c1.467 1.466 3.234 2.199 5.301 2.199 2.1 0 3.9-.733 5.4-2.199l19.6-19.451 0.4-.350c3.1-3.367 4.8-7.301 5.1-11.801v-.250-1c0-5.233-1.833-9.6982-5.5-13.398l-.051-.051c-3.733-3.6667-8.233-5.5-13.5-5.5-4.366 0-8.165 1.25-11.398 3.75-3.334-2.5-7.151-3.75-11.451-3.75zm22.849 4c4.167 0 7.735 1.4496 10.701 4.3496 2.9 2.9334 4.35 6.4664 4.35 10.599v1c-.233 3.567-1.584 6.668-4.051 9.301l-.099.051-0.2.199-19.599 19.449c-.699.699-1.549 1.05-2.547 1.051l.041-40.799.805-.8514c2.9-2.9 6.433-4.3496 10.599-4.3496z" fill="#cd4339"/></svg>
