<?xml version="1.0" encoding="UTF-8" standalone="no"?>
<svg xmlns="http://www.w3.org/2000/svg" version="1.1" height="45" preserveAspectRatio="none" y="0px" width="52" viewBox="0 0 52 45" xmlns:xlink="http://www.w3.org/1999/xlink" x="0px"><defs><g id="a"><path fill-opacity=".2" fill="#fff" d="m120.25 93.6q-2.95-2.9-7.1-2.9t-7.05 2.9q-2.85 2.85-2.95 6.85v23.25l16.45-15q.4-.4.75-.75 1.2-1.8 1.75-2.8 1.05-2.05 1.05-4.5 0-4.1-2.9-7.05z"/><path fill="#b8b8b8" d="m103.15 92.4q.4-.5.85-.9 3.75-3.8 9.15-3.8t9.2 3.75l.05.05q3.75 3.85 3.75 9.15 0 3.2-1.35 5.9-.05 0-.05.05-.6 1.1-1.9 3.05-.15.2-.35.45-.35.35-.75.75-.1 0-.1.1l-16.45 15q-.9.75-2.05.75v3q2.3 0 4.05-1.55l16.45-15q.05-.05.1-.1l.1-.1q.4-.4.75-.75.4-.4.7-.85 0-.05.05-.05 1.35-2.05 2-3.2 0-.05.05-.05 0-.1.05-.15 1.7-3.3 1.7-7.25 0-6.55-4.6-11.25l-.1-.1q-4.7-4.6-11.3-4.6-5.75 0-10 3.5v4.2z"/><path fill="#fff" d="m104 91.5q-.45.4-.85.9v8.05q.1-4 2.95-6.85 2.9-2.9 7.05-2.9t7.1 2.9q2.9 2.95 2.9 7.05 0 2.45-1.05 4.5-.55 1-1.75 2.8-.35.35-.75.75l-16.45 15v3q1.15 0 2.05-.75l16.45-15q0-.1.1-.1.4-.4.75-.75.2-.25.35-.45 1.3-1.95 1.9-3.05 0-.05.05-.05 1.35-2.7 1.35-5.9 0-5.3-3.75-9.15l-.05-.05q-3.8-3.75-9.2-3.75t-9.15 3.8z"/><path fill="#b64a21" d="m93.15 84.7q-6.6 0-11.3 4.6l-.1.1q-4.6 4.7-4.6 11.25 0 3.95 1.7 7.25.1.15.2.3.6 1.2 1.95 3.15l.05.05q.25.4.6.75.05 0 .05.05.35.35.75.75l.1.1q.05.05.1.1l16.45 15h.05q1.7 1.55 4 1.55v-3q-1.15 0-2-.75l-16.45-15q-.05-.1-.1-.1-.4-.4-.75-.75-.2-.25-.35-.45-1.45-2-1.95-3.15v.05q-1.4-2.7-1.4-5.9 0-5.3 3.75-9.15l.05-.05q3.8-3.75 9.2-3.75t9.2 3.8q.4.4.8.9v-4.2q-4.25-3.5-10-3.5z"/><path fill="#e85017" d="m100.2 93.6q-2.9-2.9-7.05-2.9t-7.1 2.9q-2.9 2.95-2.9 7.05 0 2.45 1.05 4.5.5 1 1.75 2.8.35.35.75.75l16.45 15v-23.25q-.1-4-2.95-6.85z"/><path fill="#fa6a34" d="m93.15 90.7q4.15 0 7.05 2.9 2.85 2.85 2.95 6.85v-8.05q-.4-.5-.8-.9-3.8-3.8-9.2-3.8t-9.2 3.75l-.05.05q-3.75 3.85-3.75 9.15 0 3.2 1.4 5.9v-.05q.5 1.15 1.95 3.15.15.2.35.45.35.35.75.75.05 0 .1.1l16.45 15q.85.75 2 .75v-3l-16.45-15q-.4-.4-.75-.75-1.25-1.8-1.75-2.8-1.05-2.05-1.05-4.5 0-4.1 2.9-7.05 2.95-2.9 7.1-2.9z"/></g></defs><g transform="translate(-77.15,-84.7)"><use y="0" width="100%" xlink:href="#a" height="100%" x="0"/></g></svg>
