<?xml version="1.0" encoding="UTF-8" standalone="no"?>
<svg height="54" xmlns="http://www.w3.org/2000/svg" version="1.1" width="61"><path fill="#cd4339" d="m30.55 3.75c3.233-2.5 7.033-3.75 11.4-3.75 5.2667 0 9.7667 1.8333 13.5 5.5l.05.05c3.6667 3.7 5.5 8.1667 5.5 13.4v1 .25c-.30 4.5-2 8.433-5.1 11.8l-.40.35-19.6 19.45c-1.5 1.467-3.3 2.2-5.4 2.2-2.067 0-3.833-.733-5.3-2.2l-19.3-19.2-.50-.45-.10-.10c-3.2333-3.367-4.9833-7.317-5.25-11.85l.05.15-.10-1.4c0-5.233 1.8667-9.7 5.6-13.4l.45-.45c3.6333-3.4 7.983-5.1 13.05-5.1 4.3 0 8.1167 1.25 11.45 3.75"/></svg>
