<?xml version="1.0" encoding="UTF-8" standalone="no"?>
<svg xmlns:rdf="http://www.w3.org/1999/02/22-rdf-syntax-ns#" xmlns="http://www.w3.org/2000/svg" enable-background="new 0 0 100 100" xml:space="preserve" height="100" width="100" version="1.1" y="0px" x="0px" xmlns:cc="http://creativecommons.org/ns#" xmlns:dc="http://purl.org/dc/elements/1.1/" viewBox="0 0 100 100"><g fill="#010101" transform="matrix(.79034 0 0 .76 15 12)"><polygon points="36.163 36.802 36.163 41.878 39.209 41.878 39.209 60.152 36.163 60.152 36.163 65.229 52.407 65.229 52.407 60.152 49.361 60.152 49.361 41.747 49.361 36.802"/><circle cy="28.549" cx="44.285" r="5.076"/><path d="m88.57 44.285c0-24.419-19.866-44.285-44.285-44.285s-44.285 19.866-44.285 44.285c0 19.692 12.92 36.414 30.727 42.154l13.558 13.561 13.559-13.559c17.806-5.742 30.726-22.463 30.726-42.156zm-44.285 32.859c-18.118 0-32.856-14.743-32.856-32.858 0-18.117 14.739-32.857 32.856-32.857s32.856 14.74 32.856 32.857c0.001 18.115-14.739 32.858-32.856 32.858z"/></g></svg>
