<?xml version="1.0" encoding="UTF-8" standalone="no"?>
<svg
   xmlns:dc="http://purl.org/dc/elements/1.1/"
   xmlns:cc="http://creativecommons.org/ns#"
   xmlns:rdf="http://www.w3.org/1999/02/22-rdf-syntax-ns#"
   xmlns:svg="http://www.w3.org/2000/svg"
   xmlns="http://www.w3.org/2000/svg"
   xmlns:sodipodi="http://sodipodi.sourceforge.net/DTD/sodipodi-0.dtd"
   xmlns:inkscape="http://www.inkscape.org/namespaces/inkscape"
   version="1.1"
   x="0px"
   y="0px"
   viewBox="0 0 100 100"
   enable-background="new 0 0 100 100"
   xml:space="preserve"
   id="svg2"
   sodipodi:docname="information.svg"
   inkscape:version="0.91 r"
   width="100"
   height="100"><metadata
     id="metadata16"><rdf:RDF><cc:Work
         rdf:about=""><dc:format>image/svg+xml</dc:format><dc:type
           rdf:resource="http://purl.org/dc/dcmitype/StillImage" /></cc:Work></rdf:RDF></metadata><defs
     id="defs14" /><sodipodi:namedview
     pagecolor="#ffffff"
     bordercolor="#666666"
     borderopacity="1"
     objecttolerance="10"
     gridtolerance="10"
     guidetolerance="10"
     inkscape:pageopacity="0"
     inkscape:pageshadow="2"
     inkscape:window-width="1680"
     inkscape:window-height="998"
     id="namedview12"
     showgrid="false"
     inkscape:zoom="2.36"
     inkscape:cx="-23.935339"
     inkscape:cy="50"
     inkscape:window-x="0"
     inkscape:window-y="0"
     inkscape:window-maximized="1"
     inkscape:current-layer="svg2" /><g
     id="g4"
     transform="matrix(0.79033533,0,0,0.76,15,12)"><polygon
       points="36.163,36.802 36.163,41.878 39.209,41.878 39.209,60.152 36.163,60.152 36.163,65.229 52.407,65.229 52.407,60.152 49.361,60.152 49.361,41.747 49.361,36.802 "
       id="polygon6"
       style="fill:#010101" /><circle
       cx="44.285"
       cy="28.549"
       r="5.0760002"
       id="circle8"
       style="fill:#010101" /><path
       d="M 88.57,44.285 C 88.57,19.866 68.704,0 44.285,0 19.866,0 0,19.866 0,44.285 0,63.977 12.92,80.699 30.727,86.439 L 44.285,100 57.844,86.441 C 75.65,80.699 88.57,63.978 88.57,44.285 Z M 44.285,77.144 c -18.118,0 -32.856,-14.743 -32.856,-32.858 0,-18.117 14.739,-32.857 32.856,-32.857 18.117,0 32.856,14.74 32.856,32.857 10e-4,18.115 -14.739,32.858 -32.856,32.858 z"
       id="path10"
       inkscape:connector-curvature="0"
       style="fill:#010101" /></g></svg>