<?xml version="1.0" encoding="UTF-8" standalone="no"?>
<svg xmlns:rdf="http://www.w3.org/1999/02/22-rdf-syntax-ns#" xmlns="http://www.w3.org/2000/svg" height="79.35" viewBox="0 0 66.099998 79.349999" width="66.1" version="1.1" y="0px" x="0px" xmlns:cc="http://creativecommons.org/ns#" xmlns:xlink="http://www.w3.org/1999/xlink" preserveAspectRatio="none" xmlns:dc="http://purl.org/dc/elements/1.1/">
	<defs>
		<g id="b">
			<path fill="#8cadaf" d="m812.95 331.3v14.4h5.9v-14.4h-5.9m-10.1-10h-9v9h9v-9m-44.25 0.25h-5.75v9h5.75v-9z"/>
			<path fill="#415556" d="m802.85 362.15h6.55q2.3 0 3.9-1.6 1.1-1.1 1.45-2.55h-16.7q0.35 1.45 1.45 2.55 1.4 1.4 3.35 1.6m-7.35-7.6q1.05 1.05 2.45 1.45h16.9q1.4-0.4 2.45-1.45 1.1-1.1 1.45-2.55h-24.7q0.35 1.45 1.45 2.55m-33.65 7.6h6.55q2.3 0 3.9-1.6 1.1-1.1 1.45-2.55h-16.7q0.35 1.45 1.45 2.55 1.4 1.4 3.35 1.6m-8.8-10.15q0.35 1.45 1.45 2.55 1.05 1.05 2.45 1.45h16.9q1.4-0.4 2.45-1.45 1.1-1.1 1.45-2.55h-24.7z"/>
			<path fill="#364c4d" d="m797.9 356.65q0 0.7 0.15 1.35h16.7q0.15-0.65 0.15-1.35 0-0.35-0.05-0.65h-16.9q-0.05 0.3-0.05 0.65m-4-6q0 0.7 0.15 1.35h24.7q0.15-0.65 0.15-1.35 0-0.35-0.05-0.65h-24.9q-0.05 0.3-0.05 0.65m-40.95-0.65q-0.05 0.3-0.05 0.65 0 0.7 0.15 1.35h24.7q0.15-0.65 0.15-1.35 0-0.35-0.05-0.65h-24.9m4 6q-0.05 0.3-0.05 0.65 0 0.7 0.15 1.35h16.7q0.15-0.65 0.15-1.35 0-0.35-0.05-0.65h-16.9z"/>
			<path fill="#b7ced0" d="m806.75 311.3q0.25 0 0.45 0h11.65v-2h-25v2h12.9m-28.9 0v-2h-25v2h25z"/>
			<path fill="#98b6b8" d="m793.85 311.3v10h9v9h-9v19.7h0.1 24.9v-4.3h-5.9v-14.4h5.9v-20h-11.65q-0.2 0-0.45 0h-12.9m-41 0v10.25h5.75v9h-5.75v19.45h0.1 24.9v-38.7h-25z"/>
			<path fill="#e56230" d="m806.3 284.8q-5.2 0-8.85 7-1.9 3.7-2.8 8.2-0.65 3.05-0.8 6.5-0.0449 0.17969-0.05 0.4v0.5q0 0.25 0 0.45 0 0.05 0 0.1 0 0.15 0.05 0.3v1.05h25v-1.7q0-0.1 0-0.2-0.1-3.95-0.8-7.4-0.95-4.5-2.9-8.2-3.65-7-8.85-7m-41 0q-5.2 0-8.85 7-1.9 3.7-2.8 8.2-0.65 3.05-0.8 6.5-0.0465 0.18594-0.05 0.35v0.55q0 0.25 0 0.45 0 0.05 0 0.1 0 0.15 0.05 0.3v1.05h25v-1.7q0-0.1 0-0.2-0.1-3.95-0.8-7.4-0.95-4.5-2.9-8.2-3.65-7-8.85-7z"/>
			<path fill="#ff7a48" d="m797.45 291.8q3.65-7 8.85-7t8.85 7q1.95 3.7 2.9 8.2 0.7 3.45 0.8 7.4v-1.8q-0.1-4.05-0.8-7.6-0.95-4.5-2.9-8.2-3.65-7-8.85-7t-8.85 7q-1.9 3.7-2.8 8.2-0.65 3.05-0.8 6.5-0.05 1.1-0.05 2.25 0 0.075 0 0.15 0.005-0.22031 0.05-0.4 0.15-3.45 0.8-6.5 0.9-4.5 2.8-8.2m-41 0q3.65-7 8.85-7t8.85 7q1.95 3.7 2.9 8.2 0.7 3.45 0.8 7.4v-1.8q-0.1-4.05-0.8-7.6-0.95-4.5-2.9-8.2-3.65-7-8.85-7t-8.85 7q-1.9 3.7-2.8 8.2-0.65 3.05-0.8 6.5-0.05 1.1-0.05 2.25 0 0.075 0 0.1 0.004-0.16406 0.05-0.35 0.15-3.45 0.8-6.5 0.9-4.5 2.8-8.2z"/>
		</g>
		<g id="a">
			<path fill="#d2e3e5" d="m777.85 316v2h16v-2h-16z"/>
			<path fill="#b7ced0" d="m793.85 340v-22h-16v22h16z"/>
		</g>
	</defs>
	<g transform="translate(-752.8,-282.8)">
		<use xlink:href="#b" height="100%" width="100%" y="0" x="0"/>
	</g>
	<g transform="translate(-752.8,-282.8)">
		<use xlink:href="#a" height="100%" width="100%" y="0" x="0"/>
	</g>
</svg>
