<?xml version="1.0" encoding="UTF-8" standalone="no"?>
<svg xmlns:rdf="http://www.w3.org/1999/02/22-rdf-syntax-ns#" xmlns="http://www.w3.org/2000/svg" height="15.25" width="15.488" version="1.1" xmlns:cc="http://creativecommons.org/ns#" xmlns:dc="http://purl.org/dc/elements/1.1/">
	<path d="m15.383 4.55q0.25 0.75-0.1 1.5l-4.05 8.1-0.8 0.85-1.1 0.25-1.1-0.4-7.45-5.55-0.65-0.85q-0.2-0.55-0.1-1.1t0.45-0.95l5.1003-5.75q0.45-0.55 1.15-0.65l1.25 0.15 6.4 3.2q0.75 0.4 1 1.2m-13.4 3.15l7.45 5.55 4.05-8.1-6.4-3.2-5.1 5.75" fill="#db7b00"/>
	<path d="m1.9833 7.7 5.1-5.75 6.4 3.2-4.05 8.1-7.45-5.55" fill="#fff305"/>
</svg>
