<?xml version="1.0" encoding="UTF-8" standalone="no"?>
<svg xmlns:rdf="http://www.w3.org/1999/02/22-rdf-syntax-ns#" xmlns="http://www.w3.org/2000/svg" height="40" viewBox="0 0 20 40" width="20" version="1.1" y="0px" x="0px" xmlns:cc="http://creativecommons.org/ns#" xmlns:xlink="http://www.w3.org/1999/xlink" preserveAspectRatio="none" xmlns:dc="http://purl.org/dc/elements/1.1/">
	<defs>
		<g id="a">
			<path fill="#f90" d="m838.95 330.85q-4.15 0-7.1 2.9-2.9 2.95-2.9 7.1 0 12.45 2.9 21.15 2.95 8.85 7.1 8.85t7.05-8.85q2.95-8.7 2.95-21.15 0-4.15-2.95-7.1-2.9-2.9-7.05-2.9m3.55 4.45q1.45 1.45 1.45 3.55 0 6.2-1.45 10.55-1.45 4.45-3.55 4.45-2.05 0-3.55-4.45-1.45-4.35-1.45-10.55 0-2.1 1.45-3.55 1.5-1.45 3.55-1.45 2.1 0 3.55 1.45z"/>
			<path fill="#fc0" d="m843.95 338.85q0-2.1-1.45-3.55t-3.55-1.45q-2.05 0-3.55 1.45-1.45 1.45-1.45 3.55 0 6.2 1.45 10.55 1.5 4.45 3.55 4.45 2.1 0 3.55-4.45 1.45-4.35 1.45-10.55z"/>
		</g>
	</defs>
	<g transform="translate(-828.95,-330.85)">
		<use xlink:href="#a" height="100%" width="100%" y="0" x="0"/>
	</g>
</svg>
