<?xml version="1.0" encoding="UTF-8" standalone="no"?>
<svg height="37.004" width="9.0035" xmlns="http://www.w3.org/2000/svg" version="1.1"><path d="m3.0017 4.5017q0-.6.45-1.05t1.05-.45 1.05.45.45 1.05v28l-.45 1.05q-.45.45-1.05.45t-1.05-.45-.45-1.05v-28" fill="#71c937"/><path d="m3.0017 4.5017v28q0 .6.45 1.05t1.05.45 1.05-.45l.45-1.05v-28q0-.6-.45-1.05t-1.05-.45-1.05.45-.45 1.05m6 0v28q.05 1.8-1.3 3.2-1.4 1.35-3.2 1.3-1.8.05-3.15-1.3-1.4-1.4-1.35-3.2v-28q-.05-1.8 1.35-3.15 1.35-1.4 3.15-1.35 1.8-.05 3.2 1.35 1.35 1.35 1.3 3.15" fill="#619a3b"/></svg>
