<?xml version="1.0" encoding="UTF-8" standalone="no"?>
<svg version="1.1" width="36.3" height="36.3" xmlns="http://www.w3.org/2000/svg"><path fill="#71c937" d="m27.5 4-9.35 9.35-9.3-9.35q-1-1-2.45-1-1.4 0-2.4 1t-1 2.45q.05 1.35 1.05 2.35l9.3 9.35-9.35 9.35q-.95.95-1 2.35 0 1.45 1 2.45t2.4.95q1.45 0 2.4-.95l9.35-9.35 9.35 9.35q1 1 2.35 1 1.45 0 2.45-1t.95-2.45q.05-1.35-.95-2.35l-9.35-9.35 9.35-9.35q1-1 1-2.45 0-1.35-1-2.35t-2.4-1.05q-1.4.05-2.4 1.05m2.45-4q2.6.05 4.45 1.9t1.85 4.45l.05.1q0 2.65-1.85 4.5l-7.2 7.2 7.2 7.2q1.85 1.85 1.85 4.5l-.05.1q.05 2.6-1.8 4.45-1.85 1.9-4.6 1.9-2.55-.05-4.45-1.9l-7.2-7.2-7.25 7.25q-1.8 1.8-4.45 1.8l-.2.05q-2.55-.05-4.4-1.9t-1.9-4.45v-.15q.1-2.6 1.9-4.4l7.25-7.25-7.2-7.25q-1.85-1.8-1.95-4.35v-.2q.1-2.65 1.9-4.45 1.85-1.85 4.4-1.9l.2.05q2.65-.05 4.5 1.8l7.2 7.25 7.2-7.2q1.85-1.85 4.4-1.9h.15"/><path fill="#fff" d="m27.5 4q1-1 2.4-1.05 1.4.05 2.4 1.05t1 2.35q0 1.45-1 2.45l-9.35 9.35 9.35 9.35q1 1 .95 2.35.05 1.45-.95 2.45t-2.45 1q-1.35 0-2.35-1l-9.35-9.35-9.35 9.35q-.95.95-2.4.95-1.4.05-2.4-.95t-1-2.45q.05-1.4 1-2.35l9.35-9.35-9.3-9.35q-1-1-1.05-2.35 0-1.45 1-2.45t2.4-1q1.45 0 2.45 1l9.3 9.35 9.35-9.35"/></svg>
