<?xml version="1.0" encoding="UTF-8" standalone="no"?>
<svg width="88.707" xmlns="http://www.w3.org/2000/svg" version="1.1" height="81.45"><path d="m33.957 0 .85.05 37.65 11.45q.75.2 1.2.95l14.85 27.9.2 1-.25.95-22.05 38.15-.85.8-1.2.2-47.4-7.2q-.8-.15-1.3-.8l-13.15-17.8q-.35-.5-.4-1.05l-2.0999-32.2q-.05-.55.25-1.05l.7-.8 32.2-20.3.8-.25m-31.95 22.25 2.1 32.2 13.15 17.8 47.4 7.2 22.05-38.15-14.85-27.9-37.65-11.45-32.2 20.3" fill="#5c4434"/><path d="m29.307 31.95h-3l-3.5 7.25 3.5 7.5 5-.5 2.5-3.5-4.5-3v-7.75m-15 16.15v-20.35l23.25-12.25 10.05 2.2 3.95 7.75 5.25-5.75 7.85 1.7 6.4 20.35-17.4 23.7-6.9-1.5-10.45-7.5-9.05 3.3-4.9-1.05-8.05-10.6" fill="#997055"/><path d="m14.307 48.1 8.05 10.6 4.9 1.05 9.05-3.3 10.45 7.5 6.9 1.5 17.4-23.7-6.4-20.35-7.85-1.7-5.25 5.75-3.95-7.75-10.05-2.2-23.25 12.25v20.35m15-16.15v7.75l4.5 3-2.5 3.5-5 .5-3.5-7.5 3.5-7.25h3m-27.3-9.7 32.2-20.3l37.65 11.45 14.85 27.9-22.05 38.15-47.4-7.2-13.15-17.8-2.1-32.2" fill="#836049"/></svg>
