<?xml version="1.0" encoding="UTF-8" standalone="no"?>
<svg xmlns:rdf="http://www.w3.org/1999/02/22-rdf-syntax-ns#" xmlns="http://www.w3.org/2000/svg" height="95.05" width="97.94" version="1.1" xmlns:cc="http://creativecommons.org/ns#" xmlns:dc="http://purl.org/dc/elements/1.1/">
	<path d="m66.99 0.65 30.5 33.85 0.45 0.95-0.05 1.05-17.8 52.1-0.65 0.9q-0.45 0.4-1.05 0.45l-47.85 5.1-0.95-0.15q-0.5-0.2-0.8-0.6l-28.35-35.15-0.4-0.85q-0.1-0.5 0.05-0.95l13.1-42.8q0.15-0.55 0.55-0.9l0.85-0.45 50.4-13.1q0.55-0.2 1.1 0 0.5 0.15 0.9 0.55m29 35.2l-30.5-33.85-50.4 13.1-13.1 42.8 28.35 35.15 47.85-5.1 17.8-52.1" fill="#5c4434"/>
	<path d="m60.94 48.55 5.5-3.75-1.25-6-5.75-1.75-3.5 6.75 5 4.75m-24.2-26.05 5.2 5.05 3.05-6.85 15.85-3.45 21.15 19.9-11.4 38.1-7.55 0.9-6.85-8.35-4.25 9.65-17.8 2.05-6.95-9.9 1-4.05-5.1-1.8-7.15-10.1 9.75-28.8 11.05-2.35" fill="#997055"/>
	<path d="m36.74 22.5-11.05 2.35-9.75 28.8 7.15 10.1 5.1 1.8-1 4.05 6.95 9.9 17.8-2.05 4.25-9.65 6.85 8.35 7.55-0.9 11.4-38.1-21.15-19.9-15.85 3.45-3.05 6.85-5.2-5.05m24.2 26.05-5-4.75 3.5-6.75 5.75 1.75 1.25 6-5.5 3.75m35.05-12.7-17.8 52.1-47.85 5.1-28.35-35.15 13.1-42.8l50.4-13.1 30.5 33.85" fill="#836049"/>
</svg>
