<?xml version="1.0" encoding="UTF-8" standalone="no"?>
<svg version="1.1" xmlns="http://www.w3.org/2000/svg" width="45" height="39.45"><path fill="#5c4434" d="m31.45.1.85.6 12.25 15q.45.5.45 1.2l-.35 1.2-14.25 20.5-.85.7-1.05.15-14-1.75q-.65-.1-1.1-.5l-12.75-11.75q-.45-.45-.55-1-.2-.55 0-1.1l6-18.25.6-.9q.45-.4 1-.45l22.75-3.75 1 .1m11.55 16.85-12.25-15-22.75 3.75-6 18.25 12.75 11.75l14 1.75 14.25-20.5"/><path fill="#836049" d="m43 16.95-14.25 20.5-14-1.75-12.75-11.75 6-18.25 22.75-3.75 12.25 15m-9.5 1.5l-6-7-12.75 1.25v9.75l7.25 4.25 11.5-8.25"/><path fill="#997055" d="m33.5 18.45-11.5 8.25l-7.25-4.25v-9.75l12.75-1.25 6 7"/></svg>
