<?xml version="1.0" encoding="UTF-8" standalone="no"?>
<svg xmlns:rdf="http://www.w3.org/1999/02/22-rdf-syntax-ns#" xmlns="http://www.w3.org/2000/svg" height="26.8" width="27.35" version="1.1" xmlns:cc="http://creativecommons.org/ns#" xmlns:dc="http://purl.org/dc/elements/1.1/">
	<path d="m27.2 18.15-0.75 0.85-11.7 7.5-0.9 0.3-0.9-0.1-7.95-3-0.7-0.5-0.5-0.75l-3.75-10.95-0.05-0.95q0.05-0.5 0.35-0.85l6.45-8.85q0.3-0.45 0.75-0.65l1-0.2 14.85 1.05q0.7 0.05 1.2 0.55 0.5 0.45 0.65 1.15l2.1 14.25-0.15 1.15m-1.85-0.85-2.1-14.25-14.85-1.05l-6.45 8.85 3.75 10.95 7.95 3 11.7-7.5" fill="#5c4434"/>
	<path d="m25.35 17.3-11.7 7.5-7.95-3-3.75-10.95 6.45-8.85 14.85 1.05 2.1 14.25m-6.6-8.25-6.45-2.7-4.35 5.4 3 6.9 7.05-3.45 0.75-6.15" fill="#836049"/>
	<path d="m18.75 9.05-0.75 6.15-7.05 3.45-3-6.9 4.35-5.4l6.45 2.7" fill="#997055"/>
</svg>
