<?xml version="1.0" encoding="UTF-8" standalone="no"?>
<svg height="96.905" xmlns="http://www.w3.org/2000/svg" width="119.77" version="1.1"><path fill="#5c4434" d="m67.345.1 51.1 18.1q.7.25 1.1.95.35.7.15 1.5l-13.25 45.05-.55.85q-.35.35-.85.5l-53.845 14.65-15.85 14.7q-.55.45-1.25.5-.75.05-1.3-.4l-26.65-20.65q-.65-.5-.75-1.25l-5.35-30.45q-.15-.7.2-1.3l19.3-34.6.6-.65q.35-.3.85-.35l45.35-7.25 1 .1m50.4 19.95l-51.095-18.1-45.35 7.25-19.3 34.6 5.35 30.45 26.65 20.65 16.2-15 54.3-14.8 13.25-45.05"/><path fill="#836049" d="m117.74 20.05-13.24 45.05-54.305 14.8-16.2 15-26.65-20.65-5.35-30.45 19.3-34.6 45.35-7.25l51.1 18.1m-40.4-.2-12-4.4-24.5 2.75-.15 10.4-15.1-4.55-13.85 17.5 2.15 14.95 2.75 1.65-2.2 1.8 1.15 8.35 18.75 8.55 14.75-13.8 6.2-.85 11.6-6.05 15.6 2.5 13.45-1.75 7.5-27.6-20-7.3-4.1 4.25-2-6.4m-29.7 20.5-2.5 4.65-6.15.3 1-6.2 7.65 1.25m-14.9 7.75-4.6.2-3.15-3.8.85-5.4 6.65-3.5 4.15 5.75-3.9 6.75"/><path fill="#997055" d="m32.745 48.1 3.9-6.75-4.15-5.75-6.65 3.5-.85 5.4 3.15 3.8 4.6-.2m44.6-28.25 2 6.4 4.1-4.25 20 7.3-7.5 27.6-13.45 1.75-15.6-2.5-11.6 6.05-6.2.85-14.75 13.8-18.75-8.55-1.15-8.35 2.2-1.8-2.75-1.65-2.15-14.95 13.85-17.5 15.1 4.55.15-10.4 24.5-2.75 12 4.4m-29.7 20.5-7.65-1.25-1 6.2l6.155-.3 2.5-4.65"/></svg>
