<?xml version="1.0" encoding="UTF-8" standalone="no"?>
<svg version="1.1" xmlns="http://www.w3.org/2000/svg" width="28.6" height="25.25"><path d="m20.8.7 7.35 9q.45.5.45 1.2l-.35 1.2-8.55 12.3-.85.7-1.05.15-8.4-1.05q-.65-.1-1.1-.5l-7.65-7.05q-.45-.45-.55-1-.2-.55 0-1.1l3.6-10.95.6-.9q.45-.4 1-.45l13.65-2.25 1 .1q.5.15.85.6m-11.15 21.5 8.4 1.05l8.55-12.3-7.35-9-13.65 2.25-3.6 10.95 7.65 7.05" fill="#5c4434"/><path d="m9.65 22.2-7.65-7.05 3.6-10.95 13.65-2.25l7.35 9-8.55 12.3-8.4-1.05m0-7.95 4.35 2.55 6.9-4.95-3.6-4.2-7.65.75v5.85" fill="#836049"/><path d="m9.65 14.25v-5.85l7.65-.75 3.6 4.2-6.9 4.95-4.35-2.55" fill="#997055"/></svg>
