<?xml version="1.0" encoding="UTF-8" standalone="no"?>
<svg xmlns:rdf="http://www.w3.org/1999/02/22-rdf-syntax-ns#" xmlns="http://www.w3.org/2000/svg" height="17.65" width="16.906" version="1.1" xmlns:cc="http://creativecommons.org/ns#" xmlns:dc="http://purl.org/dc/elements/1.1/">
	<path d="m5.6562 0.7q0.4-0.55 1.05-0.7l1.3 0.1 7.7 3.35 1 0.9q0.3 0.65 0.15 1.4l-2.3 9.6-0.6 1-1.1 0.5-6.25 0.8-1.1-0.2q-0.55-0.25-0.85-0.75l-4.35-7.05q-0.35-0.55-0.3-1.15t0.45-1.1l5.2-6.7m9.25 4.55-7.7-3.35-5.2 6.7 4.35 7.05 6.25-0.8 2.3-9.6" fill="#5c4434"/>
	<path d="m14.906 5.25-2.3 9.6-6.25 0.8-4.35-7.05 5.2-6.7 7.7 3.35" fill="#836049"/>
</svg>
