<?xml version="1.0" encoding="UTF-8" standalone="no"?>
<svg width="27.35" height="26.8" version="1.1" xmlns="http://www.w3.org/2000/svg"><path fill="#5c4434" d="m27.2 18.15-.75.85-11.7 7.5-.9.3-.9-.1-7.95-3-.7-.5-.5-.75l-3.75-10.95-.05-.95q.05-.5.35-.85l6.45-8.85q.3-.45.75-.65l1-.2 14.85 1.05q.7.05 1.2.55.5.45.65 1.15l2.1 14.25-.15 1.15m-1.85-.85-2.1-14.25-14.85-1.05l-6.45 8.85 3.75 10.95 7.95 3 11.7-7.5"/><path fill="#836049" d="m25.35 17.3-11.7 7.5-7.95-3-3.75-10.95 6.45-8.85 14.85 1.05 2.1 14.25m-6.6-8.25-6.45-2.7-4.35 5.4 3 6.9 7.05-3.45.75-6.15"/><path fill="#997055" d="m18.75 9.05-.75 6.15-7.05 3.45-3-6.9 4.35-5.4l6.45 2.7"/></svg>
