<?xml version="1.0" encoding="UTF-8" standalone="no"?>
<svg xmlns:rdf="http://www.w3.org/1999/02/22-rdf-syntax-ns#" xmlns="http://www.w3.org/2000/svg" height="39.45" width="45" version="1.1" xmlns:cc="http://creativecommons.org/ns#" xmlns:dc="http://purl.org/dc/elements/1.1/">
	<path d="m31.45 0.1 0.85 0.6 12.25 15q0.45 0.5 0.45 1.2l-0.35 1.2-14.25 20.5-0.85 0.7-1.05 0.15-14-1.75q-0.65-0.1-1.1-0.5l-12.75-11.75q-0.45-0.45-0.55-1-0.2-0.55 0-1.1l6-18.25 0.6-0.9q0.45-0.4 1-0.45l22.75-3.75 1 0.1m11.55 16.85-12.25-15-22.75 3.75-6 18.25 12.75 11.75l14 1.75 14.25-20.5" fill="#5c4434"/>
	<path d="m43 16.95-14.25 20.5-14-1.75-12.75-11.75 6-18.25 22.75-3.75 12.25 15m-9.5 1.5l-6-7-12.75 1.25v9.75l7.25 4.25 11.5-8.25" fill="#836049"/>
	<path d="m33.5 18.45-11.5 8.25l-7.25-4.25v-9.75l12.75-1.25 6 7" fill="#997055"/>
</svg>
