<?xml version="1.0" encoding="UTF-8" standalone="no"?>
<svg xmlns:rdf="http://www.w3.org/1999/02/22-rdf-syntax-ns#" xmlns="http://www.w3.org/2000/svg" height="96.905" width="119.77" version="1.1" xmlns:cc="http://creativecommons.org/ns#" xmlns:dc="http://purl.org/dc/elements/1.1/">
	<path d="m67.345 0.1 51.1 18.1q0.7 0.25 1.1 0.95 0.35 0.7 0.15 1.5l-13.25 45.05-0.55 0.85q-0.35 0.35-0.85 0.5l-53.845 14.65-15.85 14.7q-0.55 0.45-1.25 0.5-0.75 0.05-1.3-0.4l-26.65-20.65q-0.65-0.5-0.75-1.25l-5.35-30.45q-0.15-0.7 0.2-1.3l19.3-34.6 0.6-0.65q0.35-0.3 0.85-0.35l45.35-7.25 1 0.1m50.4 19.95l-51.095-18.1-45.35 7.25-19.3 34.6 5.35 30.45 26.65 20.65 16.2-15 54.3-14.8 13.25-45.05" fill="#5c4434"/>
	<path d="m117.74 20.05-13.24 45.05-54.305 14.8-16.2 15-26.65-20.65-5.35-30.45 19.3-34.6 45.35-7.25l51.1 18.1m-40.4-0.2-12-4.4-24.5 2.75-0.15 10.4-15.1-4.55-13.85 17.5 2.15 14.95 2.75 1.65-2.2 1.8 1.15 8.35 18.75 8.55 14.75-13.8 6.2-0.85 11.6-6.05 15.6 2.5 13.45-1.75 7.5-27.6-20-7.3-4.1 4.25-2-6.4m-29.7 20.5-2.5 4.65-6.15 0.3 1-6.2 7.65 1.25m-14.9 7.75-4.6 0.2-3.15-3.8 0.85-5.4 6.65-3.5 4.15 5.75-3.9 6.75" fill="#836049"/>
	<path d="m32.745 48.1 3.9-6.75-4.15-5.75-6.65 3.5-0.85 5.4 3.15 3.8 4.6-0.2m44.6-28.25 2 6.4 4.1-4.25 20 7.3-7.5 27.6-13.45 1.75-15.6-2.5-11.6 6.05-6.2 0.85-14.75 13.8-18.75-8.55-1.15-8.35 2.2-1.8-2.75-1.65-2.15-14.95 13.85-17.5 15.1 4.55 0.15-10.4 24.5-2.75 12 4.4m-29.7 20.5-7.65-1.25-1 6.2l6.155-0.3 2.5-4.65" fill="#997055"/>
</svg>
