<?xml version="1.0" encoding="UTF-8" standalone="no"?>
<svg width="42.95" version="1.1" height="42" xmlns="http://www.w3.org/2000/svg"><path fill="#5c4434" d="m38.8 2.3q.5.45.65 1.15l3.5 23.75-.15 1.15-.75.85-19.5 12.5-.9.3-.9-.1-13.25-5-.7-.5-.5-.75-6.25-18.25-.05-.95q.05-.5.35-.85l10.75-14.75.75-.65 1-.2 24.75 1.75q.7.05 1.2.55m-36.85 14.45 6.25 18.25 13.25 5 19.5-12.5-3.5-23.75-24.75-1.75-10.75 14.75"/><path fill="#997055" d="m29.95 13.75-1.25 10.25-11.75 5.75-5-11.5 7.25-9 10.75 4.5"/><path fill="#836049" d="m29.95 13.75-10.75-4.5-7.25 9l5 11.5 11.75-5.75 1.25-10.25m-28 3 10.75-14.75 24.75 1.75l3.5 23.75-19.5 12.5-13.25-5-6.25-18.25"/></svg>
