<?xml version="1.0" encoding="UTF-8" standalone="no"?>
<svg id="svg2" xmlns:rdf="http://www.w3.org/1999/02/22-rdf-syntax-ns#" xmlns="http://www.w3.org/2000/svg" height="42" width="42.95" version="1.1" xmlns:cc="http://creativecommons.org/ns#" xmlns:dc="http://purl.org/dc/elements/1.1/">
 <path id="path2312" d="m38.8 2.3q0.5 0.45 0.65 1.15l3.5 23.75-0.15 1.15-0.75 0.85-19.5 12.5-0.9 0.3-0.9-0.1-13.25-5-0.7-0.5-0.5-0.75-6.25-18.25-0.05-0.95q0.05-0.5 0.35-0.85l10.75-14.75 0.75-0.65 1-0.2 24.75 1.75q0.7 0.05 1.2 0.55m-36.85 14.45 6.25 18.25 13.25 5 19.5-12.5-3.5-23.75-24.75-1.75-10.75 14.75" fill="#5c4434"/>
 <path id="path2314" d="m29.95 13.75-1.25 10.25-11.75 5.75-5-11.5 7.25-9 10.75 4.5" fill="#997055"/>
 <path id="path2316" d="m29.95 13.75-10.75-4.5-7.25 9l5 11.5 11.75-5.75 1.25-10.25m-28 3 10.75-14.75 24.75 1.75l3.5 23.75-19.5 12.5-13.25-5-6.25-18.25" fill="#836049"/>
</svg>
