<?xml version="1.0" encoding="UTF-8" standalone="no"?>
<svg xmlns:rdf="http://www.w3.org/1999/02/22-rdf-syntax-ns#" xmlns="http://www.w3.org/2000/svg" height="25.25" width="28.6" version="1.1" xmlns:cc="http://creativecommons.org/ns#" xmlns:dc="http://purl.org/dc/elements/1.1/">
	<path d="m20.8 0.7 7.35 9q0.45 0.5 0.45 1.2l-0.35 1.2-8.55 12.3-0.85 0.7-1.05 0.15-8.4-1.05q-0.65-0.1-1.1-0.5l-7.65-7.05q-0.45-0.45-0.55-1-0.2-0.55 0-1.1l3.6-10.95 0.6-0.9q0.45-0.4 1-0.45l13.65-2.25 1 0.1q0.5 0.15 0.85 0.6m-11.15 21.5 8.4 1.05l8.55-12.3-7.35-9-13.65 2.25-3.6 10.95 7.65 7.05" fill="#5c4434"/>
	<path d="m9.65 22.2-7.65-7.05 3.6-10.95 13.65-2.25l7.35 9-8.55 12.3-8.4-1.05m0-7.95 4.35 2.55 6.9-4.95-3.6-4.2-7.65 0.75v5.85" fill="#836049"/>
	<path d="m9.65 14.25v-5.85l7.65-0.75 3.6 4.2-6.9 4.95-4.35-2.55" fill="#997055"/>
</svg>
