<?xml version="1.0" encoding="UTF-8" standalone="no"?>
<svg version="1.1" width="100.54" xmlns="http://www.w3.org/2000/svg" height="82.7"><path d="m74.79.9 25.45 38.1.3.95-.15 1-14.85 32.2-.9.9-1.25.25-22.75-3.35-30.85 11.7-1.15.05q-.6-.15-1-.6l-27.1-29.65-.5-.9q-.1-.55.05-1.05l16.05-49.1q.2-.65.75-1 .5-.4 1.15-.4h55.05l.95.25.75.65m-1.7 1.1h-55.05l-16.05 49.1 27.1 29.65 31.3-11.85 23.3 3.4 14.85-32.2-25.45-38.1" fill="#5c4434"/><path d="m73.09 2 25.45 38.1-14.85 32.2-23.3-3.4-31.3 11.85-27.1-29.65l16.05-49.1h55.05m8.35 31.3-5.7 3.6v-12l-8.95-13.2-13.2 1.05-3.35 3.4-12.25-2.2-10.15.75-8.9 32.15 7.55 6.75 8.75-2.2-3.55 6.85 6.75 6 14.8-9.75 25.4 2.55 8-16.1-5.2-7.65m-33.95-6.9-2.75 6.75-7.25 4.25-4-1.5 5.75-9.5h8.25m-2 12 3.5-6 5.5 1v4.25l-5.25 3.25-3.75-2.5" fill="#836049"/><path d="m45.49 38.4 3.75 2.5 5.25-3.25v-4.25l-5.5-1-3.5 6m35.95-5.1 5.2 7.65-8 16.1-25.4-2.55-14.8 9.75-6.75-6 3.55-6.85-8.75 2.2-7.55-6.75 8.9-32.15 10.15-.75 12.25 2.2 3.35-3.4 13.2-1.05 8.95 13.2v12l5.7-3.6m-33.95-6.9h-8.25l-5.75 9.5 4 1.5 7.25-4.25 2.75-6.75" fill="#997055"/></svg>
