<?xml version="1.0" encoding="UTF-8" standalone="no"?>
<svg
   xmlns:dc="http://purl.org/dc/elements/1.1/"
   xmlns:cc="http://creativecommons.org/ns#"
   xmlns:rdf="http://www.w3.org/1999/02/22-rdf-syntax-ns#"
   xmlns:svg="http://www.w3.org/2000/svg"
   xmlns="http://www.w3.org/2000/svg"
   xmlns:sodipodi="http://sodipodi.sourceforge.net/DTD/sodipodi-0.dtd"
   xmlns:inkscape="http://www.inkscape.org/namespaces/inkscape"
   version="1.1"
   height="27"
   width="57.653"
   viewBox="0 0 57.652866 27.000027"
   id="svg2"
   inkscape:version="0.91 r"
   sodipodi:docname="muzzle2.svg">
  <metadata
     id="metadata12">
    <rdf:RDF>
      <cc:Work
         rdf:about="">
        <dc:format>image/svg+xml</dc:format>
        <dc:type
           rdf:resource="http://purl.org/dc/dcmitype/StillImage" />
        <dc:title />
      </cc:Work>
    </rdf:RDF>
  </metadata>
  <defs
     id="defs10" />
  <sodipodi:namedview
     pagecolor="#ffffff"
     bordercolor="#666666"
     borderopacity="1"
     objecttolerance="10"
     gridtolerance="10"
     guidetolerance="10"
     inkscape:pageopacity="0"
     inkscape:pageshadow="2"
     inkscape:window-width="1680"
     inkscape:window-height="998"
     id="namedview8"
     showgrid="false"
     inkscape:zoom="15.895277"
     inkscape:cx="27.376778"
     inkscape:cy="7.7978879"
     inkscape:window-x="0"
     inkscape:window-y="0"
     inkscape:window-maximized="1"
     inkscape:current-layer="svg2" />
  <g
     transform="translate(.25715 -1024.1)"
     id="g4">
    <path
       d="m 47.89276,1038.465 -7.965984,0.8179 -6.626533,0.9901 -6.284738,-0 -7.020536,1.2348 -1.938627,2.9307 -2.048947,-1.1642 -2.345854,2.1155 -2.28725,3.9609 -1.567261,-3.0113 -2.2920462,1.0232 -0.903263,-2.1765 -3.7909739,-0.6228 1.1728274,-1.744 -2.1951911,-0.821 -0.697593,-3.3767 1.8707875,-1.1123 -2.37505997,-1.1655 1.72042607,-5.6873 2.4402496,-0.067 3.5148655,-3.0403 1.1179338,1.413 1.1787573,-2.9823 7.866823,4.1284 1.282458,-1.1086 3.096642,2.1106 5.073269,3.2232 5.710957,0.56 6.657841,0.1545 9.7454,1.2173 7.3091,1.218 z"
       id="path6"
       inkscape:connector-curvature="0"
       style="fill:#ffaf58;fill-rule:evenodd;stroke:#ffd3a5;stroke-width:1.03419995"
       sodipodi:nodetypes="cccccccccccccccccccccccccccccccc" />
  </g>
</svg>
