<?xml version="1.0" encoding="UTF-8" standalone="no"?>
<svg version="1.1" height="27" xmlns="http://www.w3.org/2000/svg" width="57.653" viewBox="0 0 57.652866 27.000027"><g transform="translate(.25715 -1024.1)"><path d="m50.002 1038.7-9.7454 1.2183-8.5273 1.2171-4.499 1.9426h-5.4738l-4.379 1.6438v2.1885l-2.1895-2.1885-1.6421 2.1885-5.4738-1.6411h-2.7369l-.54738-1.6427h-2.1895l-.54738-2.1888-.54738-1.0956-1.0948-1.094 1.0948-1.6432-.54738-1.0938.54738-1.0952 1.0948-2.1886.54738-1.0963 1.6421-.5481 1.0948-1.0936 2.7369-1.0953 2.4259-1.6583 1.2182-2.4356 1.8297 3.5472 1.0948-1.0957v1.6424l3.2843-1.6424 1.0948 4.3794 4.9264 1.0963 7.6633 1.0956 8.0998.7226 9.7454 1.2173 7.3091 1.218z" fill-rule="evenodd" fill="#ffaf58" stroke-width="1.0342" stroke="#ffd3a5"/></g></svg>
