<?xml version="1.0" encoding="UTF-8" standalone="no"?>
<svg width="250" xmlns="http://www.w3.org/2000/svg" height="250" viewBox="0 0 250 250" version="1.1"><path fill-opacity=".2" fill="#fff" d="m36.553 36.789a125 125 0 0 0 -22.592 31.061l15.912.99219 25.656-27.426-18.977-4.627z"/><path fill-opacity=".43" d="m174.44 198.96-21.58 22.449-30.545 11.074 3.8828 17.477a125 125 0 0 0 85.959 -35.363l-37.717-15.637z"/><path fill-opacity=".5" d="m187.48 45.533-5.7012 27.066-41.178 36.621-3.3633 9.5332l-19.81-14.56-1.42-33.827-43.781-9.445-21.79 12.092-1.933 20.26-48.356 35.99a125 125 0 0 0 60.135 102.5l13.277-10.215 15.881-11.947 14.752-10.844 24 1.9805 10.469-2.7344 22.545-61.613-17.4-12.8 45.2-29.572 41.693-13.863 9.1035-4.2656a125 125 0 0 0 -15.748 -27.006l-36.572-3.3496z"/><path fill-opacity=".3" d="m162.25 5.6953-33.594 5.2734-2.8281 10.588-28.654 6.957 10.23 16.102 87.684-5.1523 13.125-7.5684a125 125 0 0 0 -45.97 -26.201z"/><path fill-opacity=".33" fill="#fff" d="m155.21 79.315-13.448-13.208-11.461 1.6227 6.4734 16.619z"/><path fill-opacity=".3" d="m213.46 155.84-33.261 11.116-6.6522-18.333 17.498-24.108z"/><path fill-opacity=".18" fill="#fff" d="m237.3 126.71-33.261 11.116 10.586-27.069-.50951-16.737 19.088 7.8919z"/></svg>
