<?xml version="1.0" encoding="UTF-8" standalone="no"?>
<svg xmlns:rdf="http://www.w3.org/1999/02/22-rdf-syntax-ns#" xmlns="http://www.w3.org/2000/svg" enable-background="new 0 0 493 500" xml:space="preserve" height="499.93" width="493.47" version="1.1" y="0px" x="0px" xmlns:cc="http://creativecommons.org/ns#" xmlns:dc="http://purl.org/dc/elements/1.1/" viewBox="0 0 493.46799 499.92801"><g transform="translate(.131 -.036)"><path d="m246.6 90.021c52.135 0 98.441 24.943 127.65 63.545l-55.65 56.43h174.4v-176.87l-55.17 55.959c-45.84-54.441-114.48-89.053-191.23-89.053-124.43 0-227.58 90.964-246.73 209.96h91.801c17.759-69 80.389-119.98 154.93-119.98z"/><path d="m246.6 409.98c-51.039 0-96.491-23.903-125.78-61.123l58.78-58.86h-179.6v179.84l56.964-57.04c45.829 53.358 113.78 87.167 189.64 87.167 124.43-0.01 227.58-90.97 246.74-209.97h-91.801c-17.77 69-80.4 119.98-154.94 119.98z"/></g></svg>
