<svg xmlns="http://www.w3.org/2000/svg" width="9.004" height="37.004"><path fill="#e5c942" d="M3.002 4.502q0-.6.45-1.05.45-.45 1.05-.45.6 0 1.05.45.45.45.45 1.05v28l-.45 1.05q-.45.45-1.05.45-.6 0-1.05-.45-.45-.45-.45-1.05v-28"/><path fill="#e26426" d="M3.002 4.502v28q0 .6.45 1.05.45.45 1.05.45.6 0 1.05-.45l.45-1.05v-28q0-.6-.45-1.05-.45-.45-1.05-.45-.6 0-1.05.45-.45.45-.45 1.05m6 0v28q.05 1.8-1.3 3.2-1.4 1.35-3.2 1.3-1.8.05-3.15-1.3-1.4-1.4-1.35-3.2v-28q-.05-1.8 1.35-3.15 1.35-1.4 3.15-1.35 1.8-.05 3.2 1.35 1.35 1.35 1.3 3.15"/></svg>
