<svg xmlns="http://www.w3.org/2000/svg" xmlns:xlink="http://www.w3.org/1999/xlink" version="1.1" x="0px" y="0px" viewBox="0 0 100 100" enable-background="new 0 0 100 100" xml:space="preserve"><path d="M52.037,48.713V14.806c0-1.081-0.876-1.957-1.957-1.957c-1.081,0-1.957,0.876-1.957,1.957v33.907  c-4.792,0.918-8.427,5.136-8.427,10.193c0,5.056,3.635,9.274,8.427,10.193v15.14c0,1.081,0.876,1.957,1.957,1.957  c1.081,0,1.957-0.876,1.957-1.957v-15.14c4.792-0.918,8.427-5.136,8.427-10.193C60.464,53.849,56.829,49.631,52.037,48.713z   M50.08,65.375c-3.568,0-6.47-2.902-6.47-6.47s2.902-6.47,6.47-6.47c3.568,0,6.47,2.902,6.47,6.47S53.648,65.375,50.08,65.375z   M26.7,31.361V14.806c0-1.081-0.876-1.957-1.957-1.957c-1.081,0-1.957,0.876-1.957,1.957v16.555  c-4.792,0.918-8.427,5.136-8.427,10.193c0,5.056,3.634,9.274,8.427,10.193v31.736c0,1.081,0.876,1.957,1.957,1.957  c1.081,0,1.957-0.876,1.957-1.957V51.746c4.792-0.918,8.427-5.136,8.427-10.193C35.127,36.497,31.493,32.279,26.7,31.361z   M24.744,48.023c-3.568,0-6.47-2.902-6.47-6.47c0-3.545,2.867-6.43,6.403-6.467c0.023,0.001,0.044,0.007,0.067,0.007  s0.044-0.006,0.067-0.007c3.537,0.036,6.403,2.922,6.403,6.467C31.214,45.121,28.311,48.023,24.744,48.023z M85.64,41.553  c0-5.056-3.635-9.274-8.427-10.193V15.762c0-1.081-0.876-1.957-1.957-1.957c-1.081,0-1.957,0.876-1.957,1.957v15.598  c-4.792,0.918-8.427,5.136-8.427,10.193c0,5.056,3.635,9.274,8.427,10.193v33.449c0,1.081,0.876,1.957,1.957,1.957  c1.081,0,1.957-0.876,1.957-1.957V51.746C82.005,50.827,85.64,46.609,85.64,41.553z M75.256,48.023c-3.568,0-6.47-2.902-6.47-6.47  c0-3.568,2.902-6.47,6.47-6.47c3.568,0,6.47,2.902,6.47,6.47C81.727,45.121,78.824,48.023,75.256,48.023z"/></svg>
