<svg xmlns="http://www.w3.org/2000/svg" width="134" height="30" viewBox="0 0 134 30">
  <g fill-rule="evenodd">
    <path fill="#796b60" d="M130.808 5.778H56.705l-2.383-1.222H33.107L31.915 7h-4.767L2 9.444V24l25.148-7.222H53.13L54.113 19h23.6v-1h25.564l2.95-4 4.38-2.11h20.2v-1.223H132V7h-1.192z"/>
    <path fill="#534941" d="M56.08 19v-4h19.665v4zM27.148 7L2 9.444V24l25.148-7.222z"/>
    <path fill="#e3c8b4" stroke="#534941" stroke-width="1" d="M97.633 1036.4v-6.602m-3.188 6.602v-6.602m-3.187 6.602v-6.602m-3.187 6.602v-6.602m-3.187 6.602v-5.777l.797-.825h15.38v5.776l-.798.826z" transform="matrix(1.19184 0 0 1.22222 -20.526 -1247.443)"/>
    <path fill="#4a4542" d="M130.808 5.775H56.705l-2.383-1.222H33.107l-1.192 2.444h98.893z"/>
  </g>
</svg>
