<?xml version="1.0" encoding="UTF-8" standalone="no"?>
<svg width="76" height="30" viewBox="0 0 76 30" xmlns="http://www.w3.org/2000/svg"><path d="m50.266 1.976h-1.402v-.688h-19.626l-7.01-.688h-9.11v1.376h-4.208l-2.802 5.504 2.103 2.753 5.608 4.817h8.41v14.45h9.113v-15.826l1.403-1.376h3.505v2.064h2.803l3.506 8.257 6.308-3.44-5.607-6.882.7-3.44h4.907v-.69h1.402" fill="#5b5149" fill-rule="evenodd"/><path d="m43.082 8.685h-8.06l-1.403-.688v-5.16h9.462z" fill="#e3c8b4" fill-rule="evenodd"/><path d="m73.397 2.664h2.103v4.473h-2.103m0 1.72h-23.48v-7.57h23.48z" fill="#796b60" fill-rule="evenodd"/><path d="m23.28 16.082v12.386h7.01v-12.386z" fill="#266414" fill-rule="evenodd"/><path stroke="#4a4542" d="m212 374.36h-56m56 6h-56m56-12h-56" fill="none" transform="matrix(.35047 0 0 .34405 -42.257 -122.69)"/><path d="m23.982 16.77v11.01h5.607v-11.01z" fill="#b7b7b7" fill-rule="evenodd" opacity=".2"/><path d="m39.052 14.363l3.505 8.257 5.607 6.88 3.505-2.064-2.805-8.257-5.607-6.882z" fill="#4a4542" fill-rule="evenodd"/><path d="m8.21 10.234l-7.71 14.45 6.31 2.752 7.008-12.385h8.41l9.114-1.376 1.402-1.376h3.504v-2.064" fill="#e3c8b4" fill-rule="evenodd"/><path d="m72.697 6.45a.7 .688 0 0 1 -.7 .687 .7 .688 0 0 1 -.702 -.688 .7 .688 0 0 1 .7 -.69 .7 .688 0 0 1 .702 .69zm-2.804-2.753a.7 .688 0 0 1 -.7 .688 .7 .688 0 0 1 -.7 -.688 .7 .688 0 0 1 .7 -.688 .7 .688 0 0 1 .7 .687zm-2.803 2.753a.7 .688 0 0 1 -.7 .687 .7 .688 0 0 1 -.702 -.688 .7 .688 0 0 1 .7 -.69 .7 .688 0 0 1 .702 .69zm-2.804-2.753a.7 .688 0 0 1 -.7 .688 .7 .688 0 0 1 -.702 -.688 .7 .688 0 0 1 .7 -.688 .7 .688 0 0 1 .702 .687zm-2.804 2.753a.7 .688 0 0 1 -.7 .687 .7 .688 0 0 1 -.702 -.688 .7 .688 0 0 1 .7 -.69 .7 .688 0 0 1 .702 .69zm-2.804-2.753a.7 .688 0 0 1 -.7 .688 .7 .688 0 0 1 -.702 -.688 .7 .688 0 0 1 .7 -.688 .7 .688 0 0 1 .702 .687zm-2.803 2.753a.7 .688 0 0 1 -.7 .687 .7 .688 0 0 1 -.702 -.688 .7 .688 0 0 1 .7 -.69 .7 .688 0 0 1 .702 .69zm-2.805-2.754a.7 .688 0 0 1 -.7 .688 .7 .688 0 0 1 -.7 -.688 .7 .688 0 0 1 .7 -.688 .7 .688 0 0 1 .7 .687z" fill-rule="evenodd" opacity=".2"/></svg>
