<svg xmlns="http://www.w3.org/2000/svg" width="76" height="30" viewBox="0 0 76 30">
  <path fill="#5b5149" fill-rule="evenodd" d="M50.266 1.976h-1.402v-.688H29.238L22.228.6h-9.11v1.376H8.91L6.108 7.48l2.103 2.753 5.608 4.817h8.41V29.5h9.113V13.674l1.403-1.376h3.505v2.064h2.803l3.506 8.257 6.308-3.44-5.607-6.882.7-3.44h4.907v-.69h1.402"/>
  <path fill="#e3c8b4" fill-rule="evenodd" d="M43.082 8.685h-8.06l-1.403-.688v-5.16h9.462z"/>
  <path fill="#796b60" fill-rule="evenodd" d="M73.397 2.664H75.5v4.473h-2.103m0 1.72h-23.48v-7.57h23.48z"/>
  <path fill="#266414" fill-rule="evenodd" d="M23.28 16.082v12.386h7.01V16.082z"/>
  <path fill="none" stroke="#4a4542" d="M212 374.362h-56m56 6h-56m56-12h-56" transform="matrix(.35047 0 0 .34405 -42.257 -122.694)"/>
  <path fill="#b7b7b7" fill-rule="evenodd" d="M23.982 16.77v11.01h5.607V16.77z" opacity=".2"/>
  <path fill="#4a4542" fill-rule="evenodd" d="M39.052 14.363l3.505 8.257 5.607 6.88 3.505-2.064-2.805-8.257-5.607-6.882z"/>
  <path fill="#e3c8b4" fill-rule="evenodd" d="M8.21 10.234L.5 24.684l6.31 2.752 7.008-12.385h8.41l9.114-1.376 1.402-1.376h3.504v-2.064"/>
  <path fill-rule="evenodd" d="M72.697 6.45a.7.688 0 0 1-.7.687.7.688 0 0 1-.702-.688.7.688 0 0 1 .7-.69.7.688 0 0 1 .702.69zm-2.804-2.753a.7.688 0 0 1-.7.688.7.688 0 0 1-.7-.688.7.688 0 0 1 .7-.688.7.688 0 0 1 .7.687zM67.09 6.45a.7.688 0 0 1-.7.687.7.688 0 0 1-.702-.688.7.688 0 0 1 .7-.69.7.688 0 0 1 .702.69zm-2.804-2.753a.7.688 0 0 1-.7.688.7.688 0 0 1-.702-.688.7.688 0 0 1 .7-.688.7.688 0 0 1 .702.687zM61.482 6.45a.7.688 0 0 1-.7.687.7.688 0 0 1-.702-.688.7.688 0 0 1 .7-.69.7.688 0 0 1 .702.69zm-2.804-2.753a.7.688 0 0 1-.7.688.7.688 0 0 1-.702-.688.7.688 0 0 1 .7-.688.7.688 0 0 1 .702.687zM55.875 6.45a.7.688 0 0 1-.7.687.7.688 0 0 1-.702-.688.7.688 0 0 1 .7-.69.7.688 0 0 1 .702.69zM53.07 3.696a.7.688 0 0 1-.7.688.7.688 0 0 1-.7-.688.7.688 0 0 1 .7-.688.7.688 0 0 1 .7.687z" opacity=".2"/>
</svg>
