<?xml version="1.0" encoding="UTF-8" standalone="no"?>
<svg viewBox="0 0 100 30" xmlns="http://www.w3.org/2000/svg" width="100" height="30"><path fill-rule="evenodd" fill="#5b5149" d="m97.87 9.462v-2.908h-1.247l-.83-1.246h-24.925l-1.247-.83h-18.275l-2.492-.832-1.246-1.246h-27l-1.662 1.246h-1.66l-1.663.416-.83.83v1.662h-6.23l-4.156 2.908h-2.492l-.415 6.646.83 1.66h2.493l4.57-3.737h5.4l1.245.416.416.83-4.984 8.723v2.077h6.23l.29-1.246 1.787-3.738 1.246-1.66 2.077-.417h5.4l.415 7.062 1.247 2.492 2.076.83 1.247-1.662h14.953v-10.384l2.908-.83.415-.832h.832v1.662h19.107l.415-2.908h2.493v.83h4.57v-1.245l16.2-.415 1.245-.83v-1.662z"/><path fill-rule="evenodd" fill="#e3c8b4" d="m19.777 21.092l1.246-1.66 2.077-.417h5.4l.415 7.062 1.247 2.492 2.076.83 1.247-1.662h14.953v-10.383l2.908-.83.415-.832h.832v1.662h1.662v-2.492h2.077v2.492h2.078v-2.492h2.077v2.492h2.077v-2.492h2.076v2.492h2.077v-2.492h2.077v2.492h1.662l.415-2.908h3.738v.83h4.57v-1.245l16.2-.415 1.245-.83v-1.662m-76.846 9.97l-1.662-.83-.415-1.248.83-3.738 1.662-1.246h8.307l.415 2.493 2.077.83.416 8.724h13.292l1.33-1.412.332-11.05.83-1.246 1.662-1.247h47.77"/><path fill-rule="evenodd" fill="#266414" d="m33.485 11.538v12.462h10.385v-12.462z"/><path d="m19.777 21.092l.83.83h2.078l.83-.83.83-2.077" stroke="#5b5149" fill="none" stroke-width=".33231"/><path d="m91.638 5.308v-2.078h-.83v2.08" stroke="#000" stroke-linejoin="bevel" fill="none" stroke-width=".33231"/><path fill-rule="evenodd" fill="#4a4542" d="m96.623 6.554l-.83-1.246h-24.925l-1.247-.83h-18.275l-2.492-.832-1.246-1.246h-27l-1.662 1.246h-1.66l-1.663.416-.83.83v1.662m81.83 0h-81.83"/><path d="m89.562 11.123v-4.57m-2.077 4.57v-4.57m-2.077 4.57v-4.57m-2.077 4.57v-4.57m-2.076 4.57v-4.57" stroke="#4a4542" fill="none" stroke-width=".41538"/><path opacity=".2" fill-rule="evenodd" fill="#b7b7b7" d="m34.315 12.37v10.8h8.723v-10.8z"/></svg>
