<svg xmlns="http://www.w3.org/2000/svg" width="100" height="30" viewBox="0 0 100 30">
  <path fill="#5b5149" fill-rule="evenodd" d="M97.87 9.462V6.554h-1.247l-.83-1.246H70.868l-1.247-.83H51.346l-2.492-.832L47.608 2.4h-27l-1.662 1.246h-1.66l-1.663.416-.83.83v1.662h-6.23L4.407 9.462H1.915L1.5 16.108l.83 1.66h2.493l4.57-3.737h5.4l1.245.416.416.83L11.47 24v2.077h6.23l.29-1.246 1.787-3.738 1.246-1.66 2.077-.417h5.4l.415 7.062 1.247 2.492 2.076.83 1.247-1.662h14.953V17.354l2.908-.83.415-.832h.832v1.662H71.7l.415-2.908h2.493v.83h4.57v-1.245l16.2-.415 1.245-.83v-1.662z"/>
  <path fill="#e3c8b4" fill-rule="evenodd" d="M19.777 21.092l1.246-1.66 2.077-.417h5.4l.415 7.062 1.247 2.492 2.076.83 1.247-1.662h14.953V17.354l2.908-.83.415-.832h.832v1.662h1.662v-2.492h2.077v2.492h2.078v-2.492h2.077v2.492h2.077v-2.492h2.076v2.492h2.077v-2.492h2.077v2.492h1.662l.415-2.908h3.738v.83h4.57v-1.245l16.2-.415 1.245-.83v-1.662m-76.846 9.97l-1.662-.83-.415-1.248.83-3.738 1.662-1.246H28.5l.415 2.493 2.077.83.416 8.724H44.7l1.33-1.412.332-11.05.83-1.246 1.662-1.247h47.77"/>
  <path fill="#266414" fill-rule="evenodd" d="M33.485 11.538V24H43.87V11.538z"/>
  <path fill="none" stroke="#5b5149" stroke-width="0.33230785" d="M19.777 21.092l.83.83h2.078l.83-.83.83-2.077"/>
  <path fill="none" stroke="#000" stroke-width="0.33230785" d="M91.638 5.308V3.23h-.83V5.31" stroke-linejoin="bevel"/>
  <path fill="#4a4542" fill-rule="evenodd" d="M96.623 6.554l-.83-1.246H70.868l-1.247-.83H51.346l-2.492-.832L47.608 2.4h-27l-1.662 1.246h-1.66l-1.663.416-.83.83v1.662m81.83 0h-81.83"/>
  <path fill="none" stroke="#4a4542" stroke-width="0.41538447" d="M89.562 11.123v-4.57m-2.077 4.57v-4.57m-2.077 4.57v-4.57m-2.077 4.57v-4.57m-2.076 4.57v-4.57"/>
  <path fill="#b7b7b7" fill-rule="evenodd" d="M34.315 12.37v10.8h8.723v-10.8z" opacity="0.2"/>
</svg>