<?xml version="1.0" encoding="UTF-8" standalone="no"?>
<svg id="svg2" xmlns:rdf="http://www.w3.org/1999/02/22-rdf-syntax-ns#" xmlns="http://www.w3.org/2000/svg" height="93.315" width="65.2" version="1.1" xmlns:cc="http://creativecommons.org/ns#" xmlns:dc="http://purl.org/dc/elements/1.1/">
 <path id="path88" fill="#8db5e7" d="m20.2 92.05q-2.5 1.4-4.85 1.25-2.65-0.8-2.1-3.35 5.85-6.55 2.05-15.35 5.8-2.65 11.45 0 0.1 13.8-6.55 17.45m27.8-24.05q10.35 9.1 8.7 16.45-0.65 2.85-2.4 4.55-2.2 1.3-3.75-0.35-0.9-9.05-10.15-12.1 1.9-6.1 7.6-8.55"/>
 <path id="path90" fill="#8db5e7" d="m19.4 14.4q5.6-5.6 13.15-6.2v-0.1h0.05l1 0.05 0.95-0.05v0.35q6.4 1.1 11.25 5.95 6.3 6.3 6.3 15.2v40.4q0 5.45-6.3 9.3-4.85 2.95-11.25 3.65v0.15h-2v-0.05q-7.55-0.4-13.15-3.75-6.3-3.85-6.3-9.3v-40.4q0-8.9 6.3-15.2"/>
 <path id="path92" fill="#8db5e7" d="m60.45 62.35q0.55-0.95 1.5-1.25 1-0.25 1.9 0.25 0.9 0.55 1.2 1.5 0.25 0.95-0.25 1.9-6 11-18.6 9.1l-0.3-0.05 4.6-8q5.95 3.7 9.95-3.45m-54.75 20.1q-1.05 0-1.8-0.7-0.7-0.7-0.75-1.75-0.3-12.55 11.55-17.2l0.3-0.1v9.2q-7-0.2-6.85 8 0 1.05-0.7 1.8t-1.75 0.75"/>
 <path id="path94" fill="#4f719d" d="m40.3 38.25q0 1.05-0.75 1.75-0.7 0.75-1.7 0.75-1.1 0-1.85-0.75-0.7-0.7-0.7-1.75t0.7-1.75q0.75-0.8 1.85-0.8 1 0 1.7 0.8 0.75 0.7 0.75 1.75m-8.3 2.5q0.8 0.75 0.8 1.75 0 1.1-0.8 1.75-0.65 0.8-1.75 0.8-1 0-1.8-0.8-0.7-0.65-0.7-1.75 0-1 0.7-1.75 0.8-0.75 1.8-0.75 1.1 0 1.75 0.75m5.6 8.35q1.05 0 1.75 0.7 0.75 0.75 0.75 1.8t-0.75 1.75q-0.7 0.75-1.75 0.75t-1.8-0.75q-0.7-0.7-0.7-1.75t0.7-1.8q0.75-0.7 1.8-0.7m9.45-8.35q0.8 0.75 0.8 1.75 0 1.1-0.8 1.75-0.75 0.8-1.7 0.8-1.1 0-1.85-0.8-0.75-0.65-0.75-1.75 0-1 0.75-1.75t1.85-0.75q0.95 0 1.7 0.75"/>
 <path id="path96" fill-opacity=".2" fill="#fff" d="m13.15 13.1q8.05-8.1 19.45-8.1t19.55 8.1q8.05 8.05 8.05 19.45 0 11.45-8.05 19.55-8.15 8.05-19.55 8.05t-19.45-8.05q-8.15-8.1-8.15-19.55 0-11.4 8.15-19.45m24.25 2.45q-2.8 2.75-2.8 6.65t2.8 6.65q2.75 2.75 6.65 2.75t6.65-2.75 2.75-6.65-2.75-6.65q-2.75-2.8-6.65-2.8t-6.65 2.8"/>
 <path id="path98" fill-opacity=".30196" fill="#fff" d="m37.4 15.55q2.75-2.8 6.65-2.8t6.65 2.8q2.75 2.75 2.75 6.65t-2.75 6.65-6.65 2.75-6.65-2.75q-2.8-2.75-2.8-6.65t2.8-6.65"/>
 <path id="path100" fill="#fff" d="m13.15 13.1q-8.15 8.05-8.15 19.45 0 11.45 8.15 19.55 8.05 8.05 19.45 8.05t19.55-8.05q8.05-8.1 8.05-19.55 0-11.4-8.05-19.45-8.15-8.1-19.55-8.1t-19.45 8.1m-3.55-3.55q9.5-9.55 23-9.55t23.1 9.55q9.5 9.5 9.5 23 0 13.55-9.5 23.1-9.6 9.5-23.1 9.5t-23-9.5q-9.6-9.55-9.6-23.1 0-13.5 9.6-23"/>
 <path id="path224" fill-opacity=".50196" fill="#a3c3eb" d="m18.45 64.55q1.2 0 2.05 0.85t0.85 2.05-0.85 2.05-2.05 0.85-2.05-0.85-0.85-2.05 0.85-2.05 2.05-0.85m4.9 9.6q0 0.85-0.6 1.45t-1.45 0.6-1.45-0.6-0.6-1.45 0.6-1.45 1.45-0.6 1.45 0.6 0.6 1.45m6.8-2.85q1.65 0 2.8 1.15t1.15 2.8-1.15 2.8-2.8 1.15-2.8-1.15-1.15-2.8 1.15-2.8 2.8-1.15"/>
</svg>
