<?xml version="1.0" encoding="UTF-8" standalone="no"?>
<svg id="svg2" xmlns:rdf="http://www.w3.org/1999/02/22-rdf-syntax-ns#" xmlns="http://www.w3.org/2000/svg" height="92.8" width="66.956" version="1.1" xmlns:cc="http://creativecommons.org/ns#" xmlns:dc="http://purl.org/dc/elements/1.1/">
 <path id="path758" fill="#6fc4a9" d="m40.806 81.95q0.6-6.4 5.7-9.9 12 6.8 11.9 14.35-0.05 2.9-1.4 4.85l-3.95 0.1q-2.7-8.3-12.25-9.4"/>
 <path id="path760" fill="#6fc4a9" d="m12.656 89.45q7.4-5.35 5.45-14.8 6.2-1.4 11.2 2.25-2.7 13.5-9.9 15.75l-5.15 0.15q-2.2-1.2-1.6-3.35"/>
 <path id="path762" fill="#6fc4a9" d="m49.756 52.85h0.3q12.65 1.45 15.6 13.65 0.25 1.05-0.3 1.85-0.5 0.9-1.55 1.2-1 0.25-1.85-0.3-0.9-0.55-1.15-1.55-2-7.95-8.7-5.95l-2.35-8.9m-33.8 0-2.35 8.9q-6.7-2-8.7 5.95-0.25 1-1.1 1.55-0.9 0.55-1.9 0.3-1-0.3-1.55-1.2-0.55-0.8-0.25-1.9 2.9499-12.15 15.6-13.6h0.25"/>
 <path id="path764" fill="#6fc4a9" d="m49.556 14.4q6.3 6.3 6.3 15.2v40.4q0 5.45-6.3 9.3-6.3 3.8-15.2 3.8t-15.2-3.8q-6.3-3.85-6.3-9.3v-40.4q0-8.9 6.3-15.2t15.2-6.3 15.2 6.3"/>
 <path id="path766" fill="#347e67" d="m53.206 41.05q0 2-1.5 3.4-1.45 1.5-3.45 1.5-2.1 0-3.6-1.5-1.4-1.4-1.4-3.4t1.4-3.5q1.5-1.45 3.6-1.45 2 0 3.45 1.45 1.5 1.5 1.5 3.5m-13.85 10.55q2.2 0 3.8-1.2 0.9-0.75 1.3-1.65l0.5-0.55q0.4-0.2 0.8 0l0.6 0.5v0.8q-0.6 1.35-1.95 2.45-2.1 1.65-5.05 1.65-3 0-5.1-1.65-1.5-1.1-1.9-2.55-0.1-0.4 0.1-0.75 0.15-0.4 0.55-0.5l0.85 0.1 0.45 0.55q0.3 0.9 1.2 1.6 1.55 1.2 3.85 1.2m-8.8-15.5q2 0 3.45 1.45 1.5 1.5 1.5 3.5t-1.5 3.4q-1.45 1.5-3.45 1.5-2.1 0-3.6-1.5-1.4-1.4-1.4-3.4t1.4-3.5q1.5-1.45 3.6-1.45"/>
 <path id="path768" fill-opacity=".50196" fill="#8bcfba" d="m46.706 65.25q0.85-0.85 2.05-0.85t2.05 0.85 0.85 2.05-0.85 2.05-2.05 0.85-2.05-0.85-0.85-2.05 0.85-2.05m-9.65 13.8q-1.65 0-2.8-1.15t-1.15-2.8 1.15-2.8 2.8-1.15 2.8 1.15 1.15 2.8-1.15 2.8-2.8 1.15m6.8-5.05q0-0.85 0.6-1.45t1.45-0.6 1.45 0.6 0.6 1.45-0.6 1.45-1.45 0.6-1.45-0.6-0.6-1.45"/>
 <path id="path770" fill-opacity=".2" fill="#fff" d="m52.456 15.55q-2.75-2.8-6.65-2.8t-6.65 2.8q-2.8 2.75-2.8 6.65t2.8 6.65q2.75 2.75 6.65 2.75t6.65-2.75 2.75-6.65-2.75-6.65m1.45 36.55q-8.15 8.05-19.55 8.05t-19.45-8.05q-8.1501-8.1-8.1501-19.55 0-11.4 8.15-19.45 8.05-8.1 19.45-8.1t19.55 8.1q8.05 8.05 8.05 19.45 0 11.45-8.05 19.55"/>
 <path id="path772" fill-opacity=".30196" fill="#fff" d="m52.456 15.55q2.75 2.75 2.75 6.65t-2.75 6.65-6.65 2.75-6.65-2.75q-2.8-2.75-2.8-6.65t2.8-6.65q2.75-2.8 6.65-2.8t6.65 2.8"/>
 <path id="path774" fill="#fff" d="m66.956 32.55q0 13.55-9.5 23.1-9.6 9.5-23.1 9.5t-23-9.5q-9.6-9.55-9.6-23.1 0-13.5 9.6-23 9.5-9.55 23-9.55t23.1 9.55q9.5 9.5 9.5 23m-13.05 19.55q8.05-8.1 8.05-19.55 0-11.4-8.05-19.45-8.15-8.1-19.55-8.1t-19.45 8.1q-8.15 8.05-8.15 19.45 0 11.45 8.15 19.55 8.05 8.05 19.45 8.05t19.55-8.05"/>
</svg>
