<?xml version="1.0" encoding="UTF-8" standalone="no"?>
<svg id="svg2" xmlns:rdf="http://www.w3.org/1999/02/22-rdf-syntax-ns#" xmlns="http://www.w3.org/2000/svg" height="67.1" width="68.057" version="1.1" xmlns:cc="http://creativecommons.org/ns#" xmlns:dc="http://purl.org/dc/elements/1.1/">
 <g id="g5458" transform="translate(-280.89 -168.37)">
  <path id="path404" d="m322.45 212.47q1.85-2.15 4.55-2.1 2.8-0.05 4.55 2.1 1.8 2 1.5 4.7l-1.35 18.3h-8.35l-2.2-18.3q-0.2-2.7 1.3-4.7m-29.4 0q2.3-2.15 5.15-2.1 2.65-0.05 3.95 2.1 1 2 0.05 4.7l-7.05 18.3h-8.35l3.5-18.3q0.45-2.7 2.75-4.7" fill="#fc0"/>
  <path id="path406" d="m290.6 214.02 4.6-17.1q2.3-8.6 10-13.1 7.75-4.45 16.35-2.15t13 10.05q4.5 7.7 2.2 16.3l-4.6 17.1q-1.4 5.3-8.5 7.4-7.05 2-15.65-0.3t-13.7-7.6-3.7-10.6" fill="#fc0"/>
  <path id="path408" d="m294.5 211.92q-6.7-2-8.65 5.95-0.25 1-1.15 1.55l-1.9 0.25q-1-0.25-1.55-1.1-0.5-0.9-0.3-1.9 2.95-12.15 15.65-13.6l0.3-0.05-2.4 8.9m37.45 9.4 2.4-8.9 0.3 0.15q10.2 7.6 6.65 19.6-0.3 1-1.15 1.5l-1.9 0.2q-1-0.25-1.5-1.15-0.45-0.95-0.2-1.95 2.25-7.85-4.6-9.45" fill="#fc0"/>
  <path id="path410" d="m305.55 205.72 9.75 1.6-0.1 0.4q-0.3 2-2.05 3.15-1.65 1.25-3.65 0.9-2.05-0.35-3.3-2.1-1.1-1.55-0.8-3.55l0.15-0.4m17.3 3.3 0.15-0.4 9.75 1.65-0.1 0.4q-0.3 2-2.05 3.1-1.65 1.25-3.65 0.9-2.05-0.3-3.3-2.05-1.1-1.6-0.8-3.6" fill="#ad8a00"/>
  <path id="path412" d="m319.75 217.87q0.5 0.9 0.25 1.9-0.3 1.05-1.2 1.5-0.85 0.55-1.85 0.3-1.05-0.3-1.6-1.2-0.5-0.85-0.2-1.9 0.25-1 1.15-1.5l1.9-0.25q1 0.25 1.55 1.15" fill="#ad8a00"/>
  <path id="path414" d="m293.35 177.92q9.5-9.55 23-9.55t23.1 9.55q9.5 9.5 9.5 23 0 13.55-9.5 23.1-9.6 9.5-23.1 9.5t-23-9.5q-9.6-9.55-9.6-23.1 0-13.5 9.6-23m3.55 42.55q8.05 8.05 19.45 8.05t19.55-8.05q8.05-8.1 8.05-19.55 0-11.4-8.05-19.45-8.15-8.1-19.55-8.1t-19.45 8.1q-8.15 8.05-8.15 19.45 0 11.45 8.15 19.55" fill="#fff"/>
  <path id="path416" d="m296.9 220.47q-8.15-8.1-8.15-19.55 0-11.4 8.15-19.45 8.05-8.1 19.45-8.1t19.55 8.1q8.05 8.05 8.05 19.45 0 11.45-8.05 19.55-8.15 8.05-19.55 8.05t-19.45-8.05m24.25-36.55q-2.8 2.75-2.8 6.65t2.8 6.65q2.75 2.75 6.65 2.75t6.65-2.75 2.75-6.65-2.75-6.65q-2.75-2.8-6.65-2.8t-6.65 2.8" fill="#fff" fill-opacity=".2"/>
  <path id="path418" d="m321.15 183.92q2.75-2.8 6.65-2.8t6.65 2.8q2.75 2.75 2.75 6.65t-2.75 6.65-6.65 2.75-6.65-2.75q-2.8-2.75-2.8-6.65t2.8-6.65" fill="#fff" fill-opacity=".30196"/>
 </g>
</svg>
