<?xml version="1.0" encoding="UTF-8" standalone="no"?>
<svg id="svg2" xmlns:rdf="http://www.w3.org/1999/02/22-rdf-syntax-ns#" xmlns="http://www.w3.org/2000/svg" height="84" width="81" version="1.1" xmlns:cc="http://creativecommons.org/ns#" xmlns:dc="http://purl.org/dc/elements/1.1/">
 <path id="path1908" d="m12.1 19.4q-1.25 0-1.25 1.2v6.7q0 1.3 1.25 1.3h6.65q1.3 0 1.3-1.3v-6.7q0-1.2-1.3-1.2h-6.65m12.65-17.4h7.45v7.6h-12.95q-0.65 0-1.2 0.5-0.55 0.4-0.7 1.1-0.2 0.6 0.05 1.2l2.75 6.8q0.25 0.5 0.75 0.8 0.5 0.4 1.1 0.4h6.35v12.8l-9.15 8.1q-0.35 0.3-0.5 0.7l-0.2 0.8v14.1l0.15 0.8 5.55 13.3-18.35-12.7v-41.4l11.7-9.3 1.75-1.4 5.45-4.2m-4.7 30.2q0-1.2-1.3-1.2h-6.65q-1.25 0-1.25 1.2v6.7q0 1.3 1.25 1.3h6.65q1.3 0 1.3-1.3v-6.7m28.75-22.6v-7.6h7.45l5.45 4.2 1.75 1.4 11.7 9.3v41.4l-18.35 12.7 5.55-13.3 0.15-0.8v-14.1l-0.15-0.8-0.5-0.7-9.2-8.1v-12.8h6.35l1.1-0.4 0.75-0.8 2.75-6.8q0.25-0.6 0.1-1.2-0.2-0.7-0.75-1.1-0.55-0.5-1.15-0.5h-13m12.15 11v6.7q0 1.3 1.3 1.3h6.65q1.25 0 1.25-1.3v-6.7q0-1.2-1.25-1.2h-6.65q-1.3 0-1.3 1.2m7.95 10.4h-6.65q-1.3 0-1.3 1.2v6.7q0 1.3 1.3 1.3h6.65q1.25 0 1.25-1.3v-6.7q0-1.2-1.25-1.2" fill="#7c9865"/>
 <path id="path1910" d="m68.9 31q1.25 0 1.25 1.2v6.7q0 1.3-1.25 1.3h-6.65q-1.3 0-1.3-1.3v-6.7q0-1.2 1.3-1.2h6.65m-56.8-11.6h6.65q1.3 0 1.3 1.2v6.7q0 1.3-1.3 1.3h-6.65q-1.25 0-1.25-1.3v-6.7q0-1.2 1.25-1.2m7.95 12.8v6.7q0 1.3-1.3 1.3h-6.65q-1.25 0-1.25-1.3v-6.7q0-1.2 1.25-1.2h6.65q1.3 0 1.3 1.2m40.9-11.6q0-1.2 1.3-1.2h6.65q1.25 0 1.25 1.2v6.7q0 1.3-1.25 1.3h-6.65q-1.3 0-1.3-1.3v-6.7" fill="#65804f"/>
 <path id="path1912" d="m27 77.6-26-15.1-0.75-0.7-0.25-1v-46.8q0-0.6 0.25-1l0.75-0.7 20.85-11.9q0.45-0.4 1-0.4h4.2l-2.5 2h-1.7l-20.85 12v46.8l23.7 13.8 1.3 3m9.6-68h7.8v2h-7.8v-2m17.35-9.6h4.2q0.55 0 1 0.4l20.85 11.9 0.75 0.7 0.25 1v46.8l-0.25 1-0.75 0.7-25.95 15.1 1.3-3 23.65-13.8v-46.8l-20.85-12h-1.7l-2.5-2" fill="#c4c4c4"/>
 <path id="path1914" d="m25.7 74.6-23.7-13.8v-46.8l20.85-12h1.7 0.2l-5.45 4.2-1.75 1.4-11.7 9.3v41.4l18.35 12.7 1.5 3.6m18.7-63v36.3l4.75 8.1h-17.3l4.75-8.1v-36.3h7.8m11.85-9.6h0.2 1.7l20.85 12v46.8l-23.65 13.8 1.45-3.6 18.35-12.7v-41.4l-11.7-9.3-1.75-1.4-5.45-4.2" fill="#eee"/>
 <path id="path1916" d="m56.25 2h-7.45v7.6h-2v-7.6q0-0.8 0.6-1.4 0.55-0.6 1.4-0.6h5.15l2.5 2h-0.2m-29.2-2h5.15q0.85 0 1.4 0.6 0.6 0.6 0.6 1.4v7.6h-2v-7.6h-7.45-0.2l2.5-2" fill="#485d36"/>
 <path id="path1918" d="m44.4 11.6h17.35l-2.75 6.8h-8.35v15.6l9.85 8.8v14.1l-10.5 25.1h-19l-10.5-25.1v-14.1l9.85-8.8v-15.6h-8.35l-2.75-6.8h17.35v36.3l-4.75 8.1h-2.4v1.8 1.8l11.05 4.2 11.05-4.2v-1.8-1.8h-2.4l-4.75-8.1v-36.3" fill="#dbdbdb"/>
 <path id="path1920" d="m44.4 11.6v-2h2.4 2 13q0.6 0 1.15 0.5 0.55 0.4 0.75 1.1 0.15 0.6-0.1 1.2l-2.75 6.8-0.75 0.8-1.1 0.4h-6.35v12.8l9.2 8.1 0.5 0.7 0.15 0.8v14.1l-0.15 0.8-5.55 13.3-1.45 3.6-1.3 3-2.2 5.2-0.75 0.9-1.1 0.3h-19q-0.6 0-1.1-0.3l-0.75-0.9-2.15-5.2-1.3-3-1.5-3.6-5.55-13.3-0.15-0.8v-14.1l0.2-0.8q0.15-0.4 0.5-0.7l9.15-8.1v-12.8h-6.35q-0.6 0-1.1-0.4-0.5-0.3-0.75-0.8l-2.75-6.8q-0.25-0.6-0.05-1.2 0.15-0.7 0.7-1.1 0.55-0.5 1.2-0.5h12.95 2 2.4v2h-17.35l2.75 6.8h8.35v15.6l-9.85 8.8v14.1l10.5 25.1h19l10.5-25.1v-14.1l-9.85-8.8v-15.6h8.35l2.75-6.8h-17.35" fill="#a1a1a1"/>
 <path id="path1922" d="m49.15 56h2.4v1.8l-11.05 4.2-11.05-4.2v-1.8h2.4 17.3" fill="#4a3c55"/>
 <path id="path1924" d="m51.55 57.8v1.8l-11.05 4.2-11.05-4.2v-1.8l11.05 4.2 11.05-4.2" fill="#544763"/>
</svg>
