<?xml version="1.0" encoding="UTF-8" standalone="no"?>
<svg id="svg2" xmlns:rdf="http://www.w3.org/1999/02/22-rdf-syntax-ns#" xmlns="http://www.w3.org/2000/svg" height="83.95" width="96.764" version="1.1" xmlns:cc="http://creativecommons.org/ns#" xmlns:dc="http://purl.org/dc/elements/1.1/">
 <path id="path1978" d="m25.364 73.95h-3.3q-0.65 0-1.2-0.4t-0.75-1l-20.05-70q-0.15-0.6 0.05-1.2 0.25-0.6 0.75-0.95 0.5003-0.4 1.1503-0.4h14.55q0.6 0 1.1 0.35l17.35 11.45 0.55 0.55 0.3 0.75 0.55 3.1-0.3 0.1-1.9-0.9-0.3-1.95-17.35-11.45h-14.55l20.05 69.95h2.7 0.15l0.45 2m18.1-59.6 4.45-1.15q0.5-0.15 1 0l4.45 1.15v2.05l-4.95-1.3-4.95 1.3v-2.05m16.95 1.85 0.55-3.1 0.3-0.75q0.2-0.35 0.55-0.55l17.35-11.45q0.5-0.35 1.1-0.35h14.55q0.65 0 1.15 0.4l0.75 0.95 0.05 1.2-20.05 70-0.75 1q-0.55 0.4-1.2 0.4h-3.3l0.45-2h0.15 2.7l20.05-69.95h-14.55l-17.35 11.45-0.3 1.95-1.85 0.9-0.35-0.1" fill="#c4c4c4"/>
 <path id="path1980" d="m60.414 16.2 0.35 0.1 1.85-0.9-0.05 0.25-0.15 1.05 4.95 1.3 0.5 0.2 0.6 0.5q0.4 0.5 0.4 1.2v21.4q0 0.75-0.5 1.35l-0.35 0.4-7.65 8.35v7.85l0.35 2.4 2.55 4.1 2.3 3.7 0.3 1.1v1.4h6.05l-0.45 2h-5.6v3.2q0 0.8-0.6 1.4l-5 4.9q-0.6 0.5-1.4 0.5h-20.9q-0.8 0-1.4-0.5l-5-4.9q-0.6-0.6-0.6-1.4v-3.2h-5.6l-0.45-2h6.05v-1.4q0-0.6 0.3-1.1l2.35-3.7 2.55-4.1 0.3-2.3v-7.95l-7.65-8.45-0.25-0.3q-0.55-0.6-0.55-1.35v-21.4q0-0.7 0.45-1.2l0.55-0.5 0.5-0.2 4.95-1.3-0.2-1.05-0.05-0.25 1.9 0.9 0.3-0.1 7.05-1.85v2.05l-13.45 3.5v21.4l8.45 9.3v11.15l-5.5 8.8v6.6l5 4.8h20.9l5-4.8v-6.6l-5.5-8.8v-11.15l8.5-9.3v-21.4l-13.5-3.5v-2.05l7.05 1.85" fill="#a1a1a1"/>
 <path id="path1982" d="m53.364 16.4 13.5 3.5v21.4l-8.5 9.3v11.15l5.5 8.8v6.6l-5 4.8h-20.9l-5-4.8v-6.6l5.5-8.8v-11.15l-8.45-9.3v-21.4l13.45-3.5v43.85 1.5q0 1.4-0.75 2.6l-3.8 6-0.95 1.6 10.45 5q5.25-2.4 10.45-5l-0.95-1.6-3.75-6q-0.8-1.2-0.8-2.6v-1.5-43.85" fill="#dbdbdb"/>
 <path id="path1984" d="m24.914 71.95h-0.15l-2.9-13.1-8.85-39.45 7.25-10.55 14 6.8 0.2 1.05-4.95 1.3-0.5 0.2-0.55 0.5q-0.45 0.5-0.45 1.2v21.4q0 0.75 0.55 1.35l0.25 0.3 2.05 21.6 2.75 1.2-2.35 3.7q-0.3 0.5-0.3 1.1v1.4h-6.05m43.1-28.9 0.35-0.4q0.5-0.6 0.5-1.35v-21.4q0-0.7-0.4-1.2l-0.6-0.5-0.5-0.2-4.95-1.3 0.15-1.05 14-6.8 7.25 10.55-8.85 39.45-2.9 13.1h-0.15-6.05v-1.4l-0.3-1.1-2.3-3.7 2.7-1.2 2.05-21.5" fill="#3e88a1"/>
 <path id="path1986" d="m24.764 71.95h-2.7l-20.05-69.95h14.55l17.35 11.45 0.3 1.95 0.05 0.25-14-6.8-7.25 10.55 8.85 39.45 2.9 13.1m37.8-56.3 0.05-0.25 0.3-1.95 17.35-11.45h14.55l-20.05 69.95h-2.7l2.9-13.1 8.85-39.45-7.25-10.55-14 6.8m-19.1 0.75 4.95-1.3 4.95 1.3v43.85h-9.9v-43.85" fill="#eee"/>
 <path id="path1988" d="m68.014 43.05-2.05 21.5-2.7 1.2-2.55-4.1-0.35-2.4v-7.85l7.65-8.35m-39.2-0.1 7.65 8.45v7.95l-0.3 2.3-2.55 4.1-2.75-1.2-2.05-21.6" fill="#337287"/>
 <path id="path1990" d="m43.464 60.25h9.9v1.5q0 1.4 0.8 2.6l3.75 6-9.5 4.6-9.5-4.6 3.8-6q0.75-1.2 0.75-2.6v-1.5" fill="#4a3c55"/>
 <path id="path1992" d="m57.914 70.35 0.95 1.6q-5.2 2.6-10.45 5l-10.45-5 0.95-1.6 9.5 4.6 9.5-4.6" fill="#544763"/>
</svg>
