<?xml version="1.0" encoding="UTF-8" standalone="no"?>
<svg id="svg2" xmlns:rdf="http://www.w3.org/1999/02/22-rdf-syntax-ns#" xmlns="http://www.w3.org/2000/svg" height="84" width="96.764" version="1.1" xmlns:cc="http://creativecommons.org/ns#" xmlns:dc="http://purl.org/dc/elements/1.1/">
 <path id="path1806" d="m43.464 14.35 4.45-1.15q0.5-0.15 1 0l4.45 1.15v2.05l-4.95-1.3-4.95 1.3v-2.05m16.95 1.85 0.55-3.1 0.3-0.75q0.2-0.35 0.55-0.55l17.35-11.45q0.5-0.35 1.1-0.35h14.55q0.65 0 1.15 0.4l0.75 0.95 0.05 1.2-20.05 70-0.75 1.05q-0.55 0.4-1.2 0.4h-3.3l0.45-2h0.15 2.7l20.05-70h-14.55l-17.35 11.45-0.3 1.95-1.85 0.9-0.35-0.1m-35.05 57.8h-3.3q-0.65 0-1.2-0.4t-0.75-1.05l-20.05-70q-0.15-0.6 0.05-1.2 0.25-0.6 0.75-0.95 0.5003-0.4 1.1503-0.4h14.55q0.6 0 1.1 0.35l17.35 11.45 0.55 0.55 0.3 0.75 0.55 3.1-0.3 0.1-1.9-0.9-0.3-1.95-17.35-11.45h-14.55l20.05 70h2.7 0.15l0.45 2" fill="#c4c4c4"/>
 <path id="path1808" d="m43.464 16.4 4.95-1.3 4.95 1.3v43.85h-9.9v-43.85m-18.7 55.6h-2.7l-20.05-70h14.55l17.35 11.45 0.3 1.95 0.05 0.25-14-6.8-7.25 10.55 8.85 39.45 2.9 13.15m37.8-56.35 0.05-0.25 0.3-1.95 17.35-11.45h14.55l-20.05 70h-2.7l2.9-13.15 8.85-39.45-7.25-10.55-14 6.8" fill="#eee"/>
 <path id="path1810" d="m62.564 15.65-0.15 1.05 4.95 1.3 0.5 0.2 0.6 0.5q0.4 0.5 0.4 1.2v21.4q0 0.75-0.5 1.35l-0.35 0.4-7.65 8.35v7.85l0.35 2.4 2.55 4.1 2.3 3.7 0.3 1.05v1.5h6.05l-0.45 2h-5.6v3.15q0 0.85-0.6 1.45l-5 4.85q-0.6 0.55-1.4 0.55h-20.9q-0.8 0-1.4-0.55l-5-4.85q-0.6-0.6-0.6-1.45v-3.15h-5.6l-0.45-2h6.05v-1.5q0-0.6 0.3-1.05l2.35-3.7 2.55-4.1 0.3-2.35v-7.9l-7.65-8.45-0.25-0.3q-0.55-0.6-0.55-1.35v-21.4q0-0.7 0.45-1.2l0.55-0.5 0.5-0.2 4.95-1.3-0.2-1.05-0.05-0.25 1.9 0.9 0.3-0.1 7.05-1.85v2.05l-13.45 3.5v21.4l8.45 9.3v11.15l-5.5 8.75v6.65l5 4.85h20.9l5-4.85v-6.65l-5.5-8.75v-11.15l8.5-9.3v-21.4l-13.5-3.5v-2.05l7.05 1.85 0.35 0.1 1.85-0.9-0.05 0.25" fill="#a1a1a1"/>
 <path id="path1812" d="m53.364 16.4 13.5 3.5v21.4l-8.5 9.3v11.15l5.5 8.75v6.65l-5 4.85h-20.9l-5-4.85v-6.65l5.5-8.75v-11.15l-8.45-9.3v-21.4l13.45-3.5v43.85 1.5q0 1.45-0.75 2.65l-3.8 6-0.95 1.55 10.45 5.05q5.25-2.5 10.45-5.05l-0.95-1.55-3.75-6q-0.8-1.2-0.8-2.65v-1.5-43.85" fill="#dbdbdb"/>
 <path id="path1814" d="m34.264 15.65 0.2 1.05-4.95 1.3-0.5 0.2-0.55 0.5q-0.45 0.5-0.45 1.2v21.4q0 0.75 0.55 1.35l0.25 0.3 2.05 21.55 2.75 1.25-2.35 3.7q-0.3 0.45-0.3 1.05v1.5h-6.05-0.15l-2.9-13.15-8.85-39.45 7.25-10.55 14 6.8m33.75 27.4 0.35-0.4q0.5-0.6 0.5-1.35v-21.4q0-0.7-0.4-1.2l-0.6-0.5-0.5-0.2-4.95-1.3 0.15-1.05 14-6.8 7.25 10.55-8.85 39.45-2.9 13.15h-0.15-6.05v-1.5l-0.3-1.05-2.3-3.7 2.7-1.25 2.05-21.45" fill="#bb6c2e"/>
 <path id="path1816" d="m43.464 60.25h9.9v1.5q0 1.45 0.8 2.65l3.75 6-9.5 4.6-9.5-4.6 3.8-6q0.75-1.2 0.75-2.65v-1.5" fill="#4a3c55"/>
 <path id="path1818" d="m33.614 65.75-2.75-1.25-2.05-21.55 7.65 8.45v7.9l-0.3 2.35-2.55 4.1m29.65 0-2.55-4.1-0.35-2.4v-7.85l7.65-8.35-2.05 21.45-2.7 1.25" fill="#a36331"/>
 <path id="path1820" d="m57.914 70.4 0.95 1.55q-5.2 2.55-10.45 5.05l-10.45-5.05 0.95-1.55 9.5 4.6 9.5-4.6" fill="#544763"/>
</svg>
