<?xml version="1.0" encoding="UTF-8" standalone="no"?>
<svg id="svg2" xmlns:rdf="http://www.w3.org/1999/02/22-rdf-syntax-ns#" xmlns="http://www.w3.org/2000/svg" height="83" width="103.8" version="1.1" xmlns:cc="http://creativecommons.org/ns#" xmlns:dc="http://purl.org/dc/elements/1.1/">
 <path id="path2030" d="m36.55 83h-7.15l-1-0.3-0.75-0.7-27.4-48.35-0.25-1v-5.15q0-0.85 0.55-1.4 0.6-0.6 1.45-0.6h15.2l16.5-13.65-0.3 2.9-15.45 12.75h-15.95v5.15l27.4 48.35h3.5 3.3l0.35 2m33.6-71.1 16.45 13.6h15.2q0.85 0 1.45 0.6 0.55 0.55 0.55 1.4v5.15l-0.25 1-27.4 48.35-0.75 0.7-1 0.3h-7.15l0.35-2h3.3 3.5l27.4-48.35v-5.15h-15.95l-15.45-12.8-0.25-2.8" fill="#2b5866"/>
 <path id="path2032" d="m32.9 81h-3.5l-27.4-48.35v-5.15h15.95l14.95 53.5m38 0 14.95-53.5h15.95v5.15l-27.4 48.35h-3.5" fill="#337287"/>
 <path id="path2034" d="m33.4 14.75 0.3-2.9 0.15-1.9q0.05-0.55 0.35-0.95 0.2-0.35 0.55-0.55l0.2-0.1 4-2.05v2.25l-3.1 1.55-2.45 26.25 12.15 28.65h12.7l12.2-28.65-2.5-26.25-3.05-1.55v-2.2l3.95 2 0.75 0.65 0.35 0.9 0.2 2 0.25 2.8 1.4 14.6 0.65 6.85-0.15 1-6.85 16.05-3.5 8.3-1.85 4.3-0.75 0.8-1.1 0.4h-12.7l-1.1-0.4-0.75-0.8-1.8-4.3-3.55-8.3-6.8-16.05-0.15-0.95 0.65-6.95 1.35-14.5" fill="#a1a1a1"/>
 <path id="path2036" d="m64.9 8.55 3.05 1.55 2.5 26.25l-12.2 28.65h-12.7l-12.15-28.65 2.45-26.25 3.1-1.55v18.65h25.95v-18.65m-13 22.1h-12.95l-0.45 4.9 7.35 17.35 0.85 2h10.4l8.25-19.35-0.45-4.9h-13" fill="#dbdbdb"/>
 <path id="path2038" d="m36.55 83-0.35-2h0.1 7.1l-5.05-27.8 3.55 8.3 3.45 19.1q0.15 0.6-0.1 1.2l-0.75 0.8-1.1 0.4h-6.85m2.4-76.7 12.05-6.05 0.9-0.25l0.9 0.25 12.1 6.1v2.2l-13-6.55-12.95 6.55v-2.25m28.3 76.7h-6.85l-1.1-0.4q-0.5-0.3-0.75-0.8-0.25-0.6-0.1-1.2l3.5-19.1 3.5-8.3-5.05 27.8h7.1 0.1l-0.35 2" fill="#c4c4c4"/>
 <path id="path2040" d="m38.95 8.55 12.95-6.55l13 6.55v18.65h-25.95v-18.65m-6.9 20.7-0.65 6.95 0.15 0.95 6.8 16.05 5.05 27.8h-7.1l-8.55-44.9 4.3-6.85m39.75 0.05 4.25 6.8-8.55 44.9h-7.1l5.05-27.8 6.85-16.05 0.15-1-0.65-6.85" fill="#eee"/>
 <path id="path2042" d="m45.85 52.9-7.35-17.35 0.45-4.9h12.95v22.25h-6.05" fill="#4a3c55"/>
 <path id="path2044" d="m45.85 52.9h6.05v-22.25h13l0.45 4.9-8.25 19.35h-10.4l-0.85-2" fill="#544763"/>
 <path id="path2046" d="m36.2 81h-3.3l-14.95-53.5 15.45-12.75-1.35 14.5-4.3 6.85 8.55 44.9h-0.1m31.3 0 8.55-44.9-4.25-6.8-1.4-14.6 15.45 12.8-14.95 53.5h-3.3-0.1" fill="#3e88a1"/>
</svg>
