<?xml version="1.0" encoding="UTF-8" standalone="no"?>
<svg id="svg2" xmlns:rdf="http://www.w3.org/1999/02/22-rdf-syntax-ns#" xmlns="http://www.w3.org/2000/svg" height="84" width="81" version="1.1" xmlns:cc="http://creativecommons.org/ns#" xmlns:dc="http://purl.org/dc/elements/1.1/">
 <path id="path1822" d="m53.95 0h4.2q0.55 0 1 0.3l20.85 11.95 0.75 0.7 0.25 1v46.75l-0.25 1-0.75 0.75-25.95 15.15 1.3-3.05 23.65-13.85v-46.75l-20.85-11.95h-1.7l-2.5-2m-26.95 77.6-26-15.15-0.75-0.75-0.25-1v-46.75q0-0.55 0.25-1l0.75-0.7 20.85-11.95q0.45-0.3 1-0.3h4.2l-2.5 2h-1.7l-20.85 11.95v46.75l23.7 13.85 1.3 3.05m9.6-68h7.8v2h-7.8v-2" fill="#c4c4c4"/>
 <path id="path1824" d="m27.05 0h5.15q0.85 0 1.4 0.6 0.6 0.55 0.6 1.4v7.6h-2v-7.6h-7.45-0.2l2.5-2m19.75 9.6v-7.6q0-0.85 0.6-1.4 0.55-0.6 1.4-0.6h5.15l2.5 2h-0.2-7.45v7.6h-2" fill="#704423"/>
 <path id="path1826" d="m46.8 9.6h2 13q0.6 0 1.15 0.45 0.55 0.4 0.75 1.05 0.15 0.6-0.1 1.25l-2.75 6.75-0.75 0.9-1.1 0.35h-6.35v12.75l9.2 8.15 0.5 0.7 0.15 0.8v14.1l-0.15 0.8-5.55 13.35-1.45 3.55-1.3 3.05-2.2 5.2-0.75 0.85-1.1 0.35h-19q-0.6 0-1.1-0.35l-0.75-0.85-2.15-5.2-1.3-3.05-1.5-3.55-5.55-13.35-0.15-0.8v-14.1l0.2-0.8q0.15-0.4 0.5-0.7l9.15-8.15v-12.75h-6.35q-0.6 0-1.1-0.35t-0.75-0.9l-2.75-6.75q-0.25-0.65-0.05-1.25 0.15-0.65 0.7-1.05 0.55-0.45 1.2-0.45h12.95 2 2.4v2h-17.35l2.75 6.75h8.35v15.65l-9.85 8.75v14.1l10.5 25.15h19l10.5-25.15v-14.1l-9.85-8.75v-15.65h8.35l2.75-6.75h-17.35v-2h2.4" fill="#a1a1a1"/>
 <path id="path1828" d="m48.8 9.6v-7.6h7.45l5.45 4.2 1.75 1.4 11.7 9.25v41.4l-18.35 12.75 5.55-13.35 0.15-0.8v-14.1l-0.15-0.8-0.5-0.7-9.2-8.15v-12.75h6.35l1.1-0.35 0.75-0.9 2.75-6.75q0.25-0.65 0.1-1.25-0.2-0.65-0.75-1.05-0.55-0.45-1.15-0.45h-13m20.1 9.7h-6.65q-1.3 0-1.3 1.3v6.65q0 1.25 1.3 1.25h6.65q1.25 0 1.25-1.25v-6.65q0-1.3-1.25-1.3m-7.95 12.9v6.65q0 1.3 1.3 1.3h6.65q1.25 0 1.25-1.3v-6.65q0-1.3-1.25-1.3h-6.65q-1.3 0-1.3 1.3m-28.75-22.6h-12.95q-0.65 0-1.2 0.45-0.55 0.4-0.7 1.05-0.2 0.6 0.05 1.25l2.75 6.75q0.25 0.55 0.75 0.9t1.1 0.35h6.35v12.75l-9.15 8.15q-0.35 0.3-0.5 0.7l-0.2 0.8v14.1l0.15 0.8 5.55 13.35-18.35-12.75v-41.4l11.7-9.25 1.75-1.4 5.45-4.2h7.45v7.6m-12.15 22.6q0-1.3-1.3-1.3h-6.65q-1.25 0-1.25 1.3v6.65q0 1.3 1.25 1.3h6.65q1.3 0 1.3-1.3v-6.65m0-11.6q0-1.3-1.3-1.3h-6.65q-1.25 0-1.25 1.3v6.65q0 1.25 1.25 1.25h6.65q1.3 0 1.3-1.25v-6.65" fill="#bb6c2e"/>
 <path id="path1830" d="m56.45 2h1.7l20.85 11.95v46.75l-23.65 13.85 1.45-3.55 18.35-12.75v-41.4l-11.7-9.25-1.75-1.4-5.45-4.2h0.2m-19.85 9.6h7.8v36.25l4.75 8.15h-17.3l4.75-8.15v-36.25m-11.85-9.6-5.45 4.2-1.75 1.4-11.7 9.25v41.4l18.35 12.75 1.5 3.55-23.7-13.85v-46.75l20.85-11.95h1.7 0.2" fill="#eee"/>
 <path id="path1832" d="m44.4 11.6h17.35l-2.75 6.75h-8.35v15.65l9.85 8.75v14.1l-10.5 25.15h-19l-10.5-25.15v-14.1l9.85-8.75v-15.65h-8.35l-2.75-6.75h17.35v36.25l-4.75 8.15h-2.4v1.75 1.75l11.05 4.25 11.05-4.25v-1.75-1.75h-2.4l-4.75-8.15v-36.25" fill="#dbdbdb"/>
 <path id="path1834" d="m60.95 32.2q0-1.3 1.3-1.3h6.65q1.25 0 1.25 1.3v6.65q0 1.3-1.25 1.3h-6.65q-1.3 0-1.3-1.3v-6.65m7.95-12.9q1.25 0 1.25 1.3v6.65q0 1.25-1.25 1.25h-6.65q-1.3 0-1.3-1.25v-6.65q0-1.3 1.3-1.3h6.65m-48.85 1.3v6.65q0 1.25-1.3 1.25h-6.65q-1.25 0-1.25-1.25v-6.65q0-1.3 1.25-1.3h6.65q1.3 0 1.3 1.3m0 11.6v6.65q0 1.3-1.3 1.3h-6.65q-1.25 0-1.25-1.3v-6.65q0-1.3 1.25-1.3h6.65q1.3 0 1.3 1.3" fill="#a36331"/>
 <path id="path1836" d="m31.85 56h17.3 2.4v1.75l-11.05 4.25-11.05-4.25v-1.75h2.4" fill="#4a3c55"/>
 <path id="path1838" d="m51.55 57.75v1.75l-11.05 4.25-11.05-4.25v-1.75l11.05 4.25 11.05-4.25" fill="#544763"/>
</svg>
