<?xml version="1.0" encoding="UTF-8" standalone="no"?>
<svg id="svg2" xmlns:rdf="http://www.w3.org/1999/02/22-rdf-syntax-ns#" xmlns="http://www.w3.org/2000/svg" height="82.7" width="100.54" version="1.1" xmlns:cc="http://creativecommons.org/ns#" xmlns:dc="http://purl.org/dc/elements/1.1/">
 <path id="path2300" d="m74.79 0.9 25.45 38.1 0.3 0.95-0.15 1-14.85 32.2-0.9 0.9-1.25 0.25-22.75-3.35-30.85 11.7-1.15 0.05q-0.6-0.15-1-0.6l-27.1-29.65-0.5-0.9q-0.1-0.55 0.05-1.05l16.05-49.1q0.2-0.65 0.75-1 0.5-0.4 1.15-0.4h55.05l0.95 0.25 0.75 0.65m-1.7 1.1h-55.05l-16.05 49.1 27.1 29.65 31.3-11.85 23.3 3.4 14.85-32.2-25.45-38.1" fill="#5c4434"/>
 <path id="path2302" d="m73.09 2 25.45 38.1-14.85 32.2-23.3-3.4-31.3 11.85-27.1-29.65l16.05-49.1h55.05m8.35 31.3-5.7 3.6v-12l-8.95-13.2-13.2 1.05-3.35 3.4-12.25-2.2-10.15 0.75-8.9 32.15 7.55 6.75 8.75-2.2-3.55 6.85 6.75 6 14.8-9.75 25.4 2.55 8-16.1-5.2-7.65m-33.95-6.9-2.75 6.75-7.25 4.25-4-1.5 5.75-9.5h8.25m-2 12 3.5-6 5.5 1v4.25l-5.25 3.25-3.75-2.5" fill="#836049"/>
 <path id="path2304" d="m45.49 38.4 3.75 2.5 5.25-3.25v-4.25l-5.5-1-3.5 6m35.95-5.1 5.2 7.65-8 16.1-25.4-2.55-14.8 9.75-6.75-6 3.55-6.85-8.75 2.2-7.55-6.75 8.9-32.15 10.15-0.75 12.25 2.2 3.35-3.4 13.2-1.05 8.95 13.2v12l5.7-3.6m-33.95-6.9h-8.25l-5.75 9.5 4 1.5 7.25-4.25 2.75-6.75" fill="#997055"/>
</svg>
