<?xml version="1.0" encoding="UTF-8" standalone="no"?>
<svg height="297.35mm" xmlns="http://www.w3.org/2000/svg" version="1.1" width="449.84mm" viewBox="0 0 1593.916 1053.608"><defs><marker id="b" orient="auto" refX="0" refY="0" overflow="visible"><path transform="matrix(-.8 0 0 -.8 -10 0)" stroke-width="1pt" d="m0 0 5-5-17.5 5 17.5 5-5-5z" stroke="#000" fill-rule="evenodd"/></marker><marker id="c" orient="auto" refX="0" refY="0" overflow="visible"><path d="m0 0 5-5-17.5 5 17.5 5-5-5z" stroke-width="1pt" stroke="#000" fill-rule="evenodd" transform="matrix(-.8 0 0 -.8 -10 0)"/></marker><marker id="a" orient="auto" refX="0" refY="0" overflow="visible"><path transform="matrix(-.8 0 0 -.8 -10 0)" stroke-width="1pt" d="m0 0 5-5-17.5 5 17.5 5-5-5z" stroke="#000" fill-rule="evenodd"/></marker><marker id="d" orient="auto" refX="0" refY="0" overflow="visible"><path transform="matrix(-.8 0 0 -.8 -10 0)" stroke-width="1pt" d="m0 0 5-5-17.5 5 17.5 5-5-5z" stroke="#000" fill-rule="evenodd"/></marker><marker id="e" orient="auto" refX="0" refY="0" overflow="visible"><path d="m0 0 5-5-17.5 5 17.5 5-5-5z" stroke-width="1pt" stroke="#000" fill-rule="evenodd" transform="matrix(-.8 0 0 -.8 -10 0)"/></marker><marker id="f" orient="auto" refX="0" refY="0" overflow="visible"><path transform="matrix(-.8 0 0 -.8 -10 0)" stroke-width="1pt" d="m0 0 5-5-17.5 5 17.5 5-5-5z" stroke="#000" fill-rule="evenodd"/></marker></defs><g transform="translate(371.91 94.437)"><ellipse cy="175.99" stroke-linecap="round" rx="149.58" ry="149.58" stroke-width=".83102" fill="#e91e63" stroke="#000" cx="472.79"/><ellipse cy="705.94" stroke-linecap="round" rx="149.58" ry="149.58" stroke-width=".83102" fill="#673ab7" stroke="#000" cx="824.46"/><ellipse cy="704.82" stroke-linecap="round" rx="149.58" ry="149.58" stroke-width=".83102" fill="#4773cd" stroke="#000" cx="127.32"/><path d="m555.67 302.08 185.91 279.33" stroke-width="1px" fill="none" stroke="#000" marker-end="url(#f)"/><path d="m674.88 705.7-397.97-.64" stroke-width="1px" fill="none" stroke="#000" marker-end="url(#e)"/><path d="m209.3 579.7 181.52-277.03" stroke-width="1px" fill="none" stroke="#000" marker-end="url(#d)"/><text style="word-spacing:0px;letter-spacing:0px" x="656.21027" y="438.85815" font-size="40px" fill="#000000" font-family="sans-serif" line-height="125%" xml:space="preserve"><tspan y="438.85815" x="656.21027">SCORES</tspan></text><text style="word-spacing:0px;letter-spacing:0px" x="115.58526" y="434.17065" font-size="40px" fill="#000000" font-family="sans-serif" line-height="125%" xml:space="preserve"><tspan y="434.17065" x="115.58526">WARMUP</tspan></text><text style="word-spacing:0px;letter-spacing:0px" x="21.83526" y="674.79572" font-size="40px" fill="#000000" font-family="sans-serif" line-height="125%" xml:space="preserve"><tspan y="674.79572" x="21.83526">displaying</tspan><tspan x="21.83526" y="724.79572">scores</tspan></text><text style="word-spacing:0px;letter-spacing:0px" x="296.83527" y="756.04572" font-size="40px" fill="#000000" font-family="sans-serif" line-height="125%" xml:space="preserve"><tspan y="756.04572" x="296.83527">DISPLAY_SCORES</tspan></text><text style="word-spacing:0px;letter-spacing:0px" x="390.58527" y="174.79565" font-size="40px" fill="#000000" font-family="sans-serif" line-height="125%" xml:space="preserve"><tspan y="174.79565" x="390.58527">warmup</tspan></text><text style="word-spacing:0px;letter-spacing:0px" x="739.02277" y="698.23322" font-size="40px" fill="#000000" font-family="sans-serif" line-height="125%" xml:space="preserve"><tspan y="698.23322" x="739.02277">playing</tspan></text><text style="word-spacing:0px;letter-spacing:0px" x="389.02277" y="-59.579334" font-size="40px" fill="#000000" font-family="sans-serif" line-height="125%" xml:space="preserve"><tspan y="-59.579334" x="389.02277">WARMUP</tspan></text><flowRoot style="word-spacing:0px;letter-spacing:0px" fill="black" font-family="sans-serif" line-height="125%" xml:space="preserve" font-size="40px"><flowRegion><rect width="110.94" x="1482.8" y="1011.4" height="148.44"/></flowRegion><flowPara/></flowRoot><text style="word-spacing:0px;letter-spacing:0px" x="1028.0852" y="895.10822" font-size="40px" fill="#000000" font-family="sans-serif" line-height="125%" xml:space="preserve"><tspan y="895.10822" x="1028.0852">WARMUP</tspan><tspan x="1028.0852" y="945.10822">SCORES</tspan></text><text style="word-spacing:0px;letter-spacing:0px" x="-357.85223" y="948.23322" font-size="40px" fill="#000000" font-family="sans-serif" line-height="125%" xml:space="preserve"><tspan y="948.23322" x="-357.85223">DISPLAY_SCORES</tspan></text><path d="m-103.16 881.05 111.66-85.38" fill="none" stroke="#000" marker-end="url(#a)"/><path d="m1014 851.36-70.86-54.38" marker-end="url(#c)" stroke-width="1px" fill="none" stroke="#000"/><path d="m468.71-48.642 1.3649 75.075" marker-end="url(#b)" stroke-width="1px" fill="none" stroke="#000"/></g></svg>
