<?xml version="1.0" encoding="UTF-8" standalone="no"?>
<svg id="svg2" width="80" xmlns="http://www.w3.org/2000/svg" version="1.1" height="80">
 <path id="path8" fill="#fff" d="m23.2 42.75-0.2-0.15-0.05-0.05c-0.7-0.8-1.017-1.633-0.95-2.5v-0.05c0-0.46667 0.1-0.93333 0.3-1.4v0.05c0.567-1.6 1.8-2.483 3.7-2.65h5.1v-12c0-0.5 0.18333-0.95 0.55-1.35 0.33333-0.43333 0.8-0.65 1.4-0.65h12.9c0.53333 0 1 0.2 1.4 0.6s0.6 0.86667 0.6 1.4l0.05 12h5c1.8 0.1 3.05 0.95 3.75 2.55l0.05 0.3c0.5 1.4667 0.2 2.7333-0.9 3.8h0.05l-13.8 14.15-0.15 0.2c-0.76667 0.66667-1.6 1-2.5 1-1 0-1.8667-0.4-2.6-1.2v0.05l-13.7-14.1m-9.4-28.9v-0.05c-7.2 7.267-10.8 16-10.8 26.2s3.6 18.917 10.8 26.15 15.933 10.85 26.2 10.85c10.2 0 18.917-3.617 26.15-10.85s10.85-15.95 10.85-26.15-3.617-18.917-10.85-26.15c-7.233-7.2333-15.95-10.85-26.15-10.85-10.267 0-19 3.6167-26.2 10.85m-2.15-2.15c7.8-7.8 17.25-11.7 28.35-11.7 11.033 1.3e-7 20.45 3.9 28.25 11.7 7.833 7.833 11.75 17.267 11.75 28.3s-3.917 20.45-11.75 28.25c-7.8 7.833-17.217 11.75-28.25 11.75-11.1 0-20.55-3.917-28.35-11.75-7.7667-7.8-11.65-17.217-11.65-28.25s3.8833-20.467 11.65-28.3"/>
</svg>
