<?xml version="1.0" encoding="UTF-8" standalone="no"?>
<svg
   xmlns:dc="http://purl.org/dc/elements/1.1/"
   xmlns:cc="http://creativecommons.org/ns#"
   xmlns:rdf="http://www.w3.org/1999/02/22-rdf-syntax-ns#"
   xmlns:svg="http://www.w3.org/2000/svg"
   xmlns="http://www.w3.org/2000/svg"
   xmlns:sodipodi="http://sodipodi.sourceforge.net/DTD/sodipodi-0.dtd"
   xmlns:inkscape="http://www.inkscape.org/namespaces/inkscape"
   version="1.1"
   id="Layer_1"
   x="0px"
   y="0px"
   width="100px"
   height="100px"
   viewBox="0 0 100 100"
   enable-background="new 0 0 100 100"
   xml:space="preserve"
   inkscape:version="0.91 r13725"
   sodipodi:docname="controlsJetpack.svg"><metadata
     id="metadata25"><rdf:RDF><cc:Work
         rdf:about=""><dc:format>image/svg+xml</dc:format><dc:type
           rdf:resource="http://purl.org/dc/dcmitype/StillImage" /><dc:title /></cc:Work></rdf:RDF></metadata><defs
     id="defs23" /><sodipodi:namedview
     pagecolor="#ff0000"
     bordercolor="#666666"
     borderopacity="1"
     objecttolerance="10"
     gridtolerance="10"
     guidetolerance="10"
     inkscape:pageopacity="0"
     inkscape:pageshadow="2"
     inkscape:window-width="1920"
     inkscape:window-height="1032"
     id="namedview21"
     showgrid="false"
     inkscape:zoom="4.0000001"
     inkscape:cx="-49.790026"
     inkscape:cy="51.915058"
     inkscape:window-x="0"
     inkscape:window-y="25"
     inkscape:window-maximized="1"
     inkscape:current-layer="Layer_1"
     inkscape:snap-grids="false"
     showguides="true"
     inkscape:guide-bbox="true"><sodipodi:guide
       position="24.75,28.5"
       orientation="0,1"
       id="guide4233" /><sodipodi:guide
       position="76,51.125"
       orientation="1,0"
       id="guide4235" /><sodipodi:guide
       position="96,80.75"
       orientation="1,0"
       id="guide4237" /><sodipodi:guide
       position="57.875,95.5"
       orientation="0,1"
       id="guide4239" /></sodipodi:namedview><g
     id="g4278"
     transform="matrix(1.2437503,0,0,1.2437503,-12.187524,-6.9014976)"><g
       transform="matrix(0.50682462,0,0,0.50682462,24.22534,22.241518)"
       id="g4247"
       style="fill:#ffffff;fill-opacity:1"><path
         d="m 31.407,81.678 15.662,0 c 0.34,-1.091 0.682,-2.236 1.021,-3.439 l -17.705,0 c 0.339,1.202 0.683,2.349 1.022,3.439 z"
         id="path3"
         inkscape:connector-curvature="0"
         style="fill:#ffffff;fill-opacity:1" /><path
         d="m 32.687,86.001 13.101,0 c 0.285,-0.913 0.57,-1.87 0.854,-2.877 l -14.81,0 c 0.285,1.007 0.572,1.965 0.855,2.877 z"
         id="path5"
         inkscape:connector-curvature="0"
         style="fill:#ffffff;fill-opacity:1" /><path
         d="m 49.074,38.207 0,-12.941 C 49.074,0.01225507 37.441867,-4.8190752 32.023688,26.202317 30.620086,34.676893 29.402,55.044 29.402,55.044 l -10.01,11.123 0,5.333 10.01,0 0,4.375 19.672,0 0,-16.915 z"
         id="path9"
         inkscape:connector-curvature="0"
         sodipodi:nodetypes="ccccccccccc"
         style="fill:#ffffff;fill-opacity:1" /><path
         d="m 54.646,81.678 15.662,0 c 0.339,-1.09 0.683,-2.236 1.021,-3.439 l -17.704,0 c 0.34,1.202 0.682,2.348 1.021,3.439 z"
         id="path11"
         inkscape:connector-curvature="0"
         style="fill:#ffffff;fill-opacity:1" /><path
         d="m 55.928,86.001 13.101,0 c 0.283,-0.912 0.57,-1.87 0.854,-2.877 l -14.811,0 c 0.285,1.007 0.571,1.964 0.856,2.877 z"
         id="path13"
         inkscape:connector-curvature="0"
         style="fill:#ffffff;fill-opacity:1" /><path
         d="m 52.642,38.207 0,-12.941 c 0,-25.2537446 11.632133,-30.0850748 17.050313,0.936317 1.4036,8.474576 2.62169,28.841683 2.62169,28.841683 l 10.01,11.123 0,5.333 -10.01,0 0,4.375 -19.672003,0 0,-16.915 z"
         id="path9-0"
         inkscape:connector-curvature="0"
         sodipodi:nodetypes="ccccccccccc"
         style="fill:#ffffff;fill-opacity:1" /><path
         style="fill:#ffffff;fill-opacity:1;fill-rule:evenodd"
         d="m 44.86664,66.219765 c 0,0 -3.995677,-38.646208 5.993516,-41.222623 9.989193,2.576415 5.993516,41.222623 5.993516,41.222623 z"
         id="path4231"
         inkscape:connector-curvature="0"
         sodipodi:nodetypes="cccc" /></g><ellipse
       ry="38.499912"
       rx="38.5"
       cy="45.75"
       cx="50"
       id="path4753"
       style="fill:none;fill-rule:evenodd;stroke:#ffffff;stroke-width:3;stroke-linecap:butt;stroke-linejoin:miter;stroke-miterlimit:4;stroke-dasharray:none;stroke-opacity:1" /></g></svg>