<?xml version="1.0" encoding="UTF-8" standalone="no"?>
<svg
   xmlns:svg="http://www.w3.org/2000/svg"
   xmlns="http://www.w3.org/2000/svg"
   xmlns:sodipodi="http://sodipodi.sourceforge.net/DTD/sodipodi-0.dtd"
   xmlns:inkscape="http://www.inkscape.org/namespaces/inkscape"
   id="svg2"
   version="1.1"
   inkscape:version="0.91 r13725"
   sodipodi:docname="jump.svg"
   width="80"
   height="80">
  <sodipodi:namedview
     pagecolor="#000000"
     bordercolor="#666666"
     borderopacity="1"
     objecttolerance="10"
     gridtolerance="10"
     guidetolerance="10"
     inkscape:pageopacity="0"
     inkscape:pageshadow="2"
     inkscape:window-width="1920"
     inkscape:window-height="1032"
     id="namedview868"
     showgrid="false"
     inkscape:zoom="2.36"
     inkscape:cx="110.09817"
     inkscape:cy="0.89840197"
     inkscape:window-x="0"
     inkscape:window-y="25"
     inkscape:window-maximized="1"
     inkscape:current-layer="svg2"
     fit-margin-top="0"
     fit-margin-left="0"
     fit-margin-right="0"
     fit-margin-bottom="0" />
  <defs
     id="defs4" />
  <g
     id="g4137"
     transform="matrix(0.70178413,0,0,0.70178413,12.122346,13.61173)">
    <g
       transform="translate(-8.8431623,14.456823)"
       id="g5464">
      <path
         style="fill:#ffffff;fill-opacity:1;stroke:none"
         inkscape:connector-curvature="0"
         id="path488"
         d="m 32.44317,23.293177 0.3,-0.4 q 6.85,-6.85 16.6,-6.85 9.55,0 16.4,6.6 l 0.25,0.25 q 6.85,6.85 6.85,16.6 0,9.4 -6.25,16.1 l -0.05,0.05 -0.3,0.3 -0.05,0.05 0.05,-0.1 -0.25,0.25 -0.1,0.1 0.1,-0.05 q -6.95,6.85 -16.65,6.85 -9.75,0 -16.6,-6.85 l -0.65,-0.7 q -6.25,-6.65 -6.25,-16 0,-9.5 6.6,-16.2 m 2.45,1.75 q -6.05,5.95 -6.05,14.45 0,8.15 5.45,13.95 l 0.6,0.65 q 5.95,5.95 14.45,5.95 8.5,0 14.5,-5.95 l 0.25,-0.25 0.3,-0.3 q 5.45,-5.85 5.45,-14.05 0,-8.5 -5.95,-14.45 l -0.05,0 q -6,-6 -14.5,-6 -8.5,0 -14.45,6" />
      <path
         style="fill:#ffffff;fill-opacity:1;stroke:none"
         inkscape:connector-curvature="0"
         id="path494"
         d="m 60.79317,37.993177 q 0,1.6 -1.2,2.7 -1.15,1.2 -2.7,1.2 -1.7,0 -2.9,-1.2 -1.1,-1.1 -1.1,-2.7 0,-1.6 1.1,-2.8 1.2,-1.15 2.9,-1.15 1.55,0 2.7,1.15 1.2,1.2 1.2,2.8 m -20.85,-2.8 q 1.2,-1.15 2.85,-1.15 1.6,0 2.75,1.15 1.2,1.2 1.2,2.8 0,1.6 -1.2,2.7 -1.15,1.2 -2.75,1.2 -1.65,0 -2.85,-1.2 -1.1,-1.1 -1.1,-2.7 0,-1.6 1.1,-2.8 m 5.5,8.55 0.35,0.45 q 0.25,0.7 0.95,1.3 1.25,0.95 3.05,0.95 1.75,0 3.05,-0.95 0.7,-0.6 1,-1.35 l 0.4,-0.45 q 0.35,-0.15 0.65,0 l 0.45,0.4 0,0.65 q -0.45,1.1 -1.55,1.95 -1.65,1.35 -4,1.35 -2.4,0 -4.05,-1.35 -1.2,-0.85 -1.5,-2 -0.1,-0.35 0.1,-0.6 0.1,-0.35 0.4,-0.4 l 0.7,0.05" />
    </g>
    <path
       inkscape:transform-center-y="-1.4830508"
       inkscape:transform-center-x="-8.4745763"
       style="fill:#ffffff;stroke:none"
       inkscape:connector-curvature="0"
       id="path8"
       d="m 46.062719,10.642863 -0.114145,0.08571 -0.02854,0.02857 c -0.399509,0.457143 -0.580241,0.933332 -0.54219,1.428572 l 0,0.02857 c 0,0.266669 0.05707,0.533332 0.171218,0.8 l 0,-0.02857 C 45.872475,13.9 46.576369,14.40476 47.660749,14.5 l 2.910702,0 0,6.857142 c 0,0.285715 0.104631,0.542858 0.313899,0.771429 C 51.075591,22.376188 51.341931,22.5 51.684367,22.5 l 7.362368,0 c 0.304386,0 0.570726,-0.114286 0.799017,-0.342858 0.228291,-0.228571 0.342436,-0.49524 0.342436,-0.8 L 60.216728,14.5 l 2.853631,0 c 1.027307,-0.05714 1.740715,-0.542857 2.140223,-1.457142 l 0.02854,-0.171429 c 0.285362,-0.838097 0.114145,-1.561903 -0.513654,-2.171428 l 0.02854,0 -7.876022,-8.0857145 -0.08561,-0.114285 c -0.437559,-0.380955 -0.913162,-0.571429 -1.426815,-0.571429 -0.570726,0 -1.065358,0.228571 -1.483889,0.685714 l 0,-0.02857 -7.818948,8.0571425"
       sodipodi:nodetypes="ccccsccccscssscccccccccsccc" />
    <path
       sodipodi:nodetypes="ccccsccccscssscccccccccsccc"
       d="m 16.189838,10.642863 -0.114145,0.08571 -0.02854,0.02857 c -0.399509,0.457143 -0.580241,0.933332 -0.54219,1.428572 l 0,0.02857 c 0,0.266669 0.05707,0.533332 0.171218,0.8 l 0,-0.02857 C 15.999594,13.9 16.703488,14.40476 17.787868,14.5 l 2.910702,0 0,6.857142 c 0,0.285715 0.104631,0.542858 0.313899,0.771429 C 21.20271,22.376188 21.46905,22.5 21.811486,22.5 l 7.362368,0 c 0.304386,0 0.570726,-0.114286 0.799017,-0.342858 0.228291,-0.228571 0.342436,-0.49524 0.342436,-0.8 L 30.343847,14.5 l 2.853631,0 c 1.027307,-0.05714 1.740715,-0.542857 2.140223,-1.457142 l 0.02854,-0.171429 c 0.285362,-0.838097 0.114145,-1.561903 -0.513654,-2.171428 l 0.02854,0 -7.876022,-8.0857145 -0.08561,-0.114285 c -0.437559,-0.380955 -0.913162,-0.571429 -1.426815,-0.571429 -0.570726,0 -1.065358,0.228571 -1.483889,0.685714 l 0,-0.02857 -7.818948,8.0571425"
       id="path5517"
       inkscape:connector-curvature="0"
       style="fill:#ffffff;stroke:none"
       inkscape:transform-center-x="-8.4745763"
       inkscape:transform-center-y="-1.4830508" />
  </g>
  <circle
     style="fill:none;stroke:#ffffff;stroke-width:3;stroke-miterlimit:4;stroke-dasharray:none;stroke-opacity:1"
     id="path4144"
     cx="40"
     cy="40"
     r="38.5" />
</svg>
