<?xml version="1.0" encoding="UTF-8" standalone="no"?>
<svg id="svg2" width="48" xmlns="http://www.w3.org/2000/svg" version="1.1" height="48">
 <path id="path8" fill="#fff" d="m42.85 0c3.433 0 5.15 1.7333 5.15 5.2v37.85c-0.067 3.3-1.783 4.95-5.15 4.95h-37.65c-3.4 0-5.1333-1.65-5.2-4.95v-37.85c0-3.4667 1.7333-5.2 5.2-5.2h37.65m-11.65 18c0.93333 0.3 1.8167 0.86667 2.65 1.7 1.4667 1.4333 2.2 3.2 2.2 5.3 0 2.0667-0.73333 3.8167-2.2 5.25-0.83333 0.8-1.7167 1.3833-2.65 1.75l-1.15-3.15c0.56667-0.13333 1.0667-0.41667 1.5-0.85 0.83333-0.86667 1.25-1.8667 1.25-3 0-1.1667-0.41667-2.1667-1.25-3-0.43333-0.46667-0.93333-0.75-1.5-0.85l1.15-3.15m-4.85-5h1.4v8.95l0.3 0.25c0.63333 0.63333 0.95 1.4 0.95 2.3 0 0.86667-0.31667 1.6-0.95 2.2l-0.3 0.35v8.95h-1.4l-9.55-8.8c-0.46667 0.33333-1.0167 0.5-1.65 0.5-0.86667 0-1.6167-0.33333-2.25-1-0.6-0.6-0.9-1.3333-0.9-2.2 0-0.9 0.3-1.6667 0.9-2.3 0.63333-0.6 1.3833-0.9 2.25-0.9 0.63333 0 1.2 0.15 1.7 0.45l9.5-8.75m18.65-7.8c0-1.4667-0.717-2.2-2.15-2.2h-37.65c-1.4667 0-2.2 0.7333-2.2 2.2v37.85c0.0667 1.3 0.8 1.95 2.2 1.95h37.65c1.4 0 2.1167-0.66667 2.15-2v-37.8"/>
</svg>
