<?xml version="1.0" encoding="UTF-8" standalone="no"?>
<svg
   xmlns:svg="http://www.w3.org/2000/svg"
   xmlns="http://www.w3.org/2000/svg"
   xmlns:sodipodi="http://sodipodi.sourceforge.net/DTD/sodipodi-0.dtd"
   xmlns:inkscape="http://www.inkscape.org/namespaces/inkscape"
   id="svg2"
   version="1.1"
   inkscape:version="0.91 r13725"
   sodipodi:docname="unmute.svg"
   height="48"
   width="48">
  <sodipodi:namedview
     pagecolor="#000000"
     bordercolor="#666666"
     borderopacity="1"
     objecttolerance="10"
     gridtolerance="10"
     guidetolerance="10"
     inkscape:pageopacity="0"
     inkscape:pageshadow="2"
     inkscape:window-width="1920"
     inkscape:window-height="1032"
     id="namedview14"
     showgrid="false"
     showguides="true"
     inkscape:guide-bbox="true"
     inkscape:zoom="6.675088"
     inkscape:cx="46.24778"
     inkscape:cy="38.358421"
     inkscape:window-x="0"
     inkscape:window-y="25"
     inkscape:window-maximized="1"
     inkscape:current-layer="svg2" />
  <defs
     id="defs4" />
  <path
     style="fill:#ffffff;stroke:none"
     inkscape:connector-curvature="0"
     id="path8"
     d="M 42.85,0 C 46.283333,0 48,1.73333 48,5.2 l 0,37.85 C 47.93333,46.35 46.216667,48 42.85,48 L 5.2,48 C 1.8,48 0.066667,46.35 0,43.05 L 0,5.2 C 0,1.73333 1.733333,0 5.2,0 L 42.85,0 M 31.2,18 c 0.933333,0.3 1.816667,0.86667 2.65,1.7 1.466667,1.43333 2.2,3.2 2.2,5.3 0,2.06667 -0.733333,3.81667 -2.2,5.25 -0.833333,0.8 -1.716667,1.38333 -2.65,1.75 l -1.15,-3.15 c 0.566667,-0.13333 1.066667,-0.41667 1.5,-0.85 0.833333,-0.86667 1.25,-1.86667 1.25,-3 0,-1.16667 -0.416667,-2.16667 -1.25,-3 -0.433333,-0.46667 -0.933333,-0.75 -1.5,-0.85 L 31.2,18 m -4.85,-5 1.4,0 0,8.95 0.3,0.25 c 0.633333,0.63333 0.95,1.4 0.95,2.3 0,0.86667 -0.316667,1.6 -0.95,2.2 l -0.3,0.35 0,8.95 -1.4,0 -9.55,-8.8 c -0.466667,0.33333 -1.016667,0.5 -1.65,0.5 -0.866667,0 -1.616667,-0.33333 -2.25,-1 -0.6,-0.6 -0.9,-1.33333 -0.9,-2.2 0,-0.9 0.3,-1.66667 0.9,-2.3 0.633333,-0.6 1.383333,-0.9 2.25,-0.9 0.633333,0 1.2,0.15 1.7,0.45 L 26.35,13 M 45,5.2 C 45,3.73333 44.283333,3 42.85,3 L 5.2,3 C 3.733333,3 3,3.73333 3,5.2 L 3,43.05 C 3.06667,44.35 3.8,45 5.2,45 l 37.65,0 c 1.4,0 2.116667,-0.66667 2.15,-2 L 45,5.2"
     sodipodi:nodetypes="cscsscsscccsccccscccccccscccccscscscccssscsscc" />
</svg>
