<?xml version="1.0" encoding="UTF-8" standalone="no"?>
<svg xmlns:rdf="http://www.w3.org/1999/02/22-rdf-syntax-ns#" xmlns="http://www.w3.org/2000/svg" height="80" width="80" version="1.1" xmlns:cc="http://creativecommons.org/ns#" xmlns:dc="http://purl.org/dc/elements/1.1/">
	<circle stroke-width="3" cy="40" stroke="#fff" cx="40" r="38.5" fill="none"/>
	<g transform="matrix(.80445 0 0 .80445 7.1768 7.4428)" fill="#fff">
		<rect fill-rule="evenodd" transform="matrix(1 -.0015938 .0016645 1 0 0)" height="13.309" width="9.7489" y="37.255" x="36.021"/>
		<rect y="31.917" width="15.109" x="45.842" height="24.705"/>
		<rect y="27.856" width="15.12" x="21.031" ry="2.7705" height="32.19"/>
		<path d="m21.047 30.027a7.5465 14.285 0 0 1 7.547 -14.285 7.5465 14.285 0 0 1 7.546 14.285"/>
		<rect y="57.25" width="10.312" x="23.5" ry="3.205" height="6.6875"/>
		<rect y="27.976" width="15.12" x="45.827" ry="2.7705" height="32.19"/>
		<path d="m45.843 30.147a7.5465 14.285 0 0 1 7.547 -14.285 7.5465 14.285 0 0 1 7.546 14.285"/>
		<rect y="57.37" width="10.312" x="48.295" ry="3.205" height="6.6875"/>
	</g>
</svg>
