<?xml version="1.0" encoding="UTF-8" standalone="no"?>
<svg xmlns="http://www.w3.org/2000/svg" version="1.1" width="80" height="80"><circle r="38.5" cx="40" stroke="#fff" stroke-width="3" cy="40" fill="none"/><g fill="#fff" transform="matrix(.80445 0 0 .80445 7.1768 7.4428)"><rect y="37.255" width="9.7489" x="36.021" height="13.309" fill-rule="evenodd" transform="matrix(1 -.0015938 .0016645 1 0 0)"/><rect y="31.917" width="15.109" x="45.842" height="24.705"/><rect ry="2.7705" y="27.856" width="15.12" x="21.031" height="32.19"/><path d="m21.047 30.027a7.5465 14.285 0 0 1 7.547 -14.285 7.5465 14.285 0 0 1 7.546 14.285"/><rect ry="3.205" y="57.25" width="10.312" x="23.5" height="6.6875"/><rect ry="2.7705" y="27.976" width="15.12" x="45.827" height="32.19"/><path d="m45.843 30.147a7.5465 14.285 0 0 1 7.547 -14.285 7.5465 14.285 0 0 1 7.546 14.285"/><rect ry="3.205" y="57.37" width="10.312" x="48.295" height="6.6875"/></g></svg>
