<?xml version="1.0" encoding="UTF-8" standalone="no"?>
<svg xmlns:rdf="http://www.w3.org/1999/02/22-rdf-syntax-ns#" xmlns="http://www.w3.org/2000/svg" height="80" width="80" version="1.1" xmlns:cc="http://creativecommons.org/ns#" xmlns:dc="http://purl.org/dc/elements/1.1/">
	<circle r="38.5" stroke="#fff" cy="40" cx="40" stroke-width="3" fill="none"/>
	<g transform="matrix(.80445 0 0 .80445 7.1768 7.4428)" fill="#fff">
		<rect fill-rule="evenodd" transform="matrix(1 -.0015938 .0016645 1 0 0)" height="13.309" width="9.7489" y="37.255" x="36.021"/>
		<rect y="31.917" width="15.109" height="24.705" x="45.842"/>
		<rect ry="2.7705" height="32.19" width="15.12" y="27.856" x="21.031"/>
		<path d="m21.047 30.027a7.5465 14.285 0 0 1 7.547 -14.285 7.5465 14.285 0 0 1 7.546 14.285"/>
		<rect ry="3.205" height="6.6875" width="10.312" y="57.25" x="23.5"/>
		<rect ry="2.7705" height="32.19" width="15.12" y="27.976" x="45.827"/>
		<path d="m45.843 30.147a7.5465 14.285 0 0 1 7.547 -14.285 7.5465 14.285 0 0 1 7.546 14.285"/>
		<rect ry="3.205" height="6.6875" width="10.312" y="57.37" x="48.295"/>
	</g>
</svg>
