<?xml version="1.0" encoding="UTF-8" standalone="no"?>
<svg id="Layer_1" xmlns="http://www.w3.org/2000/svg" xml:space="preserve" width="80" version="1.1" y="0" x="0" height="80" viewBox="0 0 100 100" enable-background="new 0 0 100 100">
<g id="g4247" transform="matrix(.63036 0 0 .63036 17.943 20.761)" fill="#fff">
<path id="path3" d="m31.407 81.678h15.662c0.34-1.091 0.682-2.236 1.021-3.439h-17.705c0.339 1.202 0.683 2.349 1.022 3.439z"/>
<path id="path5" d="m32.687 86.001h13.101c0.285-0.913 0.57-1.87 0.854-2.877h-14.81c0.285 1.007 0.572 1.965 0.855 2.877z"/><path id="path9" d="m49.074 38.207v-12.941c0-25.254-11.632-30.085-17.05 0.936-1.404 8.475-2.622 28.842-2.622 28.842l-10.01 11.123v5.333h10.01v4.375h19.672v-16.915z"/>
<path id="path11" d="m54.646 81.678h15.662c0.339-1.09 0.683-2.236 1.021-3.439h-17.704c0.34 1.202 0.682 2.348 1.021 3.439z"/>
<path id="path13" d="m55.928 86.001h13.101c0.283-0.912 0.57-1.87 0.854-2.877h-14.811c0.285 1.007 0.571 1.964 0.856 2.877z"/>
<path id="path9-0" d="m52.642 38.207v-12.941c0-25.254 11.632-30.085 17.05 0.93632 1.4036 8.4746 2.6217 28.842 2.6217 28.842l10.01 11.123v5.333h-10.01v4.375h-19.672v-16.915z"/>
<path id="path4231" fill-rule="evenodd" d="m44.867 66.22s-3.9957-38.646 5.9935-41.223c9.9892 2.5764 5.9935 41.223 5.9935 41.223z"/>
</g>
<circle id="path4753" stroke-width="3.7313" cy="50" stroke="#fff" cx="50" r="47.884" fill="none"/>
</svg>
