<?xml version="1.0" encoding="UTF-8" standalone="no"?>
<svg width="80" xmlns="http://www.w3.org/2000/svg" height="80" version="1.1"><g fill="#fff" transform="matrix(.70178 0 0 .70178 12.122 13.612)"><g transform="translate(-8.8432 14.457)"><path d="m32.443 23.293.3-.4q6.85-6.85 16.6-6.85 9.55 0 16.4 6.6l.25.25q6.85 6.85 6.85 16.6 0 9.4-6.25 16.1l-.05.05-.3.3-.05.05.05-.1-.25.25-.1.1.1-.05q-6.95 6.85-16.65 6.85-9.75 0-16.6-6.85l-.65-.7q-6.25-6.65-6.25-16 0-9.5 6.6-16.2m2.45 1.75q-6.05 5.95-6.05 14.45 0 8.15 5.45 13.95l.6.65q5.95 5.95 14.45 5.95t14.5-5.95l.25-.25.3-.3q5.45-5.85 5.45-14.05 0-8.5-5.95-14.45h-.05q-6-6-14.5-6t-14.45 6"/><path d="m60.793 37.993q0 1.6-1.2 2.7-1.15 1.2-2.7 1.2-1.7 0-2.9-1.2-1.1-1.1-1.1-2.7t1.1-2.8q1.2-1.15 2.9-1.15 1.55 0 2.7 1.15 1.2 1.2 1.2 2.8m-20.85-2.8q1.2-1.15 2.85-1.15 1.6 0 2.75 1.15 1.2 1.2 1.2 2.8t-1.2 2.7q-1.15 1.2-2.75 1.2-1.65 0-2.85-1.2-1.1-1.1-1.1-2.7t1.1-2.8m5.5 8.55.35.45q.25.7.95 1.3 1.25.95 3.05.95 1.75 0 3.05-.95.7-.6 1-1.35l.4-.45q.35-.15.65 0l.45.4v.65q-.45 1.1-1.55 1.95-1.65 1.35-4 1.35-2.4 0-4.05-1.35-1.2-.85-1.5-2-.1-.35.1-.6.1-.35.4-.4l.7.05"/></g><path d="m46.063 10.643-.11414.08571-.02854.02857c-.39951.45714-.58024.93333-.54219 1.4286v.02857c0 .26667.05707.53333.17122.8v-.02857c.323.913 1.027 1.418 2.112 1.513h2.9107v6.8571c0 .28572.10463.54286.3139.77143.19.248.456.372.798.372h7.3624c.30439 0 .57073-.11429.79902-.34286s.34244-.49524.34244-.8l.029-6.857h2.8536c1.0273-.05714 1.7407-.54286 2.1402-1.4571l.02854-.17143c.28536-.8381.11414-1.5619-.51365-2.1714h.02854l-7.876-8.0857-.08561-.11428c-.43756-.38096-.91316-.57143-1.4268-.57143-.57073 0-1.0654.22857-1.4839.68571v-.02857l-7.8189 8.0571"/><path d="m16.19 10.643-.11414.08571-.02854.02857c-.39951.45714-.58024.93333-.54219 1.4286v.02857c0 .26667.05707.53333.17122.8v-.02857c.324.913 1.027 1.418 2.112 1.513h2.9107v6.8571c0 .28572.10463.54286.3139.77143.19.248.456.372.798.372h7.3624c.30439 0 .57073-.11429.79902-.34286s.34244-.49524.34244-.8l.03-6.857h2.8536c1.0273-.05714 1.7407-.54286 2.1402-1.4571l.02854-.17143c.28536-.8381.11414-1.5619-.51365-2.1714h.02854l-7.876-8.0857-.08561-.11428c-.43756-.38096-.91316-.57143-1.4268-.57143-.57073 0-1.0654.22857-1.4839.68571v-.02857l-7.8189 8.0571"/></g><circle cy="40" fill="none" stroke-width="3" cx="40" r="38.5" stroke="#fff"/></svg>
