<?xml version="1.0" encoding="UTF-8" standalone="no"?>
<svg id="svg2" width="80" xmlns="http://www.w3.org/2000/svg" version="1.1" height="80">
 <g id="g4137" transform="matrix(.70178 0 0 .70178 12.122 13.612)" fill="#fff">
  <g id="g5464" transform="translate(-8.8432 14.457)">
   <path id="path488" d="m32.443 23.293 0.3-0.4q6.85-6.85 16.6-6.85 9.55 0 16.4 6.6l0.25 0.25q6.85 6.85 6.85 16.6 0 9.4-6.25 16.1l-0.05 0.05-0.3 0.3-0.05 0.05 0.05-0.1-0.25 0.25-0.1 0.1 0.1-0.05q-6.95 6.85-16.65 6.85-9.75 0-16.6-6.85l-0.65-0.7q-6.25-6.65-6.25-16 0-9.5 6.6-16.2m2.45 1.75q-6.05 5.95-6.05 14.45 0 8.15 5.45 13.95l0.6 0.65q5.95 5.95 14.45 5.95t14.5-5.95l0.25-0.25 0.3-0.3q5.45-5.85 5.45-14.05 0-8.5-5.95-14.45h-0.05q-6-6-14.5-6t-14.45 6"/>
   <path id="path494" d="m60.793 37.993q0 1.6-1.2 2.7-1.15 1.2-2.7 1.2-1.7 0-2.9-1.2-1.1-1.1-1.1-2.7t1.1-2.8q1.2-1.15 2.9-1.15 1.55 0 2.7 1.15 1.2 1.2 1.2 2.8m-20.85-2.8q1.2-1.15 2.85-1.15 1.6 0 2.75 1.15 1.2 1.2 1.2 2.8t-1.2 2.7q-1.15 1.2-2.75 1.2-1.65 0-2.85-1.2-1.1-1.1-1.1-2.7t1.1-2.8m5.5 8.55 0.35 0.45q0.25 0.7 0.95 1.3 1.25 0.95 3.05 0.95 1.75 0 3.05-0.95 0.7-0.6 1-1.35l0.4-0.45q0.35-0.15 0.65 0l0.45 0.4v0.65q-0.45 1.1-1.55 1.95-1.65 1.35-4 1.35-2.4 0-4.05-1.35-1.2-0.85-1.5-2-0.1-0.35 0.1-0.6 0.1-0.35 0.4-0.4l0.7 0.05"/>
  </g>
  <path id="path8" d="m46.063 10.643-0.11414 0.08571-0.02854 0.02857c-0.39951 0.45714-0.58024 0.93333-0.54219 1.4286v0.02857c0 0.26667 0.05707 0.53333 0.17122 0.8v-0.02857c0.323 0.913 1.027 1.418 2.112 1.513h2.9107v6.8571c0 0.28572 0.10463 0.54286 0.3139 0.77143 0.19 0.248 0.456 0.372 0.798 0.372h7.3624c0.30439 0 0.57073-0.11429 0.79902-0.34286s0.34244-0.49524 0.34244-0.8l0.029-6.857h2.8536c1.0273-0.05714 1.7407-0.54286 2.1402-1.4571l0.02854-0.17143c0.28536-0.8381 0.11414-1.5619-0.51365-2.1714h0.02854l-7.876-8.0857-0.08561-0.11428c-0.43756-0.38096-0.91316-0.57143-1.4268-0.57143-0.57073 0-1.0654 0.22857-1.4839 0.68571v-0.02857l-7.8189 8.0571"/>
  <path id="path5517" d="m16.19 10.643-0.11414 0.08571-0.02854 0.02857c-0.39951 0.45714-0.58024 0.93333-0.54219 1.4286v0.02857c0 0.26667 0.05707 0.53333 0.17122 0.8v-0.02857c0.324 0.913 1.027 1.418 2.112 1.513h2.9107v6.8571c0 0.28572 0.10463 0.54286 0.3139 0.77143 0.19 0.248 0.456 0.372 0.798 0.372h7.3624c0.30439 0 0.57073-0.11429 0.79902-0.34286s0.34244-0.49524 0.34244-0.8l0.03-6.857h2.8536c1.0273-0.05714 1.7407-0.54286 2.1402-1.4571l0.02854-0.17143c0.28536-0.8381 0.11414-1.5619-0.51365-2.1714h0.02854l-7.876-8.0857-0.08561-0.11428c-0.43756-0.38096-0.91316-0.57143-1.4268-0.57143-0.57073 0-1.0654 0.22857-1.4839 0.68571v-0.02857l-7.8189 8.0571"/>
 </g>
 <circle id="path4144" cx="40" cy="40" stroke="#fff" r="38.5" stroke-width="3" fill="none"/>
</svg>
