<?xml version="1.0" encoding="UTF-8" standalone="no"?>
<svg version="1.1" xmlns="http://www.w3.org/2000/svg" width="80" height="80"><path d="m13.8 13.723v-.05c-7.2 7.2667-10.8 16-10.8 26.2s3.6 18.917 10.8 26.15c7.2 7.2333 15.933 10.85 26.2 10.85 10.2 0 18.917-3.6167 26.15-10.85 7.2333-7.2333 10.85-15.95 10.85-26.15s-3.6167-18.917-10.85-26.15c-7.233-7.2334-15.95-10.85-26.15-10.85-10.267 0-19 3.6167-26.2 10.85m-2.15-2.15c7.8-7.8001 17.25-11.7 28.35-11.7 11.033 0 20.45 3.9 28.25 11.7 7.8333 7.8333 11.75 17.267 11.75 28.3s-3.9167 20.45-11.75 28.25c-7.8 7.8333-17.217 11.75-28.25 11.75-11.1 0-20.55-3.9167-28.35-11.75-7.7667-7.8-11.65-17.217-11.65-28.25s3.8833-20.467 11.65-28.3m25.6 12.5.15-.2.05-.05c.8-.7 1.6333-1.0167 2.5-.95h.05l1.4.3h-.05c1.6.56667 2.4833 1.8 2.65 3.7v5.1h12c.5 0 .95.18333 1.35.55.43333.33333.65.8.65 1.4v12.9c0 .53333-.2 1-.6 1.4s-.86667.6-1.4.6l-12 .05v5c-.1 1.8-.95 3.05-2.55 3.75l-.3.05c-1.4667.5-2.7333.2-3.8-.9v.05l-14.15-13.8-.2-.15c-.66667-.76667-1-1.6-1-2.5 0-1 .4-1.8667 1.2-2.6h-.05l14.1-13.7" fill="#fff"/></svg>
