<?xml version="1.0" encoding="UTF-8" standalone="no"?>
<svg width="80" xmlns="http://www.w3.org/2000/svg" version="1.1" height="80">
	<path d="m13.8 13.723v-0.05c-7.2 7.2667-10.8 16-10.8 26.2s3.6 18.917 10.8 26.15c7.2 7.2333 15.933 10.85 26.2 10.85 10.2 0 18.917-3.6167 26.15-10.85 7.2333-7.2333 10.85-15.95 10.85-26.15s-3.6167-18.917-10.85-26.15c-7.233-7.2334-15.95-10.85-26.15-10.85-10.267 0-19 3.6167-26.2 10.85m-2.15-2.15c7.8-7.8001 17.25-11.7 28.35-11.7 11.033 0 20.45 3.9 28.25 11.7 7.8333 7.8333 11.75 17.267 11.75 28.3s-3.9167 20.45-11.75 28.25c-7.8 7.8333-17.217 11.75-28.25 11.75-11.1 0-20.55-3.9167-28.35-11.75-7.7667-7.8-11.65-17.217-11.65-28.25s3.8833-20.467 11.65-28.3m25.6 12.5 0.15-0.2 0.05-0.05c0.8-0.7 1.6333-1.0167 2.5-0.95h0.05l1.4 0.3h-0.05c1.6 0.56667 2.4833 1.8 2.65 3.7v5.1h12c0.5 0 0.95 0.18333 1.35 0.55 0.43333 0.33333 0.65 0.8 0.65 1.4v12.9c0 0.53333-0.2 1-0.6 1.4s-0.86667 0.6-1.4 0.6l-12 0.05v5c-0.1 1.8-0.95 3.05-2.55 3.75l-0.3 0.05c-1.4667 0.5-2.7333 0.2-3.8-0.9v0.05l-14.15-13.8-0.2-0.15c-0.66667-0.76667-1-1.6-1-2.5 0-1 0.4-1.8667 1.2-2.6h-0.05l14.1-13.7" fill="#fff"/>
</svg>
